<?xml version="1.0" encoding="iso-8859-1"?>
<!-- Generator: Adobe Illustrator 22.0.0, SVG Export Plug-In . SVG Version: 6.00 Build 0)  -->
<svg version="1.1" id="Capa_1" xmlns="http://www.w3.org/2000/svg" xmlns:xlink="http://www.w3.org/1999/xlink" x="0px" y="0px"
	 viewBox="0 0 512 512" style="enable-background:new 0 0 512 512;" xml:space="preserve">
<g>
	<path style="fill:#FFD97D;" d="M256,88L256,88c-26.69,0-52.393,1.686-76.483,4.807C79.978,105.702,46,143.089,46,187.2V200
		c0,4.418,3.582,8,8,8h442c4.418,0,8-3.582,8-8v-12.8C504,132.413,392.967,88,256,88z"/>
	<path style="fill:#FFC269;" d="M168,200c-13.255,0-24-10.745-24-24v-32c0-18.722,12.981-36.253,35.518-51.194
		C79.99,105.704,8,143.092,8,187.2V208c0,4.418,3.582,8,8,8h16l13,13.5h420.5L480,216h16c4.418,0,8-3.582,8-8v-8H168z"/>
	<path style="fill:#F9EAC7;" d="M120,160c-2.047,0-4.094-0.781-5.656-2.344c-3.125-3.125-3.125-8.188,0-11.313l8-8
		c3.125-3.125,8.188-3.125,11.313,0s3.125,8.188,0,11.313l-8,8C124.094,159.219,122.047,160,120,160z"/>
	<path style="fill:#ECBD83;" d="M224,144c-2.047,0-4.094-0.781-5.656-2.344l-8-8c-3.125-3.125-3.125-8.188,0-11.313
		s8.188-3.125,11.313,0l8,8c3.125,3.125,3.125,8.188,0,11.313C228.094,143.219,226.047,144,224,144z"/>
	<path style="fill:#ECBD83;" d="M336,184c-2.047,0-4.094-0.781-5.656-2.344l-8-8c-3.125-3.125-3.125-8.188,0-11.313
		s8.188-3.125,11.313,0l8,8c3.125,3.125,3.125,8.188,0,11.313C340.094,183.219,338.047,184,336,184z"/>
	<path style="fill:#F9EAC7;" d="M384,168c-2.047,0-4.094-0.781-5.656-2.344c-3.125-3.125-3.125-8.188,0-11.313l8-8
		c3.125-3.125,8.188-3.125,11.313,0s3.125,8.188,0,11.313l-8,8C388.094,167.219,386.047,168,384,168z"/>
	<path style="fill:#F9EAC7;" d="M304,144c-4.422,0-8-3.582-8-8v-8c0-4.418,3.578-8,8-8s8,3.582,8,8v8
		C312,140.418,308.422,144,304,144z"/>
	<path style="fill:#ECBD83;" d="M184,184h-8c-4.422,0-8-3.582-8-8s3.578-8,8-8h8c4.422,0,8,3.582,8,8S188.422,184,184,184z"/>
	<path style="fill:#F9EAC7;" d="M256,184c-2.047,0-4.094-0.781-5.656-2.344c-3.125-3.125-3.125-8.188,0-11.313l8-8
		c3.125-3.125,8.188-3.125,11.313,0s3.125,8.188,0,11.313l-8,8C260.094,183.219,258.047,184,256,184z"/>
	<path style="fill:#ECBD83;" d="M432,184h-8c-4.422,0-8-3.582-8-8s3.578-8,8-8h8c4.422,0,8,3.582,8,8S436.422,184,432,184z"/>
	<path style="fill:#FFD97D;" d="M80,184c-2.047,0-4.094-0.781-5.656-2.344l-8-8c-3.125-3.125-3.125-8.188,0-11.313
		s8.188-3.125,11.313,0l8,8c3.125,3.125,3.125,8.188,0,11.313C84.094,183.219,82.047,184,80,184z"/>
	<path style="fill:#F9EAC7;" d="M168.078,144c-4.422,0-8.039-3.582-8.039-8s3.539-8,7.961-8h0.078c4.422,0,8,3.582,8,8
		S172.5,144,168.078,144z"/>
	<path style="fill:#ECBD83;" d="M352,144c-4.422,0-8.039-3.582-8.039-8s3.539-8,7.961-8H352c4.422,0,8,3.582,8,8
		S356.422,144,352,144z"/>
	<path style="fill:#F9EAC7;" d="M264.078,128c-4.422,0-8.039-3.582-8.039-8s3.539-8,7.961-8h0.078c4.422,0,8,3.582,8,8
		S268.5,128,264.078,128z"/>
	<polygon style="fill:#95D6A4;" points="445,288 70.333,288 40,264 40,240 472,240 472,264.333 	"/>
	<path style="fill:#78C2A4;" d="M90.624,288h165.319c-41.337,0-41.337-32-82.674-32C131.946,256,131.946,288,90.624,288z"/>
	<path style="fill:#78C2A4;" d="M255.943,288h165.353c-41.352,0-41.352-32-82.705-32C297.267,256,297.267,288,255.943,288z"/>
	<path style="fill:#DB4655;" d="M176,248H32c-4.418,0-8-3.582-8-8v-16c0-4.418,3.582-8,8-8h144c4.418,0,8,3.582,8,8v16
		C184,244.418,180.418,248,176,248z"/>
	<path style="fill:#FF8086;" d="M480,248H336c-4.418,0-8-3.582-8-8v-16c0-4.418,3.582-8,8-8h144c4.418,0,8,3.582,8,8v16
		C488,244.418,484.418,248,480,248z"/>
	<path style="fill:#E5646E;" d="M336,248H176c-4.418,0-8-3.582-8-8v-16c0-4.418,3.582-8,8-8h160c4.418,0,8,3.582,8,8v16
		C344,244.418,340.418,248,336,248z"/>
	<path style="fill:#C86E64;" d="M472,336H148.5l-43-24c0-17.673,17.265-32,34.938-32H472c17.673,0,32,14.327,32,32v0
		c0,5.828-1.558,11.293-4.281,15.999L472,336z"/>
	<path style="fill:#B4505A;" d="M168,328c-17.673,0-32-14.327-32-32c0-5.859,1.689-11.277,4.438-16H40c-17.673,0-32,14.327-32,32
		c0,17.673,14.327,32,32,32l14.5,10.5h404L472,344c11.814,0,22.178-6.476,27.721-16H168z"/>
	<path style="fill:#C86E64;" d="M103.992,352c-1.203,0-2.422-0.27-3.57-0.844c-3.953-1.977-5.555-6.781-3.578-10.734l8-16
		c1.984-3.957,6.773-5.559,10.734-3.578c3.953,1.977,5.555,6.781,3.578,10.734l-8,16C109.75,350.383,106.93,352,103.992,352z"/>
	<path style="fill:#E66E64;" d="M352,304c-2.047,0-4.094-0.781-5.656-2.344l-16-16c-3.125-3.125-3.125-8.188,0-11.313
		s8.188-3.125,11.313,0l16,16c3.125,3.125,3.125,8.188,0,11.313C356.094,303.219,354.047,304,352,304z"/>
	<path style="fill:#E66E64;" d="M312,320h-8c-4.422,0-8-3.582-8-8s3.578-8,8-8h8c4.422,0,8,3.582,8,8S316.422,320,312,320z"/>
	<path style="fill:#E66E64;" d="M176,328c-2.047,0-4.094-0.781-5.656-2.344l-8-8c-3.125-3.125-3.125-8.188,0-11.313
		s8.188-3.125,11.313,0l8,8c3.125,3.125,3.125,8.188,0,11.313C180.094,327.219,178.047,328,176,328z"/>
	<path style="fill:#C86E64;" d="M64,312c-2.047,0-4.094-0.781-5.656-2.344c-3.125-3.125-3.125-8.188,0-11.313l8-8
		c3.125-3.125,8.188-3.125,11.313,0s3.125,8.188,0,11.313l-8,8C68.094,311.219,66.047,312,64,312z"/>
	<path style="fill:#C86E64;" d="M440.008,352c-2.938,0-5.758-1.617-7.164-4.422l-8-16c-1.977-3.953-0.375-8.758,3.578-10.734
		c3.945-1.98,8.75-0.379,10.734,3.578l8,16c1.977,3.953,0.375,8.758-3.578,10.734C442.43,351.73,441.211,352,440.008,352z"/>
	<path style="fill:#E66E64;" d="M472,320h-8c-4.422,0-8-3.582-8-8s3.578-8,8-8h8c4.422,0,8,3.582,8,8S476.422,320,472,320z"/>
	<path style="fill:#C86E64;" d="M240,352c-4.422,0-8-3.582-8-8v-8c0-4.418,3.578-8,8-8s8,3.582,8,8v8
		C248,348.418,244.422,352,240,352z"/>
	<path style="fill:#FFD97D;" d="M456,417H138c-26.51,0-48-21.49-48-48v-9l54-16h344c8.837,0,16,7.163,16,16v16
		c0,12.295-4.623,23.511-12.225,32.004L456,417z"/>
	<path style="fill:#FFC269;" d="M192,408c-26.51,0-48-21.49-48-48v-16H24c-8.836,0-16,7.163-16,16v16c0,26.51,21.49,48,48,48h400
		c14.198,0,26.983-6.201,35.771-16H192z"/>
	<path style="fill:#B3E59F;" d="M421.297,296c-23.406,0-35.539-9.391-46.25-17.672c-9.93-7.688-18.508-14.328-36.453-14.328
		c-17.93,0-26.5,6.641-36.43,14.328C291.469,286.609,279.336,296,255.945,296c-23.398,0-35.531-9.391-46.234-17.672
		c-9.93-7.688-18.508-14.328-36.445-14.328c-17.922,0-26.5,6.637-36.422,14.324C126.148,286.609,114.023,296,90.625,296
		c-23.391,0-35.516-9.391-46.211-17.676C34.492,270.637,25.922,264,8,264c-4.422,0-8-3.582-8-8s3.578-8,8-8
		c23.391,0,35.516,9.391,46.211,17.676C64.133,273.363,72.703,280,90.625,280s26.5-6.637,36.422-14.324
		c10.695-8.285,22.82-17.676,46.219-17.676c23.406,0,35.539,9.391,46.242,17.676c9.93,7.688,18.508,14.324,36.438,14.324
		c17.922,0,26.492-6.637,36.422-14.324C303.07,257.391,315.195,248,338.594,248c23.406,0,35.539,9.391,46.25,17.672
		c9.93,7.688,18.508,14.328,36.453,14.328s26.523-6.641,36.453-14.328C468.461,257.391,480.594,248,504,248c4.422,0,8,3.582,8,8
		s-3.578,8-8,8c-17.945,0-26.523,6.641-36.453,14.328C456.836,286.609,444.703,296,421.297,296z"/>
</g>
<g>
</g>
<g>
</g>
<g>
</g>
<g>
</g>
<g>
</g>
<g>
</g>
<g>
</g>
<g>
</g>
<g>
</g>
<g>
</g>
<g>
</g>
<g>
</g>
<g>
</g>
<g>
</g>
<g>
</g>
</svg>
