<?xml version="1.0" encoding="iso-8859-1"?>
<!-- Generator: Adobe Illustrator 22.0.0, SVG Export Plug-In . SVG Version: 6.00 Build 0)  -->
<svg version="1.1" id="Capa_1" xmlns="http://www.w3.org/2000/svg" xmlns:xlink="http://www.w3.org/1999/xlink" x="0px" y="0px"
	 viewBox="0 0 512 512" style="enable-background:new 0 0 512 512;" xml:space="preserve">
<g>
	<polygon style="fill:#FFA95F;" points="402,306.667 414.347,199.111 381.839,199.111 337,387 496.471,377.905 509.537,329.143 	"/>
	<path style="fill:#FF8B5A;" d="M379.505,329.143h-32.508l-17.421,65.016h146.286c8.977,0,18.204-7.277,20.609-16.254H382.693
		c-8.977,0-14.304-7.277-11.899-16.254L379.505,329.143z"/>
	<path style="fill:#FFC269;" d="M507.27,308.154l-27.479-19.646l-31.29-20.383l31.018-36.506l-0.098-20.531
		c-0.034-7.071-5.142-11.977-12.472-11.977h-52.601l-34.842,130.032h130.032l1.889-7.051
		C512.956,316.382,511.378,311.091,507.27,308.154z"/>
	<path style="fill:#E5646E;" d="M323.956,182.857h70.365c4.488,0,7.152,3.639,5.949,8.127l-50.085,186.921l-234.519,13.762
		c-4.488,0-6.203-2.178-5-6.667L155.5,216.5L323.956,182.857z"/>
	<path style="fill:#DB4655;" d="M130.757,377.905c-4.489,0-7.152-3.639-5.949-8.127l11.872-44.306
		c1.239-4.624,6.217-7.266,10.664-5.494c14.765,5.883,30.836,9.166,47.704,9.166c71.814,0,130.032-58.217,130.032-130.032
		c0-5.517-0.456-10.918-1.123-16.254h-157.19c-4.489,0-9.102,3.638-10.305,8.127l-52.263,195.048
		c-1.203,4.488,1.461,8.127,5.949,8.127H345.83l4.355-16.254H130.757z"/>
	
		<ellipse transform="matrix(0.7526 -0.6585 0.6585 0.7526 -151.8698 384.1098)" style="fill:#5D5360;" cx="435.227" cy="394.159" rx="37.154" ry="28.443"/>
	
		<ellipse transform="matrix(0.7526 -0.6585 0.6585 0.7526 -151.8698 384.1098)" style="fill:#DAD8DB;" cx="435.227" cy="394.159" rx="18.577" ry="14.222"/>
	
		<ellipse transform="matrix(0.7526 -0.6585 0.6585 0.7526 -214.201 218.2127)" style="fill:#5D5360;" cx="183.291" cy="394.159" rx="37.154" ry="28.443"/>
	
		<ellipse transform="matrix(0.7526 -0.6585 0.6585 0.7526 -214.201 218.2127)" style="fill:#DAD8DB;" cx="183.291" cy="394.159" rx="18.577" ry="14.222"/>
	<polygon style="fill:#DBEAFF;" points="479.518,231.619 438.145,231.619 423.75,247.873 429.375,283.25 479.79,272.254 	"/>
	<path style="fill:#C3DDFF;" d="M443.51,272.254c-8.977,0-14.304-7.277-11.899-16.254l6.533-24.381
		c-8.977,0-18.204,7.277-20.609,16.254l-6.533,24.381c-2.405,8.977,2.922,16.254,11.899,16.254h56.889l-0.078-16.254H443.51z"/>
	<circle style="fill:#ECEAEC;" cx="195.048" cy="199.111" r="113.778"/>
	<circle style="fill:#FFFFFF;" cx="195.048" cy="199.111" r="97.524"/>
	<path style="fill:#C8C5C9;" d="M195.048,134.095c-4.492,0-8.127-3.639-8.127-8.127v-8.127c0-4.488,3.635-8.127,8.127-8.127
		s8.127,3.639,8.127,8.127v8.127C203.175,130.456,199.54,134.095,195.048,134.095z"/>
	<path style="fill:#C8C5C9;" d="M195.048,288.508c-4.492,0-8.127-3.639-8.127-8.127v-8.127c0-4.488,3.635-8.127,8.127-8.127
		s8.127,3.639,8.127,8.127v8.127C203.175,284.869,199.54,288.508,195.048,288.508z"/>
	<path style="fill:#C8C5C9;" d="M276.317,207.238h-8.127c-4.492,0-8.127-3.639-8.127-8.127s3.635-8.127,8.127-8.127h8.127
		c4.492,0,8.127,3.639,8.127,8.127S280.81,207.238,276.317,207.238z"/>
	<path style="fill:#C8C5C9;" d="M121.905,207.238h-8.127c-4.492,0-8.127-3.639-8.127-8.127s3.635-8.127,8.127-8.127h8.127
		c4.492,0,8.127,3.639,8.127,8.127S126.397,207.238,121.905,207.238z"/>
	<path style="fill:#F9EAC7;" d="M89.397,312.889H8.127c-4.492,0-8.127-3.639-8.127-8.127s3.635-8.127,8.127-8.127h81.27
		c4.492,0,8.127,3.639,8.127,8.127S93.889,312.889,89.397,312.889z"/>
	<path style="fill:#F9EAC7;" d="M81.27,345.397H32.508c-4.492,0-8.127-3.639-8.127-8.127s3.635-8.127,8.127-8.127H81.27
		c4.492,0,8.127,3.639,8.127,8.127S85.762,345.397,81.27,345.397z"/>
	<path style="fill:#F9EAC7;" d="M73.143,377.905H56.889c-4.492,0-8.127-3.639-8.127-8.127s3.635-8.127,8.127-8.127h16.254
		c4.492,0,8.127,3.639,8.127,8.127S77.635,377.905,73.143,377.905z"/>
	<path style="fill:#E5646E;" d="M170.667,231.619c-2.079,0-4.159-0.794-5.746-2.381c-3.175-3.175-3.175-8.317,0-11.492
		l77.206-77.206c3.175-3.175,8.317-3.175,11.492,0c3.175,3.175,3.175,8.317,0,11.492l-77.206,77.206
		C174.825,230.825,172.746,231.619,170.667,231.619z"/>
	<circle style="fill:#5D5360;" cx="195.048" cy="199.111" r="16.254"/>
</g>
<g>
</g>
<g>
</g>
<g>
</g>
<g>
</g>
<g>
</g>
<g>
</g>
<g>
</g>
<g>
</g>
<g>
</g>
<g>
</g>
<g>
</g>
<g>
</g>
<g>
</g>
<g>
</g>
<g>
</g>
</svg>
