<?xml version="1.0" encoding="iso-8859-1"?>
<!-- Generator: Adobe Illustrator 22.0.0, SVG Export Plug-In . SVG Version: 6.00 Build 0)  -->
<svg version="1.1" id="Capa_1" xmlns="http://www.w3.org/2000/svg" xmlns:xlink="http://www.w3.org/1999/xlink" x="0px" y="0px"
	 viewBox="0 0 512 512" style="enable-background:new 0 0 512 512;" xml:space="preserve">
<g>
	<path style="fill:#E5646E;" d="M470.37,238.409l-101.537-12.576L326.25,201.5l5.174-65.242l-10.622-19.917
		c-4.305-8.073-12.71-13.116-21.859-13.116H16.516l-8.699,16.517v198.193c0,9.122,7.395,16.516,16.516,16.516h471.151
		c9.121,0,16.516-7.395,16.516-16.516v-41.291L470.37,238.409z"/>
	<path style="fill:#DBEAFF;" d="M231.226,220l141.471-6.355l-41.273-77.387h-67.166l-7.758,4.492l-8.758-4.492h-16.516
		c-9.121,0-10.726,7.394-10.726,16.516v57.806C220.5,219.702,222.104,220,231.226,220z"/>
	<path style="fill:#C3DDFF;" d="M231.226,202.323v-66.065c-9.121,0-16.516,7.394-16.516,16.516v57.806
		c0,9.122,7.395,16.516,16.516,16.516h16.516l8.009-4.722l8.507,4.722H365l6.063-16.516H239.484
		C234.923,210.581,231.226,206.883,231.226,202.323z"/>
	<path style="fill:#857E87;" d="M495.484,350.968H16.516C7.395,350.968,0,343.573,0,334.452v-16.516h16.516L512,334.452
		C512,343.573,504.605,350.968,495.484,350.968z"/>
	<path style="fill:#9B959D;" d="M512,334.452H24.774c-4.561,0-8.258-3.697-8.258-8.258v-8.258H512V334.452z"/>
	<path style="fill:#FFC269;" d="M111.484,136.258c-19.214,0-37.429,4.252-53.777,11.848c-4.454,2.069-6.27,7.443-3.824,11.702
		l50.439,87.848c3.174,5.528,11.149,5.528,14.323,0l50.439-87.848c2.445-4.259,0.629-9.632-3.824-11.702
		C148.913,140.51,130.698,136.258,111.484,136.258z"/>
	<path style="fill:#FFF0AF;" d="M111.484,169.29c-16.46,0-31.793,4.67-44.902,12.635l37.74,65.731
		c3.174,5.528,11.149,5.528,14.324,0l37.74-65.731C143.277,173.96,127.944,169.29,111.484,169.29z"/>
	<rect x="247.742" y="136.258" style="fill:#9B959D;" width="16.516" height="90.839"/>
	<path style="fill:#FF8086;" d="M33.032,284.903v-49.548c0-9.122-7.395-16.516-16.516-16.516L9,228.333l1,64.333L33.032,284.903z"/>
	<path style="fill:#C8C5C9;" d="M371.613,227.097h-8.258c-4.561,0-8.258-3.697-8.258-8.258v-16.516c0-4.561,3.697-8.258,8.258-8.258
		h8.258c9.122,0,16.516,7.395,16.516,16.516v0C388.129,219.702,380.735,227.097,371.613,227.097z"/>
	<circle style="fill:#5D5360;" cx="90.839" cy="350.968" r="57.806"/>
	<circle style="fill:#DAD8DB;" cx="90.839" cy="350.968" r="41.29"/>
	<circle style="fill:#ECEAEC;" cx="90.839" cy="350.968" r="24.774"/>
	<circle style="fill:#5D5360;" cx="421.161" cy="350.968" r="57.806"/>
	<circle style="fill:#DAD8DB;" cx="421.161" cy="350.968" r="41.29"/>
	<circle style="fill:#ECEAEC;" cx="421.161" cy="350.968" r="24.774"/>
	<rect y="218.839" style="fill:#E5646E;" width="16.516" height="99.097"/>
	<path style="fill:#DB4655;" d="M16.516,218.839H0v-99.097c0-9.122,7.395-16.516,16.516-16.516h0V218.839z"/>
	<polygon style="fill:#FFC269;" points="33.032,317.936 16.516,317.936 10.833,304.5 16.516,284.903 33.032,284.903 	"/>
	<rect x="0" y="284.903" style="fill:#FFA95F;" width="16.516" height="33.032"/>
	<rect x="247.742" y="210.581" style="fill:#857E87;" width="16.516" height="16.516"/>
	<path style="fill:#FFE07D;" d="M511.418,260.129l-32.45-20.645l-9.732-1.217c-6.161-0.77-10.937,5.28-8.757,11.094l4.203,11.209
		c3.626,9.669,12.87,16.075,23.196,16.075H512v-11.162C512,263.645,511.801,261.861,511.418,260.129z"/>
	<path style="fill:#FFFFFF;" d="M61.898,173.766l8.215,14.307c12.303-6.708,26.399-10.525,41.371-10.525s29.069,3.818,41.371,10.525
		l8.215-14.307c-14.728-8.103-31.622-12.734-49.586-12.734S76.626,165.663,61.898,173.766z"/>
	<path style="fill:#DB4655;" d="M121.032,192.629c-2.274,0-4.54-0.935-6.177-2.774c-3.024-3.407-2.718-8.629,0.694-11.657
		l7.226-6.419c3.395-3.028,8.613-2.73,11.661,0.69c3.024,3.407,2.718,8.629-0.694,11.657l-7.226,6.419
		C124.944,191.944,122.984,192.629,121.032,192.629z"/>
	<path style="fill:#DB4655;" d="M102.96,219.274c-0.532,0-1.081-0.052-1.629-0.161l-14.685-2.935
		c-4.468-0.891-7.371-5.242-6.476-9.714c0.887-4.472,5.177-7.371,9.718-6.48l14.685,2.935c4.468,0.891,7.371,5.242,6.476,9.714
		C110.266,216.561,106.815,219.274,102.96,219.274z"/>
	<path style="fill:#FFF0AF;" d="M511.418,260.129c-2.224-10.031-10.549-17.908-21.119-19.229l-11.331-1.416l3.36,8.4
		c2.958,7.395,10.121,12.245,18.087,12.245H511.418z"/>
</g>
<g>
</g>
<g>
</g>
<g>
</g>
<g>
</g>
<g>
</g>
<g>
</g>
<g>
</g>
<g>
</g>
<g>
</g>
<g>
</g>
<g>
</g>
<g>
</g>
<g>
</g>
<g>
</g>
<g>
</g>
</svg>
