<?xml version="1.0" encoding="UTF-8" standalone="no"?><!DOCTYPE svg PUBLIC "-//W3C//DTD SVG 1.1//EN" "http://www.w3.org/Graphics/SVG/1.1/DTD/svg11.dtd"><svg width="100%" height="100%" viewBox="0 0 100 100" version="1.1" xmlns="http://www.w3.org/2000/svg" xmlns:xlink="http://www.w3.org/1999/xlink" xml:space="preserve" xmlns:serif="http://www.serif.com/" style="fill-rule:evenodd;clip-rule:evenodd;stroke-linejoin:round;stroke-miterlimit:2;"><path d="M92.661,64.085c0,0.907 -0.163,1.805 -0.479,2.642c-0.315,0.837 -0.779,1.598 -1.362,2.239c-0.584,0.641 -1.277,1.15 -2.04,1.496c-0.763,0.347 -1.581,0.526 -2.406,0.526l-72.749,0c-1.667,0 -3.266,-0.728 -4.446,-2.022c-1.179,-1.294 -1.841,-3.05 -1.841,-4.881c0,-1.83 0.662,-3.586 1.841,-4.88c1.18,-1.295 2.779,-2.022 4.446,-2.022l72.749,0c0.826,-0.001 1.644,0.177 2.407,0.524c0.763,0.346 1.456,0.854 2.04,1.496c0.584,0.641 1.047,1.402 1.363,2.24c0.316,0.838 0.478,1.736 0.477,2.642Z" style="fill:#884d00;fill-rule:nonzero;"/><path d="M92.099,61.226c-0.502,1.204 -1.308,2.226 -2.323,2.942c-1.015,0.716 -2.196,1.097 -3.402,1.098l-72.748,0c-1.207,-0.001 -2.388,-0.381 -3.403,-1.098c-1.015,-0.716 -1.821,-1.738 -2.322,-2.942c0.501,-1.206 1.306,-2.228 2.321,-2.944c1.015,-0.717 2.197,-1.098 3.404,-1.099l72.748,0c1.207,0 2.389,0.381 3.404,1.097c1.015,0.717 1.821,1.74 2.321,2.946Z" style="fill:#aa6100;fill-rule:nonzero;"/><path d="M98.067,67.267c0.081,3.965 -0.781,7.885 -2.502,11.373c-1.721,3.487 -4.241,6.421 -7.311,8.513c-6.064,4.386 -14.441,6.546 -23.694,6.546l-29.126,0c-18.504,0 -33.506,-8.644 -33.506,-26.432c0,-0.968 0.217,-1.922 0.631,-2.776c0.353,-0.731 0.826,-1.384 1.395,-1.925c1.363,-1.277 3.101,-1.969 4.892,-1.948c27.596,14.351 55.022,13.664 82.302,0c1.269,-0.037 2.523,0.303 3.63,0.985c1.107,0.682 2.025,1.68 2.657,2.888c0.415,0.854 0.632,1.808 0.632,2.776Z" style="fill:#ffa733;fill-rule:nonzero;"/><path d="M98.07,66.038c-1.304,5.756 -4.597,10.729 -9.182,13.865c-6.065,4.386 -14.446,6.548 -23.694,6.548l-29.125,0c-16.28,0 -29.849,-6.69 -32.871,-20.412c0.352,-0.731 0.825,-1.383 1.395,-1.925c1.363,-1.277 16.486,6.725 18.278,6.746c27.276,8.502 42.831,3.01 70.422,-5.435c1.268,-0.037 0.809,-1.769 1.916,-1.087c1.106,0.682 2.229,0.492 2.861,1.7Z" style="fill:#ffb655;fill-rule:nonzero;"/><path d="M76.736,54.283l3.919,4.758c-1.66,1.822 -17.842,7.302 -19.802,7.609c-13.559,2.121 -39.115,-7.73 -33.664,-9.783l4.499,-2.584l45.048,0Z" style="fill:#eebf00;fill-rule:nonzero;"/><path d="M76.735,54.284l-9.942,10.192c-0.4,0.439 -6.462,0.739 -6.93,1.087c-0.756,-0.283 -5.802,-0.232 -10.622,-0.142c-3.339,0.061 -6.569,0.142 -8.19,0.142c-9.627,-1.875 -10.836,-6.426 -13.862,-10.398l49.546,-0.881Z" style="fill:#ffd422;fill-rule:nonzero;"/><path d="M96.244,56.778c0.001,0.963 -0.15,1.919 -0.445,2.826c-1.194,3.659 -4.392,5.078 -6.884,3.058l-2.988,-2.423c-2.085,-1.693 -4.745,-1 -6.254,1.63l-0.127,0.218c-1.448,2.527 -3.973,3.278 -6.039,1.797l-6.689,-4.799c-0.728,-0.54 -1.599,-0.801 -2.477,-0.743c-0.878,0.057 -1.714,0.431 -2.379,1.063l-5.364,4.789c-0.702,0.666 -1.591,1.045 -2.518,1.071c-0.927,0.027 -1.833,-0.299 -2.566,-0.923l-6.117,-4.978c-0.724,-0.618 -1.619,-0.945 -2.536,-0.925c-0.917,0.02 -1.8,0.385 -2.501,1.033l-5.57,4.856c-0.683,0.631 -1.538,0.993 -2.429,1.029c-0.892,0.037 -1.769,-0.255 -2.492,-0.829l-7.209,-5.503c-0.661,-0.528 -1.455,-0.818 -2.272,-0.832c-0.818,-0.015 -1.619,0.248 -2.295,0.752l-6.727,4.83c-1.251,0.208 -2.531,0.042 -3.703,-0.482c-1.172,-0.525 -2.193,-1.387 -2.956,-2.497c-0.499,-0.982 -0.81,-2.067 -0.913,-3.186c-0.103,-1.12 0.003,-2.251 0.313,-3.323c0.694,-2.433 2.362,-4.309 4.535,-4.309l82.727,0c2.131,0 3.833,1.848 4.533,4.298c0.229,0.81 0.345,1.654 0.342,2.502Z" style="fill:#6dc82a;fill-rule:nonzero;"/><path d="M95.896,54.276c-0.029,0.108 -0.062,0.217 -0.099,0.319c-1.194,3.661 -4.392,5.081 -6.883,3.06l-2.988,-2.425c-2.085,-1.69 -4.746,-0.998 -6.254,1.63l-0.127,0.223c-1.449,2.527 -3.973,3.279 -6.04,1.798l-6.692,-4.804c-0.729,-0.541 -1.599,-0.803 -2.477,-0.745c-0.878,0.058 -1.715,0.432 -2.379,1.064l-5.364,4.789c-0.701,0.666 -1.591,1.044 -2.517,1.071c-0.927,0.026 -1.834,-0.301 -2.566,-0.925l-6.118,-4.978c-0.724,-0.618 -1.619,-0.944 -2.535,-0.924c-0.917,0.02 -1.8,0.384 -2.501,1.033l-5.568,4.858c-0.682,0.631 -1.537,0.993 -2.429,1.029c-0.891,0.036 -1.768,-0.255 -2.491,-0.829l-7.212,-5.501c-0.661,-0.528 -1.455,-0.819 -2.272,-0.834c-0.818,-0.014 -1.62,0.25 -2.296,0.755l-6.726,4.827c-1.252,0.209 -2.531,0.043 -3.704,-0.481c-1.172,-0.525 -2.193,-1.387 -2.955,-2.497c-0.248,-0.476 -0.449,-0.98 -0.6,-1.502c0.693,-2.433 2.362,-4.309 4.535,-4.309l82.727,0c2.129,0 3.831,1.848 4.531,4.298Z" style="fill:#7ed63e;fill-rule:nonzero;"/><path d="M94.575,45.563c0.02,0.921 -0.129,1.837 -0.437,2.694c-0.308,0.858 -0.769,1.638 -1.357,2.297c-0.587,0.658 -1.288,1.181 -2.062,1.537c-0.774,0.356 -1.606,0.539 -2.445,0.537c-11.297,0 -30.292,0.976 -30.392,0.978c-5.73,0.238 -13.861,1.087 -22.772,1.087c-0.385,-0.249 -7.921,-1.087 -10.891,-1.087c-0.538,0 -1.98,0 -7.921,-1.087l-4.454,0.099c-1.664,0.013 -3.266,-0.689 -4.466,-1.954c-1.2,-1.266 -1.902,-2.996 -1.956,-4.822c-0.018,-0.921 0.132,-1.836 0.441,-2.692c0.309,-0.857 0.771,-1.637 1.358,-2.295c0.587,-0.658 1.287,-1.18 2.061,-1.537c0.773,-0.357 1.604,-0.541 2.443,-0.541l76.422,0c1.666,-0.014 3.272,0.688 4.473,1.956c1.2,1.268 1.902,3.001 1.955,4.83Z" style="fill:#ff3501;fill-rule:nonzero;"/><path d="M94.575,45.562c0.013,0.694 -0.068,1.386 -0.241,2.054c-11.959,-0.013 -40.946,2.259 -45.363,2.362c-15.841,0.367 -21.33,-2.142 -18.636,0.417c0.407,0.387 -0.507,-1.042 -0.888,-1.459c-0.38,-0.418 -0.832,-0.749 -1.329,-0.975c-0.497,-0.226 -1.03,-0.342 -1.568,-0.342l-7.67,0c-1.663,0.013 -3.266,-0.689 -4.466,-1.954c-1.2,-1.266 -1.902,-2.996 -1.956,-4.822c-0.014,-0.695 0.068,-1.388 0.242,-2.056l75.446,0c1.664,-0.014 3.268,0.687 4.469,1.953c1.201,1.265 1.904,2.996 1.96,4.822Z" style="fill:#ff5023;fill-rule:nonzero;"/><path d="M58.519,31.753l-13.946,15.315c-1.152,1.265 -2.519,2.268 -4.024,2.952c-1.506,0.685 -3.119,1.037 -4.748,1.037c-1.629,0 -3.242,-0.352 -4.747,-1.037c-1.505,-0.684 -2.873,-1.687 -4.025,-2.952l-13.949,-15.315l45.439,0Z" style="fill:#eebf00;fill-rule:nonzero;"/><path d="M58.519,31.753l-13.945,15.315c-1.347,1.484 -2.991,2.605 -4.8,3.272c-1.808,-0.668 -3.45,-1.788 -4.796,-3.272l-13.951,-15.315l37.492,0Z" style="fill:#ffd422;fill-rule:nonzero;"/><path d="M98.07,33.907c0,0.109 0,0.225 -0.01,0.337c-0.078,1.451 -0.658,2.815 -1.621,3.812c-0.964,0.998 -2.238,1.553 -3.562,1.552l-85.754,0c-1.377,0 -2.698,-0.601 -3.672,-1.67c-0.973,-1.069 -1.521,-2.519 -1.521,-4.031c0,-6.831 2.885,-11.975 7.242,-15.843c3.829,-3.198 8.152,-5.614 12.76,-7.133c13.2,-4.718 28.068,-4.63 28.068,-4.63c0,0 48.07,-0.285 48.07,27.606Z" style="fill:#ffa733;fill-rule:nonzero;"/><path d="M98.07,33.907c0,0.109 0,0.225 -0.01,0.337l-80.383,0c-1.377,0 -2.698,-0.601 -3.672,-1.67c-0.974,-1.069 -1.521,-2.519 -1.521,-4.031c0,-6.831 2.885,-11.975 7.241,-15.843c0.7,-0.623 1.436,-1.212 2.207,-1.769c13.2,-4.718 28.068,-4.63 28.068,-4.63c0,0 48.07,-0.285 48.07,27.606Z" style="fill:#ffb655;fill-rule:nonzero;"/><path d="M75.837,16.275c0.203,0.23 0.362,0.501 0.469,0.798c0.106,0.298 0.158,0.616 0.152,0.935c-0.007,0.32 -0.071,0.635 -0.189,0.927c-0.118,0.292 -0.288,0.556 -0.499,0.775c-0.212,0.22 -0.461,0.391 -0.734,0.504c-0.272,0.113 -0.562,0.165 -0.853,0.154c-0.291,-0.011 -0.577,-0.086 -0.842,-0.22c-0.264,-0.133 -0.502,-0.323 -0.699,-0.558c-0.834,-0.969 -2.368,-4.324 -1.485,-5.24c0.883,-0.915 3.846,0.957 4.68,1.925Z" style="fill:#fff5cc;fill-rule:nonzero;"/><path d="M64.19,28.198c0.209,0.598 0.193,1.262 -0.044,1.846c-0.237,0.585 -0.676,1.042 -1.22,1.271c-0.544,0.23 -1.149,0.212 -1.682,-0.048c-0.532,-0.26 -0.948,-0.742 -1.157,-1.339c-0.435,-1.244 -0.693,-4.988 0.442,-5.465c1.136,-0.478 3.225,2.488 3.661,3.735Z" style="fill:#fff5cc;fill-rule:nonzero;"/><path d="M52.198,18.275c-0.013,0.631 -0.249,1.232 -0.66,1.674c-0.411,0.441 -0.963,0.688 -1.538,0.688c-0.575,0 -1.127,-0.247 -1.538,-0.688c-0.41,-0.442 -0.647,-1.043 -0.66,-1.674c0,-1.332 0.985,-4.928 2.198,-4.928c1.214,0 2.198,3.596 2.198,4.928Z" style="fill:#fff5cc;fill-rule:nonzero;"/><path d="M40.115,29.709c-0.073,0.307 -0.199,0.596 -0.373,0.849c-0.173,0.253 -0.391,0.466 -0.639,0.627c-0.249,0.161 -0.524,0.267 -0.81,0.311c-0.286,0.044 -0.577,0.026 -0.857,-0.053c-0.279,-0.079 -0.542,-0.218 -0.772,-0.409c-0.231,-0.19 -0.425,-0.429 -0.572,-0.702c-0.147,-0.273 -0.243,-0.575 -0.283,-0.889c-0.04,-0.314 -0.024,-0.633 0.048,-0.94c0.304,-1.29 2.079,-4.501 3.251,-4.168c1.171,0.334 1.311,4.084 1.007,5.374Z" style="fill:#fff5cc;fill-rule:nonzero;"/><path d="M28.025,19.202c-0.254,0.575 -0.706,1.017 -1.256,1.227c-0.551,0.21 -1.155,0.171 -1.679,-0.108c-0.525,-0.279 -0.927,-0.775 -1.118,-1.379c-0.191,-0.605 -0.156,-1.268 0.098,-1.844c0.529,-1.195 2.842,-3.964 3.935,-3.382c1.092,0.581 0.545,4.287 0.02,5.486Z" style="fill:#fff5cc;fill-rule:nonzero;"/></svg>