<?xml version="1.0" encoding="UTF-8" standalone="no"?><!DOCTYPE svg PUBLIC "-//W3C//DTD SVG 1.1//EN" "http://www.w3.org/Graphics/SVG/1.1/DTD/svg11.dtd"><svg width="100%" height="100%" viewBox="0 0 300 75" version="1.1" xmlns="http://www.w3.org/2000/svg" xmlns:xlink="http://www.w3.org/1999/xlink" xml:space="preserve" xmlns:serif="http://www.serif.com/" style="fill-rule:evenodd;clip-rule:evenodd;stroke-linejoin:round;stroke-miterlimit:2;"><text x="104.168px" y="50.658px" style="font-family:'Bobcat';font-size:48px;fill:#fff;">Kanapka</text><path d="M94.205,41.588c0,0.394 -0.077,0.785 -0.228,1.149c-0.151,0.365 -0.372,0.696 -0.651,0.975c-0.279,0.279 -0.611,0.5 -0.975,0.651c-0.364,0.151 -0.755,0.228 -1.15,0.228l-34.757,0c-0.797,0 -1.561,-0.316 -2.124,-0.879c-0.563,-0.564 -0.88,-1.328 -0.88,-2.124c0,-0.797 0.317,-1.561 0.88,-2.124c0.563,-0.564 1.327,-0.88 2.124,-0.88l34.757,0c0.395,-0.001 0.786,0.077 1.15,0.228c0.365,0.15 0.696,0.372 0.975,0.651c0.279,0.279 0.501,0.61 0.651,0.975c0.151,0.364 0.229,0.755 0.228,1.15Z" style="fill:#884d00;fill-rule:nonzero;"/><path d="M93.937,40.343c-0.24,0.524 -0.625,0.969 -1.11,1.28c-0.485,0.312 -1.049,0.478 -1.625,0.478l-34.758,0c-0.576,0 -1.141,-0.166 -1.625,-0.477c-0.485,-0.312 -0.87,-0.757 -1.11,-1.281c0.239,-0.525 0.624,-0.969 1.109,-1.281c0.485,-0.312 1.05,-0.478 1.626,-0.478l34.758,0c0.576,0 1.141,0.165 1.626,0.477c0.485,0.312 0.87,0.757 1.109,1.282Z" style="fill:#aa6100;fill-rule:nonzero;"/><path d="M96.788,42.972c0.039,1.726 -0.373,3.432 -1.195,4.95c-0.822,1.517 -2.026,2.794 -3.493,3.704c-2.897,1.909 -6.9,2.85 -11.32,2.85l-13.916,0c-8.841,0 -16.009,-3.763 -16.009,-11.504c0.001,-0.421 0.104,-0.836 0.302,-1.208c0.169,-0.318 0.395,-0.602 0.667,-0.838c0.651,-0.555 1.481,-0.856 2.337,-0.847c13.184,6.245 26.288,5.946 39.322,0c0.606,-0.017 1.205,0.131 1.734,0.428c0.529,0.297 0.967,0.731 1.269,1.257c0.198,0.372 0.302,0.787 0.302,1.208Z" style="fill:#ffa733;fill-rule:nonzero;"/><path d="M96.79,42.437c-0.623,2.505 -2.197,4.669 -4.387,6.034c-2.898,1.909 -6.902,2.85 -11.321,2.85l-13.915,0c-7.778,0 -14.261,-2.912 -15.705,-8.883c0.169,-0.318 0.395,-0.602 0.667,-0.838c0.651,-0.556 7.876,2.927 8.732,2.936c13.032,3.7 20.464,1.31 33.646,-2.365c0.606,-0.017 0.387,-0.77 0.915,-0.474c0.529,0.297 1.066,0.215 1.368,0.74Z" style="fill:#ffb655;fill-rule:nonzero;"/><path d="M86.597,37.322l1.872,2.07c-0.793,0.793 -8.524,3.178 -9.461,3.311c-6.478,0.924 -18.688,-3.364 -16.083,-4.257l2.149,-1.124l21.523,0Z" style="fill:#eebf00;fill-rule:nonzero;"/><path d="M86.596,37.322l-4.75,4.435c-0.191,0.191 -3.087,0.322 -3.311,0.473c-0.361,-0.122 -2.772,-0.1 -5.075,-0.061c-1.595,0.027 -3.138,0.061 -3.913,0.061c-4.599,-0.816 -5.177,-2.796 -6.622,-4.525l23.671,-0.383Z" style="fill:#ffd422;fill-rule:nonzero;"/><path d="M95.917,38.407c0.001,0.42 -0.071,0.836 -0.213,1.23c-0.57,1.593 -2.098,2.21 -3.288,1.331l-1.428,-1.054c-0.996,-0.737 -2.267,-0.436 -2.988,0.709l-0.061,0.095c-0.692,1.1 -1.898,1.426 -2.885,0.782l-3.196,-2.088c-0.348,-0.235 -0.764,-0.349 -1.183,-0.324c-0.42,0.025 -0.819,0.188 -1.137,0.463l-2.563,2.084c-0.335,0.29 -0.76,0.454 -1.203,0.466c-0.442,0.012 -0.876,-0.13 -1.225,-0.402l-2.923,-2.166c-0.346,-0.269 -0.774,-0.411 -1.212,-0.403c-0.438,0.009 -0.86,0.168 -1.195,0.45l-2.661,2.113c-0.326,0.275 -0.735,0.432 -1.161,0.448c-0.426,0.016 -0.845,-0.111 -1.19,-0.361l-3.444,-2.395c-0.316,-0.229 -0.695,-0.356 -1.086,-0.362c-0.39,-0.006 -0.773,0.108 -1.096,0.328l-3.214,2.101c-0.598,0.091 -1.209,0.019 -1.77,-0.209c-0.56,-0.229 -1.047,-0.604 -1.412,-1.087c-0.238,-0.427 -0.387,-0.899 -0.436,-1.387c-0.049,-0.487 0.002,-0.979 0.15,-1.446c0.331,-1.059 1.128,-1.875 2.166,-1.875l39.525,0c1.018,0 1.831,0.804 2.166,1.87c0.109,0.353 0.165,0.72 0.163,1.089Z" style="fill:#6dc82a;fill-rule:nonzero;"/><path d="M95.751,37.318c-0.014,0.048 -0.03,0.095 -0.047,0.139c-0.571,1.594 -2.099,2.211 -3.289,1.332l-1.427,-1.055c-0.997,-0.736 -2.268,-0.435 -2.989,0.709l-0.06,0.097c-0.692,1.1 -1.899,1.427 -2.886,0.783l-3.197,-2.091c-0.348,-0.236 -0.764,-0.349 -1.184,-0.324c-0.419,0.025 -0.819,0.188 -1.136,0.463l-2.563,2.084c-0.335,0.29 -0.76,0.454 -1.203,0.466c-0.443,0.011 -0.876,-0.131 -1.225,-0.402l-2.923,-2.167c-0.346,-0.269 -0.774,-0.411 -1.212,-0.402c-0.438,0.009 -0.86,0.167 -1.195,0.449l-2.66,2.115c-0.326,0.274 -0.734,0.432 -1.16,0.447c-0.426,0.016 -0.845,-0.111 -1.191,-0.36l-3.445,-2.394c-0.316,-0.23 -0.695,-0.357 -1.086,-0.363c-0.391,-0.006 -0.774,0.108 -1.096,0.328l-3.214,2.101c-0.598,0.091 -1.21,0.019 -1.77,-0.209c-0.56,-0.229 -1.048,-0.604 -1.412,-1.087c-0.118,-0.207 -0.214,-0.426 -0.286,-0.654c0.331,-1.059 1.128,-1.875 2.166,-1.875l39.525,0c1.017,0 1.831,0.804 2.165,1.87Z" style="fill:#7ed63e;fill-rule:nonzero;"/><path d="M95.12,33.526c0.009,0.401 -0.062,0.8 -0.209,1.173c-0.147,0.373 -0.368,0.713 -0.648,1c-0.281,0.286 -0.616,0.514 -0.986,0.669c-0.369,0.155 -0.767,0.234 -1.168,0.233c-5.397,0 -14.472,0.425 -14.52,0.426c-2.738,0.104 -6.623,0.473 -10.88,0.473c-0.184,-0.108 -3.784,-0.473 -5.203,-0.473c-0.258,0 -0.947,0 -3.785,-0.473l-2.128,0.043c-0.795,0.005 -1.56,-0.3 -2.134,-0.851c-0.573,-0.55 -0.908,-1.303 -0.934,-2.098c-0.009,-0.401 0.063,-0.799 0.211,-1.172c0.147,-0.372 0.368,-0.712 0.648,-0.998c0.281,-0.287 0.615,-0.514 0.985,-0.669c0.369,-0.156 0.766,-0.236 1.167,-0.236l36.513,0c0.796,-0.006 1.563,0.3 2.137,0.852c0.573,0.552 0.909,1.306 0.934,2.101Z" style="fill:#ff3501;fill-rule:nonzero;"/><path d="M95.12,33.526c0.006,0.302 -0.033,0.603 -0.115,0.894c-5.714,-0.006 -19.563,0.983 -21.673,1.028c-7.569,0.16 -10.192,-0.932 -8.904,0.182c0.194,0.168 -0.243,-0.454 -0.424,-0.636c-0.182,-0.181 -0.398,-0.326 -0.636,-0.424c-0.237,-0.098 -0.492,-0.149 -0.749,-0.149l-3.664,0c-0.795,0.006 -1.561,-0.299 -2.134,-0.85c-0.573,-0.551 -0.909,-1.304 -0.935,-2.099c-0.006,-0.302 0.033,-0.603 0.116,-0.894l36.046,0c0.795,-0.006 1.562,0.299 2.136,0.849c0.573,0.551 0.909,1.304 0.936,2.099Z" style="fill:#ff5023;fill-rule:nonzero;"/><path d="M77.893,27.516l-6.663,6.666c-0.55,0.55 -1.204,0.987 -1.923,1.284c-0.719,0.298 -1.489,0.452 -2.268,0.452c-0.778,0 -1.549,-0.154 -2.268,-0.452c-0.719,-0.297 -1.372,-0.734 -1.923,-1.284l-6.664,-6.666l21.709,0Z" style="fill:#eebf00;fill-rule:nonzero;"/><path d="M77.893,27.516l-6.662,6.666c-0.644,0.646 -1.429,1.133 -2.294,1.423c-0.864,-0.29 -1.648,-0.777 -2.291,-1.423l-6.665,-6.666l17.912,0Z" style="fill:#ffd422;fill-rule:nonzero;"/><path d="M96.79,28.454c0,0.047 0,0.098 -0.005,0.147c-0.037,0.631 -0.314,1.225 -0.775,1.659c-0.46,0.434 -1.069,0.675 -1.702,0.675l-40.97,0c-0.658,0 -1.289,-0.261 -1.755,-0.727c-0.465,-0.465 -0.726,-1.096 -0.726,-1.754c0,-2.973 1.378,-5.211 3.459,-6.895c1.83,-1.392 3.895,-2.443 6.097,-3.104c6.307,-2.054 13.41,-2.015 13.41,-2.015c0,0 22.967,-0.124 22.967,12.014Z" style="fill:#ffa733;fill-rule:nonzero;"/><path d="M96.79,28.454c0,0.047 0,0.098 -0.005,0.147l-38.405,0c-0.658,0 -1.289,-0.262 -1.754,-0.727c-0.466,-0.465 -0.727,-1.096 -0.727,-1.754c0,-2.974 1.378,-5.212 3.46,-6.896c0.334,-0.27 0.685,-0.527 1.054,-0.769c6.307,-2.054 13.41,-2.015 13.41,-2.015c0,0 22.967,-0.124 22.967,12.014Z" style="fill:#ffb655;fill-rule:nonzero;"/><path d="M86.167,20.781c0.097,0.099 0.173,0.217 0.224,0.347c0.051,0.129 0.076,0.268 0.073,0.407c-0.003,0.139 -0.034,0.276 -0.09,0.403c-0.057,0.127 -0.138,0.242 -0.239,0.338c-0.101,0.095 -0.22,0.17 -0.35,0.219c-0.13,0.049 -0.269,0.072 -0.408,0.067c-0.139,-0.005 -0.276,-0.038 -0.402,-0.096c-0.127,-0.058 -0.24,-0.141 -0.334,-0.243c-0.399,-0.422 -1.132,-1.882 -0.71,-2.28c0.422,-0.398 1.838,0.416 2.236,0.838Z" style="fill:#fff5cc;fill-rule:nonzero;"/><path d="M80.602,25.97c0.1,0.26 0.093,0.548 -0.021,0.803c-0.113,0.254 -0.322,0.453 -0.582,0.553c-0.26,0.1 -0.549,0.092 -0.804,-0.021c-0.254,-0.113 -0.453,-0.323 -0.553,-0.583c-0.207,-0.541 -0.331,-2.171 0.212,-2.378c0.542,-0.208 1.54,1.083 1.748,1.626Z" style="fill:#fff5cc;fill-rule:nonzero;"/><path d="M74.873,21.651c-0.006,0.275 -0.119,0.536 -0.315,0.728c-0.197,0.192 -0.46,0.3 -0.735,0.3c-0.275,0 -0.538,-0.108 -0.735,-0.3c-0.196,-0.192 -0.309,-0.453 -0.315,-0.728c0,-0.58 0.47,-2.145 1.05,-2.145c0.58,0 1.05,1.565 1.05,2.145Z" style="fill:#fff5cc;fill-rule:nonzero;"/><path d="M69.1,26.627c-0.034,0.134 -0.095,0.259 -0.178,0.369c-0.083,0.111 -0.187,0.203 -0.305,0.273c-0.119,0.07 -0.251,0.116 -0.387,0.136c-0.137,0.019 -0.276,0.011 -0.41,-0.023c-0.133,-0.035 -0.259,-0.095 -0.369,-0.178c-0.11,-0.083 -0.203,-0.187 -0.273,-0.306c-0.07,-0.119 -0.116,-0.25 -0.135,-0.387c-0.019,-0.136 -0.012,-0.275 0.023,-0.409c0.145,-0.561 0.993,-1.959 1.553,-1.814c0.56,0.146 0.626,1.778 0.481,2.339Z" style="fill:#fff5cc;fill-rule:nonzero;"/><path d="M63.324,22.054c-0.121,0.251 -0.337,0.443 -0.6,0.534c-0.263,0.092 -0.552,0.075 -0.802,-0.047c-0.251,-0.121 -0.443,-0.337 -0.535,-0.6c-0.091,-0.263 -0.074,-0.552 0.047,-0.802c0.253,-0.521 1.358,-1.725 1.88,-1.472c0.522,0.253 0.261,1.865 0.01,2.387Z" style="fill:#fff5cc;fill-rule:nonzero;"/></svg>
