<?xml version="1.0" encoding="UTF-8" standalone="no"?><!DOCTYPE svg PUBLIC "-//W3C//DTD SVG 1.1//EN" "http://www.w3.org/Graphics/SVG/1.1/DTD/svg11.dtd"><svg width="100%" height="100%" viewBox="0 0 207 75" version="1.1" xmlns="http://www.w3.org/2000/svg" xmlns:xlink="http://www.w3.org/1999/xlink" xml:space="preserve" xmlns:serif="http://www.serif.com/" style="fill-rule:evenodd;clip-rule:evenodd;stroke-linejoin:round;stroke-miterlimit:2;"><text x="56.11px" y="50.108px" style="font-family:'Bobcat';font-size:49.238px;">Kanapka</text><path d="M45.891,40.803c0,0.404 -0.08,0.805 -0.235,1.179c-0.155,0.374 -0.382,0.713 -0.668,1c-0.286,0.286 -0.626,0.513 -0.999,0.668c-0.374,0.154 -0.775,0.234 -1.18,0.234l-35.654,0c-0.817,0 -1.601,-0.325 -2.179,-0.903c-0.578,-0.577 -0.902,-1.361 -0.902,-2.178c0,-0.818 0.324,-1.601 0.902,-2.179c0.578,-0.578 1.362,-0.903 2.179,-0.903l35.654,0c0.405,0 0.806,0.079 1.18,0.234c0.374,0.155 0.714,0.382 1,0.668c0.286,0.286 0.513,0.626 0.668,1c0.155,0.374 0.234,0.775 0.234,1.18Z" style="fill:#884d00;fill-rule:nonzero;"/><path d="M45.615,39.526c-0.246,0.538 -0.641,0.994 -1.138,1.313c-0.497,0.32 -1.076,0.49 -1.668,0.491l-35.654,0c-0.591,-0.001 -1.17,-0.171 -1.667,-0.49c-0.498,-0.32 -0.893,-0.776 -1.138,-1.314c0.245,-0.538 0.64,-0.994 1.137,-1.314c0.498,-0.32 1.077,-0.491 1.668,-0.491l35.654,0c0.592,0 1.171,0.17 1.669,0.49c0.497,0.32 0.892,0.777 1.137,1.315Z" style="fill:#aa6100;fill-rule:nonzero;"/><path d="M48.54,42.223c0.04,1.77 -0.383,3.52 -1.226,5.077c-0.843,1.557 -2.078,2.867 -3.583,3.8c-2.972,1.958 -7.078,2.923 -11.612,2.923l-14.275,0c-9.069,0 -16.422,-3.859 -16.422,-11.8c0,-0.432 0.107,-0.858 0.31,-1.239c0.173,-0.327 0.404,-0.618 0.683,-0.86c0.668,-0.57 1.52,-0.879 2.398,-0.869c13.525,6.406 26.966,6.1 40.336,0c0.622,-0.017 1.237,0.135 1.779,0.439c0.543,0.305 0.993,0.75 1.303,1.29c0.203,0.381 0.309,0.807 0.309,1.239Z" style="fill:#ffa733;fill-rule:nonzero;"/><path d="M48.542,41.674c-0.639,2.57 -2.253,4.79 -4.501,6.19c-2.972,1.958 -7.079,2.923 -11.612,2.923l-14.274,0c-7.979,0 -14.629,-2.986 -16.11,-9.112c0.172,-0.326 0.404,-0.618 0.683,-0.86c0.668,-0.569 8.08,3.003 8.958,3.012c13.368,3.796 20.992,1.344 34.514,-2.426c0.622,-0.017 0.397,-0.79 0.939,-0.486c0.542,0.305 1.093,0.22 1.403,0.759Z" style="fill:#ffb655;fill-rule:nonzero;"/><path d="M38.086,36.427l1.92,2.124c-0.813,0.813 -8.744,3.259 -9.705,3.396c-6.645,0.947 -19.17,-3.451 -16.498,-4.367l2.205,-1.153l22.078,0Z" style="fill:#eebf00;fill-rule:nonzero;"/><path d="M38.085,36.427l-4.872,4.55c-0.196,0.196 -3.167,0.33 -3.397,0.485c-0.37,-0.126 -2.843,-0.103 -5.205,-0.063c-1.637,0.027 -3.22,0.063 -4.015,0.063c-4.718,-0.837 -5.31,-2.868 -6.793,-4.642l24.282,-0.393Z" style="fill:#ffd422;fill-rule:nonzero;"/><path d="M47.647,37.54c0,0.43 -0.074,0.857 -0.219,1.262c-0.585,1.633 -2.152,2.267 -3.373,1.365l-1.464,-1.082c-1.022,-0.755 -2.326,-0.446 -3.066,0.728l-0.062,0.097c-0.71,1.128 -1.947,1.464 -2.96,0.803l-3.278,-2.142c-0.357,-0.242 -0.784,-0.358 -1.214,-0.333c-0.43,0.026 -0.84,0.193 -1.166,0.475l-2.629,2.138c-0.344,0.297 -0.78,0.466 -1.234,0.478c-0.454,0.012 -0.898,-0.133 -1.257,-0.412l-2.999,-2.222c-0.354,-0.276 -0.793,-0.422 -1.242,-0.413c-0.45,0.009 -0.882,0.172 -1.226,0.461l-2.73,2.168c-0.335,0.282 -0.754,0.443 -1.191,0.459c-0.437,0.017 -0.866,-0.114 -1.221,-0.37l-3.533,-2.457c-0.324,-0.235 -0.713,-0.365 -1.113,-0.371c-0.401,-0.006 -0.794,0.111 -1.125,0.336l-3.297,2.156c-0.613,0.093 -1.24,0.019 -1.815,-0.215c-0.574,-0.234 -1.075,-0.619 -1.448,-1.115c-0.245,-0.438 -0.398,-0.923 -0.448,-1.422c-0.051,-0.5 0.002,-1.005 0.154,-1.484c0.339,-1.086 1.157,-1.923 2.222,-1.923l40.544,0c1.045,0 1.879,0.825 2.222,1.918c0.113,0.362 0.169,0.739 0.168,1.117Z" style="fill:#6dc82a;fill-rule:nonzero;"/><path d="M47.476,36.423c-0.014,0.049 -0.03,0.097 -0.048,0.143c-0.585,1.634 -2.153,2.268 -3.374,1.366l-1.464,-1.083c-1.022,-0.754 -2.326,-0.445 -3.065,0.728l-0.063,0.1c-0.709,1.128 -1.947,1.463 -2.96,0.802l-3.279,-2.145c-0.357,-0.241 -0.784,-0.358 -1.215,-0.332c-0.43,0.026 -0.84,0.193 -1.165,0.475l-2.629,2.138c-0.344,0.297 -0.78,0.466 -1.234,0.478c-0.454,0.012 -0.899,-0.134 -1.257,-0.413l-2.999,-2.222c-0.355,-0.276 -0.793,-0.422 -1.243,-0.413c-0.449,0.009 -0.881,0.172 -1.225,0.461l-2.729,2.169c-0.334,0.282 -0.753,0.443 -1.19,0.46c-0.437,0.016 -0.867,-0.114 -1.221,-0.37l-3.535,-2.456c-0.324,-0.236 -0.713,-0.366 -1.114,-0.372c-0.4,-0.007 -0.793,0.111 -1.124,0.336l-3.297,2.155c-0.613,0.094 -1.241,0.019 -1.815,-0.215c-0.575,-0.234 -1.075,-0.619 -1.448,-1.114c-0.122,-0.213 -0.221,-0.437 -0.295,-0.671c0.34,-1.086 1.158,-1.923 2.223,-1.923l40.544,0c1.044,0 1.878,0.825 2.221,1.918Z" style="fill:#7ed63e;fill-rule:nonzero;"/><path d="M46.829,32.534c0.009,0.411 -0.063,0.82 -0.214,1.203c-0.151,0.382 -0.377,0.731 -0.665,1.025c-0.288,0.294 -0.632,0.527 -1.011,0.686c-0.38,0.159 -0.787,0.241 -1.198,0.24c-5.537,0 -14.846,0.435 -14.895,0.436c-2.809,0.107 -6.794,0.486 -11.161,0.486c-0.189,-0.112 -3.882,-0.486 -5.338,-0.486c-0.264,0 -0.97,0 -3.882,-0.485l-2.183,0.044c-0.815,0.006 -1.601,-0.307 -2.189,-0.872c-0.588,-0.565 -0.932,-1.338 -0.958,-2.153c-0.009,-0.411 0.065,-0.819 0.216,-1.202c0.151,-0.382 0.378,-0.73 0.665,-1.024c0.288,-0.294 0.631,-0.527 1.01,-0.686c0.379,-0.16 0.786,-0.242 1.198,-0.242l37.455,0c0.816,-0.006 1.603,0.307 2.191,0.874c0.589,0.566 0.933,1.339 0.959,2.156Z" style="fill:#ff3501;fill-rule:nonzero;"/><path d="M46.829,32.533c0.006,0.31 -0.034,0.619 -0.118,0.917c-5.862,-0.006 -20.068,1.009 -22.233,1.055c-7.764,0.164 -10.454,-0.956 -9.133,0.186c0.199,0.172 -0.249,-0.465 -0.435,-0.652c-0.187,-0.186 -0.408,-0.334 -0.652,-0.435c-0.244,-0.101 -0.505,-0.153 -0.768,-0.152l-3.759,0c-0.816,0.005 -1.601,-0.308 -2.189,-0.873c-0.588,-0.565 -0.932,-1.337 -0.959,-2.153c-0.007,-0.31 0.033,-0.619 0.119,-0.917l36.976,0c0.816,-0.006 1.602,0.306 2.19,0.871c0.589,0.565 0.933,1.338 0.961,2.153Z" style="fill:#ff5023;fill-rule:nonzero;"/><path d="M29.157,26.368l-6.834,6.838c-0.565,0.564 -1.235,1.012 -1.973,1.318c-0.737,0.305 -1.528,0.462 -2.326,0.462c-0.799,0 -1.589,-0.157 -2.327,-0.462c-0.738,-0.306 -1.408,-0.754 -1.972,-1.318l-6.837,-6.838l22.269,0Z" style="fill:#eebf00;fill-rule:nonzero;"/><path d="M29.158,26.368l-6.835,6.838c-0.66,0.662 -1.466,1.162 -2.352,1.46c-0.887,-0.298 -1.691,-0.798 -2.351,-1.46l-6.837,-6.838l18.375,0Z" style="fill:#ffd422;fill-rule:nonzero;"/><path d="M48.542,27.33c0,0.049 0,0.101 -0.005,0.151c-0.038,0.648 -0.323,1.256 -0.795,1.702c-0.472,0.445 -1.097,0.693 -1.746,0.692l-42.027,0c-0.675,0 -1.323,-0.268 -1.8,-0.745c-0.477,-0.478 -0.745,-1.125 -0.746,-1.8c0,-3.05 1.414,-5.346 3.55,-7.073c1.876,-1.427 3.995,-2.506 6.253,-3.184c6.47,-2.106 13.757,-2.067 13.757,-2.067c0,0 23.559,-0.127 23.559,12.324Z" style="fill:#ffa733;fill-rule:nonzero;"/><path d="M48.542,27.33c0,0.049 0,0.101 -0.005,0.151l-39.396,0c-0.675,-0.001 -1.322,-0.269 -1.8,-0.746c-0.477,-0.477 -0.745,-1.125 -0.745,-1.8c0,-3.049 1.414,-5.345 3.549,-7.072c0.343,-0.278 0.703,-0.542 1.082,-0.79c6.469,-2.106 13.755,-2.067 13.755,-2.067c0,0 23.56,-0.127 23.56,12.324Z" style="fill:#ffb655;fill-rule:nonzero;"/><path d="M37.645,19.459c0.1,0.102 0.178,0.223 0.23,0.356c0.052,0.133 0.077,0.275 0.074,0.417c-0.003,0.143 -0.034,0.284 -0.092,0.414c-0.058,0.131 -0.141,0.248 -0.245,0.346c-0.103,0.098 -0.226,0.175 -0.359,0.225c-0.134,0.051 -0.276,0.074 -0.418,0.069c-0.143,-0.005 -0.283,-0.038 -0.413,-0.098c-0.13,-0.06 -0.246,-0.145 -0.343,-0.25c-0.408,-0.432 -1.16,-1.93 -0.727,-2.339c0.432,-0.408 1.885,0.427 2.293,0.86Z" style="fill:#fff5cc;fill-rule:nonzero;"/><path d="M31.937,24.782c0.102,0.266 0.095,0.563 -0.022,0.824c-0.116,0.261 -0.331,0.465 -0.598,0.567c-0.266,0.102 -0.563,0.095 -0.824,-0.021c-0.26,-0.117 -0.465,-0.332 -0.567,-0.598c-0.213,-0.555 -0.34,-2.227 0.217,-2.44c0.556,-0.213 1.58,1.111 1.794,1.668Z" style="fill:#fff5cc;fill-rule:nonzero;"/><path d="M26.06,20.352c-0.006,0.281 -0.123,0.55 -0.324,0.747c-0.201,0.197 -0.472,0.307 -0.753,0.307c-0.282,0 -0.553,-0.11 -0.754,-0.307c-0.201,-0.197 -0.317,-0.466 -0.323,-0.747c0,-0.595 0.482,-2.2 1.077,-2.2c0.595,0 1.077,1.605 1.077,2.2Z" style="fill:#fff5cc;fill-rule:nonzero;"/><path d="M20.138,25.456c-0.036,0.137 -0.098,0.266 -0.183,0.379c-0.085,0.113 -0.191,0.208 -0.313,0.28c-0.122,0.072 -0.257,0.119 -0.397,0.139c-0.14,0.02 -0.283,0.011 -0.42,-0.024c-0.137,-0.035 -0.266,-0.097 -0.379,-0.182c-0.113,-0.085 -0.208,-0.192 -0.28,-0.314c-0.072,-0.122 -0.119,-0.257 -0.139,-0.397c-0.019,-0.14 -0.011,-0.282 0.024,-0.419c0.149,-0.576 1.019,-2.01 1.593,-1.861c0.574,0.149 0.643,1.823 0.494,2.399Z" style="fill:#fff5cc;fill-rule:nonzero;"/><path d="M14.213,20.765c-0.125,0.257 -0.346,0.454 -0.616,0.548c-0.27,0.094 -0.566,0.077 -0.823,-0.048c-0.257,-0.124 -0.454,-0.346 -0.548,-0.616c-0.094,-0.27 -0.076,-0.566 0.048,-0.823c0.259,-0.534 1.393,-1.769 1.929,-1.51c0.535,0.26 0.267,1.914 0.01,2.449Z" style="fill:#fff5cc;fill-rule:nonzero;"/></svg>