<svg width="66" height="65" viewBox="0 0 66 65" fill="none" xmlns="http://www.w3.org/2000/svg">
<path d="M65.0394 41.014C65.0373 39.6916 64.6257 38.4024 63.8611 37.3235C63.0964 36.2446 62.0164 35.4291 60.7694 34.989V31.83C61.1733 31.6815 61.558 31.4854 61.9154 31.246C62.6114 30.7922 63.1828 30.1716 63.5779 29.4407C63.9729 28.7098 64.179 27.8918 64.1774 27.061C64.1804 26.0181 63.8527 25.001 63.2414 24.156C63.5529 23.4186 63.6402 22.6057 63.4924 21.819C62.4114 16.036 58.6984 10.744 53.0384 6.914C46.9971 2.98148 39.9275 0.923831 32.7194 1C25.5107 0.923436 18.4403 2.98111 12.3984 6.914C6.73844 10.743 3.02544 16.036 1.94444 21.814C1.75815 22.8045 1.94593 23.8289 2.47144 24.689C2.07534 25.4149 1.86896 26.2291 1.87144 27.056C1.86998 27.8869 2.07624 28.705 2.47146 29.4359C2.86668 30.1668 3.43834 30.7873 4.13444 31.241C4.30545 31.3552 4.48273 31.4597 4.66544 31.554V34.984C3.41822 35.4249 2.33826 36.2414 1.57414 37.3212C0.810022 38.4011 0.399284 39.6912 0.398438 41.014V41.27C0.398336 42.1467 0.579199 43.014 0.929707 43.8175C1.28021 44.6211 1.79282 45.3437 2.43544 45.94C1.968 46.8417 1.7875 47.8648 1.91817 48.872C2.04883 49.8792 2.4844 50.8224 3.16644 51.575V56.13C3.16908 58.4703 4.09992 60.7139 5.75473 62.3687C7.40954 64.0235 9.65318 64.9544 11.9934 64.957H53.4454C55.7857 64.9544 58.0293 64.0235 59.6841 62.3687C61.339 60.7139 62.2698 58.4703 62.2724 56.13V52.147C63.2447 51.3819 63.8978 50.2827 64.1048 49.0629C64.3118 47.8432 64.0579 46.59 63.3924 45.547C64.4529 44.3762 65.0397 42.8527 65.0384 41.273L65.0394 41.014ZM62.5144 41.014V41.27C62.5129 42.2935 62.1056 43.2747 61.3818 43.9984C60.6581 44.7221 59.677 45.1294 58.6534 45.131H39.0754L47.1264 37.152H58.6524C59.6762 37.1531 60.6578 37.5601 61.3818 38.284C62.1058 39.0078 62.5131 39.9892 62.5144 41.013V41.014ZM19.5344 37.153L19.7344 37.353L21.0344 38.648L18.3184 41.359L14.1114 37.152L19.5344 37.153ZM31.4544 45.5L23.7084 37.755L23.1084 37.155H43.5344L35.0984 45.5L33.2734 47.32L31.4544 45.5ZM4.42844 22.282C5.38444 17.169 8.71844 12.454 13.8154 9.005C19.4373 5.35483 26.0129 3.44825 32.7154 3.525C39.4179 3.44825 45.9935 5.35483 51.6154 9.005C56.7154 12.453 60.0454 17.168 61.0024 22.282C61.0412 22.508 61.0305 22.7397 60.9711 22.9611C60.9117 23.1825 60.805 23.3885 60.6583 23.5647C60.5117 23.7409 60.3285 23.8832 60.1216 23.9819C59.9146 24.0805 59.6887 24.1331 59.4594 24.136H5.97144C5.74219 24.1331 5.51629 24.0805 5.30932 23.9819C5.10235 23.8832 4.91923 23.7409 4.77256 23.5647C4.6259 23.3885 4.51919 23.1825 4.45978 22.9611C4.40037 22.7397 4.38968 22.508 4.42844 22.282V22.282ZM4.49444 26.382C4.9657 26.5636 5.46639 26.6568 5.97144 26.657H59.4714C60.1733 26.6567 60.8635 26.477 61.4764 26.135C61.5953 26.4275 61.6564 26.7403 61.6564 27.056C61.6544 27.472 61.5487 27.8809 61.3488 28.2456C61.1488 28.6104 60.861 28.9195 60.5114 29.145C60.1407 29.3897 59.7198 29.5483 59.2798 29.609C58.8397 29.6698 58.3916 29.6311 57.9684 29.496C57.5474 29.363 57.1504 29.196 56.7164 29.096C56.2462 28.9975 55.7669 28.9489 55.2864 28.951C53.6728 28.9312 52.103 29.4759 50.8484 30.491C50.0115 31.1876 48.9569 31.5691 47.8679 31.5691C46.779 31.5691 45.7244 31.1876 44.8874 30.491C43.6236 29.493 42.0603 28.9501 40.4499 28.9501C38.8396 28.9501 37.2762 29.493 36.0124 30.491C35.1753 31.1877 34.1206 31.5692 33.0314 31.5692C31.9423 31.5692 30.8876 31.1877 30.0504 30.491C28.7865 29.4933 27.2232 28.9506 25.6129 28.9506C24.0027 28.9506 22.4394 29.4933 21.1754 30.491C20.3384 31.1879 19.2836 31.5695 18.1944 31.5695C17.1053 31.5695 16.0505 31.1879 15.2134 30.491C13.9591 29.4756 12.3891 28.9308 10.7754 28.951C9.93327 28.9418 9.09759 29.0992 8.31644 29.414C7.86817 29.5972 7.38199 29.6684 6.90002 29.6213C6.41805 29.5743 5.95482 29.4104 5.55044 29.144C5.20041 28.9199 4.91176 28.6121 4.71062 28.2484C4.50948 27.8847 4.40218 27.4766 4.39844 27.061C4.3977 26.8331 4.42901 26.6062 4.49144 26.387L4.49444 26.382ZM7.44544 32.156C8.09786 32.1135 8.73929 31.967 9.34544 31.722C9.9659 31.502 10.6282 31.4258 11.2824 31.499C12.1934 31.5952 13.0543 31.9632 13.7534 32.555C15.0172 33.553 16.5806 34.0959 18.1909 34.0959C19.8013 34.0959 21.3646 33.553 22.6284 32.555C23.4656 31.8583 24.5203 31.4768 25.6094 31.4768C26.6986 31.4768 27.7533 31.8583 28.5904 32.555C29.8542 33.553 31.4176 34.0959 33.0279 34.0959C34.6383 34.0959 36.2016 33.553 37.4654 32.555C38.3026 31.8583 39.3573 31.4768 40.4464 31.4768C41.5356 31.4768 42.5903 31.8583 43.4274 32.555C44.6911 33.5528 46.2543 34.0955 47.8644 34.0955C49.4746 34.0955 51.0377 33.5528 52.3014 32.555C53.1297 31.843 54.1903 31.4595 55.2824 31.477C55.7953 31.4738 56.3041 31.5671 56.7824 31.752C57.2505 31.9397 57.7409 32.0661 58.2414 32.128V34.623H7.19844V32.163C7.28244 32.163 7.36544 32.163 7.44944 32.156H7.44544ZM2.92444 41.014C2.92576 39.9904 3.33297 39.0091 4.05676 38.2853C4.78055 37.5615 5.76184 37.1543 6.78544 37.153H10.5414L17.4264 44.038C17.6632 44.2745 17.9843 44.4073 18.3189 44.4073C18.6536 44.4073 18.9746 44.2745 19.2114 44.038L22.8114 40.438L27.5114 45.138H6.78544C5.76071 45.1364 4.77851 44.7282 4.05458 44.0029C3.33065 43.2777 2.92417 42.2947 2.92444 41.27V41.014ZM4.61044 47.275C5.30817 47.5274 6.04445 47.6566 6.78644 47.657H30.0394L32.3804 50C32.6186 50.2324 32.9382 50.3625 33.2709 50.3625C33.6037 50.3625 33.9233 50.2324 34.1614 50L36.5284 47.655H58.6524C59.3673 47.6547 60.077 47.535 60.7524 47.301C60.8955 47.2555 61.0351 47.2 61.1704 47.135C61.2134 47.113 61.2754 47.063 61.3264 47.067C61.3964 47.067 61.4144 47.161 61.4394 47.217C61.576 47.5197 61.6495 47.847 61.6554 48.179C61.6499 48.7547 61.4554 49.3127 61.1018 49.7671C60.7482 50.2215 60.2552 50.5472 59.6984 50.694C59.0531 50.8784 58.3645 50.8404 57.7434 50.586C56.9627 50.2709 56.1273 50.1136 55.2854 50.123C53.672 50.1033 52.1024 50.6485 50.8484 51.664C50.0114 52.3609 48.9566 52.7425 47.8674 52.7425C46.7783 52.7425 45.7235 52.3609 44.8864 51.664C43.6226 50.666 42.0593 50.1231 40.4489 50.1231C38.8386 50.1231 37.2752 50.666 36.0114 51.664C35.1744 52.3609 34.1196 52.7425 33.0304 52.7425C31.9413 52.7425 30.8865 52.3609 30.0494 51.664C28.7856 50.666 27.2223 50.1231 25.6119 50.1231C24.0016 50.1231 22.4382 50.666 21.1744 51.664C20.3374 52.3609 19.2826 52.7425 18.1934 52.7425C17.1043 52.7425 16.0495 52.3609 15.2124 51.664C13.9581 50.6485 12.3882 50.1034 10.7744 50.123C9.93224 50.1135 9.09649 50.2708 8.31544 50.586C7.90455 50.7543 7.4612 50.8286 7.01789 50.8033C6.57458 50.7781 6.14254 50.6539 5.75344 50.44C5.40764 50.2538 5.10874 49.9914 4.87936 49.6726C4.64997 49.3538 4.49612 48.987 4.42944 48.6C4.3936 48.3662 4.39124 48.1285 4.42244 47.894C4.43144 47.826 4.54744 47.251 4.60944 47.274L4.61044 47.275ZM59.7474 56.13C59.7448 57.8001 59.0802 59.4009 57.8993 60.5819C56.7184 61.7628 55.1175 62.4274 53.4474 62.43H11.9934C10.3234 62.4274 8.72249 61.7628 7.54159 60.5819C6.36068 59.4009 5.69608 57.8001 5.69344 56.13V53.136C6.75118 53.4333 7.87397 53.4051 8.91544 53.055L8.98044 53.033C9.08044 52.999 9.17444 52.964 9.27044 52.925C9.74752 52.7357 10.2572 52.6422 10.7704 52.65C11.8626 52.6321 12.9233 53.0157 13.7514 53.728C15.0153 54.7259 16.5786 55.2686 18.1889 55.2686C19.7993 55.2686 21.3626 54.7259 22.6264 53.728C23.4636 53.0313 24.5183 52.6498 25.6074 52.6498C26.6966 52.6498 27.7513 53.0313 28.5884 53.728C29.8522 54.726 31.4156 55.2689 33.0259 55.2689C34.6363 55.2689 36.1996 54.726 37.4634 53.728C38.3005 53.0315 39.355 52.6502 40.4439 52.6502C41.5328 52.6502 42.5874 53.0315 43.4244 53.728C44.6882 54.726 46.2516 55.2689 47.8619 55.2689C49.4723 55.2689 51.0356 54.726 52.2994 53.728C53.1276 53.0158 54.1883 52.6322 55.2804 52.65C55.6578 52.6465 56.0339 52.6943 56.3984 52.792C56.7444 52.892 57.0704 53.04 57.4164 53.138C58.1748 53.3496 58.9701 53.3943 59.7474 53.269V56.13V56.13Z" fill="#A80E0E"/>
</svg>
