<svg width="70" height="116" viewBox="0 0 70 116" fill="none" xmlns="http://www.w3.org/2000/svg">
<path d="M52.1693 40.5782L46.3692 38.6462C50.6372 38.6462 54.0983 37.1182 54.0983 32.8462C54.0983 30.7963 53.2839 28.8304 51.8345 27.381C50.385 25.9315 48.4191 25.1172 46.3692 25.1172H23.1862C21.1364 25.1172 19.1705 25.9315 17.721 27.381C16.2716 28.8304 15.4572 30.7963 15.4572 32.8462C15.4572 37.1142 18.9182 42.5072 23.1862 42.5072L17.3862 40.5752C16.3639 40.5636 15.3495 40.7549 14.4016 41.1381C13.4537 41.5212 12.5913 42.0887 11.8643 42.8075C11.1372 43.5263 10.56 44.3822 10.1661 45.3256C9.77217 46.2691 9.56934 47.2813 9.56934 48.3037C9.56934 49.3261 9.77217 50.3383 10.1661 51.2817C10.56 52.2252 11.1372 53.0811 11.8643 53.7999C12.5913 54.5187 13.4537 55.0862 14.4016 55.4693C15.3495 55.8525 16.3639 56.0438 17.3862 56.0322H52.1653C54.1998 56.0091 56.1431 55.1846 57.5736 53.7377C59.0041 52.2909 59.8063 50.3383 59.8063 48.3037C59.8063 46.2691 59.0041 44.3165 57.5736 42.8696C56.1431 41.4228 54.1998 40.5983 52.1653 40.5752L52.1693 40.5782Z" fill="#E9686A"/>
<path d="M67.6252 69.5599V67.6279L63.7612 90.8179L67.6252 69.5599Z" fill="#FDBD40"/>
<path d="M1.93213 67.6279L21.2541 79.2179L25.1181 113.997H9.66113L1.93213 67.6279Z" fill="#FDBD40"/>
<path d="M30.426 4.62414L23.7001 18.0781C23.3292 18.8201 23.1541 19.6446 23.1915 20.4733C23.2288 21.302 23.4773 22.1073 23.9134 22.813C24.3496 23.5186 24.9588 24.101 25.6833 24.505C26.4078 24.909 27.2235 25.1211 28.053 25.1211H41.505C42.3346 25.1211 43.1503 24.909 43.8748 24.505C44.5993 24.101 45.2085 23.5186 45.6446 22.813C46.0808 22.1073 46.3293 21.302 46.3666 20.4733C46.404 19.6446 46.2289 18.8201 45.858 18.0781L39.132 4.62414C38.7278 3.8158 38.1064 3.13598 37.3376 2.66086C36.5688 2.18574 35.6828 1.93408 34.779 1.93408C33.8753 1.93408 32.9893 2.18574 32.2205 2.66086C31.4517 3.13598 30.8303 3.8158 30.426 4.62414V4.62414Z" fill="#F98C96"/>
<path d="M59.8971 56.0361H9.66113C7.61127 56.0361 5.64537 56.8504 4.1959 58.2999C2.74643 59.7494 1.93213 61.7153 1.93213 63.7651V67.6261L21.2541 79.2261L34.7791 67.6261L48.3041 79.2261L67.6271 67.6261V63.7621C67.6263 61.7126 66.8115 59.7473 65.3619 58.2985C63.9123 56.8496 61.9466 56.0359 59.8971 56.0361V56.0361Z" fill="#F98C96"/>
<path d="M46.3717 40.5778C46.1923 40.5769 46.0138 40.5524 45.8408 40.5048C45.7078 40.4638 32.2787 36.6408 22.8077 34.7428C22.3195 34.6284 21.8949 34.3287 21.6236 33.907C21.3523 33.4853 21.2556 32.9747 21.3539 32.483C21.4522 31.9913 21.7378 31.5571 22.1503 31.2721C22.5629 30.9871 23.0701 30.8737 23.5648 30.9558C33.1908 32.8878 46.7647 36.7558 46.9037 36.7868C47.3529 36.9139 47.7409 37.1993 47.9959 37.5903C48.251 37.9813 48.3558 38.4514 48.291 38.9138C48.2263 39.3761 47.9963 39.7993 47.6437 40.1052C47.291 40.4111 46.8396 40.579 46.3728 40.5778H46.3717Z" fill="white"/>
<path d="M44.4398 50.239C44.2682 50.239 44.0974 50.2161 43.9318 50.171L22.6778 44.371C22.4277 44.3091 22.1925 44.1978 21.9859 44.0437C21.7794 43.8896 21.6058 43.6958 21.4753 43.4736C21.3448 43.2515 21.26 43.0055 21.2259 42.75C21.1919 42.4946 21.2092 42.235 21.277 41.9864C21.3447 41.7378 21.4615 41.5052 21.6204 41.3024C21.7793 41.0995 21.9771 40.9305 22.2023 40.8053C22.4275 40.68 22.6754 40.6011 22.9316 40.573C23.1877 40.545 23.4469 40.5684 23.6938 40.642L44.9478 46.442C45.4029 46.562 45.7985 46.8441 46.0603 47.2352C46.3222 47.6263 46.4322 48.0995 46.3699 48.566C46.3075 49.0325 46.077 49.4602 45.7216 49.7688C45.3663 50.0774 44.9105 50.2456 44.4398 50.242V50.239Z" fill="white"/>
<path d="M48.3039 79.218L44.4399 113.997H59.8969L67.6259 67.625L48.3039 79.218Z" fill="#FDBD40"/>
<path d="M21.2539 79.2179L34.7789 67.6279L48.3039 79.2179L44.4399 113.997H25.1179L21.2539 79.2179Z" fill="#E97424"/>
<path d="M11.5928 61.832H15.4568V65.696H11.5928V61.832Z" fill="#FFD782"/>
<path d="M19.3218 65.6958H23.1858V69.5598H19.3218V65.6958Z" fill="#FFD782"/>
<path d="M42.5078 61.832H46.3718V65.696H42.5078V61.832Z" fill="#FFD782"/>
<path d="M50.2358 65.6958H54.0998V69.5598H50.2358V65.6958Z" fill="#FFD782"/>
<path d="M59.895 54.1001H59.845C61.1244 52.4367 61.8208 50.3986 61.827 48.3001C61.823 45.9248 60.9455 43.6339 59.3617 41.8636C57.7778 40.0934 55.5983 38.9674 53.238 38.7001C54.1457 38.0262 54.8746 37.1404 55.3612 36.12C55.8479 35.0996 56.0775 33.9756 56.03 32.8461C56.0227 30.4975 55.1585 28.2322 53.5996 26.4756C52.0406 24.7189 49.8942 23.5916 47.563 23.3051C48.0454 22.3614 48.2984 21.3173 48.3018 20.2574C48.3051 19.1976 48.0585 18.1519 47.582 17.2051L40.86 3.76013C40.295 2.63146 39.4269 1.68234 38.353 1.01903C37.2791 0.355715 36.0418 0.00439453 34.7795 0.00439453C33.5173 0.00439453 32.28 0.355715 31.2061 1.01903C30.1322 1.68234 29.2641 2.63146 28.699 3.76013L21.973 17.2121C21.4966 18.1589 21.25 19.2046 21.2533 20.2644C21.2566 21.3243 21.5097 22.3684 21.992 23.3121C19.6609 23.5986 17.5144 24.7259 15.9555 26.4826C14.3966 28.2392 13.5323 30.5045 13.525 32.8531C13.5627 34.9758 14.1254 37.056 15.163 38.9081C13.048 39.412 11.1642 40.6135 9.81541 42.3188C8.46659 44.0241 7.73129 46.1339 7.72803 48.3081C7.73423 50.4066 8.4307 52.4447 9.71003 54.1081H9.66003C7.09867 54.111 4.64305 55.1298 2.83189 56.941C1.02074 58.7521 0.00194259 61.2078 -0.0009688 63.7691V69.5691C-0.00130182 69.6852 0.00908138 69.801 0.0300371 69.9151L7.75903 114.326C7.83392 114.776 8.06581 115.186 8.4136 115.481C8.76138 115.777 9.20259 115.94 9.65903 115.941H59.895C60.3523 115.941 60.7947 115.779 61.1436 115.483C61.4924 115.187 61.725 114.777 61.8 114.326L69.529 69.9151C69.5487 69.8009 69.5577 69.6851 69.556 69.5691V63.7691C69.555 61.2065 68.537 58.7489 66.7257 56.9361C64.9144 55.1233 62.4577 54.1033 59.895 54.1001V54.1001ZM23.284 80.0201L34.777 70.1701L46.27 80.0241L42.699 112.065H26.857L23.284 80.0201ZM25.427 18.9341L32.155 5.49013C32.3985 5.00261 32.773 4.59255 33.2364 4.30594C33.6999 4.01934 34.2341 3.86752 34.779 3.86752C35.324 3.86752 35.8581 4.01934 36.3216 4.30594C36.7851 4.59255 37.1596 5.00261 37.403 5.49013L44.129 18.9381C44.3535 19.3856 44.4598 19.8831 44.4378 20.3833C44.4157 20.8835 44.2661 21.3697 44.0031 21.7958C43.7401 22.2218 43.3726 22.5735 42.9353 22.8174C42.4981 23.0613 42.0057 23.1892 41.505 23.1891H28.053C27.5524 23.1892 27.06 23.0613 26.6228 22.8174C26.1855 22.5735 25.8179 22.2218 25.5549 21.7958C25.292 21.3697 25.1423 20.8835 25.1203 20.3833C25.0983 19.8831 25.2045 19.3856 25.429 18.9381L25.427 18.9341ZM11.595 48.3061C11.593 46.8185 12.1628 45.3869 13.1864 44.3074C14.2101 43.228 15.6094 42.5831 17.095 42.5061L18.995 43.1381C20.1362 43.8887 21.4553 44.3247 22.819 44.4021L43.93 50.1601C44.4201 50.2813 44.9381 50.2061 45.3733 49.9504C45.8085 49.6947 46.1265 49.2789 46.2592 48.7918C46.3919 48.3048 46.3288 47.7852 46.0834 47.344C45.838 46.9029 45.4298 46.5752 44.946 46.4311L23.729 40.6311L20.773 39.6461C19.7645 38.8125 18.9421 37.7766 18.3591 36.6053C17.776 35.434 17.4452 34.1533 17.388 32.8461C17.388 31.3079 17.9991 29.8326 19.0868 28.7449C20.1745 27.6572 21.6498 27.0461 23.188 27.0461H46.374C47.9123 27.0461 49.3875 27.6572 50.4753 28.7449C51.563 29.8326 52.174 31.3079 52.174 32.8461C52.174 33.7891 52.162 36.6181 46.621 36.7101C44.677 36.1611 32.454 32.7361 23.57 30.9601C23.0754 30.878 22.5682 30.9915 22.1556 31.2765C21.7431 31.5614 21.4575 31.9957 21.3592 32.4874C21.2609 32.9791 21.3576 33.4897 21.6289 33.9114C21.9002 34.3331 22.3248 34.6328 22.813 34.7471C32.263 36.6391 45.645 40.4471 45.841 40.5071L51.564 42.4141C51.7614 42.4777 51.9677 42.5091 52.175 42.5071C52.9532 42.4801 53.7288 42.61 54.4557 42.8891C55.1826 43.1682 55.8458 43.5909 56.4059 44.1318C56.9659 44.6727 57.4113 45.3209 57.7155 46.0376C58.0197 46.7544 58.1765 47.525 58.1765 48.3036C58.1765 49.0823 58.0197 49.8529 57.7155 50.5697C57.4113 51.2864 56.9659 51.9345 56.4059 52.4755C55.8458 53.0164 55.1826 53.439 54.4557 53.7181C53.7288 53.9973 52.9532 54.1272 52.175 54.1001H17.39C15.8518 54.1001 14.3765 53.4891 13.2888 52.4014C12.2011 51.3136 11.59 49.8384 11.59 48.3001L11.595 48.3061ZM3.86404 63.7641C3.86404 62.2259 4.4751 60.7506 5.56281 59.6629C6.65052 58.5752 8.12578 57.9641 9.66403 57.9641H59.895C61.4333 57.9641 62.9085 58.5752 63.9963 59.6629C65.084 60.7506 65.695 62.2259 65.695 63.7641V66.5351L48.495 76.8471L36.029 66.1621C35.6791 65.8627 35.2336 65.6982 34.773 65.6982C34.3124 65.6982 33.867 65.8627 33.517 66.1621L21.061 76.8471L3.86103 66.5351L3.86404 63.7641ZM11.297 112.064L4.52503 71.4341L19.439 80.3761L22.959 112.064H11.297ZM58.26 112.064H46.595L50.115 80.3761L65.029 71.4281L58.26 112.064Z" fill="black"/>
<path d="M30.9542 19.324C31.4666 19.324 31.958 19.1204 32.3204 18.7581C32.6827 18.3958 32.8862 17.9044 32.8862 17.392C32.8862 16.8796 32.6827 16.3881 32.3204 16.0258C31.958 15.6635 31.4666 15.46 30.9542 15.46H30.9352C30.6815 15.4612 30.4305 15.5124 30.1966 15.6107C29.9627 15.7089 29.7504 15.8523 29.5719 16.0325C29.3933 16.2128 29.2521 16.4265 29.1562 16.6614C29.0602 16.8963 29.0115 17.1477 29.0127 17.4015C29.014 17.6552 29.0652 17.9062 29.1634 18.1401C29.2617 18.374 29.405 18.5863 29.5853 18.7648C29.7656 18.9433 29.9793 19.0846 30.2141 19.1805C30.449 19.2765 30.7005 19.3252 30.9542 19.324Z" fill="black"/>
<path d="M38.6818 21.2561C39.1942 21.2561 39.6856 21.0525 40.0479 20.6902C40.4102 20.3279 40.6137 19.8365 40.6137 19.3241C40.6137 18.8117 40.4102 18.3203 40.0479 17.958C39.6856 17.5956 39.1942 17.3921 38.6818 17.3921H38.6628C38.409 17.3933 38.158 17.4445 37.9241 17.5428C37.6902 17.641 37.4779 17.7844 37.2994 17.9647C37.1209 18.145 36.9796 18.3586 36.8837 18.5935C36.7878 18.8284 36.739 19.0799 36.7403 19.3336C36.7415 19.5873 36.7927 19.8383 36.891 20.0722C36.9892 20.3061 37.1326 20.5184 37.3128 20.6969C37.4931 20.8755 37.7068 21.0167 37.9417 21.1127C38.1766 21.2086 38.428 21.2573 38.6818 21.2561Z" fill="black"/>
<path d="M34.818 15.4592C35.0717 15.4592 35.3229 15.4092 35.5573 15.3122C35.7917 15.2151 36.0047 15.0728 36.1841 14.8933C36.3635 14.7139 36.5058 14.501 36.6029 14.2666C36.7 14.0322 36.75 13.7809 36.75 13.5272C36.75 13.2735 36.7 13.0223 36.6029 12.7879C36.5058 12.5535 36.3635 12.3405 36.1841 12.1611C36.0047 11.9817 35.7917 11.8394 35.5573 11.7423C35.3229 11.6452 35.0717 11.5952 34.818 11.5952H34.799C34.5453 11.5965 34.2943 11.6477 34.0604 11.7459C33.8264 11.8442 33.6142 11.9875 33.4356 12.1678C33.2571 12.3481 33.1159 12.5618 33.0199 12.7966C32.924 13.0315 32.8752 13.283 32.8765 13.5367C32.8777 13.7904 32.9289 14.0414 33.0272 14.2753C33.1254 14.5093 33.2688 14.7215 33.4491 14.9001C33.6294 15.0786 33.843 15.2198 34.0779 15.3158C34.3128 15.4117 34.5643 15.4605 34.818 15.4592Z" fill="black"/>
<path d="M11.5928 61.832H15.4568V65.696H11.5928V61.832Z" fill="black"/>
<path d="M19.3223 65.6958H23.1863V69.5598H19.3223V65.6958Z" fill="black"/>
<path d="M42.5078 61.832H46.3718V65.696H42.5078V61.832Z" fill="black"/>
<path d="M50.2358 65.6958H54.0998V69.5598H50.2358V65.6958Z" fill="black"/>
</svg>
