<svg width="76" height="98" viewBox="0 0 76 98" fill="none" xmlns="http://www.w3.org/2000/svg">
<path d="M33.4341 61.9507L29.7891 62.3057C29.1858 62.3709 28.5803 62.2028 28.0969 61.836C27.6135 61.4691 27.2887 60.9313 27.1891 60.3327L19.2251 5.3257C19.1543 4.96424 19.1569 4.59222 19.2328 4.23178C19.3086 3.87135 19.4563 3.52987 19.6669 3.22767C19.8774 2.92546 20.1467 2.66871 20.4585 2.4727C20.7704 2.27669 21.1185 2.14541 21.4821 2.0867L27.1821 1.4477C27.5528 1.42487 27.9243 1.47574 28.2752 1.59738C28.6261 1.71902 28.9494 1.90901 29.2264 2.15636C29.5034 2.40371 29.7286 2.70352 29.8891 3.03846C30.0495 3.3734 30.142 3.73681 30.1611 4.1077L35.5061 59.5177C35.5304 59.8136 35.4961 60.1113 35.405 60.3939C35.3139 60.6765 35.1679 60.9382 34.9754 61.1642C34.7829 61.3902 34.5476 61.5759 34.2831 61.7107C34.0186 61.8455 33.7301 61.9267 33.4341 61.9497V61.9507Z" fill="#FCCF3F"/>
<path d="M23.9702 66.1303L20.3492 66.3103C19.7486 66.3466 19.1563 66.1561 18.6896 65.7764C18.2229 65.3968 17.9158 64.8557 17.8292 64.2603L11.4592 10.1083C11.3982 9.75387 11.4111 9.39068 11.497 9.04148C11.583 8.69227 11.7401 8.36457 11.9585 8.0789C12.177 7.79324 12.4521 7.55575 12.7666 7.38134C13.0811 7.20692 13.4282 7.09932 13.7862 7.06529L19.4452 6.74229C20.188 6.73608 20.904 7.01997 21.4407 7.53355C21.9775 8.04714 22.2926 8.74989 22.3192 9.49229L26.0882 63.8463C26.1039 64.1364 26.0612 64.4268 25.9624 64.7C25.8636 64.9733 25.7109 65.2239 25.5133 65.4369C25.3156 65.6499 25.0772 65.821 24.8121 65.9399C24.547 66.0589 24.2607 66.1233 23.9702 66.1293V66.1303Z" fill="#EFC03C"/>
<path d="M18.5572 69.9194L15.0082 70.3284C14.4162 70.3993 13.8188 70.2502 13.3295 69.9095C12.8402 69.5688 12.4931 69.0602 12.3542 68.4804L1.49916 15.9444C1.40883 15.6047 1.39038 15.2499 1.44497 14.9027C1.49956 14.5554 1.62599 14.2234 1.8162 13.9278C2.0064 13.6321 2.25619 13.3795 2.54959 13.1859C2.84299 12.9923 3.17356 12.862 3.52016 12.8034L9.04216 12.0724C9.77257 12.0128 10.4978 12.2371 11.0671 12.6986C11.6363 13.1602 12.0056 13.8235 12.0982 14.5504L20.4482 67.5424C20.4896 67.8242 20.4727 68.1115 20.3987 68.3865C20.3246 68.6614 20.1948 68.9183 20.0175 69.1411C19.8401 69.3639 19.6189 69.548 19.3676 69.6819C19.1162 69.8157 18.84 69.8966 18.5562 69.9194H18.5572Z" fill="#FCCF3F"/>
<path d="M41.7052 61.9505L45.3502 62.3055C45.9535 62.3707 46.559 62.2026 47.0424 61.8358C47.5258 61.4689 47.8506 60.9311 47.9502 60.3325L55.9112 5.33149C55.9822 4.97002 55.9797 4.59796 55.9039 4.23747C55.828 3.87699 55.6804 3.53545 55.4698 3.23321C55.2592 2.93098 54.9899 2.67422 54.678 2.47825C54.3661 2.28227 54.0179 2.15108 53.6542 2.0925L47.9542 1.45349C47.5836 1.4308 47.2122 1.48178 46.8614 1.60348C46.5106 1.72518 46.1875 1.91519 45.9106 2.16253C45.6336 2.40987 45.4085 2.70964 45.2481 3.0445C45.0878 3.37937 44.9953 3.7427 44.9762 4.1135L39.6312 59.5235C39.6067 59.8194 39.641 60.1172 39.732 60.3998C39.823 60.6824 39.969 60.9443 40.1616 61.1703C40.3541 61.3963 40.5894 61.582 40.854 61.7168C41.1186 61.8515 41.4072 61.9327 41.7032 61.9555L41.7052 61.9505Z" fill="#FCCF3F"/>
<path d="M51.169 66.1307L54.79 66.3107C55.3906 66.3471 55.9829 66.1566 56.4496 65.7769C56.9163 65.3972 57.2234 64.8561 57.31 64.2607L63.681 10.1097C63.742 9.75533 63.7291 9.39214 63.6431 9.04293C63.5572 8.69373 63.4001 8.36603 63.1817 8.08036C62.9632 7.79469 62.6881 7.55721 62.3736 7.38279C62.0591 7.20838 61.712 7.10078 61.354 7.06675L55.694 6.74374C54.9513 6.7378 54.2356 7.0218 53.6991 7.53536C53.1626 8.04892 52.8475 8.75152 52.821 9.49374L49.052 63.8477C49.0363 64.1379 49.079 64.4282 49.1778 64.7015C49.2766 64.9747 49.4293 65.2253 49.6269 65.4383C49.8246 65.6514 50.063 65.8224 50.3281 65.9414C50.5932 66.0603 50.8795 66.1247 51.17 66.1307H51.169Z" fill="#EFC03C"/>
<path d="M56.5811 69.9194L60.1311 70.3284C60.723 70.3992 61.3202 70.25 61.8093 69.9093C62.2985 69.5686 62.6454 69.0601 62.7841 68.4804L73.6391 15.9454C73.7296 15.6057 73.7482 15.2508 73.6938 14.9035C73.6393 14.5562 73.513 14.2241 73.3229 13.9283C73.1327 13.6326 72.883 13.3798 72.5896 13.1861C72.2963 12.9924 71.9657 12.862 71.6191 12.8034L66.0971 12.0724C65.3666 12.013 64.6413 12.2375 64.0721 12.6992C63.5029 13.1609 63.1337 13.8243 63.0411 14.5514L54.6901 67.5424C54.6487 67.8241 54.6655 68.1114 54.7396 68.3864C54.8137 68.6614 54.9434 68.9182 55.1208 69.141C55.2981 69.3639 55.5193 69.5479 55.7707 69.6818C56.0221 69.8157 56.2982 69.8965 56.5821 69.9194H56.5811Z" fill="#FCCF3F"/>
<path d="M38.812 67.8854H35.194C34.6034 67.8987 34.0308 67.6814 33.5977 67.2797C33.1646 66.8779 32.905 66.3233 32.874 65.7334L31.498 11.8794C31.4743 11.5191 31.5232 11.1576 31.6417 10.8165C31.7602 10.4754 31.9459 10.1615 32.1879 9.89348C32.4299 9.62542 32.7231 9.40861 33.0504 9.2559C33.3776 9.10318 33.7321 9.01766 34.093 9.00439H39.749C40.1097 9.01877 40.4639 9.10499 40.7909 9.25801C41.1179 9.41102 41.411 9.62776 41.6532 9.89551C41.8953 10.1633 42.0816 10.4767 42.201 10.8173C42.3205 11.158 42.3708 11.5191 42.349 11.8794L41.124 65.7344C41.0947 66.3234 40.8367 66.8778 40.4049 67.2795C39.9731 67.6812 39.4016 67.8986 38.812 67.8854V67.8854Z" fill="#EFC03C"/>
<path d="M38.9672 72.8394L35.6442 74.2024C35.1022 74.4357 34.4918 74.4549 33.9362 74.2559C33.3805 74.057 32.921 73.6548 32.6502 73.1304L9.78323 25.0124C9.61715 24.6991 9.51693 24.3551 9.48871 24.0016C9.4605 23.6481 9.50489 23.2926 9.61916 22.9569C9.73343 22.6212 9.91517 22.3125 10.1532 22.0496C10.3912 21.7867 10.6805 21.5753 11.0032 21.4284L16.1772 19.2644C16.8586 19.0108 17.6126 19.0367 18.2751 19.3364C18.9375 19.636 19.4548 20.1852 19.7142 20.8644L40.2302 70.0204C40.3345 70.2881 40.3846 70.5739 40.3776 70.8611C40.3705 71.1483 40.3065 71.4313 40.1892 71.6936C40.0719 71.9559 39.9036 72.1922 39.6942 72.3889C39.4848 72.5856 39.2383 72.7387 38.9692 72.8394H38.9672Z" fill="#FCCF3F"/>
<path d="M39.002 81.4303L35.415 81.5963C34.8259 81.634 34.2444 81.4467 33.788 81.0723C33.3317 80.698 33.0343 80.1644 32.956 79.5793L27.615 26.5733C27.5639 26.2223 27.5852 25.8646 27.6776 25.5222C27.7699 25.1798 27.9314 24.8598 28.152 24.5821C28.3725 24.3044 28.6476 24.0747 28.9603 23.9072C29.2729 23.7398 29.6165 23.6381 29.97 23.6083L35.57 23.3083C36.2973 23.2992 36.9989 23.5778 37.5218 24.0835C38.0448 24.5892 38.3467 25.281 38.362 26.0083L41.139 79.2003C41.1472 79.4877 41.0982 79.7738 40.9949 80.042C40.8916 80.3103 40.7361 80.5553 40.5372 80.7629C40.3384 80.9705 40.1002 81.1365 39.8367 81.2512C39.5731 81.366 39.2894 81.4272 39.002 81.4313V81.4303Z" fill="#EFC03C"/>
<path d="M54.4792 72.5417L57.9642 72.6977C58.5338 72.736 59.0975 72.5625 59.5469 72.2105C59.9964 71.8585 60.2999 71.3529 60.3993 70.7907L66.7202 20.8697C66.7741 20.539 66.7581 20.2006 66.6733 19.8765C66.5885 19.5523 66.4367 19.2495 66.2278 18.9875C66.0188 18.7255 65.7574 18.5102 65.4602 18.3554C65.163 18.2006 64.8367 18.1098 64.5023 18.0887L59.0843 17.8107C58.3865 17.7955 57.7098 18.0501 57.1952 18.5214C56.6805 18.9927 56.3674 19.6444 56.3213 20.3407L52.4512 70.4347C52.439 70.7081 52.4825 70.9811 52.5791 71.2371C52.6756 71.4932 52.8232 71.7269 53.0129 71.9242C53.2026 72.1214 53.4304 72.278 53.6824 72.3845C53.9345 72.491 54.2056 72.5452 54.4792 72.5437V72.5417Z" fill="#EFC03C"/>
<path d="M41.067 80.6315L44.853 81.2315C45.4844 81.3309 46.1295 81.1777 46.6488 80.8051C47.1681 80.4325 47.5199 79.8704 47.628 79.2405L56.518 27.3085C56.5725 26.9911 56.5634 26.666 56.4912 26.3522C56.419 26.0383 56.2851 25.742 56.0973 25.4803C55.9096 25.2187 55.6717 24.9969 55.3974 24.8281C55.1232 24.6592 54.8182 24.5465 54.5 24.4965L49.341 23.6835C49.0229 23.6333 48.698 23.6468 48.3851 23.7233C48.0722 23.7997 47.7776 23.9375 47.5185 24.1286C47.2593 24.3198 47.0406 24.5606 46.8752 24.8369C46.7099 25.1133 46.601 25.4197 46.555 25.7385L39.038 77.8875C38.9469 78.5202 39.1086 79.1633 39.4882 79.6776C39.8677 80.1919 40.4346 80.5361 41.066 80.6355L41.067 80.6315Z" fill="#FCCF3F"/>
<path d="M55.193 33.5073C54.8236 33.5087 54.4633 33.6222 54.1598 33.8327C53.8563 34.0432 53.6237 34.3408 53.493 34.6863C52.257 37.9064 50.0737 40.6761 47.2312 42.6298C44.3887 44.5834 41.0206 45.6293 37.5715 45.6293C34.1223 45.6293 30.7543 44.5834 27.9117 42.6298C25.0692 40.6761 22.8859 37.9064 21.65 34.6863C21.5192 34.3408 21.2867 34.0432 20.9832 33.8327C20.6797 33.6222 20.3194 33.5087 19.95 33.5073H3.256C2.99107 33.5076 2.72939 33.5657 2.48924 33.6775C2.24909 33.7894 2.03626 33.9524 1.86561 34.155C1.69496 34.3576 1.57061 34.5951 1.50124 34.8508C1.43187 35.1065 1.41916 35.3742 1.464 35.6353L11.688 94.9453C11.7609 95.368 11.9807 95.7514 12.3088 96.0277C12.6369 96.304 13.0521 96.4554 13.481 96.4553H61.659C62.0879 96.4554 62.5031 96.304 62.8312 96.0277C63.1592 95.7514 63.3791 95.368 63.452 94.9453L73.676 35.6353C73.721 35.3741 73.7084 35.1062 73.6391 34.8504C73.5697 34.5946 73.4453 34.357 73.2745 34.1543C73.1037 33.9516 72.8907 33.7886 72.6503 33.6769C72.4099 33.5651 72.1481 33.5073 71.883 33.5073H55.193Z" fill="#FC4E51"/>
<path d="M71.8831 33.5073H60.4071C60.6722 33.5074 60.9341 33.5654 61.1744 33.6772C61.4147 33.7891 61.6277 33.9522 61.7984 34.155C61.9691 34.3578 62.0934 34.5954 62.1626 34.8513C62.2318 35.1072 62.2443 35.3751 62.1991 35.6363L51.9751 94.9453C51.9021 95.3677 51.6822 95.7506 51.3544 96.0267C51.0265 96.3028 50.6117 96.4542 50.1831 96.4543H61.6591C62.0879 96.4545 62.5029 96.3032 62.831 96.0271C63.1591 95.751 63.379 95.3678 63.4521 94.9453L73.6761 35.6353C73.7211 35.3741 73.7085 35.1062 73.6392 34.8504C73.5698 34.5946 73.4454 34.357 73.2746 34.1543C73.1038 33.9516 72.8908 33.7886 72.6504 33.6769C72.4101 33.5651 72.1482 33.5073 71.8831 33.5073V33.5073Z" fill="#EA3942"/>
<path d="M68.9411 63.0977H6.19507L8.18007 74.6157H66.9551L68.9411 63.0977Z" fill="#F3E8D7"/>
<path d="M68.942 63.0977H57.465L55.479 74.6157H66.956L68.942 63.0977Z" fill="#E5D8C6"/>
<path d="M52.516 69.1984C52.516 72.1544 51.6395 75.0441 49.9972 77.5019C48.355 79.9597 46.0208 81.8754 43.2899 83.0066C40.5589 84.1379 37.5538 84.4339 34.6546 83.8573C31.7554 83.2807 29.0922 81.8573 27.002 79.7672C24.9117 77.6771 23.4881 75.014 22.9113 72.1149C22.3345 69.2157 22.6304 66.2106 23.7614 63.4795C24.8925 60.7485 26.808 58.4142 29.2658 56.7718C31.7235 55.1294 34.613 54.2526 37.569 54.2524C39.5318 54.2523 41.4755 54.6388 43.2889 55.3898C45.1024 56.1409 46.7501 57.2418 48.1381 58.6297C49.5261 60.0175 50.6271 61.6652 51.3782 63.4786C52.1294 65.292 52.516 67.2356 52.516 69.1984V69.1984Z" fill="#EFA335"/>
<path d="M44.3218 55.8667C45.1646 58.6677 45.1669 61.6544 44.3285 64.4567C43.4901 67.2589 41.8477 69.7536 39.6051 71.6314C37.3624 73.5092 34.618 74.6877 31.712 75.0207C28.806 75.3536 25.8661 74.8265 23.2568 73.5047C23.9691 75.8733 25.2581 78.0281 27.0082 79.7759C28.7583 81.5237 30.9149 82.8099 33.2844 83.519C35.654 84.2282 38.1624 84.3382 40.585 83.8392C43.0075 83.3402 45.2684 82.2478 47.1648 80.6599C49.0612 79.072 50.5338 77.0383 51.4507 74.7412C52.3677 72.444 52.7001 69.9552 52.4184 67.4979C52.1366 65.0406 51.2494 62.6916 49.8363 60.6617C48.4232 58.6317 46.5284 56.9841 44.3218 55.8667V55.8667Z" fill="#FD8F31"/>
<path d="M37.5729 52.8193C34.3332 52.8193 31.1663 53.78 28.4726 55.5799C25.779 57.3797 23.6795 59.9379 22.4397 62.931C21.2 65.9241 20.8756 69.2175 21.5076 72.3949C22.1396 75.5723 23.6997 78.491 25.9905 80.7818C28.2813 83.0726 31.1999 84.6326 34.3773 85.2646C37.5547 85.8966 40.8482 85.5723 43.8412 84.3325C46.8343 83.0927 49.3925 80.9933 51.1924 78.2996C52.9922 75.6059 53.9529 72.439 53.9529 69.1993C53.9476 64.8567 52.2201 60.6935 49.1494 57.6228C46.0787 54.5521 41.9155 52.8246 37.5729 52.8193ZM37.5729 82.7113C34.9005 82.7111 32.2882 81.9185 30.0663 80.4337C27.8444 78.9488 26.1127 76.8385 25.0901 74.3695C24.0676 71.9005 23.8002 69.1837 24.3216 66.5627C24.8431 63.9417 26.1301 61.5341 28.0198 59.6446C29.9095 57.755 32.3171 56.4682 34.9382 55.9469C37.5592 55.4256 40.276 55.6933 42.7449 56.716C45.2139 57.7387 47.3241 59.4706 48.8088 61.6926C50.2934 63.9146 51.0859 66.527 51.0859 69.1993C51.0819 72.7819 49.6569 76.2166 47.1236 78.7498C44.5902 81.2829 41.1554 82.7076 37.5729 82.7113V82.7113Z" fill="black"/>
<path d="M71.883 32.0745H71.771L75.044 16.2355C75.1659 15.6711 75.1706 15.0877 75.0577 14.5214C74.9449 13.9552 74.7169 13.4181 74.388 12.9435C74.0893 12.5178 73.705 12.159 73.2597 11.8902C72.8144 11.6215 72.318 11.4485 71.802 11.3825L66.28 10.6515C65.871 10.5983 65.4561 10.6108 65.051 10.6885L65.1 10.2765C65.1729 9.69646 65.1268 9.10766 64.9647 8.54599C64.8026 7.98431 64.5278 7.46154 64.157 7.00951C63.822 6.60479 63.4069 6.27372 62.9378 6.03709C62.4686 5.80047 61.9557 5.66341 61.431 5.63451L57.3461 5.39851C57.4859 4.25225 57.1746 3.09653 56.4781 2.17551C56.1591 1.75655 55.7587 1.4065 55.3008 1.14647C54.843 0.88644 54.3372 0.721813 53.814 0.662512L48.114 0.023512C47.589 -0.0339733 47.0577 0.0144669 46.5517 0.165965C46.0456 0.317464 45.5752 0.568941 45.168 0.905512C44.7096 1.28461 44.3304 1.75052 44.0524 2.27648C43.7744 2.80245 43.603 3.37814 43.548 3.97051L43.032 9.34351C42.8947 9.13914 42.7391 8.94769 42.567 8.77151C42.2018 8.39242 41.764 8.09079 41.2797 7.88462C40.7953 7.67845 40.2744 7.57196 39.748 7.57151H34.093C33.3481 7.57142 32.6189 7.78635 31.993 8.19051L31.586 3.97151C31.5317 3.37915 31.3609 2.80335 31.0834 2.27719C30.8059 1.75104 30.4272 1.28488 29.969 0.905512C29.5618 0.568863 29.0911 0.317344 28.5849 0.165845C28.0787 0.0143461 27.5473 -0.0340533 27.022 0.023512L21.322 0.662512C20.7992 0.72257 20.2938 0.887846 19.8365 1.14839C19.3792 1.40893 18.9793 1.75934 18.661 2.17851C17.9653 3.09875 17.654 4.25324 17.793 5.39851L13.702 5.63451C13.1774 5.66347 12.6645 5.80056 12.1954 6.03718C11.7263 6.2738 11.3111 6.60483 10.976 7.00951C10.6053 7.46154 10.3305 7.98431 10.1684 8.54599C10.0063 9.10766 9.96023 9.69646 10.033 10.2765L10.082 10.6885C9.67697 10.6108 9.26207 10.5983 8.85305 10.6515L3.33105 11.3825C2.81623 11.4494 2.32098 11.6228 1.8768 11.8915C1.43262 12.1603 1.04924 12.5185 0.751048 12.9435C0.422099 13.4181 0.194136 13.9551 0.0812932 14.5214C-0.0315501 15.0877 -0.0268684 15.6711 0.0950481 16.2355L3.36805 32.0745H3.25605C2.78207 32.0743 2.31377 32.1777 1.88395 32.3775C1.45413 32.5773 1.07318 32.8686 0.76777 33.2311C0.462361 33.5936 0.239878 34.0184 0.115901 34.4759C-0.00807678 34.9334 -0.0305523 35.4124 0.0500481 35.8795L10.274 95.1895C10.4033 95.9458 10.7962 96.6319 11.383 97.1261C11.9699 97.6203 12.7128 97.8908 13.48 97.8895H61.659C62.4262 97.891 63.1691 97.6205 63.7558 97.1263C64.3426 96.632 64.7352 95.9458 64.864 95.1895L75.089 35.8795C75.1696 35.4124 75.1472 34.9334 75.0232 34.4759C74.8992 34.0184 74.6767 33.5936 74.3713 33.2311C74.0659 32.8686 73.685 32.5773 73.2551 32.3775C72.8253 32.1777 72.357 32.0743 71.883 32.0745V32.0745ZM64.637 14.2495C64.7493 14.0109 64.9305 13.8115 65.1572 13.6769C65.384 13.5423 65.6458 13.4788 65.909 13.4945L71.431 14.2245C71.5551 14.2406 71.6743 14.2827 71.781 14.348C71.8876 14.4133 71.9793 14.5004 72.05 14.6035C72.1509 14.7568 72.2193 14.9292 72.2512 15.1099C72.283 15.2906 72.2775 15.476 72.235 15.6545L68.843 32.0735H66.743L68.143 21.0485C68.2143 20.5074 68.1736 19.9575 68.0234 19.4328C67.8732 18.9081 67.6168 18.4199 67.27 17.9985C66.9388 17.5999 66.5281 17.2748 66.064 17.044C65.5999 16.8133 65.0928 16.682 64.575 16.6585L64.354 16.6475L64.637 14.2495ZM62.681 19.4285L64.429 19.5185C64.5523 19.5231 64.6731 19.5536 64.7837 19.6081C64.8944 19.6625 64.9923 19.7397 65.071 19.8345C65.1657 19.9535 65.2346 20.0908 65.2735 20.2378C65.3124 20.3848 65.3204 20.5383 65.297 20.6885L63.856 32.0745H57.156L57.931 27.5475C58.0911 26.6214 57.9054 25.6687 57.409 24.8705L57.75 20.4495C57.7662 20.2449 57.8286 20.0465 57.9325 19.8695C58.0364 19.6925 58.1792 19.5413 58.35 19.4275C58.5456 19.2965 58.7779 19.2317 59.0131 19.2425L62.68 19.4295L62.681 19.4285ZM55.561 8.17451C55.58 8.17451 55.598 8.17451 55.618 8.17451L61.272 8.49851C61.4058 8.50654 61.5365 8.54224 61.6558 8.60334C61.7751 8.66445 61.8804 8.74963 61.965 8.85351C62.0845 9.00581 62.1719 9.18073 62.2219 9.36773C62.2719 9.55472 62.2835 9.74991 62.2561 9.94151L61.816 13.6865L61.486 16.4955L59.159 16.3765C58.0878 16.3418 57.0448 16.7236 56.2491 17.4417C55.4534 18.1598 54.967 19.1583 54.892 20.2275L54.672 23.0675L53.331 22.8565L54.251 9.59151C54.256 9.235 54.3926 8.89291 54.6346 8.63111C54.8767 8.36931 55.207 8.20632 55.562 8.17351L55.561 8.17451ZM55.102 27.0625L54.219 32.2195C53.7486 32.3664 53.3178 32.6185 52.9593 32.9567C52.6008 33.2949 52.324 33.7104 52.15 34.1715C51.0328 37.085 49.0675 39.5965 46.508 41.3815C46.232 41.5745 45.952 41.7545 45.666 41.9285L47.972 25.9385C47.9912 25.8079 48.0361 25.6823 48.104 25.5691C48.1719 25.4559 48.2616 25.3572 48.3679 25.2789C48.4742 25.2005 48.5949 25.1439 48.7231 25.1125C48.8514 25.081 48.9846 25.0752 49.115 25.0955L51.561 25.4805L54.271 25.9075C54.4014 25.9284 54.5264 25.9749 54.6387 26.0443C54.7511 26.1137 54.8485 26.2047 54.9255 26.312C55.0025 26.4193 55.0575 26.5407 55.0872 26.6694C55.117 26.798 55.121 26.9313 55.099 27.0615L55.102 27.0625ZM43.202 37.4215L46.4021 4.24651C46.4196 4.03236 46.4791 3.82376 46.5772 3.63262C46.6754 3.44148 46.8102 3.27154 46.974 3.13251C47.0863 3.03649 47.2168 2.96406 47.3577 2.91956C47.4986 2.87506 47.647 2.8594 47.794 2.87351L53.494 3.51251C53.6351 3.53022 53.7711 3.57651 53.8937 3.64856C54.0163 3.7206 54.1229 3.81688 54.2071 3.93151C54.3312 4.10097 54.4203 4.29352 54.4691 4.49787C54.5178 4.70221 54.5253 4.91424 54.491 5.12151L54.441 5.46651L54.37 5.49051L54.281 5.52151C54.191 5.55251 54.103 5.58551 54.016 5.62151L53.949 5.65051C53.7796 5.72584 53.6156 5.81271 53.458 5.91051L53.416 5.93651C53.316 5.99951 53.222 6.06551 53.129 6.13651L53.104 6.15451C53.054 6.19251 53.004 6.23251 52.958 6.27251L52.927 6.29951C52.845 6.37051 52.766 6.44351 52.689 6.52051L52.6311 6.57851C52.5921 6.61851 52.553 6.65951 52.515 6.70251C52.477 6.74551 52.4341 6.79551 52.3951 6.84351C52.3561 6.89151 52.323 6.93351 52.288 6.97851L52.21 7.08551C52.177 7.13151 52.1441 7.17951 52.1101 7.22851C52.0761 7.27751 52.039 7.33951 52.01 7.39651C51.989 7.43151 51.9691 7.46651 51.9501 7.50251C51.9141 7.56651 51.88 7.63151 51.85 7.70251C51.835 7.73351 51.819 7.76551 51.805 7.80251C51.774 7.86951 51.744 7.93851 51.715 8.00751L51.681 8.09151C51.648 8.17851 51.6181 8.26651 51.5891 8.35551C51.5821 8.37751 51.576 8.39951 51.57 8.42151C51.545 8.50251 51.524 8.58551 51.504 8.67051C51.504 8.68851 51.495 8.70651 51.491 8.72551C51.469 8.82551 51.451 8.92551 51.436 9.02551C51.436 9.04751 51.429 9.07151 51.426 9.09351C51.412 9.19351 51.4 9.30151 51.392 9.40651L50.4921 22.4205L49.5681 22.2755C49.0624 22.1957 48.5459 22.2172 48.0487 22.3387C47.5514 22.4602 47.0832 22.6793 46.6713 22.9832C46.2595 23.2872 45.9121 23.67 45.6494 24.1093C45.3867 24.5487 45.2139 25.0358 45.141 25.5425L43.164 39.2145L43.202 37.4215ZM33.328 10.7755C33.426 10.6703 33.5443 10.5862 33.6759 10.5283C33.8074 10.4703 33.9493 10.4398 34.093 10.4385H39.7491C39.8933 10.44 40.0357 10.4707 40.1677 10.5288C40.2997 10.5869 40.4186 10.6711 40.517 10.7765C40.651 10.9195 40.7553 11.0875 40.8239 11.271C40.8926 11.4545 40.9242 11.6497 40.917 11.8455L40.352 36.6455L39.793 25.9315C39.7406 24.8274 39.2701 23.7845 38.477 23.0145C38.0859 22.6281 37.6186 22.3274 37.1048 22.1316C36.5911 21.9359 36.0421 21.8493 35.493 21.8775L33.1931 21.9995L33.144 20.1175L32.933 11.8405C32.9257 11.645 32.9573 11.45 33.0259 11.2669C33.0946 11.0837 33.199 10.916 33.333 10.7735L33.328 10.7755ZM35.6451 24.7445C35.8003 24.7408 35.9546 24.7686 36.0988 24.8262C36.243 24.8838 36.3741 24.9699 36.484 25.0795C36.7541 25.3443 36.9135 25.7017 36.93 26.0795L37.875 44.1795C37.775 44.1795 37.675 44.1845 37.569 44.1845C35.1765 44.1896 32.8152 43.6421 30.669 42.5845L29.041 26.4295C29.019 26.2458 29.0342 26.0596 29.0857 25.882C29.1373 25.7043 29.2241 25.5388 29.341 25.3955C29.4279 25.2911 29.5353 25.2057 29.6566 25.1446C29.7779 25.0836 29.9105 25.0481 30.046 25.0405L35.6451 24.7445ZM20.93 3.93151C21.0143 3.81676 21.1211 3.72042 21.2438 3.64837C21.3666 3.57632 21.5028 3.53009 21.644 3.51251L27.344 2.87351C27.4913 2.85926 27.6399 2.87486 27.7809 2.91936C27.922 2.96386 28.0526 3.03636 28.165 3.13251C28.3287 3.27159 28.4634 3.44156 28.5614 3.6327C28.6594 3.82385 28.7187 4.03242 28.736 4.24651L30.279 20.2465L30.328 22.1565L29.895 22.1785C29.3718 22.2058 28.8596 22.34 28.3901 22.5727C27.9206 22.8053 27.5037 23.1317 27.165 23.5315C26.7964 23.97 26.52 24.4783 26.3525 25.0261C26.185 25.5739 26.1297 26.1499 26.19 26.7195L26.979 34.5435L25.202 30.2785L23.749 9.39851C23.742 9.29351 23.73 9.18951 23.715 9.08651C23.715 9.06351 23.708 9.04051 23.705 9.01751C23.689 8.91751 23.671 8.81751 23.65 8.71751L23.638 8.66751C23.618 8.58051 23.595 8.49651 23.571 8.41251L23.553 8.35251C23.525 8.26051 23.493 8.17151 23.459 8.08251C23.45 8.05851 23.44 8.03451 23.431 8.01051C23.4 7.93251 23.366 7.85551 23.331 7.77951C23.324 7.76451 23.318 7.74951 23.311 7.73651C23.271 7.65251 23.228 7.57251 23.183 7.49351L23.139 7.41551C23.093 7.33851 23.046 7.26251 22.997 7.18951L22.955 7.12951C22.9137 7.06951 22.871 7.01118 22.827 6.95451L22.772 6.88351C22.717 6.81551 22.661 6.74951 22.603 6.68351L22.543 6.61951C22.492 6.56551 22.443 6.51451 22.388 6.46451L22.342 6.41851C22.277 6.35851 22.211 6.30051 22.142 6.24351L22.079 6.19251C22.008 6.13551 21.935 6.08151 21.861 6.02851L21.833 6.01051C21.761 5.96151 21.687 5.91051 21.611 5.87051L21.564 5.84251C21.481 5.79351 21.396 5.74951 21.309 5.70751L21.279 5.69351C21.189 5.65051 21.098 5.61051 21.004 5.57451C20.904 5.53751 20.809 5.50351 20.704 5.47451H20.694L20.643 5.12651C20.609 4.91924 20.6165 4.70725 20.6653 4.50293C20.714 4.29861 20.803 4.10605 20.927 3.93651L20.93 3.93151ZM13.174 8.85251C13.2584 8.74831 13.3637 8.6629 13.483 8.60177C13.6024 8.54063 13.7332 8.50512 13.867 8.49751L19.523 8.17451H19.548C19.9088 8.19934 20.247 8.35897 20.4954 8.62168C20.7439 8.88439 20.8844 9.23096 20.889 9.59251L21.751 22.0185L21.039 20.3125C20.6169 19.2917 19.8227 18.4696 18.817 18.0125C18.693 17.9555 18.567 17.9075 18.44 17.8635L18.418 17.8555C18.296 17.8145 18.173 17.7805 18.049 17.7555L18.012 17.7465C17.891 17.7185 17.77 17.6985 17.648 17.6825L17.602 17.6765C17.483 17.6625 17.362 17.6535 17.243 17.6505H17.133C17.07 17.6505 17.007 17.6565 16.943 17.6595C16.879 17.6625 16.835 17.6595 16.781 17.6675C16.7 17.6745 16.62 17.6885 16.54 17.7005C16.49 17.7085 16.44 17.7135 16.389 17.7225C16.302 17.7405 16.215 17.7635 16.128 17.7865C16.087 17.7975 16.045 17.8055 16.003 17.8175C15.8745 17.8564 15.748 17.9018 15.624 17.9535L13.908 18.6715L13.649 16.4715L12.882 9.94151C12.8548 9.74968 12.8667 9.55434 12.9169 9.3672C12.967 9.18006 13.0545 9.005 13.174 8.85251V8.85251ZM11.556 22.7525L12.402 22.3985L13.256 22.0425L16.727 20.5905C16.8715 20.5348 17.0257 20.509 17.1804 20.5146C17.3351 20.5203 17.4871 20.5573 17.627 20.6235C17.9721 20.7843 18.243 21.0703 18.385 21.4235L25.526 38.5345C24.4462 37.2306 23.5863 35.7593 22.98 34.1785C22.7479 33.5602 22.3323 33.0277 21.789 32.6524C21.2456 32.277 20.6005 32.0768 19.94 32.0785H14.72L11.08 24.3985C10.9973 24.233 10.9488 24.0524 10.9375 23.8677C10.9262 23.683 10.9522 23.4979 11.014 23.3235C11.0443 23.243 11.0843 23.1664 11.133 23.0955C11.2382 22.942 11.3859 22.8224 11.558 22.7515L11.556 22.7525ZM2.90205 15.6555C2.85946 15.477 2.85382 15.2917 2.88546 15.111C2.9171 14.9303 2.98536 14.7579 3.08605 14.6045C3.15701 14.5014 3.24889 14.4143 3.35571 14.349C3.46252 14.2837 3.58189 14.2416 3.70605 14.2255L9.23005 13.4985C9.4932 13.4838 9.75475 13.5479 9.98131 13.6826C10.2079 13.8172 10.3892 14.0164 10.502 14.2545L10.802 16.8285L11.153 19.8145L10.447 20.1145C9.96475 20.3154 9.52861 20.6128 9.16542 20.9883C8.80223 21.3639 8.51965 21.8098 8.33505 22.2985C8.13512 22.8354 8.04579 23.4071 8.07243 23.9793C8.09906 24.5516 8.24112 25.1126 8.49005 25.6285L11.553 32.0745H6.29605L2.90205 15.6555ZM72.263 35.3925L67.734 61.6635H58.356C57.9757 61.6635 57.611 61.8146 57.3421 62.0835C57.0731 62.3524 56.922 62.7172 56.922 63.0975C56.922 63.4778 57.0731 63.8426 57.3421 64.1115C57.611 64.3804 57.9757 64.5315 58.356 64.5315H67.24L65.749 73.1815H58.549C58.1687 73.1815 57.804 73.3326 57.5351 73.6015C57.2661 73.8705 57.115 74.2352 57.115 74.6155C57.115 74.9958 57.2661 75.3606 57.5351 75.6295C57.804 75.8984 58.1687 76.0495 58.549 76.0495H65.258L62.039 94.6985C62.0237 94.7881 61.9771 94.8694 61.9076 94.928C61.838 94.9866 61.75 95.0186 61.659 95.0185H13.481C13.3901 95.0186 13.3021 94.9866 13.2325 94.928C13.163 94.8694 13.1164 94.7881 13.101 94.6985L9.88505 76.0485H16.594C16.7824 76.0485 16.9688 76.0114 17.1428 75.9394C17.3168 75.8673 17.4749 75.7617 17.608 75.6285C17.7412 75.4953 17.8468 75.3373 17.9189 75.1633C17.991 74.9893 18.028 74.8028 18.028 74.6145C18.028 74.4262 17.991 74.2397 17.9189 74.0657C17.8468 73.8918 17.7412 73.7337 17.608 73.6005C17.4749 73.4674 17.3168 73.3617 17.1428 73.2897C16.9688 73.2176 16.7824 73.1805 16.594 73.1805H9.39405L7.90205 64.5315H16.83C17.2104 64.5315 17.5751 64.3804 17.844 64.1115C18.113 63.8426 18.264 63.4778 18.264 63.0975C18.264 62.7172 18.113 62.3524 17.844 62.0835C17.5751 61.8146 17.2104 61.6635 16.83 61.6635H7.40205L2.87605 35.3925C2.86659 35.3372 2.86933 35.2804 2.88406 35.2262C2.89879 35.1721 2.92517 35.1217 2.96135 35.0788C2.99753 35.0359 3.04264 35.0013 3.09354 34.9776C3.14444 34.9539 3.1999 34.9416 3.25605 34.9415H19.946C20.0256 34.9425 20.103 34.9677 20.1679 35.0138C20.2327 35.0599 20.282 35.1247 20.309 35.1995C21.6493 38.69 24.0163 41.6921 27.0977 43.8098C30.1791 45.9275 33.8301 47.0613 37.569 47.0615C37.769 47.0615 37.963 47.0615 38.163 47.0505L38.445 47.0395L38.6931 47.0255C39.5599 46.974 40.4221 46.8614 41.273 46.6885H41.28C44.3211 46.064 47.1562 44.6842 49.524 42.6762C51.8917 40.6683 53.7161 38.0967 54.829 35.1985C54.8562 35.1238 54.9055 35.059 54.9704 35.013C55.0352 34.9669 55.1125 34.9416 55.192 34.9405H71.884C71.9402 34.9406 71.9956 34.9529 72.0465 34.9766C72.0973 35.0003 72.1424 35.0349 72.1785 35.0778C72.2146 35.1208 72.2409 35.1711 72.2555 35.2253C72.2701 35.2795 72.2727 35.3362 72.263 35.3915V35.3925Z" fill="black"/>
</svg>
