<svg width="101" height="92" viewBox="0 0 101 92" fill="none" xmlns="http://www.w3.org/2000/svg">
<path d="M93.1262 54.641C93.1263 55.475 92.9622 56.3008 92.6431 57.0712C92.324 57.8417 91.8563 58.5418 91.2666 59.1314C90.6769 59.7211 89.9769 60.1889 89.2064 60.5079C88.4359 60.827 87.6101 60.9912 86.7762 60.991H13.3002C11.6161 60.991 10.0009 60.322 8.81007 59.1311C7.61921 57.9403 6.9502 56.3252 6.9502 54.641C6.9502 52.9569 7.61921 51.3417 8.81007 50.1509C10.0009 48.96 11.6161 48.291 13.3002 48.291H86.7762C87.6104 48.2901 88.4365 48.4537 89.2073 48.7725C89.9782 49.0913 90.6786 49.559 91.2684 50.1488C91.8582 50.7387 92.3259 51.4391 92.6447 52.2099C92.9635 52.9807 93.1271 53.8069 93.1262 54.641V54.641Z" fill="#884D00"/>
<path d="M92.5586 52.01C92.0522 53.1184 91.238 54.058 90.213 54.7169C89.1879 55.3759 87.9951 55.7265 86.7766 55.727H13.3006C12.0819 55.7267 10.889 55.3762 9.86396 54.7172C8.83887 54.0582 8.02475 53.1185 7.51855 52.01C8.02436 50.901 8.83832 49.9609 9.86346 49.3015C10.8886 48.6421 12.0817 48.2914 13.3006 48.291H86.7766C87.9956 48.2906 89.189 48.6411 90.2143 49.3005C91.2395 49.96 92.0534 50.9006 92.5586 52.01Z" fill="#AA6100"/>
<path d="M98.5883 66.1181C98.6704 69.7662 97.7994 73.3726 96.0613 76.5811C94.3231 79.7896 91.778 82.4892 88.6773 84.4131C82.5523 88.4481 74.0913 90.4361 64.7463 90.4361H35.3293C16.6393 90.4361 1.4873 82.4831 1.4873 66.1181C1.48784 65.2274 1.70691 64.3504 2.12531 63.5641C2.48149 62.8917 2.95923 62.2912 3.5343 61.7931C4.91086 60.6186 6.66594 59.9821 8.4753 60.0011H91.6003C92.8817 59.9669 94.1485 60.28 95.2664 60.9073C96.3843 61.5346 97.3117 62.4526 97.9503 63.5641C98.3688 64.3504 98.5879 65.2273 98.5883 66.1181V66.1181Z" fill="#FFA733"/>
<path d="M97.9514 63.564C96.6347 68.8594 93.3086 73.4344 88.6774 76.32C82.5524 80.355 74.0874 82.344 64.7464 82.344H35.3304C18.8874 82.344 5.18337 76.189 2.13037 63.565C2.48656 62.8927 2.9643 62.2922 3.53937 61.794C4.91593 60.6196 6.67101 59.9831 8.48037 60.002H91.6054C92.8861 59.9679 94.1522 60.2811 95.2694 60.9082C96.3867 61.5353 97.3134 62.453 97.9514 63.564Z" fill="#FFB655"/>
<path d="M77.0424 45.623L60.6145 62.051C58.9379 63.7276 56.664 64.6695 54.293 64.6695C51.9219 64.6695 49.648 63.7276 47.9715 62.051L31.5435 45.623H77.0424Z" fill="#EEBF00"/>
<path d="M77.0412 45.624L60.6142 62.054C60.2101 62.4578 59.7685 62.8221 59.2952 63.142C58.0027 62.7022 56.8292 61.9698 55.8662 61.002L40.4912 45.624H77.0412Z" fill="#FFD422"/>
<path d="M96.7454 47.9181C96.7462 48.8042 96.594 49.6838 96.2954 50.5181C95.0894 53.8841 91.8594 55.1901 89.3434 53.3311L86.3254 51.1021C84.2194 49.5451 81.5324 50.1821 80.0084 52.6021L79.8804 52.8021C78.4174 55.1271 75.8674 55.8181 73.7804 54.4561L67.0254 50.0411C66.2892 49.5441 65.4097 49.3035 64.523 49.3567C63.6364 49.4098 62.7919 49.7537 62.1204 50.3351L56.7024 54.7411C55.9942 55.3536 55.0957 55.7019 54.1597 55.7267C53.2237 55.7515 52.308 55.4512 51.5684 54.8771L45.3894 50.2971C44.6583 49.7284 43.7542 49.4281 42.8282 49.4463C41.9022 49.4645 41.0105 49.8001 40.3024 50.3971L34.6764 54.8641C33.9871 55.4445 33.1235 55.7779 32.223 55.8112C31.3225 55.8446 30.4367 55.576 29.7064 55.0481L22.4254 49.9851C21.7573 49.5 20.9559 49.2327 20.1304 49.2197C19.3049 49.2066 18.4954 49.4484 17.8124 49.9121L11.0184 54.3551C9.75453 54.5472 8.46226 54.394 7.27839 53.9116C6.09452 53.4293 5.06311 52.6357 4.29337 51.6151C3.78883 50.7111 3.47477 49.7133 3.37055 48.6833C3.26633 47.6533 3.37415 46.6129 3.68737 45.6261C4.38737 43.3881 6.07237 41.6621 8.26737 41.6621H91.8214C93.9734 41.6621 95.6924 43.3621 96.3994 45.6161C96.6316 46.3613 96.7483 47.1376 96.7454 47.9181V47.9181Z" fill="#6DC82A"/>
<path d="M96.3941 45.6161C96.3641 45.7161 96.3311 45.8161 96.2941 45.9101C95.0881 49.2781 91.8581 50.5841 89.3421 48.7251L86.3241 46.4941C84.2181 44.9391 81.5311 45.5761 80.0071 47.9941L79.8791 48.1991C78.4161 50.5241 75.8661 51.2151 73.7791 49.8531L67.0201 45.4331C66.2841 44.9356 65.4045 44.6947 64.5177 44.7479C63.6309 44.801 62.7864 45.1452 62.1151 45.7271L56.6981 50.1331C55.9897 50.7453 55.091 51.0932 54.1551 51.1176C53.2191 51.1421 52.3035 50.8415 51.5641 50.2671L45.3851 45.6871C44.6538 45.119 43.7498 44.8189 42.8239 44.8371C41.8981 44.8553 41.0065 45.1907 40.2981 45.7871L34.6751 50.2571C33.9856 50.837 33.1221 51.1701 32.2217 51.2034C31.3214 51.2368 30.4356 50.9685 29.7051 50.4411L22.4211 45.3801C21.7534 44.8941 20.9519 44.6262 20.1262 44.6131C19.3004 44.6 18.4908 44.8424 17.8081 45.3071L11.0141 49.7481C9.75024 49.9406 8.45782 49.7876 7.27387 49.3052C6.08992 48.8228 5.05856 48.0291 4.2891 47.0081C4.03839 46.5704 3.83523 46.1071 3.68311 45.6261C4.38311 43.3881 6.06811 41.6621 8.26311 41.6621H91.8171C93.9681 41.6621 95.6871 43.3621 96.3941 45.6161Z" fill="#7ED63E"/>
<path d="M95.0596 37.6001C95.0793 38.4476 94.9292 39.2906 94.6181 40.0792C94.307 40.8678 93.8411 41.5862 93.2481 42.1919C92.655 42.7977 91.9466 43.2786 91.1647 43.6063C90.3829 43.9341 89.5433 44.1019 88.6956 44.1001C77.2856 44.1001 46.8956 43.8431 42.3126 44.0001C42.2126 44.0001 42.1076 44.0081 42.0066 44.0101C36.2186 44.2291 34.9006 45.1571 34.9006 48.2421V59.5311C34.9006 60.0881 34.6793 60.6222 34.2855 61.016C33.8916 61.4099 33.3575 61.6311 32.8006 61.6311C32.2436 61.6311 31.7095 61.8524 31.3156 62.2462C30.9218 62.64 30.7006 63.1742 30.7006 63.7311V68.6481C30.7012 69.1364 30.6428 69.6229 30.5266 70.0971C30.1988 71.4367 29.4299 72.6271 28.3436 73.4768C27.2573 74.3264 25.9167 74.7858 24.5375 74.7811H24.3816C23.5945 74.781 22.8151 74.6256 22.0882 74.3238C21.3612 74.022 20.701 73.5798 20.1452 73.0224C19.5894 72.4651 19.1491 71.8036 18.8494 71.0758C18.5496 70.348 18.3964 69.5682 18.3986 68.7811L18.4266 59.8811C18.4284 59.2244 18.6906 58.5953 19.1558 58.1317C19.6209 57.668 20.2509 57.4078 20.9076 57.4081C21.5655 57.4078 22.1964 57.1464 22.6616 56.6812C23.1268 56.2159 23.3883 55.585 23.3886 54.9271V48.2291C23.3888 47.6856 23.282 47.1474 23.0741 46.6453C22.8662 46.1431 22.5614 45.6868 22.1771 45.3025C21.7928 44.9182 21.3366 44.6134 20.8344 44.4056C20.3322 44.1977 19.794 44.0908 19.2506 44.0911H11.5016C9.82099 44.1027 8.20235 43.4575 6.9906 42.293C5.77884 41.1285 5.06978 39.5368 5.01455 37.8571C4.99699 37.01 5.14866 36.1679 5.46068 35.3801C5.77271 34.5923 6.23881 33.8747 6.83168 33.2694C7.42455 32.664 8.13226 32.1831 8.91336 31.8547C9.69446 31.5264 10.5332 31.3572 11.3806 31.3571H88.5676C90.2504 31.3445 91.8715 31.9905 93.0845 33.157C94.2975 34.3235 95.0064 35.918 95.0596 37.6001V37.6001Z" fill="#FF3501"/>
<path d="M95.0591 37.5999C95.0726 38.2381 94.9907 38.8748 94.8161 39.4889C82.7371 39.4769 53.8751 39.2379 49.4161 39.3889C43.3681 39.5889 42.0041 40.4939 42.0041 43.6329V44.0059C36.2161 44.2249 34.8981 45.1529 34.8981 48.2379V59.5269C34.8981 60.0838 34.6768 60.618 34.283 61.0118C33.8892 61.4056 33.355 61.6269 32.7981 61.6269C32.2411 61.6269 31.707 61.8481 31.3132 62.242C30.9193 62.6358 30.6981 63.1699 30.6981 63.7269V68.6439C30.6987 69.1321 30.6403 69.6187 30.5241 70.0929C29.1189 69.864 27.8413 69.1416 26.9209 68.0555C26.0004 66.9693 25.4974 65.5906 25.5021 64.1669L25.5301 55.2669C25.5319 54.6102 25.7942 53.981 26.2593 53.5174C26.7244 53.0538 27.3544 52.7936 28.0111 52.7939C28.669 52.7936 29.2999 52.5321 29.7651 52.0669C30.2303 51.6017 30.4918 50.9708 30.4921 50.3129V43.6299C30.4923 43.0864 30.3855 42.5482 30.1776 42.046C29.9698 41.5439 29.665 41.0876 29.2807 40.7033C28.8964 40.319 28.4401 40.0142 27.9379 39.8063C27.4358 39.5985 26.8976 39.4916 26.3541 39.4919H18.6081C16.9275 39.5035 15.3089 38.8583 14.0971 37.6938C12.8854 36.5293 12.1763 34.9376 12.1211 33.2579C12.1074 32.6188 12.19 31.9814 12.3661 31.3669H88.5661C90.2474 31.354 91.8673 31.9984 93.0803 33.1628C94.2933 34.3272 95.0033 35.9194 95.0591 37.5999V37.5999Z" fill="#FF5023"/>
<path d="M58.6425 24.895L44.5575 38.985C43.3941 40.1485 42.0129 41.0714 40.4928 41.7011C38.9726 42.3307 37.3434 42.6548 35.698 42.6548C34.0526 42.6548 32.4234 42.3307 30.9033 41.7011C29.3831 41.0714 28.0019 40.1485 26.8385 38.985L12.7495 24.895H58.6425Z" fill="#EEBF00"/>
<path d="M58.6434 24.895L44.5584 38.985C43.1976 40.3507 41.5379 41.3812 39.7104 41.995C37.8841 41.381 36.2257 40.3505 34.8664 38.985L20.7764 24.895H58.6434Z" fill="#FFD422"/>
<path d="M98.5893 26.8771C98.5893 26.9771 98.5893 27.0841 98.5793 27.1871C98.501 28.5223 97.9152 29.777 96.942 30.6944C95.9688 31.6119 94.6817 32.1226 93.3443 32.1221H6.73328C5.3423 32.1218 4.00837 31.5692 3.0248 30.5856C2.04123 29.602 1.48855 28.2681 1.48828 26.8771C1.48828 20.5921 4.40228 15.8601 8.80228 12.3011C12.6702 9.3589 17.0357 7.1362 21.6903 5.73911C35.0223 1.39811 50.0393 1.47911 50.0393 1.47911C50.0393 1.47911 98.5893 1.21711 98.5893 26.8771Z" fill="#FFA733"/>
<path d="M98.5895 26.8771C98.5895 26.9771 98.5895 27.0841 98.5795 27.1871H17.3925C16.0015 27.1868 14.6675 26.6342 13.684 25.6506C12.7004 24.667 12.1477 23.3331 12.1475 21.9421C12.1475 15.6571 15.0615 10.9251 19.4615 7.36611C20.1681 6.79344 20.9111 6.25111 21.6905 5.73911C35.0225 1.39811 50.0385 1.47911 50.0385 1.47911C50.0385 1.47911 98.5895 1.21711 98.5895 26.8771Z" fill="#FFB655"/>
<path d="M76.1342 10.6558C76.3391 10.8667 76.5 11.1163 76.6076 11.39C76.7152 11.6637 76.7673 11.9561 76.761 12.2501C76.7547 12.5441 76.69 12.8339 76.5707 13.1027C76.4514 13.3715 76.2799 13.614 76.0662 13.8159C75.8524 14.0179 75.6006 14.1754 75.3255 14.2792C75.0504 14.3831 74.7573 14.4312 74.4634 14.4209C74.1695 14.4106 73.8806 14.3419 73.6135 14.219C73.3463 14.0961 73.1063 13.9213 72.9072 13.7048C72.0652 12.8138 70.5152 9.72676 71.4072 8.88476C72.2992 8.04276 75.2922 9.76476 76.1342 10.6558Z" fill="#FFF5CC"/>
<path d="M64.3704 21.625C64.5814 22.1745 64.5654 22.7853 64.326 23.3231C64.0866 23.8609 63.6434 24.2815 63.0939 24.4925C62.5443 24.7035 61.9335 24.6875 61.3957 24.4481C60.858 24.2087 60.4373 23.7655 60.2264 23.216C59.7874 22.072 59.5263 18.627 60.6733 18.188C61.8203 17.749 63.9304 20.477 64.3704 21.625Z" fill="#FFF5CC"/>
<path d="M52.2583 12.4959C52.246 13.0764 52.0068 13.629 51.5919 14.0351C51.177 14.4413 50.6195 14.6688 50.0388 14.6688C49.4582 14.6688 48.9007 14.4413 48.4858 14.0351C48.0709 13.629 47.8317 13.0764 47.8193 12.4959C47.8193 11.2699 48.8133 7.96191 50.0393 7.96191C51.2653 7.96191 52.2583 11.2699 52.2583 12.4959Z" fill="#FFF5CC"/>
<path d="M40.0546 23.0151C39.9817 23.2974 39.8539 23.5626 39.6785 23.7956C39.5031 24.0285 39.2836 24.2247 39.0324 24.3728C38.7812 24.5209 38.5033 24.6181 38.2146 24.6588C37.9258 24.6995 37.6319 24.6829 37.3496 24.6101C37.0672 24.5372 36.802 24.4094 36.569 24.234C36.3361 24.0586 36.1399 23.8391 35.9918 23.5879C35.8437 23.3367 35.7465 23.0588 35.7058 22.7701C35.6651 22.4813 35.6817 22.1874 35.7546 21.9051C36.0616 20.7181 37.8546 17.7641 39.0376 18.0711C40.2206 18.3781 40.3616 21.8281 40.0546 23.0151Z" fill="#FFF5CC"/>
<path d="M27.8444 13.348C27.5878 13.8777 27.1313 14.2839 26.5752 14.477C26.0192 14.6702 25.4092 14.6346 24.8794 14.378C24.3497 14.1214 23.9435 13.6648 23.7503 13.1088C23.5572 12.5527 23.5928 11.9427 23.8494 11.413C24.3834 10.313 26.7204 7.76597 27.8234 8.30097C28.9264 8.83597 28.3744 12.245 27.8444 13.348Z" fill="#FFF5CC"/>
<path d="M98.2534 70.4789C97.8731 70.3827 97.4702 70.441 97.1328 70.6412C96.7955 70.8414 96.5512 71.167 96.4534 71.5469C93.6704 82.4469 81.8164 88.9559 64.7454 88.9559H35.3304C26.8524 88.9559 19.4184 87.2979 13.8304 84.1559C13.488 83.9638 13.0833 83.9155 12.7053 84.0217C12.3273 84.128 12.007 84.38 11.8149 84.7224C11.6227 85.0648 11.5745 85.4695 11.6807 85.8475C11.787 86.2255 12.039 86.5458 12.3814 86.7379C18.4124 90.1229 26.3494 91.9139 35.3334 91.9139H64.7484C79.6484 91.9139 95.6394 86.7089 99.3264 72.2769C99.4221 71.8962 99.3629 71.4931 99.1618 71.156C98.9606 70.8189 98.6339 70.5754 98.2534 70.4789Z" fill="black"/>
<path d="M93.4623 58.709C94.1681 57.5595 94.5627 56.2462 94.6073 54.898C98.9543 52.387 99.5293 44.991 95.5293 41.598C96.2523 40.3292 96.6024 38.882 96.5392 37.4231C96.4761 35.9641 96.0022 34.5526 95.1723 33.351C96.5818 32.951 97.8226 32.1026 98.7068 30.9342C99.591 29.7659 100.07 28.3412 100.072 26.876C100.072 9.919 80.6983 3.315 63.8083 1.022C63.6157 0.995735 63.4198 1.00766 63.2318 1.05709C63.0439 1.10653 62.8675 1.1925 62.7127 1.31011C62.558 1.42771 62.4279 1.57464 62.3299 1.74252C62.232 1.91039 62.168 2.09592 62.1418 2.2885C62.1155 2.48108 62.1274 2.67695 62.1769 2.86493C62.2263 3.0529 62.3123 3.2293 62.4299 3.38405C62.5475 3.5388 62.6944 3.66887 62.8623 3.76683C63.0302 3.8648 63.2157 3.92874 63.4083 3.955C78.3663 5.986 97.1083 11.715 97.1083 26.875C97.1067 27.8728 96.7096 28.8293 96.0041 29.5348C95.2985 30.2403 94.3421 30.6374 93.3443 30.639H6.73327C5.73549 30.6374 4.77902 30.2403 4.07348 29.5348C3.36793 28.8293 2.97086 27.8728 2.96927 26.875C2.96927 17.157 10.5223 10.193 25.4173 6.175C33.4866 4.12837 41.7709 3.04945 50.0953 2.961C50.4193 2.961 53.3663 2.971 57.5783 3.322C57.7743 3.34265 57.9726 3.32395 58.1613 3.26698C58.3501 3.21002 58.5256 3.11594 58.6775 2.99026C58.8294 2.86458 58.9547 2.70984 59.046 2.5351C59.1373 2.36036 59.1928 2.16915 59.2093 1.97268C59.2257 1.7762 59.2028 1.57842 59.1418 1.39094C59.0808 1.20345 58.9829 1.03003 58.854 0.88085C58.7251 0.731667 58.5677 0.609725 58.3911 0.522175C58.2144 0.434624 58.0221 0.383227 57.8253 0.370998C55.2663 0.157998 52.5593 0.013 49.9803 0C37.0713 0 17.9903 2.965 7.86927 11.151C2.65227 15.37 0.00727407 20.661 0.00727407 26.877C0.00956191 28.3363 0.485357 29.7555 1.36317 30.9213C2.24099 32.0871 3.47341 32.9365 4.87527 33.342C4.05714 34.5475 3.59427 35.9587 3.53945 37.4145C3.48464 38.8704 3.8401 40.3124 4.56527 41.576C3.13907 42.9402 2.21075 44.7426 1.92837 46.6959C1.64599 48.6492 2.02582 50.6408 3.00727 52.353C3.65988 53.2825 4.49905 54.0659 5.47127 54.653C5.47274 56.0847 5.86855 57.4884 6.61527 58.71C4.82873 58.9939 3.19515 59.8864 1.99099 61.2363C0.786829 62.5862 0.0860582 64.3108 0.00727407 66.118C-0.0746008 69.3085 0.535523 72.4788 1.79569 75.411C3.05585 78.3432 4.93615 80.9677 7.30727 83.104C7.59702 83.3692 7.98026 83.5085 8.37268 83.4911C8.7651 83.4738 9.13456 83.3013 9.39977 83.0115C9.66499 82.7218 9.80424 82.3385 9.78689 81.9461C9.76955 81.5537 9.59702 81.1842 9.30727 80.919C7.24588 79.0555 5.61245 76.7677 4.51924 74.2129C3.42602 71.6581 2.89896 68.8969 2.97427 66.119C2.97427 63.563 5.44527 61.482 8.48227 61.482H16.9393L16.9073 68.773C16.9036 69.7556 17.0941 70.7293 17.4677 71.638C17.8414 72.5468 18.391 73.3728 19.0848 74.0686C19.7786 74.7644 20.6031 75.3163 21.5108 75.6925C22.4186 76.0687 23.3917 76.2619 24.3743 76.261H24.5303C26.5528 76.2626 28.4934 75.4618 29.9262 74.0344C31.3591 72.607 32.1672 70.6695 32.1733 68.647V63.732C32.1733 63.6501 32.1894 63.5689 32.2208 63.4932C32.2521 63.4175 32.2981 63.3487 32.356 63.2908C32.414 63.2328 32.4828 63.1869 32.5585 63.1555C32.6342 63.1241 32.7153 63.108 32.7973 63.108C33.3933 63.108 33.9798 62.9592 34.5037 62.6751C35.0276 62.391 35.4722 61.9805 35.7973 61.481H45.0413C45.9183 62.128 48.4743 66.15 54.0293 66.15C59.5843 66.15 62.1453 62.126 63.0193 61.481H91.6013C94.6073 61.481 97.0793 63.54 97.1093 66.073C97.1132 66.4624 97.2707 66.8345 97.5474 67.1084C97.8242 67.3824 98.1979 67.536 98.5873 67.536H98.6073C98.802 67.5339 98.9944 67.4934 99.1735 67.4169C99.3526 67.3403 99.5148 67.2292 99.6509 67.0899C99.787 66.9505 99.8942 66.7857 99.9666 66.6049C100.039 66.4241 100.075 66.2307 100.072 66.036C99.9695 64.2446 99.2583 62.5419 98.0564 61.2095C96.8544 59.8772 95.2337 58.9951 93.4623 58.709V58.709ZM52.0323 33.602H91.2323C92.1341 34.1464 92.8319 34.9724 93.2179 35.9526C93.6039 36.9328 93.6567 38.0128 93.3681 39.026C93.0796 40.0391 92.4658 40.9293 91.6213 41.5591C90.7769 42.1889 89.7487 42.5234 88.6953 42.511C56.8803 42.511 86.2163 42.429 42.2603 42.511C45.2293 40.933 46.1523 39.281 52.0323 33.602ZM5.54027 50.822C4.92423 49.7077 4.68477 48.4242 4.85759 47.1628C5.03041 45.9013 5.60625 44.7295 6.49927 43.822C7.91834 44.958 9.68154 45.5776 11.4993 45.579H19.2413C19.9159 45.579 20.5654 45.8354 21.0581 46.2962C21.5509 46.757 21.8501 47.3879 21.8953 48.061C21.3069 47.8496 20.6865 47.7414 20.0613 47.741C17.8313 47.741 16.9183 48.724 10.5033 52.919C9.56643 53.015 8.6205 52.8731 7.75301 52.5066C6.88552 52.14 6.12447 51.5607 5.54027 50.822V50.822ZM17.1833 58.522H10.3643C9.47163 57.8474 8.83819 56.8863 8.57027 55.8C9.36027 55.924 11.1533 56.033 11.8253 55.595L18.6193 51.154C19.1207 50.8341 19.7133 50.6877 20.306 50.7372C20.8988 50.7867 21.4588 51.0294 21.9003 51.428V54.928C21.9003 55.1932 21.7949 55.4476 21.6074 55.6351C21.4198 55.8226 21.1655 55.928 20.9003 55.928C20.0902 55.9291 19.2999 56.1781 18.6355 56.6414C17.9711 57.1047 17.4643 57.7603 17.1833 58.52V58.522ZM33.4193 53.94V59.525C33.4194 59.6068 33.4034 59.6878 33.3722 59.7635C33.341 59.8391 33.2953 59.9079 33.2375 59.9658C33.1798 60.0238 33.1111 60.0698 33.0356 60.1012C32.9601 60.1326 32.8791 60.1489 32.7973 60.149C31.847 60.1506 30.936 60.5288 30.264 61.2008C29.5921 61.8727 29.2139 62.7837 29.2123 63.734V68.651C29.1965 69.574 28.9115 70.4722 28.3923 71.2354C27.873 71.9986 27.1421 72.5935 26.2894 72.947C25.4366 73.3005 24.4992 73.3972 23.5923 73.2252C22.6854 73.0533 21.8484 72.6201 21.1843 71.979C20.7518 71.5512 20.412 71.039 20.1861 70.4741C19.9602 69.9093 19.8531 69.304 19.8713 68.696C19.8783 66.547 19.8853 64.06 19.8983 59.884C19.8983 59.6188 20.0036 59.3644 20.1912 59.1769C20.3787 58.9894 20.6331 58.884 20.8983 58.884C21.9487 58.8827 22.9556 58.4648 23.6984 57.7221C24.4411 56.9794 24.859 55.9724 24.8603 54.922V48.232C24.8595 47.1624 24.5536 46.1153 23.9784 45.2135C23.4033 44.3117 22.5828 43.5927 21.6133 43.141C19.7463 42.261 18.6393 42.756 11.5003 42.614C10.4347 42.634 9.39171 42.3055 8.52988 41.6785C7.66805 41.0515 7.03451 40.1603 6.72555 39.1403C6.41659 38.1203 6.44912 37.0273 6.81819 36.0275C7.18726 35.0276 7.87268 34.1756 8.77027 33.601H19.3623L25.7913 40.03C28.2489 42.504 31.5466 43.9639 35.0303 44.12C32.8363 45.892 33.5483 48.342 33.4193 53.939V53.94ZM27.8863 37.94L23.5493 33.603H47.8493L43.5073 37.939C42.4819 38.9653 41.2643 39.7794 39.9242 40.3348C38.584 40.8903 37.1475 41.1762 35.6968 41.1762C34.2461 41.1762 32.8096 40.8903 31.4694 40.3348C30.1292 39.7794 28.9116 38.9653 27.8863 37.939V37.94ZM36.3803 58.521V55.399L37.8173 54.261L42.0793 58.523L36.3803 58.521ZM58.7803 61.482C57.3497 62.6664 55.5287 63.2742 53.6735 63.1865C51.8184 63.0989 50.0628 62.322 48.7503 61.008L40.1503 52.408C40.6773 52.146 42.3503 49.887 44.5093 51.488L50.6883 56.068C51.6916 56.8383 52.9289 57.2411 54.1934 57.2091C55.4579 57.177 56.6732 56.7121 57.6363 55.892L63.0533 51.486C63.4807 51.1013 64.0255 50.8722 64.5995 50.8359C65.1734 50.7996 65.7428 50.9582 66.2153 51.286L68.0253 52.468C57.8163 62.456 59.0653 61.249 58.7833 61.481L58.7803 61.482ZM89.7103 58.521H65.9783L70.4493 54.05L72.2953 55.256C72.9725 55.8033 73.7594 56.1986 74.6028 56.4152C75.4461 56.6317 76.3262 56.6644 77.1833 56.511C78.0349 56.2845 78.8334 55.8923 79.5331 55.3567C80.2329 54.8212 80.8202 54.1528 81.2613 53.39C82.2533 51.814 83.9493 51.19 85.4463 52.29C87.8843 53.9 89.0693 55.533 91.5403 55.656C91.2949 56.7991 90.6464 57.8157 89.7133 58.52L89.7103 58.521ZM90.2193 52.141C87.0693 49.815 87.1933 49.901 87.0193 49.778C84.2983 47.92 80.7433 48.668 78.7543 51.813C78.2832 52.6765 77.494 53.3223 76.5543 53.613C75.2543 53.9 75.1063 53.554 67.8353 48.798C66.8385 48.1239 65.6478 47.7963 64.4465 47.8655C63.2452 47.9347 62.1 48.3969 61.1873 49.181L55.8573 53.517L55.8253 53.543L55.8183 53.549L55.8073 53.561L55.8003 53.567L55.7703 53.592C55.317 53.9961 54.7356 54.2272 54.1286 54.2445C53.5216 54.2619 52.9279 54.0645 52.4523 53.687C46.2813 49.113 45.3523 47.987 42.9523 47.966C40.9193 47.952 39.6373 48.95 38.0473 50.299L36.3833 51.62V48.233C36.3833 44.314 37.2243 45.576 88.6983 45.576C90.484 45.5809 92.2171 44.9719 93.6073 43.851C94.3917 44.6462 94.9312 45.6499 95.1616 46.7428C95.3921 47.8357 95.3038 48.9718 94.9073 50.016C94.1073 52.242 92.0573 53.493 90.2233 52.14L90.2193 52.141Z" fill="black"/>
<path d="M70.3912 7.80805C69.5122 8.63805 69.4232 9.98405 70.1272 11.8081C70.9612 13.9691 72.2192 15.879 74.5272 15.879C75.2488 15.8761 75.9538 15.6626 76.5556 15.2646C77.1575 14.8666 77.6301 14.3015 77.9154 13.6387C78.2006 12.976 78.2861 12.2443 78.1614 11.5336C78.0366 10.8229 77.7071 10.1641 77.2132 9.63805V9.63805C76.3692 8.74805 72.3772 5.93005 70.3912 7.80805ZM74.5012 12.9181C74.4042 12.9155 74.3087 12.8937 74.2201 12.8541C74.1316 12.8144 74.0517 12.7577 73.9852 12.687C73.4255 11.9693 73.0003 11.1562 72.7302 10.2871C73.584 10.6056 74.3731 11.0762 75.0592 11.6761C75.1567 11.7828 75.2208 11.9158 75.2436 12.0586C75.2664 12.2014 75.2468 12.3477 75.1874 12.4795C75.1279 12.6113 75.0312 12.7228 74.909 12.8002C74.7869 12.8776 74.6448 12.9175 74.5002 12.915L74.5012 12.9181Z" fill="black"/>
<path d="M58.8425 23.747C59.0151 24.2027 59.2761 24.6198 59.6103 24.9743C59.9446 25.3289 60.3457 25.6139 60.7904 25.8131C61.2352 26.0122 61.7149 26.1215 62.202 26.1348C62.6891 26.148 63.1741 26.0649 63.629 25.8902C64.0839 25.7155 64.4998 25.4526 64.8528 25.1167C65.2059 24.7808 65.4891 24.3785 65.6862 23.9328C65.8834 23.4872 65.9905 23.007 66.0015 22.5198C66.0125 22.0326 65.9272 21.5481 65.7504 21.094V21.094C65.3114 19.951 62.6934 15.826 60.1404 16.806C57.5874 17.786 58.4045 22.604 58.8425 23.747ZM61.3614 19.985C62.0297 20.6046 62.5803 21.3401 62.9864 22.156V22.156C63.0212 22.2466 63.0379 22.3431 63.0353 22.4402C63.0328 22.5372 63.0112 22.6328 62.9717 22.7215C62.9323 22.8102 62.8757 22.8902 62.8053 22.957C62.7349 23.0238 62.6521 23.0762 62.5615 23.111C62.4708 23.1458 62.3742 23.1624 62.2772 23.1598C62.1802 23.1573 62.0846 23.1357 61.9959 23.0962C61.9073 23.0568 61.8272 23.0002 61.7604 22.9298C61.6935 22.8594 61.6412 22.7766 61.6064 22.686C61.3625 21.8081 61.2795 20.8934 61.3614 19.986V19.985Z" fill="black"/>
<path d="M46.3384 12.495C46.3384 13.4763 46.7282 14.4174 47.4221 15.1113C48.116 15.8051 49.0571 16.195 50.0384 16.195C51.0197 16.195 51.9608 15.8051 52.6547 15.1113C53.3486 14.4174 53.7384 13.4763 53.7384 12.495C53.7384 11.271 52.7724 6.48096 50.0384 6.48096C47.3044 6.48096 46.3384 11.275 46.3384 12.495ZM50.0384 13.234C49.8425 13.2337 49.6546 13.1557 49.5161 13.0172C49.3776 12.8787 49.2996 12.6909 49.2994 12.495C49.3861 11.5878 49.6364 10.7038 50.0384 9.88596C50.4404 10.7038 50.6908 11.5878 50.7774 12.495C50.7771 12.6909 50.6992 12.8787 50.5606 13.0172C50.4221 13.1557 50.2343 13.2337 50.0384 13.234Z" fill="black"/>
<path d="M35.8811 18.5409C34.5341 20.3409 33.5701 22.3919 34.7171 24.3409C35.0902 24.9693 35.6408 25.4732 36.2997 25.7894C36.9585 26.1056 37.6961 26.2199 38.4197 26.1179C39.1434 26.016 39.8207 25.7023 40.3665 25.2163C40.9122 24.7304 41.3021 24.0939 41.4871 23.3869C41.7931 22.2019 42.0561 17.3229 39.4091 16.6389C38.2381 16.3349 37.0511 16.9749 35.8811 18.5409ZM38.6201 22.6409C38.5958 22.7349 38.5533 22.8231 38.4949 22.9007C38.4365 22.9782 38.3634 23.0434 38.2797 23.0927C38.1961 23.1419 38.1036 23.1742 38.0075 23.1878C37.9114 23.2013 37.8136 23.1957 37.7196 23.1714C37.6257 23.1471 37.5374 23.1046 37.4599 23.0462C37.3824 22.9878 37.3171 22.9147 37.2679 22.831C37.2186 22.7474 37.1863 22.6549 37.1728 22.5588C37.1593 22.4627 37.1648 22.3649 37.1891 22.2709C37.4999 21.4143 37.9634 20.6212 38.5571 19.9299C38.7422 20.8237 38.7636 21.7436 38.6201 22.6449V22.6409Z" fill="black"/>
<path d="M22.5151 10.7669C22.0873 11.65 22.0279 12.667 22.3499 13.594C22.6719 14.5209 23.3489 15.2821 24.2321 15.7098C25.1153 16.1376 26.1322 16.1971 27.0592 15.8751C27.9862 15.5531 28.7473 14.876 29.1751 13.9928C29.8201 12.6618 30.8091 8.10185 28.4671 6.96785C26.1731 5.85785 23.2021 9.34885 22.5151 10.7669ZM26.5151 12.7019C26.4728 12.7892 26.4136 12.8673 26.3411 12.9318C26.2685 12.9963 26.184 13.0458 26.0923 13.0776C26.0006 13.1094 25.9035 13.1229 25.8066 13.1171C25.7098 13.1114 25.6149 13.0867 25.5276 13.0444C25.4403 13.002 25.3621 12.9429 25.2977 12.8703C25.2332 12.7978 25.1837 12.7132 25.1518 12.6215C25.12 12.5298 25.1066 12.4328 25.1123 12.3359C25.118 12.239 25.1428 12.1442 25.1851 12.0569C25.6579 11.2784 26.2677 10.592 26.9851 10.0309C26.9893 10.9426 26.8284 11.8475 26.5101 12.7019H26.5151Z" fill="black"/>
</svg>
