<svg width="512" height="512" viewBox="0 0 512 512" fill="none" xmlns="http://www.w3.org/2000/svg">
<path d="M298.606 261.368C334.998 245.036 360.409 208.459 360.409 166.055C360.409 108.484 313.572 61.6465 256 61.6465C198.429 61.6465 151.591 108.484 151.591 166.055C151.591 208.459 177.002 245.036 213.395 261.368C130.804 280.698 69.1108 354.955 69.1108 443.353C69.1108 447.219 72.2446 450.353 76.1108 450.353H435.889C439.755 450.353 442.889 447.219 442.889 443.353C442.889 354.955 381.196 280.699 298.606 261.368ZM165.591 166.055C165.591 116.204 206.149 75.6465 256 75.6465C305.852 75.6465 346.409 116.204 346.409 166.055C346.409 215.906 305.852 256.463 256 256.463C206.149 256.463 165.591 215.906 165.591 166.055ZM83.2505 436.353C86.937 344.254 163.014 270.463 256 270.463C348.987 270.463 425.063 344.254 428.75 436.353H83.2505Z" fill="white"/>
</svg>
