<svg width="74" height="73" viewBox="0 0 74 73" fill="none" xmlns="http://www.w3.org/2000/svg">
<path d="M69.7844 39.985V24.7C69.7834 23.7646 69.4113 22.8679 68.7499 22.2065C68.0885 21.5451 67.1918 21.1731 66.2564 21.172H63.8994C63.0287 21.1749 62.1903 21.5018 61.5474 22.089C60.9048 21.5014 60.0662 21.1744 59.1954 21.172H56.8484C55.9777 21.1749 55.1393 21.5018 54.4964 22.089C53.8538 21.5014 53.0152 21.1744 52.1444 21.172H49.7924C48.8571 21.1731 47.9603 21.5451 47.2989 22.2065C46.6375 22.8679 46.2655 23.7646 46.2644 24.7V39.787C43.5514 37.907 39.5914 36.306 33.7944 35.629L35.6464 22.662C35.715 22.1839 35.6799 21.6966 35.5435 21.2332C35.4071 20.7698 35.1727 20.3412 34.8561 19.9764C34.5395 19.6116 34.1481 19.3192 33.7085 19.1189C33.2689 18.9187 32.7914 18.8154 32.3084 18.816H21.5674V8.232C21.5679 7.92027 21.692 7.62145 21.9124 7.40103C22.1329 7.1806 22.4317 7.05653 22.7434 7.056H32.1514C33.0871 7.056 33.9845 6.6843 34.6461 6.02267C35.3077 5.36104 35.6794 4.46368 35.6794 3.528C35.6794 2.59232 35.3077 1.69496 34.6461 1.03333C33.9845 0.371699 33.0871 0 32.1514 0H21.5674C19.6966 0.00185319 17.903 0.745846 16.5801 2.0687C15.2573 3.39156 14.5133 5.1852 14.5114 7.056V18.816H3.77141C2.87735 18.8168 2.02013 19.1723 1.38793 19.8045C0.755727 20.4367 0.400208 21.2939 0.399414 22.188C0.399682 22.3476 0.411042 22.507 0.433414 22.665L3.26741 42.5C1.57327 44.4159 0.564333 46.8408 0.399414 49.393C0.403051 50.3668 0.709051 51.3154 1.27513 52.1077C1.8412 52.9 2.6394 53.4969 3.55941 53.816C2.95746 54.7021 2.67807 55.768 2.768 56.8355C2.85792 57.9029 3.3117 58.9071 4.05341 59.68C2.6822 60.4346 1.60089 61.6238 0.979719 63.0604C0.358546 64.497 0.232789 66.0994 0.622246 67.6153C1.0117 69.1312 1.89426 70.4745 3.13096 71.4338C4.36766 72.3931 5.88828 72.9138 7.45341 72.914H73.3124V43.514C73.3116 42.5785 72.9397 41.6815 72.2783 41.0199C71.6168 40.3582 70.7199 39.9861 69.7844 39.985V39.985ZM62.7284 24.7C62.7279 24.3884 62.8508 24.0894 63.0703 23.8682C63.2897 23.6471 63.5879 23.5219 63.8994 23.52H66.2514C66.4065 23.5196 66.5602 23.5498 66.7036 23.609C66.847 23.6681 66.9773 23.755 67.087 23.8647C67.1968 23.9743 67.2838 24.1045 67.343 24.2479C67.4023 24.3912 67.4327 24.5449 67.4324 24.7V39.985H62.7324L62.7284 24.7ZM55.6724 24.7C55.6729 24.3883 55.797 24.0895 56.0174 23.869C56.2379 23.6486 56.5367 23.5245 56.8484 23.524H59.1994C59.5113 23.5243 59.8104 23.6482 60.031 23.8687C60.2517 24.0891 60.3759 24.3881 60.3764 24.7V39.985H55.6764L55.6724 24.7ZM48.6164 24.7C48.6169 24.3883 48.741 24.0895 48.9614 23.869C49.1819 23.6486 49.4807 23.5245 49.7924 23.524H52.1444C52.4561 23.5245 52.755 23.6486 52.9754 23.869C53.1958 24.0895 53.3199 24.3883 53.3204 24.7V39.985H48.6204L48.6164 24.7ZM29.7994 2.352H32.1514C32.4633 2.352 32.7624 2.4759 32.983 2.69644C33.2035 2.91699 33.3274 3.21611 33.3274 3.528C33.3274 3.83989 33.2035 4.13901 32.983 4.35956C32.7624 4.5801 32.4633 4.704 32.1514 4.704H29.7994V2.352ZM25.0994 2.352H27.4514V4.7H25.0994V2.352ZM16.8674 7.052C16.8698 5.80621 17.3657 4.61213 18.2466 3.73123C19.1275 2.85032 20.3216 2.35438 21.5674 2.352H22.7434V4.7C21.8081 4.70106 20.9113 5.0731 20.2499 5.7345C19.5885 6.3959 19.2165 7.29264 19.2154 8.228V18.816H16.8634L16.8674 7.052ZM2.93141 23.52L2.76241 22.336C2.75525 22.287 2.75158 22.2375 2.75141 22.188C2.75168 21.9176 2.85923 21.6583 3.05046 21.467C3.24169 21.2758 3.50097 21.1683 3.77141 21.168H32.3084C32.5789 21.1683 32.8381 21.2758 33.0294 21.467C33.2206 21.6583 33.3282 21.9176 33.3284 22.188C33.3285 22.2365 33.3255 22.2849 33.3194 22.333L33.1484 23.521H29.7994V25.873H32.8114L32.1394 30.573H3.93941L3.26741 25.873H27.4474V23.52H2.93141ZM31.8054 32.928L31.4504 35.416C30.1904 35.329 28.8644 35.28 27.4504 35.28H25.0994C14.8514 35.28 8.86541 37.666 5.35741 40.48L4.27541 32.928H31.8054ZM2.75141 49.393C2.75141 49.275 3.00641 37.633 25.0954 37.633H27.4474C49.3834 37.633 49.7854 48.92 49.7914 49.393C49.7909 50.0166 49.5429 50.6146 49.1019 51.0555C48.661 51.4965 48.063 51.7445 47.4394 51.745H5.09941C4.47648 51.7434 3.87957 51.495 3.43947 51.0541C2.99936 50.6133 2.75194 50.0159 2.75141 49.393V49.393ZM7.45141 58.801C6.84493 58.776 6.27161 58.5174 5.85133 58.0795C5.43106 57.6415 5.19639 57.058 5.19639 56.451C5.19639 55.844 5.43106 55.2605 5.85133 54.8225C6.27161 54.3846 6.84493 54.126 7.45141 54.101H45.0884C45.4052 54.0879 45.7213 54.139 46.0178 54.2512C46.3143 54.3634 46.5851 54.5344 46.8139 54.7539C47.0426 54.9735 47.2246 55.2369 47.349 55.5286C47.4733 55.8202 47.5374 56.134 47.5374 56.451C47.5374 56.768 47.4733 57.0818 47.349 57.3734C47.2246 57.6651 47.0426 57.9285 46.8139 58.1481C46.5851 58.3676 46.3143 58.5386 46.0178 58.6508C45.7213 58.763 45.4052 58.8141 45.0884 58.801H7.45141ZM40.1794 61.153L35.3544 66.783L22.4854 61.153H40.1794ZM45.0884 70.561H7.45541C6.20784 70.561 5.01135 70.0654 4.12918 69.1832C3.24701 68.3011 2.75141 67.1046 2.75141 65.857C2.75141 64.6094 3.24701 63.4129 4.12918 62.5308C5.01135 61.6486 6.20784 61.153 7.45541 61.153H16.6174L36.0054 69.636L43.2764 61.153H45.0874C46.335 61.153 47.5315 61.6486 48.4136 62.5308C49.2958 63.4129 49.7914 64.6094 49.7914 65.857C49.7914 67.1046 49.2958 68.3011 48.4136 69.1832C47.5315 70.0654 46.335 70.561 45.0874 70.561H45.0884ZM48.4884 59.679C49.1953 58.9491 49.6418 58.0065 49.7588 56.9972C49.8758 55.9879 49.6566 54.9682 49.1354 54.096H66.2564V65.856H52.1444C52.1423 65.0542 52.0029 64.2588 51.7324 63.504H59.1994V61.153H50.3334C49.8059 60.5624 49.1833 60.0642 48.4914 59.679H48.4884ZM70.9604 47.041H68.6084V49.393H70.9604V70.561H50.3334C50.9497 69.8763 51.4254 69.0772 51.7334 68.209H68.6084V51.745H51.4904C51.9137 51.0331 52.1395 50.2212 52.1444 49.393H66.2564V47.041H51.7454C51.2237 45.3048 50.3334 43.7017 49.1354 42.341H69.7844C70.0962 42.3413 70.3952 42.4652 70.6157 42.6857C70.8362 42.9062 70.9601 43.2052 70.9604 43.517V47.041Z" fill="#A80E0E"/>
<path d="M64.3994 60.913H61.3994V63.913H64.3994V60.913Z" fill="#A80E0E"/>
<path d="M18.3994 39.913H15.3994V41.913H18.3994V39.913Z" fill="#A80E0E"/>
<path d="M22.3994 41.913H20.3994V44.913H22.3994V41.913Z" fill="#A80E0E"/>
<path d="M27.3994 39.913H25.3994V41.913H27.3994V39.913Z" fill="#A80E0E"/>
<path d="M34.3994 43.913H32.3994V45.913H34.3994V43.913Z" fill="#A80E0E"/>
<path d="M40.3994 39.913H38.3994V41.913H40.3994V39.913Z" fill="#A80E0E"/>
<path d="M11.3994 44.913H8.39941V46.913H11.3994V44.913Z" fill="#A80E0E"/>
</svg>
