<svg width="67" height="75" viewBox="0 0 67 75" fill="none" xmlns="http://www.w3.org/2000/svg">
<path d="M56.908 51.228L65.3309 48.772C65.646 48.6803 65.9128 48.4691 66.0743 48.1834C66.2357 47.8977 66.279 47.5602 66.1949 47.243L66.145 47.026C66.114 46.884 66.082 46.741 66.045 46.599C65.0599 43.185 63.4073 40.0004 61.1831 37.2294C58.9588 34.4585 56.207 32.1562 53.0869 30.456C52.942 30.3765 52.7828 30.3263 52.6185 30.3084C52.4541 30.2905 52.2879 30.3052 52.1292 30.3517C51.9706 30.3981 51.8226 30.4754 51.6939 30.5791C51.5652 30.6828 51.4581 30.8109 51.3789 30.956L41.013 49.856L40.675 50.473L31.455 46.395V44.451C35.6765 42.0272 38.7947 38.062 40.1549 33.388C40.9934 33.4026 41.8171 33.1669 42.521 32.711C43.085 32.3708 43.5668 31.9102 43.932 31.3619C44.2971 30.8137 44.5365 30.1916 44.633 29.54C44.7652 28.5056 44.5247 27.458 43.9546 26.5848C43.3845 25.7117 42.5221 25.0701 41.522 24.775V11.928C41.5397 9.90748 40.8344 7.9472 39.5335 6.4011C38.2326 4.855 36.4218 3.82497 34.428 3.49699C31.4977 2.99852 28.6452 2.11907 25.943 0.880992C25.2993 0.596761 24.6007 0.458336 23.8973 0.475623C23.1938 0.492911 22.5029 0.665483 21.874 0.980991C19.5827 2.16607 17.133 3.01544 14.5999 3.50299C12.6255 3.86147 10.839 4.90014 9.55054 6.43863C8.26213 7.97713 7.55324 9.91827 7.54696 11.925V24.772C6.61164 25.0486 5.79506 25.6288 5.22612 26.421C4.65717 27.2132 4.36825 28.1723 4.40495 29.147C4.44938 29.8459 4.65741 30.5246 5.01228 31.1284C5.36715 31.7322 5.85892 32.2441 6.44795 32.623C7.14455 33.134 7.9891 33.4034 8.85295 33.39C10.171 38.1621 13.3209 42.2203 17.617 44.681C17.617 44.692 17.611 44.7 17.611 44.712V46.397L8.29795 50.516L7.78995 50.741C5.47655 51.7617 3.5092 53.4321 2.12674 55.5492C0.74427 57.6664 0.00614133 60.1394 0.00195312 62.668V73.015C0.00195313 73.3486 0.13449 73.6686 0.370411 73.9045C0.606332 74.1404 0.92631 74.273 1.25995 74.273H64.16C64.4936 74.273 64.8136 74.1404 65.0495 73.9045C65.2854 73.6686 65.418 73.3486 65.418 73.015V57.915C65.418 57.5813 65.2854 57.2614 65.0495 57.0255C64.8136 56.7895 64.4936 56.657 64.16 56.657H47.5869C47.1625 55.8482 46.654 55.0863 46.07 54.384L56.908 51.228ZM32.708 56.661C32.3743 56.661 32.0543 56.7935 31.8184 57.0295C31.5825 57.2654 31.45 57.5854 31.45 57.919V71.756H10.064V52.481L17.6119 49.143V52.255C17.6338 54.0755 18.3724 55.814 19.6675 57.0936C20.9626 58.3732 22.7098 59.0908 24.5305 59.0908C26.3511 59.0908 28.0983 58.3732 29.3934 57.0936C30.6885 55.814 31.4271 54.0755 31.449 52.255V49.147L36.421 51.347L38.996 52.481V53.519L38.5449 54.341C38.4252 54.5592 38.3729 54.808 38.3946 55.056C38.4163 55.304 38.5111 55.5399 38.667 55.734C38.761 55.8388 38.8723 55.9267 38.996 55.994V56.659L32.708 56.661ZM62.899 66.725H33.965V64.209H62.898L62.899 66.725ZM42.687 52.025C43.0905 52.1285 43.5054 52.1809 43.922 52.181C44.4001 52.1817 44.8758 52.1144 45.3349 51.981L42.214 52.891L42.687 52.025ZM46.074 45.851C46.3082 46.2254 46.4384 46.6555 46.451 47.097C46.4637 47.5384 46.3584 47.9753 46.1459 48.3625C45.9335 48.7497 45.6216 49.0732 45.2424 49.2997C44.8633 49.5262 44.4306 49.6475 43.9889 49.651L46.074 45.851ZM55.249 48.704C55.0307 48.5844 54.8528 48.4027 54.7379 48.182C54.6229 47.9612 54.576 47.7113 54.6031 47.4639C54.6302 47.2165 54.73 46.9827 54.89 46.7921C55.05 46.6015 55.263 46.4626 55.5019 46.393C55.617 46.3595 55.7361 46.3423 55.856 46.342C56.1279 46.3429 56.3923 46.4317 56.6096 46.5952C56.8269 46.7586 56.9856 46.988 57.062 47.249V47.249C57.1554 47.569 57.118 47.913 56.9578 48.2053C56.7977 48.4977 56.5279 48.7145 56.208 48.808V48.808C56.0491 48.8559 55.8824 48.8717 55.7174 48.8545C55.5524 48.8373 55.3925 48.7875 55.247 48.708L55.249 48.704ZM63.449 46.699L59.6139 47.817C59.6543 47.2113 59.5479 46.6048 59.3038 46.049C59.0597 45.4932 58.6852 45.0045 58.212 44.6243C57.7388 44.2441 57.1808 43.9837 56.5855 43.8651C55.9902 43.7465 55.375 43.7733 54.7922 43.9432C54.2095 44.113 53.6763 44.421 53.2379 44.8408C52.7995 45.2607 52.4688 45.7801 52.274 46.355C52.0791 46.9299 52.0258 47.5434 52.1186 48.1433C52.2114 48.7431 52.4475 49.3118 52.8069 49.801L45.3359 51.981C46.6157 51.6057 47.6945 50.7384 48.3357 49.5691C48.977 48.3997 49.1285 47.0238 48.757 45.743C48.5027 44.8837 48.0214 44.1089 47.3639 43.5L48.617 41.216C49.4525 41.8041 50.4492 42.1202 51.471 42.121C52.2427 42.1227 53.0044 41.9464 53.6969 41.6058C54.3895 41.2652 54.9941 40.7695 55.4639 40.1572C55.9337 39.5449 56.2559 38.8326 56.4056 38.0755C56.5553 37.3184 56.5284 36.537 56.327 35.792C59.646 38.7149 62.1058 42.487 63.442 46.703L63.449 46.699ZM52.194 34.699C52.5963 34.8118 52.9633 35.0249 53.2607 35.3184C53.558 35.6119 53.776 35.9762 53.894 36.377C54.08 37.0176 54.0044 37.7059 53.6836 38.2908C53.3628 38.8757 52.8231 39.3095 52.1829 39.497C51.7811 39.6125 51.3566 39.6242 50.949 39.5308C50.5415 39.4374 50.1643 39.242 49.853 38.963L52.194 34.699ZM10.064 23.148V18.442C19.852 13.642 29.332 13.642 38.997 18.442V23.268C34.2558 21.1443 29.1305 20.0124 23.936 19.942C19.1291 19.946 14.386 21.0423 10.065 23.148H10.064ZM37.3229 25.294C30.8799 27.88 24.523 24.775 21.171 22.567C26.6974 22.125 32.247 23.062 37.3219 25.294H37.3229ZM15.0569 5.97099C17.8277 5.43953 20.5075 4.51202 23.014 3.21699C23.308 3.0706 23.6308 2.99093 23.9593 2.98367C24.2877 2.97641 24.6137 3.04174 24.914 3.17499C27.8122 4.50123 30.8715 5.44256 34.014 5.97499C35.4173 6.2092 36.6906 6.93743 37.604 8.02819C38.5174 9.11896 39.0108 10.5004 38.995 11.923V15.651C34.4793 13.486 29.5351 12.3629 24.5273 12.3646C19.5195 12.3664 14.5761 13.4929 10.062 15.661V11.919C10.068 10.5001 10.571 9.12809 11.4836 8.04148C12.3961 6.95487 13.6604 6.22228 15.0569 5.97099V5.97099ZM11.036 31.702C11.0002 31.5275 10.9278 31.3626 10.8235 31.2182C10.7193 31.0737 10.5855 30.9531 10.4311 30.8642C10.2768 30.7754 10.1053 30.7203 9.92803 30.7027C9.75078 30.6851 9.5718 30.7053 9.40295 30.762C9.14803 30.8636 8.87086 30.8963 8.5993 30.8568C8.32774 30.8173 8.07137 30.707 7.85595 30.537C7.5973 30.3781 7.37846 30.1621 7.21621 29.9056C7.05397 29.6491 6.95262 29.3588 6.91995 29.057C6.9104 28.8034 6.95212 28.5504 7.0426 28.3133C7.13308 28.0761 7.27047 27.8597 7.44655 27.6769C7.62263 27.4941 7.83378 27.3487 8.06736 27.2494C8.30093 27.1501 8.55214 27.0989 8.80595 27.099C9.12061 27.1072 9.4266 26.9954 9.66188 26.7863C9.89716 26.5772 10.0441 26.2864 10.0729 25.973C12.4718 24.6946 15.0289 23.7384 17.678 23.129C21.564 26.281 26.778 28.794 32.178 28.794C34.7901 28.803 37.3658 28.1811 39.686 26.981C39.8639 27.0634 40.0579 27.1054 40.2539 27.104C40.5226 27.1038 40.7882 27.1611 41.033 27.2718C41.2778 27.3826 41.4961 27.5443 41.6733 27.7463C41.8505 27.9482 41.9826 28.1857 42.0607 28.4427C42.1387 28.6998 42.161 28.9706 42.1259 29.237C42.0764 29.5163 41.966 29.7812 41.8027 30.0131C41.6394 30.245 41.4272 30.4382 41.181 30.579C40.9587 30.7371 40.7001 30.8367 40.4292 30.8683C40.1582 30.8999 39.8837 30.8627 39.631 30.76C39.4628 30.7006 39.2839 30.6776 39.1062 30.6927C38.9285 30.7077 38.756 30.7604 38.6002 30.8472C38.4445 30.9341 38.3089 31.0531 38.2027 31.1963C38.0964 31.3395 38.0219 31.5037 37.984 31.678C37.3753 34.4471 36.0544 37.0093 34.1518 39.1113C32.2492 41.2133 29.8309 42.7823 27.136 43.663L26.577 43.844C25.0813 44.3426 23.4674 44.3625 21.9599 43.901C19.2228 43.0157 16.7694 41.42 14.8503 39.2769C12.9312 37.1338 11.615 34.5199 11.036 31.702V31.702ZM21.189 46.297C22.142 46.6027 23.137 46.7575 24.138 46.756C25.2298 46.7525 26.3143 46.5777 27.352 46.238L27.911 46.057C28.262 45.943 28.5919 45.787 28.9329 45.657V52.262C28.9329 53.4297 28.4691 54.5497 27.6433 55.3754C26.8176 56.2011 25.6977 56.665 24.5299 56.665C23.3622 56.665 22.2423 56.2011 21.4166 55.3754C20.5908 54.5497 20.1269 53.4297 20.1269 52.262V45.881C20.4809 46.018 20.823 46.181 21.189 46.297ZM2.51595 62.668C2.51972 60.8695 2.98419 59.102 3.86509 57.534C4.74598 55.966 6.01392 54.6498 7.54795 53.711V71.757H2.51595V62.668ZM62.898 71.758H33.965V69.241H62.898V71.758ZM62.898 61.694H33.965V59.181H62.898V61.694ZM44.622 56.662H41.512V55.717L43.369 55.175C43.8314 55.6309 44.2505 56.1287 44.621 56.662H44.622Z" fill="#A80E0E"/>
</svg>
