<svg width="95" height="117" viewBox="0 0 95 117" fill="none" xmlns="http://www.w3.org/2000/svg">
<path d="M66.249 65.3482V90.9372C66.249 92.0737 66.7005 93.1636 67.5041 93.9672C68.3077 94.7708 69.3976 95.2222 70.534 95.2222C71.6705 95.2222 72.7604 94.7708 73.564 93.9672C74.3676 93.1636 74.819 92.0737 74.819 90.9372V59.3862L66.249 65.3482Z" fill="#FFEBA1"/>
<path d="M47.2139 78.5894V87.3184C47.2139 88.4549 47.6653 89.5448 48.4689 90.3484C49.2725 91.152 50.3624 91.6034 51.4989 91.6034C52.6353 91.6034 53.7252 91.152 54.5288 90.3484C55.3324 89.5448 55.7839 88.4549 55.7839 87.3184V72.6284L47.2139 78.5894Z" fill="#FFEBA1"/>
<path d="M15.4009 100.718V110.362C15.4009 111.499 15.8523 112.589 16.6559 113.392C17.4595 114.196 18.5494 114.647 19.6859 114.647C20.8223 114.647 21.9122 114.196 22.7158 113.392C23.5194 112.589 23.9709 111.499 23.9709 110.362V94.7622L15.4009 100.718Z" fill="#FFEBA1"/>
<path d="M70.7248 62.2352V90.9352C70.7251 91.7062 70.5174 92.463 70.1235 93.1259C69.7296 93.7887 69.1642 94.3329 68.4868 94.7012C69.1397 95.0556 69.8734 95.2342 70.616 95.2196C71.3587 95.205 72.0848 94.9977 72.7232 94.618C73.3617 94.2383 73.8905 93.6992 74.2578 93.0536C74.6252 92.408 74.8185 91.678 74.8188 90.9352V59.3862L70.7248 62.2352Z" fill="#F7D36F"/>
<path d="M51.6882 75.4759V87.3179C51.6886 88.0887 51.481 88.8453 51.0873 89.508C50.6936 90.1706 50.1283 90.7147 49.4512 91.0829C50.1039 91.4379 50.8376 91.617 51.5804 91.6027C52.3232 91.5884 53.0496 91.3813 53.6881 91.0016C54.3267 90.6219 54.8556 90.0827 55.2229 89.4369C55.5902 88.7911 55.7833 88.0609 55.7832 87.3179V72.6279L51.6882 75.4759Z" fill="#F7D36F"/>
<path d="M19.8752 97.6042V110.361C19.8756 111.132 19.668 111.889 19.2743 112.551C18.8806 113.214 18.3153 113.758 17.6382 114.126C18.2909 114.481 19.0246 114.66 19.7674 114.646C20.5102 114.632 21.2366 114.425 21.8752 114.045C22.5137 113.665 23.0426 113.126 23.4099 112.48C23.7772 111.834 23.9703 111.104 23.9702 110.361V94.7612L19.8752 97.6042Z" fill="#F7D36F"/>
<path d="M8.66417 13.426C12.3746 12.485 16.2054 12.1071 20.0282 12.3049C27.0432 12.4929 38.2112 14.185 51.5702 21.205C64.9292 28.225 72.6702 36.4549 76.8022 42.1269C79.1365 45.1599 81.001 48.527 82.3332 52.115C82.4941 52.6622 82.7431 53.1796 83.0702 53.647L6.59717 106.847L6.98417 13.6929C7.55471 13.6968 8.12208 13.6079 8.66417 13.4299V13.426Z" fill="#FFDB57"/>
<path d="M80.2032 47.4458L6.63019 98.6298L6.59619 106.842L83.0692 53.6458C82.7422 53.1788 82.4933 52.6617 82.3322 52.1148C81.7659 50.4984 81.0529 48.9373 80.2022 47.4508L80.2032 47.4458Z" fill="#F6C134"/>
<path d="M56.501 11.8181C27.232 -3.55086 6.23103 3.06614 5.35103 3.35614C4.01566 3.79547 2.90952 4.74728 2.27592 6.00218C1.64233 7.25708 1.5332 8.71228 1.97253 10.0476C2.41186 11.383 3.36367 12.4892 4.61857 13.1227C5.87347 13.7563 7.32866 13.8655 8.66403 13.4261C12.3744 12.487 16.2048 12.1108 20.027 12.3101C27.043 12.4931 38.21 14.1841 51.573 21.2031C64.936 28.2221 72.669 36.4561 76.801 42.1271C79.1353 45.1601 80.9999 48.5272 82.332 52.1151C82.7455 53.4431 83.6644 54.5553 84.8905 55.2119C86.1166 55.8684 87.5517 56.0167 88.8861 55.6247C90.2206 55.2328 91.3475 54.3319 92.0237 53.1166C92.7 51.9012 92.8714 50.4687 92.501 49.1281C92.24 48.2391 85.771 27.1901 56.501 11.8161V11.8181Z" fill="#FF9F34"/>
<path d="M88.3599 51.4479C88.3469 51.4039 86.8979 46.7479 82.1349 40.2049C77.4839 33.8219 68.7819 24.554 53.7399 16.655C38.6979 8.75595 26.1289 6.85495 18.2329 6.64595C10.1469 6.43495 5.48691 7.88695 5.44291 7.90195C4.23637 8.2988 2.93445 8.2988 1.72791 7.90195C1.64725 8.77763 1.78575 9.65962 2.13093 10.4684C2.47611 11.2772 3.01712 11.9875 3.70519 12.5351C4.39327 13.0827 5.2068 13.4505 6.07245 13.6053C6.9381 13.7601 7.82868 13.6971 8.66391 13.4219C12.3743 12.4828 16.2047 12.1066 20.0269 12.306C27.0429 12.489 38.2099 14.1809 51.5729 21.1989C64.9359 28.2169 72.6689 36.4559 76.7989 42.1269C79.1336 45.1601 80.9981 48.5275 82.3299 52.1159C82.576 52.9555 83.0261 53.7211 83.64 54.3444C84.254 54.9677 85.0127 55.4294 85.8485 55.6881C86.6842 55.9468 87.571 55.9947 88.4298 55.8273C89.2885 55.66 90.0925 55.2826 90.7699 54.7289C89.6043 53.9536 88.7498 52.7916 88.3569 51.4479H88.3599Z" fill="#FB8F2D"/>
<path d="M43.2672 47.032C43.2674 48.8108 42.7402 50.5496 41.7521 52.0287C40.764 53.5077 39.3595 54.6605 37.7162 55.3413C36.0729 56.0221 34.2646 56.2003 32.5201 55.8533C30.7755 55.5063 29.173 54.6498 27.9152 53.392C26.6575 52.1343 25.801 50.5318 25.454 48.7872C25.107 47.0427 25.2852 45.2344 25.966 43.5911C26.6468 41.9478 27.7996 40.5433 29.2786 39.5552C30.7577 38.5671 32.4965 38.0398 34.2753 38.04C36.66 38.0403 38.947 38.9878 40.6333 40.674C42.3195 42.3603 43.267 44.6473 43.2672 47.032V47.032Z" fill="#F2433B"/>
<path d="M34.2752 49.8829C32.4287 49.8823 30.6272 49.3137 29.1149 48.2543C27.6026 47.1949 26.4527 45.696 25.8212 43.9609C25.3293 45.319 25.1718 46.7755 25.362 48.2073C25.5522 49.6391 26.0845 51.004 26.9139 52.1865C27.7433 53.3691 28.8453 54.3344 30.1268 55.0008C31.4082 55.6673 32.8313 56.0152 34.2757 56.0152C35.7201 56.0152 37.1432 55.6673 38.4246 55.0008C39.7061 54.3344 40.8081 53.3691 41.6375 52.1865C42.4669 51.004 42.9992 49.6391 43.1894 48.2073C43.3796 46.7755 43.2221 45.319 42.7302 43.9609C42.0986 45.6962 40.9486 47.1952 39.4361 48.2546C37.9236 49.314 36.1218 49.8825 34.2752 49.8829V49.8829Z" fill="#D83636"/>
<path d="M6.75293 70.268C9.10471 70.2292 11.3476 69.2702 13.0005 67.5968C14.6534 65.9234 15.5847 63.6688 15.5945 61.3167C15.6043 58.9646 14.6919 56.7024 13.053 55.0152C11.4141 53.3281 9.17931 52.3504 6.82793 52.292L6.75293 70.268Z" fill="#F2433B"/>
<path d="M6.77393 64.125L6.75293 70.268C8.1846 70.2433 9.58968 69.8771 10.8513 69.2C12.113 68.5228 13.1947 67.5541 14.0065 66.3746C14.8183 65.1951 15.3368 63.8389 15.5188 62.4186C15.7008 60.9983 15.5411 59.5551 15.0529 58.209C14.432 59.9154 13.3091 61.394 11.8319 62.4501C10.3548 63.5062 8.59248 64.0905 6.77693 64.126L6.77393 64.125Z" fill="#D83636"/>
<path d="M59.1691 55.3629C57.0899 55.3652 55.0757 56.0878 53.4693 57.4078C51.8628 58.7277 50.7633 60.5635 50.3578 62.6028C49.9523 64.6421 50.2658 66.7589 51.2451 68.593C52.2244 70.4271 53.8089 71.8653 55.7291 72.6629L68.1531 64.0199C68.0674 61.6943 67.0834 59.4926 65.408 57.8776C63.7326 56.2626 61.4962 55.3601 59.1691 55.3599V55.3629Z" fill="#F2433B"/>
<path d="M65.3228 57.8022L50.8828 67.8502C51.8044 70.0296 53.5455 71.7596 55.7308 72.6673L68.1548 64.0242C68.0696 61.6586 67.0522 59.4227 65.3248 57.8042L65.3228 57.8022Z" fill="#D83636"/>
<path d="M63.0082 44.4479C65.2416 44.4477 67.3949 43.6165 69.0492 42.1161C70.7035 40.6158 71.7404 38.5536 71.9582 36.3309C68.5552 32.7631 64.7955 29.5534 60.7382 26.752C58.619 27.3015 56.773 28.6052 55.5463 30.4186C54.3197 32.232 53.7965 34.4305 54.075 36.6021C54.3535 38.7736 55.4145 40.769 57.0591 42.2141C58.7037 43.6593 60.8189 44.4549 63.0082 44.452V44.4479Z" fill="#F2433B"/>
<path d="M70.2702 34.6132C69.3094 35.9307 68.0083 36.962 66.5064 37.5969C65.0045 38.2318 63.3582 38.4463 61.7437 38.2175C60.1292 37.9888 58.6073 37.3253 57.3409 36.2981C56.0745 35.271 55.1112 33.9187 54.5542 32.3862C54.1166 33.5859 53.9396 34.865 54.0348 36.1385C54.13 37.4119 54.4954 38.6505 55.1066 39.7718C55.7177 40.893 56.5606 41.8713 57.5793 42.6414C58.5979 43.4115 59.7689 43.9559 61.0143 44.2382C62.2597 44.5206 63.5509 44.5345 64.8021 44.279C66.0533 44.0235 67.2357 43.5044 68.2707 42.7564C69.3057 42.0083 70.1695 41.0484 70.8046 39.9406C71.4397 38.8327 71.8316 37.6023 71.9542 36.3312C71.4209 35.7666 70.8582 35.1939 70.2662 34.6132H70.2702Z" fill="#D83636"/>
<path d="M26.6309 26.0399C28.0129 26.0403 29.3765 25.7219 30.6155 25.1097C31.8546 24.4975 32.9359 23.6079 33.7753 22.51C34.6148 21.412 35.1898 20.1354 35.4558 18.7791C35.7218 17.4229 35.6715 16.0236 35.3089 14.6899C30.3304 13.2788 25.1986 12.4796 20.0268 12.3099C19.6758 12.3009 19.3348 12.2959 18.9968 12.2939C18.1491 13.6556 17.681 15.2191 17.641 16.8226C17.601 18.426 17.9905 20.011 18.7692 21.4132C19.548 22.8154 20.6876 23.9838 22.0699 24.7973C23.4522 25.6109 25.0269 26.0399 26.6309 26.0399Z" fill="#F2433B"/>
<path d="M34.8451 14.564C34.1154 16.2008 32.9135 17.5822 31.3934 18.5313C29.8734 19.4804 28.1045 19.9538 26.3135 19.8908C24.5226 19.8279 22.7913 19.2314 21.3417 18.1779C19.892 17.1244 18.7901 15.662 18.1771 13.978C17.6949 15.3068 17.5328 16.7304 17.7037 18.1336C17.8747 19.5367 18.374 20.8798 19.1612 22.0538C19.9484 23.2279 21.0012 24.1999 22.2343 24.8909C23.4674 25.5819 24.846 25.9725 26.2583 26.0311C27.6706 26.0896 29.0768 25.8144 30.3629 25.2278C31.6489 24.6411 32.7786 23.7596 33.6602 22.6547C34.5418 21.5498 35.1505 20.2527 35.437 18.8685C35.7235 17.4843 35.6797 16.0521 35.3091 14.688C35.1531 14.645 35.0001 14.605 34.8451 14.564V14.564Z" fill="#D83636"/>
<path d="M31.5348 78.1538C29.7269 78.1539 27.961 78.6988 26.4675 79.7177C24.9741 80.7365 23.8224 82.1819 23.1628 83.8651C22.5032 85.5484 22.3663 87.3914 22.77 89.1537C23.1737 90.9159 24.0992 92.5155 25.4258 93.7438L39.8478 83.7128C39.1677 82.0676 38.0148 80.6612 36.535 79.6716C35.0552 78.682 33.315 78.1538 31.5348 78.1538Z" fill="#F2433B"/>
<path d="M35.0462 78.8638L22.5562 87.5518C22.6604 89.9132 23.6929 92.1379 25.4291 93.7418L39.8502 83.7108C38.9462 81.5292 37.2228 79.789 35.0501 78.8638H35.0462Z" fill="#D83636"/>
<path d="M94.1422 48.647C93.8732 47.73 87.2072 26.024 57.3172 10.317L57.2832 10.299C27.3812 -5.39997 5.72519 1.43603 4.81819 1.73403C3.37879 2.20821 2.13188 3.13623 1.26444 4.37892C0.397005 5.62162 -0.0442215 7.11202 0.00692351 8.62665C0.0580685 10.1413 0.598829 11.5985 1.54812 12.7799C2.49741 13.9612 3.80408 14.803 5.27219 15.179L5.21219 29.592C5.21114 29.8162 5.2543 30.0383 5.3392 30.2458C5.4241 30.4533 5.54908 30.6419 5.70698 30.8011C5.86487 30.9602 6.0526 31.0866 6.2594 31.173C6.46621 31.2595 6.68804 31.3044 6.91219 31.305H6.91919C7.37044 31.3048 7.80321 31.1257 8.12276 30.8071C8.44231 30.4885 8.62261 30.0563 8.62419 29.605L8.68419 15.191C8.84919 15.15 9.01419 15.105 9.17819 15.051C11.5271 14.4477 13.9368 14.1122 16.3612 14.051C15.9305 15.5224 15.8209 17.0691 16.04 18.5864C16.2591 20.1038 16.8017 21.5564 17.6311 22.8457C18.4605 24.1351 19.5572 25.2312 20.8471 26.0598C22.137 26.8884 23.5899 27.4302 25.1074 27.6484C26.6249 27.8666 28.1715 27.7561 29.6426 27.3245C31.1137 26.8929 32.4748 26.1502 33.6339 25.1467C34.7929 24.1432 35.7228 22.9024 36.3605 21.5082C36.9983 20.114 37.3289 18.5991 37.3302 17.066C41.9728 18.5449 46.4743 20.4347 50.7812 22.713C53.0992 23.931 55.2402 25.185 57.2212 26.455C55.8202 27.3577 54.6494 28.5751 53.8022 30.0103C52.9549 31.4455 52.4547 33.0588 52.3413 34.7216C52.2278 36.3843 52.5044 38.0506 53.1489 39.5875C53.7934 41.1245 54.788 42.4896 56.0535 43.5742C57.3189 44.6587 58.8202 45.4327 60.4377 45.8344C62.0552 46.236 63.7442 46.2543 65.37 45.8877C66.9958 45.5211 68.5135 44.7798 69.8021 43.7229C71.0907 42.666 72.1146 41.3227 72.7922 39.8C73.8002 40.98 74.6732 42.1 75.4232 43.126C77.6347 46.0099 79.4125 49.2016 80.7002 52.6C80.7502 52.771 80.8082 52.939 80.8702 53.1L69.3702 61.1C68.8605 59.5051 67.9836 58.052 66.8101 56.8577C65.6366 55.6634 64.1991 54.7612 62.6134 54.2236C61.0277 53.686 59.3379 53.528 57.68 53.7624C56.0221 53.9968 54.4424 54.6171 53.0678 55.5732C51.6933 56.5293 50.5623 57.7947 49.7659 59.2676C48.9695 60.7404 48.5298 62.3796 48.4823 64.0533C48.4347 65.7271 48.7807 67.3886 49.4922 68.9042C50.2038 70.4199 51.2611 71.7474 52.5792 72.78L40.4482 81.217C39.6679 80.0134 38.6535 78.979 37.4654 78.1753C36.2773 77.3716 34.9397 76.8149 33.5321 76.5385C32.1246 76.2621 30.6758 76.2714 29.272 76.5661C27.8682 76.8608 26.5379 77.4347 25.3603 78.2538C24.1827 79.0728 23.1818 80.1203 22.4172 81.3339C21.6525 82.5475 21.1397 83.9025 20.9091 85.3183C20.6786 86.7341 20.7351 88.1818 21.0752 89.5753C21.4154 90.9688 22.0323 92.2797 22.8892 93.43L14.4472 99.3L8.31619 103.565L8.44819 71.81C10.9209 71.3641 13.1595 70.0666 14.7755 68.1426C16.3915 66.2186 17.283 63.7896 17.2952 61.277C17.2941 58.7765 16.4173 56.3554 14.8171 54.434C13.2169 52.5126 10.9942 51.2124 8.53519 50.759L8.59519 36.43C8.59679 35.9775 8.41861 35.5428 8.09982 35.2216C7.78104 34.9004 7.34775 34.7189 6.89519 34.717H6.88919C6.43785 34.7173 6.00499 34.8963 5.68528 35.2149C5.36557 35.5335 5.18505 35.9657 5.18319 36.417L4.89019 106.835C4.8943 107.145 4.98204 107.448 5.14413 107.713C5.30623 107.977 5.53668 108.192 5.81115 108.337C6.08563 108.481 6.39394 108.548 6.70355 108.532C7.01316 108.515 7.31258 108.416 7.57019 108.243L13.6942 103.983V110.362C13.6942 111.951 14.3254 113.475 15.4489 114.598C16.5724 115.722 18.0963 116.353 19.6852 116.353C21.2741 116.353 22.7979 115.722 23.9215 114.598C25.045 113.475 25.6762 111.951 25.6762 110.362V95.648L45.5062 81.853V87.317C45.5062 88.9059 46.1374 90.4298 47.2609 91.5533C48.3844 92.6768 49.9083 93.308 51.4972 93.308C53.0861 93.308 54.6099 92.6768 55.7335 91.5533C56.857 90.4298 57.4882 88.9059 57.4882 87.317V73.517L64.5432 68.61V90.936C64.5432 92.5249 65.1744 94.0488 66.2979 95.1723C67.4214 96.2958 68.9453 96.927 70.5342 96.927C72.1231 96.927 73.6469 96.2958 74.7705 95.1723C75.894 94.0488 76.5252 92.5249 76.5252 90.936V84.915C76.5252 84.4626 76.3454 84.0286 76.0255 83.7087C75.7056 83.3888 75.2717 83.209 74.8192 83.209C74.3667 83.209 73.9328 83.3888 73.6129 83.7087C73.2929 84.0286 73.1132 84.4626 73.1132 84.915V90.936C73.1132 91.62 72.8415 92.276 72.3578 92.7597C71.8742 93.2433 71.2182 93.515 70.5342 93.515C69.8502 93.515 69.1942 93.2433 68.7106 92.7597C68.2269 92.276 67.9552 91.62 67.9552 90.936V66.236L73.1132 62.648V78.092C73.1132 78.5445 73.2929 78.9784 73.6129 79.2984C73.9328 79.6183 74.3667 79.798 74.8192 79.798C75.2717 79.798 75.7056 79.6183 76.0255 79.2984C76.3454 78.9784 76.5252 78.5445 76.5252 78.092V60.276L82.8132 55.9C83.7011 56.6732 84.7693 57.2104 85.9194 57.4622C87.0695 57.7141 88.2644 57.6724 89.3942 57.341C90.2774 57.0818 91.1008 56.6511 91.8175 56.0735C92.5341 55.4959 93.1299 54.7828 93.5709 53.9748C94.0118 53.1669 94.2892 52.28 94.3872 51.3648C94.4853 50.4496 94.402 49.524 94.1422 48.641V48.647ZM13.8832 61.279C13.8756 62.884 13.3411 64.4421 12.3619 65.7138C11.3827 66.9855 10.0129 67.9005 8.46319 68.318L8.52219 54.249C10.0676 54.6632 11.4321 55.5779 12.4023 56.8501C13.3725 58.1223 13.8936 59.6801 13.8842 61.28L13.8832 61.279ZM33.9182 17.046C33.9191 18.1352 33.6758 19.2107 33.2063 20.1935C32.7367 21.1762 32.0528 22.0412 31.2049 22.7248C30.357 23.4084 29.3667 23.8933 28.3067 24.1437C27.2467 24.3942 26.1441 24.4038 25.0799 24.1719C24.0157 23.94 23.017 23.4726 22.1573 22.8039C21.2976 22.1352 20.5987 21.2822 20.112 20.3078C19.6254 19.3334 19.3633 18.2623 19.3452 17.1733C19.3271 16.0843 19.5533 15.0051 20.0072 14.015C24.6847 14.1681 29.3295 14.8549 33.8512 16.062C33.8957 16.3881 33.9181 16.7169 33.9182 17.046V17.046ZM63.0082 42.746C61.3014 42.7459 59.6487 42.1467 58.3385 41.0528C57.0283 39.959 56.1436 38.4399 55.8387 36.7605C55.5339 35.0811 55.8283 33.348 56.6705 31.8634C57.5127 30.3788 58.8493 29.237 60.4472 28.637C63.924 31.0969 67.1706 33.8669 70.1472 36.913C69.8182 38.5628 68.9258 40.0469 67.6229 41.1111C66.3199 42.1752 64.6875 42.7532 63.0052 42.746H63.0082ZM59.1692 57.068C60.9014 57.0621 62.5786 57.6761 63.8975 58.7992C65.2164 59.9222 66.0899 61.48 66.3602 63.191L55.5782 70.691C54.1774 69.8987 53.0785 68.6647 52.453 67.1818C51.8275 65.699 51.7108 64.0507 52.121 62.4945C52.5312 60.9383 53.4452 59.5618 54.7203 58.5798C55.9954 57.5979 57.5598 57.066 59.1692 57.067V57.068ZM31.5392 79.857C32.7516 79.8555 33.9451 80.1578 35.0106 80.7361C36.0762 81.3145 36.9799 82.1506 37.6392 83.168L25.6872 91.484C24.7501 90.2316 24.2464 88.7082 24.2522 87.144C24.2556 85.2125 25.0245 83.361 26.3903 81.9951C27.7561 80.6293 29.6076 79.8605 31.5392 79.857ZM22.2642 110.357C22.2642 111.041 21.9925 111.697 21.5088 112.181C21.0252 112.664 20.3692 112.936 19.6852 112.936C19.0012 112.936 18.3452 112.664 17.8616 112.181C17.3779 111.697 17.1062 111.041 17.1062 110.357V101.605L22.2642 98.017V110.357ZM54.0772 87.318C54.0772 88.002 53.8055 88.658 53.3218 89.1417C52.8382 89.6253 52.1822 89.897 51.4982 89.897C50.8142 89.897 50.1582 89.6253 49.6746 89.1417C49.1909 88.658 48.9192 88.002 48.9192 87.318V79.48L54.0772 75.892V87.318ZM90.5772 52.343C90.2364 52.966 89.7187 53.4742 89.0894 53.8032C88.4601 54.1322 87.7474 54.2675 87.0413 54.1918C86.3352 54.1162 85.6673 53.8331 85.122 53.3782C84.5766 52.9233 84.1783 52.3171 83.9772 51.636C83.9652 51.593 82.6682 47.271 78.1882 41.122C73.6191 34.9967 68.0634 29.6738 61.7482 25.371C49.3762 16.716 33.8462 10.585 18.6002 10.585C15.0703 10.4914 11.545 10.9022 8.13119 11.805C7.24134 12.047 6.29258 11.9382 5.48057 11.5011C4.66856 11.0641 4.05522 10.3321 3.76704 9.45617C3.47886 8.58021 3.53781 7.62705 3.93173 6.79327C4.32566 5.9595 5.02452 5.30868 5.88419 4.97503C6.73519 4.69403 27.0582 -1.71597 55.6962 13.319L55.7182 13.331C84.3482 28.373 90.6112 48.746 90.8642 49.606C90.9985 50.0587 91.0417 50.5335 90.9912 51.003C90.9407 51.4724 90.7976 51.9272 90.5702 52.341L90.5772 52.343Z" fill="black"/>
<path d="M39.3932 54.621C39.5507 54.7802 39.7381 54.9069 39.9446 54.9936C40.1511 55.0804 40.3727 55.1257 40.5967 55.1268C40.8207 55.1279 41.0427 55.0849 41.2501 55.0001C41.4574 54.9154 41.6461 54.7907 41.8052 54.633C43.565 52.889 44.6651 50.5882 44.9176 48.1234C45.1701 45.6587 44.5594 43.1827 43.1897 41.118C41.8201 39.0534 39.7764 37.528 37.4074 36.8023C35.0384 36.0766 32.491 36.1955 30.1999 37.1387C27.9088 38.0819 26.016 39.791 24.8447 41.9742C23.6733 44.1575 23.2958 46.6796 23.7768 49.1101C24.2578 51.5406 25.5673 53.7289 27.4819 55.3015C29.3965 56.8741 31.7975 57.7335 34.2752 57.733C34.7204 57.7222 35.1437 57.5378 35.4547 57.2191C35.7658 56.9005 35.9399 56.4728 35.9399 56.0275C35.9399 55.5822 35.7658 55.1546 35.4547 54.8359C35.1437 54.5172 34.7204 54.3328 34.2752 54.322C32.5881 54.322 30.9533 53.7365 29.6498 52.6654C28.3463 51.5943 27.4548 50.1041 27.1277 48.449C26.8005 46.7939 27.0578 45.0766 27.8557 43.5901C28.6537 42.1036 29.9427 40.9401 31.5029 40.2981C33.0631 39.6561 34.7977 39.5755 36.4108 40.07C38.0238 40.5644 39.4152 41.6034 40.3476 43.0094C41.28 44.4155 41.6955 46.1015 41.5233 47.7798C41.351 49.4581 40.6017 51.0246 39.4032 52.212C39.2434 52.3693 39.1164 52.5566 39.0293 52.7632C38.9422 52.9698 38.8969 53.1915 38.8958 53.4157C38.8948 53.6399 38.9381 53.8621 39.0233 54.0694C39.1085 54.2768 39.2339 54.4653 39.3922 54.624L39.3932 54.621Z" fill="black"/>
</svg>
