<svg width="1218" height="250" viewBox="0 0 1218 250" fill="none" xmlns="http://www.w3.org/2000/svg">
<g clip-path="url(#clip0)">
<path d="M1187.59 109.336L1187.61 111.192C1194.34 112.728 1201.21 113.563 1208.12 113.685C1211.17 113.691 1214.23 113.465 1217.25 113.01L1217.32 111.173C1207.89 107.276 1197.43 106.63 1187.59 109.336V109.336Z" fill="#A80E0E"/>
<path d="M1134.16 158.4C1130.05 158.587 1125.87 158.512 1121.8 158.437C1120.06 158.4 1118.32 158.381 1116.59 158.362H1116.57C1095.39 157.593 1074.2 156.818 1053.02 156.037C1052.34 156.018 1051.63 155.981 1050.94 155.943C1046.65 155.699 1042.22 155.456 1039.26 157.687C1034.27 161.437 1030.47 160.443 1025.97 157.612C1024.22 154.05 1021.47 154.875 1019.01 155.606C1018.13 155.913 1017.21 156.12 1016.27 156.225C1013.42 155.831 1012.69 156.281 1012.41 157.219C1012.3 157.622 1012.28 158.047 1012.37 158.456C1007.84 155.85 1002.7 156.544 997.752 157.575C996.665 154.988 994.134 154.744 991.659 154.538C990.816 154.484 989.977 154.377 989.147 154.219L988.603 154.107C988.34 154.051 988.078 153.995 987.816 153.92C985.454 153.358 982.998 152.758 980.542 154.351V154.332C978.33 155.494 976.005 155.251 973.549 155.007C971.964 154.785 970.359 154.76 968.768 154.932C968.237 154.715 967.718 154.471 967.212 154.201C965.768 153.451 964.269 152.701 962.225 153.226C960.838 150.845 958.7 151.276 956.62 151.726C956.114 151.838 955.626 151.932 955.139 152.007C954.362 151.687 953.615 151.298 952.908 150.845C951.371 149.908 949.777 148.933 947.377 149.289L940.965 148.164C940.806 147.604 940.496 147.098 940.07 146.702C939.644 146.305 939.117 146.033 938.547 145.914L938.641 145.745L937.235 145.857H937.198L936.992 145.876V145.895C936.221 145.915 935.474 146.16 934.841 146.6C934.208 147.039 933.717 147.655 933.43 148.37L931.724 149.514C930.274 149.461 928.853 149.09 927.562 148.427C925.5 147.546 923.362 146.665 920.682 147.865L911.233 149.084C909.602 148.765 907.971 148.428 906.321 148.109C903.884 146.647 901.165 146.759 898.521 146.872C897.198 146.969 895.869 146.962 894.547 146.853L892.353 146.572C887.835 143.929 882.96 144.472 878.253 144.997C876.847 145.147 875.403 145.316 874.016 145.391C872.937 145.353 871.86 145.259 870.791 145.11C867.829 144.773 864.773 144.416 861.961 146.216L858.905 145.672C858.121 144.867 857.064 144.386 855.943 144.322L856.168 143.272L852.137 142.822L852.1 143.759L852.063 142.822L841.863 144.153C839.051 144.134 836.257 144.134 833.445 144.134C830.595 143.084 827.652 143.328 824.821 143.553C823.153 143.731 821.473 143.788 819.797 143.722V143.722L807.874 142.522C807.55 142.224 807.157 142.011 806.73 141.903C805.924 140.853 805.118 139.822 804.33 138.772L805.511 137.647L808.679 136.222C809.841 136.11 811.079 136.072 812.297 136.035C817.378 135.904 822.608 135.754 824.033 129.661L824.145 129.174L822.851 126.343L822.682 126.249C820.02 124.918 819.514 123.718 819.457 123.118C819.326 121.768 820.919 119.781 822.044 118.412C822.331 118.305 822.57 118.099 822.719 117.831L830.612 117.044L833.93 117.288L843.866 117.438L845.816 118.207L845.966 118.113C846.393 117.858 846.875 117.71 847.372 117.682L848.684 117.401L848.572 118.357L852.621 118.732L853.708 118.413L856.126 117.682L862.781 119.688L866.231 119.182C867.843 119.444 869.474 119.707 871.143 119.969C873.918 119.875 876.692 119.8 879.467 119.725L881.323 119.669L884.885 120.719L888.11 121.45L888.185 121.431C891.953 120.344 895.834 120.719 899.585 121.075C902.562 121.478 905.575 121.535 908.565 121.244C914.808 121.111 921.051 120.973 927.294 120.832L937.361 121.882L937.53 121.901C939.386 122.088 941.223 122.313 943.079 122.52C948.001 123.202 952.959 123.59 957.927 123.682C960.791 123.698 963.65 123.472 966.476 123.007C967.638 123.138 968.819 123.232 970.001 123.326C972.619 123.447 975.219 123.823 977.763 124.451C979.072 124.841 980.428 125.05 981.794 125.07C983.272 125.07 984.73 124.723 986.049 124.055C987.368 123.387 988.512 122.419 989.387 121.227L989.649 120.908L989.611 120.383C989.555 119.464 989.517 118.546 989.48 117.608L989.442 116.708L988.898 116.745C985.894 116.798 982.896 116.47 979.974 115.77C975.643 114.926 971.181 114.064 966.532 115.62C959.258 113.108 951.532 113.258 944.054 113.408C942.667 113.427 941.298 113.464 939.911 113.483H939.686V113.502C938.061 113.589 936.432 113.488 934.83 113.202C931.905 112.79 928.868 112.377 926.056 114.214C919.522 111.069 912.175 110.026 905.024 111.229C898.969 112.035 891.924 112.485 885.602 109.579C885.471 109.245 885.426 108.884 885.471 108.529C885.696 107.179 887.44 105.811 888.527 104.986C889.446 104.705 890.383 104.442 891.32 104.161C892.632 104.18 894.001 104.348 895.332 104.498C896.748 104.7 898.175 104.819 899.606 104.854C901.96 104.949 904.274 104.219 906.149 102.792L907.986 101.348L907.105 101.236C910.855 100.599 914.454 101.03 918.279 101.498C921.618 102.029 925.005 102.192 928.379 101.985C933.103 101.516 937.679 102.041 942.515 102.604C947.802 103.204 953.276 103.841 958.975 103.073C963.01 102.692 967.072 102.704 971.105 103.11C973.955 103.297 976.917 103.485 979.729 103.429H979.973L980.142 103.148C980.419 102.632 980.632 102.084 980.779 101.517C981.21 100.148 981.585 98.986 984.266 99.324C985.803 99.53 985.991 100.074 985.991 100.093C985.941 100.629 985.808 101.154 985.597 101.649L985.166 102.849L985.822 103.243C986.751 103.805 987.784 104.175 988.859 104.33C998.42 103.468 1008.11 104.086 1017.47 104.667C1020.64 104.873 1023.8 105.061 1026.95 105.211C1028.87 105.305 1030.8 105.436 1032.73 105.567C1035.88 105.792 1039.06 106.017 1042.23 106.017C1049.28 106.017 1056.14 104.873 1062.05 100.055C1064.47 100.242 1067.02 100.392 1069.68 100.392C1075.26 100.478 1080.82 99.6554 1086.14 97.955L1086.03 96.099L1061.75 95.874C1057.61 95.705 1053.48 95.574 1049.34 95.443C1040.04 95.143 1030.4 94.843 1020.97 94.187C1017.35 93.943 1013.66 93.793 1010.1 93.643C1000.44 93.249 990.452 92.837 980.909 90.4C977.966 90.344 976.222 89.369 975.735 87.475L975.566 86.819L975.154 86.913C974.31 87.119 973.467 87.325 972.586 87.513C969.801 86.785 966.851 87.0298 964.225 88.207C962.181 85.714 958.638 85.395 956.145 85.939C952.864 86.651 949.771 86.145 946.79 85.658C945.005 85.3305 943.202 85.1178 941.39 85.021V85.921L941.165 85.115C933.741 89.839 928.342 89.539 923.655 84.178L923.449 83.953L917.075 86.278L916.888 86.409C916.663 86.653 916.438 86.878 916.194 87.121C912.951 85.9397 909.701 84.7587 906.445 83.578L906.276 83.522L904.645 84.609L894.624 82.189L892.618 83.333C887.721 83.8517 882.77 83.2425 878.145 81.552C877.883 80.708 877.601 79.883 877.339 79.04C877.47 78.946 877.601 78.871 877.714 78.778C879.12 77.859 880.582 76.922 880.882 74.991L881.051 73.885L880.376 73.829C868.441 72.7538 856.43 72.8415 844.512 74.091L844.306 74.11L844.156 74.335C843.462 75.422 842.075 75.441 840.725 75.46C840.212 75.4569 839.699 75.482 839.188 75.535V75.535L839.001 75.554H838.907C838.626 75.591 838.326 75.629 838.026 75.666V75.61L837.145 75.779L836.826 75.816V75.835L832.102 76.735L830.752 75.423L827.19 74.598L820.272 74.804C817.741 74.092 815.154 74.523 812.642 74.935C809.417 75.479 806.362 75.985 803.418 74.298L803.306 74.261C798.656 73.2046 794.136 71.6451 789.824 69.61C788.793 69.16 787.762 68.71 786.674 68.26C785.519 68.0313 784.345 67.9058 783.168 67.885C780.768 67.754 778.294 67.641 776.738 65.785L776.569 65.579L776.363 65.616C775.894 65.6862 775.415 65.6075 774.994 65.391C771.113 64.435 766.594 64.679 764.252 65.935C758.515 69.047 755.384 66.704 751.766 63.985L751.56 63.835L743.03 62.898C734.463 62.5793 725.908 62.2543 717.365 61.923L712.303 61.642C710.604 62.0904 708.806 61.9921 707.166 61.361L702.235 61.155L698.598 60.818C694.633 61.3966 690.596 61.2697 686.675 60.443L686.544 60.424L686.413 60.499C686.013 60.7309 685.593 60.9254 685.157 61.08L684.032 60.949L684.069 60.818L683.169 60.855L682.813 60.818L682.794 60.855C677.298 60.8882 671.81 60.4364 666.394 59.505C659.72 58.549 652.821 57.574 645.794 58.455C643.965 58.6178 642.125 58.5926 640.301 58.38C639.439 58.305 638.576 58.23 637.733 58.211L633.421 58.042C623.635 57.667 613.53 57.273 603.575 58.211L595.57 56.561L591.389 57.048L591.277 56.898L590.34 57.179L590.471 59.035L590.64 59.016C587.828 60.122 585.316 60.909 581.979 58.829C577.611 56.092 572.179 56.186 566.906 56.279C565.931 56.298 564.956 56.316 563.981 56.316C559.707 56.297 555.657 56.279 555.338 52.416L555.282 51.854L554.626 51.479C554.214 51.235 553.82 51.01 553.407 50.767L553.257 50.673L553.107 50.729C551.47 51.4373 549.648 51.5952 547.914 51.179L541.024 50.862L540.949 50.881C535.137 53.187 529.532 51.818 524.132 50.506C522.276 50.056 520.345 49.587 518.47 49.287C515.564 48.818 512.658 48.293 509.752 47.768C501.878 46.343 493.723 44.881 485.418 44.562H485.306L481.144 43.981C481.107 43.794 481.069 43.606 481.05 43.419L480.956 42.613L480.469 42.669C477.694 42.988 475.669 41.994 473.532 40.925C472.395 40.3129 471.202 39.8107 469.97 39.425L467.533 39.031L463.409 40.025L463.353 40.719C463.345 40.8025 463.327 40.8846 463.297 40.963L460.372 40.419H460.278L429.888 36.463C428.988 36.407 428.069 36.351 427.151 36.313L415.921 35.957L412.94 35.788C411.703 35.563 410.447 35.338 409.209 35.113L407.765 34.869L404.522 34.757C388.849 34.3443 373.176 33.957 357.503 33.595C350.623 33.426 343.517 33.258 339.074 28.177C338.812 27.821 338.549 27.446 338.287 27.09C338.301 26.0195 338.029 24.9645 337.5 24.034C336.563 22.553 334.838 22.028 332.1 22.403L324.095 21.334L323.664 23.434C323.477 24.371 323.27 25.309 323.064 26.246C319.652 26.752 319.521 25.534 319.371 24.128C319.344 23.2295 319.106 22.3498 318.677 21.56L318.302 22.235L318.246 21.316C315.261 21.6635 312.242 21.5688 309.285 21.035C305.91 20.585 302.442 20.154 298.974 20.998L299.405 20.229L295.056 19.273C293.069 19.273 291.063 19.292 289.076 19.329C284.239 19.385 279.234 19.441 274.247 19.16C271.604 19.01 268.323 18.841 266.654 16.704L266.504 16.517H266.317C266.223 16.517 266.13 16.536 266.036 16.536L266.373 13.293L265.904 13.049C260.223 10.181 253.812 9.862 247.588 9.562C245.563 9.468 243.464 9.356 241.439 9.168C241.263 8.95395 241.017 8.80822 240.745 8.756C237.558 5.325 233.34 5.531 229.234 5.756C227.329 5.9128 225.414 5.88131 223.516 5.662C223.516 5.531 223.497 5.4 223.497 5.268H222.935L222.972 4.331L212.605 3.112C210.374 3.299 208.162 3.487 205.95 3.693L202.688 2.718L200.794 3.3L193.989 2.475L187.671 2.419L187.559 2.531C186.584 3.375 185.366 3.262 184.072 3.15C183.659 3.11267 183.247 3.094 182.835 3.094V3.075H180.473L177.173 1.95L177.061 2.869L177.08 1.875C175.393 1.95 173.705 2.006 171.999 2.062L170.499 1.331L166.937 2.306C163.562 2.081 160.094 2.062 156.757 2.062C150.027 2.062 143.09 2.043 136.416 0.206L132.947 0L108.8 3.281V3.337L106.494 3.168V3.15H106.324L106.305 3.187L100.475 4.031L100.306 4.106C97.2968 6.31975 94.1187 8.29414 90.8009 10.011C89.4884 10.5318 88.1338 10.9397 86.7519 11.23C83.6589 11.961 80.4899 12.749 78.9719 15.786H78.9539L78.8979 15.898C78.8609 15.973 78.8229 16.029 78.7859 16.104L78.0359 17.848L74.9429 18.954C70.7619 18.973 69.5249 21.166 68.3429 23.322C67.9958 23.9793 67.5944 24.6065 67.1429 25.197C61.3499 27.39 59.9809 31.797 58.8939 35.771L58.8379 35.808L58.7629 36.295L58.2759 38.057L58.4819 37.945L57.6949 42.576C57.0781 44.0573 56.2782 45.4555 55.3139 46.738C53.8329 48.894 52.2959 51.144 52.2019 53.843C52.1714 55.2531 52.521 56.6455 53.2139 57.874C54.9389 61.005 54.7139 64.174 52.4829 68.091C51.4795 68.1995 50.519 68.5563 49.6881 69.1291C48.8572 69.7019 48.1821 70.4728 47.7239 71.372L39.9239 74.634C37.9929 74.447 36.7369 74.953 35.9869 76.209C34.0189 77.69 33.9249 79.79 33.9999 81.477C27.9239 84.4 28.0909 89.013 28.2409 93.1C28.3968 94.7564 28.2898 96.427 27.9239 98.05C27.4413 98.3295 27.0253 98.7107 26.7048 99.1671C26.3843 99.6235 26.167 100.144 26.0679 100.693C25.9817 101.353 26.0657 102.024 26.3119 102.643C25.7862 104.409 25.9399 106.308 26.7429 107.967L26.6869 108.229C26.0309 111.566 25.3559 114.997 26.4809 118.578L26.4999 118.653C27.2499 120.49 26.9309 122.403 26.5749 124.615C26.1059 127.521 25.5249 131.083 28.0939 134.232C28.0569 134.888 28.0189 135.544 27.9999 136.219L26.7439 138.337L24.3629 139.762C22.4879 139.799 21.3449 140.549 20.8949 142.124L19.8829 144.074C11.7829 149.698 8.03492 154.591 7.71592 159.934C7.43492 164.696 9.79692 169.626 15.3839 175.888C15.4589 176.525 15.5339 177.182 15.5899 177.819L15.6839 178.606C14.3899 181.043 14.4089 183.668 14.4469 186.011C14.4839 188.729 14.5219 191.073 12.7029 193.304C7.79092 194.635 5.10992 197.616 4.26692 202.659L3.57292 203.596C2.20392 203.802 0.497917 204.365 0.254917 206.539C0.00794393 207.281 -0.0562055 208.072 0.0679173 208.845C0.367917 210.682 1.67992 211.882 3.06792 213.138C4.15492 214.132 5.37392 215.238 5.52392 216.344L5.56092 216.569L5.65492 216.756C6.44192 218.275 7.24892 219.812 8.03592 221.33L9.85492 224.855L9.94892 225.005C10.0765 225.164 10.1661 225.35 10.2109 225.549L10.3419 226.093L10.6979 226.112C12.3669 226.224 13.9039 227.687 14.8219 229.993L14.9719 230.349L24.6079 232.467C24.9425 232.929 25.3865 233.301 25.9001 233.55C26.4136 233.799 26.9808 233.916 27.5509 233.892C28.082 233.883 28.6104 233.814 29.1259 233.686L40.1119 235.561L42.0239 235.88C42.8859 236.18 43.7299 236.48 44.5739 236.78H44.5929C45.3549 237.165 46.1951 237.371 47.0489 237.38C47.6707 237.379 48.2871 237.265 48.8679 237.043L54.0609 237.718C55.7091 238.672 57.5957 239.133 59.4979 239.049C60.3789 239.049 61.2789 238.993 62.2159 238.918C63.5691 239.563 65.0478 239.903 66.5469 239.912C67.4139 239.912 68.2772 239.799 69.1149 239.575L69.2269 239.538L84.0749 240.757L83.9999 240.851L85.1999 240.832L85.7249 240.87L85.7619 240.814L89.6429 240.776L89.6799 240.814H89.8299L94.6109 240.758L95.6609 240.739H95.6979C96.8039 240.945 97.8909 241.189 98.9979 241.433C101.711 242.156 104.497 242.571 107.303 242.67C109.289 242.689 111.261 242.333 113.115 241.62H113.152L116.677 241.732L116.714 241.713C117.351 241.807 117.989 241.919 118.626 242.032C120.127 242.341 121.651 242.529 123.182 242.594L135.912 242.856C151.904 243.193 168.42 243.531 184.674 243.531H184.843C193.504 243.531 202.297 243.137 210.79 242.744C214.727 242.575 218.664 242.388 222.62 242.257L227.476 242.276L227.495 242.257C230.433 241.97 233.394 242.001 236.325 242.351C238.181 242.501 240.037 242.67 241.893 242.67C245.175 242.8 248.43 242.028 251.304 240.439L254.36 241.32C255.161 242.004 256.175 242.388 257.228 242.407C258.365 242.372 259.451 241.926 260.284 241.151L261.915 240.27C264.427 240.326 266.958 240.27 269.415 240.233C274.043 240.014 278.682 240.158 283.288 240.664C284.15 240.776 285.05 240.964 285.988 241.17C288.95 241.807 292.288 242.501 295.437 241.001C296.944 241.167 298.458 241.248 299.974 241.245C302.514 241.244 305.048 241.019 307.548 240.57H307.567L321.024 239.556C322.295 240.043 323.598 240.444 324.924 240.756C327.05 241.146 329.077 241.955 330.886 243.137L331.111 242.275V243.212L337.916 243.343L338.085 243.043C338.891 241.562 340.822 241.262 342.697 240.962L343.334 240.85C344.403 240.981 345.452 241.112 346.521 241.262L349.727 242.556H349.821C356.624 241.765 363.496 241.791 370.293 242.631L373.855 242.837H379.255L379.386 242.218C379.424 242.068 379.424 241.937 379.461 241.787L382.161 242.181C383.586 242.387 385.011 242.593 386.435 242.818L386.979 242.781L386.998 242.575L390.691 241.563C391.356 241.786 392.052 241.899 392.753 241.9C393.936 241.89 395.097 241.58 396.128 241L399.446 240.944L402.708 241.169L405.108 241.338V241.357L406.195 241.413H406.307L406.476 241.432C413.169 241.769 419.843 242.088 426.536 242.426H426.592L426.63 242.407C429.93 241.636 433.357 241.585 436.679 242.257L436.754 242.276L440.691 241.339L443.316 241.658L447.065 242.202L452.296 241.996C453.664 241.731 455.078 241.821 456.402 242.258C457.369 242.525 458.362 242.682 459.364 242.727C460.491 242.747 461.591 242.376 462.476 241.677L464.051 241.283L467.576 242.089C469.919 241.92 472.244 241.77 474.588 241.602V241.546L480.531 242.483C480.512 242.595 480.512 242.708 480.494 242.82L480.344 243.926L481.019 243.964C487.787 244.376 494.555 244.77 501.419 245.164C504.437 244.395 507.606 244.677 510.662 244.958C512.256 245.108 513.887 245.258 515.518 245.258C517.11 245.276 518.698 245.087 520.242 244.696L523.485 244.602L523.522 244.621C527.031 245.352 530.605 245.723 534.189 245.727C535.614 245.727 537.039 245.652 538.463 245.54V245.559L538.726 245.521C538.777 245.525 538.828 245.519 538.876 245.502L539.607 245.427L539.588 245.352L542.081 244.94C543.682 245.238 545.308 245.389 546.937 245.39C548.835 245.389 550.727 245.182 552.58 244.771V244.752L559.329 243.815C560.841 244.895 562.645 245.49 564.503 245.521C565.083 245.524 565.662 245.461 566.228 245.334H570.952L577.776 245.54L577.851 246.29L581.376 246.159L584.751 244.359C585.482 244.678 586.232 245.015 586.963 245.334L586.926 245.465L587.713 245.671L588.088 245.84L588.107 245.765C591.964 246.739 595.963 247.018 599.918 246.59L603.611 246.552C605.13 246.702 606.667 246.871 608.185 247.039V247.058L610.022 247.32V247.358H610.322L611.128 247.47V247.376L630.363 247.845C631.239 247.91 632.11 248.035 632.969 248.22C634.017 248.45 635.084 248.582 636.156 248.614C637.323 248.68 638.468 248.282 639.343 247.508C642.868 244.208 646.805 244.921 650.967 245.671C651.492 245.765 652.036 245.858 652.579 245.952C654.229 246.233 655.954 246.346 657.603 246.477L659.759 246.646L659.89 246.702C660.584 246.789 661.272 246.914 661.952 247.077C662.92 247.332 663.914 247.476 664.914 247.508C666.12 247.528 667.294 247.123 668.232 246.364C668.794 246.289 669.338 246.214 669.901 246.12C671.813 246.757 673.388 246.139 674.907 245.558C676.09 244.965 677.414 244.712 678.732 244.827C682.064 247.384 686.175 248.715 690.374 248.595C692.637 248.576 694.892 248.325 697.104 247.845V247.845C698.195 247.819 699.285 247.932 700.347 248.182C701.303 248.386 702.276 248.505 703.253 248.538C704.047 248.546 704.835 248.406 705.578 248.126C706.534 248.295 707.509 248.463 708.484 248.632L708.99 248.726H709.024C714.124 248.464 719.204 248.22 724.303 247.957H724.359C724.805 248.038 725.256 248.082 725.709 248.088C726.967 248.081 728.206 247.78 729.327 247.207C729.73 247.271 730.138 247.309 730.546 247.319C731.14 247.371 731.737 247.241 732.256 246.946C732.775 246.651 733.192 246.206 733.452 245.669L733.64 245.594C734.917 245.53 736.197 245.676 737.427 246.025C738.505 246.314 739.612 246.483 740.727 246.531C742.061 246.548 743.356 246.074 744.364 245.2C744.529 245.218 744.695 245.194 744.849 245.132C745.003 245.07 745.139 244.971 745.245 244.844L746.82 245.032L746.932 244.957C748.582 243.963 750.794 243.907 752.95 243.851C756.137 243.757 759.399 243.645 761.311 240.645C761.696 240.634 762.073 240.538 762.417 240.364L764.667 241.264L764.648 241.433L767.535 241.77L767.554 241.714L772.503 241.901L773.065 241.714C773.421 241.583 773.777 241.47 774.077 241.358C778.076 240.402 782.259 240.538 786.188 241.752L792.843 241.602C800.292 240.889 807.807 241.345 815.115 242.952L815.134 242.652V242.952L823.57 243.908C824.451 243.833 825.332 243.702 826.195 243.571C828.617 243.065 831.115 243.046 833.544 243.515L833.638 243.534L833.732 243.496C836.394 242.596 838.513 242.352 840.256 244.077L840.368 244.189L847.268 244.733L847.38 244.752L847.492 244.677C850.585 242.615 854.241 242.352 858.965 243.815L859.19 243.89L859.378 243.684C859.89 243.139 860.435 242.626 861.009 242.147C862.659 240.703 864.084 239.447 863.877 237.666C863.727 236.297 862.733 235.191 858.534 234.291C858.445 234.006 858.426 233.704 858.478 233.41C858.759 232.229 860.653 231.404 862.19 230.729C863.915 229.979 865.546 229.248 866.315 227.804L875.633 226.042L875.745 226.005C878.107 224.786 880.545 223.512 881.95 221.356L882.194 220.981L881.594 216.519L881.35 216.313C880.987 216.067 880.722 215.703 880.6 215.282C880.596 214.767 880.698 214.256 880.9 213.782C886.112 213.313 888.474 212.151 889.074 209.77C889.373 208.086 889.025 206.352 888.099 204.914L887.912 204.577L887.631 204.614C886.41 204.694 885.185 204.554 884.013 204.202C881.819 203.696 879.551 203.19 877.433 205.102C874.246 204.577 871.528 206.358 869.54 207.708C868.303 208.533 867.253 209.245 866.69 208.964C863.484 207.277 859.978 207.164 856.566 207.052C853.529 206.958 850.661 206.846 848.073 205.702C848.429 204.408 849.76 203.284 851.073 202.196C852.421 201.251 853.531 200.006 854.316 198.559L881.987 197.659L882.043 197.696L882.193 197.659C883.117 197.447 884.058 197.315 885.005 197.265C887.067 197.096 889.017 196.928 889.973 195.465C891.717 192.803 893.704 192.034 896.441 193.028C897.603 193.44 898.016 193.984 898.147 194.359C898.277 195.005 898.258 195.672 898.091 196.309C897.948 197.031 897.891 197.767 897.922 198.502L897.959 199.121L898.315 199.29C899.477 199.834 900.508 198.99 901.427 198.24C902.739 197.171 903.677 196.384 904.952 198.709C905.179 199.155 905.442 199.581 905.739 199.984C906.137 200.615 906.679 201.141 907.322 201.519C907.964 201.898 908.688 202.117 909.432 202.159C911.157 202.159 912.863 200.903 914.025 198.484C915.169 196.084 917.268 195.484 919.705 194.772C920.361 194.585 921.036 194.378 921.73 194.153C925.18 192.934 928.498 193.459 931.704 193.966C933.925 194.402 936.192 194.565 938.453 194.453L938.734 194.434L938.884 194.059C939.24 193.215 939.596 192.765 939.99 192.672C940.477 192.578 941.059 193.009 941.752 193.966C941.94 194.378 942.127 194.81 942.314 195.222L942.839 196.403L943.233 196.141C945.183 194.847 946.57 194.529 947.339 195.222C947.909 195.908 948.226 196.768 948.239 197.659L948.333 198.371L955.926 198.521L956.038 198.446C957.538 197.434 959.038 196.403 960.538 195.39L960.763 195.24L960.857 194.884C960.897 194.711 960.929 194.536 960.951 194.359C962.616 194.163 964.23 193.661 965.713 192.878C967.447 191.891 969.418 191.398 971.413 191.453C972.972 192.305 974.701 192.798 976.475 192.897C977.846 192.886 979.181 192.454 980.299 191.66L986.299 191.529C988.08 191.604 989.861 191.698 991.661 191.81C994.904 191.997 998.241 192.185 1001.54 192.185C1002.55 192.185 1003.55 192.166 1004.56 192.129L1005.55 192.092C1009.15 191.98 1013.6 191.83 1014.18 187.236L1014.57 186.805L1014.59 186.543L1017.42 185.474L1017.53 185.455L1024.28 184.161L1025.73 184.686C1026.02 184.897 1026.37 185.027 1026.74 185.061L1027.17 185.211L1027.09 185.042C1027.19 185.032 1027.28 185.014 1027.37 184.986C1027.97 185.042 1028.5 185.08 1028.95 185.08C1030.62 185.08 1031.52 184.668 1032.1 183.73C1032.64 182.631 1032.87 181.407 1032.77 180.187C1032.7 174.6 1028.65 172.294 1024.36 169.857C1023.87 169.576 1023.38 169.295 1022.88 169.013C1022.87 168.888 1022.88 168.762 1022.89 168.638C1027.7 167.081 1032.9 167.253 1037.59 169.125C1041.53 170.569 1045.09 171.712 1048.97 171.712C1051.11 171.704 1053.24 171.363 1055.27 170.7C1055.72 170.55 1056.21 170.4 1056.7 170.231C1059.44 169.294 1062.83 168.15 1066.24 168.862C1084.14 172.574 1101.13 171.055 1116.73 164.325C1117.61 164.213 1118.49 164.063 1119.37 163.931C1123.91 163.219 1128.18 162.544 1132.7 164.456C1133.31 164.719 1133.97 164.853 1134.63 164.85C1136.44 164.68 1138.17 164.062 1139.68 163.05L1141.68 161.963L1140.59 160.894C1139.77 160.03 1138.77 159.359 1137.66 158.927C1136.54 158.496 1135.35 158.316 1134.16 158.4V158.4Z" fill="#A80E0E"/>
<path d="M964.682 244.355C962.939 244.698 961.17 244.886 959.395 244.917L958.101 244.786C940.872 243.005 923.043 241.168 905.308 240.868C905.43 240.226 905.398 239.564 905.214 238.937C904.52 236.875 902.102 236.987 899.758 237.062C899.271 237.081 898.821 237.099 898.427 237.099C893.215 237.005 887.927 237.193 882.81 237.38C880.785 237.455 878.761 237.53 876.736 237.586L866.689 235.769L866.577 235.844C866.065 236.089 865.621 236.454 865.281 236.907C864.942 237.361 864.717 237.891 864.627 238.45C864.559 239.807 864.949 241.147 865.733 242.256L866.22 241.75L866.108 242.669C868.152 243.381 870.12 242.894 872.032 242.425C874.038 241.938 875.95 241.469 877.9 242.313L877.919 242.351L878.069 242.389L879.756 243.158L879.531 242.708C881.012 243.027 882.512 243.364 883.993 243.72C889.486 245.014 895.148 246.345 901.11 246.345C901.879 246.345 902.647 246.326 903.435 246.27C906.21 246.514 908.966 246.757 911.74 247.02C922.614 248.014 933.731 249.045 944.923 249.045C949.704 249.045 954.484 248.858 959.284 248.408H959.321C961.353 248.371 963.384 248.503 965.395 248.802C967.16 249.044 968.937 249.181 970.719 249.214C972.809 249.254 974.887 248.878 976.831 248.108L978.293 247.508L976.962 246.364C973.025 242.968 968.788 243.68 964.682 244.355Z" fill="#A80E0E"/>
<path d="M1142.95 102.022C1140.87 101.235 1138.9 100.466 1136.3 101.46C1135.84 101.619 1135.45 101.912 1135.16 102.3C1134.88 102.688 1134.72 103.154 1134.7 103.635C1134.68 103.993 1134.76 104.35 1134.94 104.661C1135.12 104.971 1135.39 105.221 1135.71 105.379C1137.31 106.197 1139.08 106.627 1140.87 106.635C1142.98 106.609 1145.05 106.013 1146.85 104.91L1146.7 103.11C1145.41 102.897 1144.15 102.532 1142.95 102.022V102.022Z" fill="#A80E0E"/>
</g>
<defs>
<clipPath id="clip0">
<rect width="1217.32" height="249.211" fill="white"/>
</clipPath>
</defs>
</svg>
