<svg width="100" height="85" viewBox="0 0 100 85" fill="none" xmlns="http://www.w3.org/2000/svg">
<g clip-path="url(#clip0)">
<path d="M0.0591033 48.892C0.682103 41.661 -1.04084 32.801 1.16616 24.078C4.96616 9.058 16.8211 0.777997 32.1261 0.0179975C36.3401 -0.191003 38.6762 1.301 38.8052 5.936C39.0492 14.645 38.9661 15.004 33.0581 15.516C21.9921 16.474 17.5441 20.466 16.2401 30.608C15.6021 35.577 17.7232 38.357 22.7232 38.653C26.3912 38.87 30.0822 38.682 33.7642 38.714C41.7072 38.784 46.4342 43.469 46.4832 51.376C46.5262 58.186 46.5452 64.997 46.4782 71.805C46.4052 79.256 41.5171 83.987 33.8921 84.035C26.8974 84.0783 19.9035 84.0783 12.9102 84.035C5.06418 84 0.260184 79.359 0.0921843 71.414C-0.0588157 64.423 0.0591033 57.429 0.0591033 48.892Z" fill="#A80E0E"/>
<path d="M53.1209 49C53.7589 41.791 52.0499 32.94 54.2039 24.205C58.0039 8.81701 70.3709 0.558012 85.6109 0.0160117C90.0859 -0.141988 92.2029 1.97901 91.7769 6.35701C91.4019 10.217 94.0468 15.443 86.2528 15.671C75.1138 15.996 70.6959 20.371 69.3419 30.487C68.6419 35.735 70.8189 38.437 76.2049 38.674C79.8799 38.835 83.5659 38.674 87.2459 38.719C94.5309 38.819 99.4459 43.557 99.5319 50.696C99.6179 57.8727 99.6179 65.0507 99.5319 72.23C99.5594 73.7957 99.2696 75.3507 98.6801 76.8014C98.0905 78.252 97.2134 79.5683 96.1015 80.6709C94.9895 81.7735 93.6658 82.6395 92.2102 83.2168C90.7546 83.7941 89.1972 84.0707 87.6319 84.03C80.4549 84.116 73.2759 84.071 66.0979 84.043C58.1489 84.013 53.3418 79.48 53.1538 71.549C52.9898 64.555 53.1209 57.558 53.1209 49Z" fill="#A80E0E"/>
</g>
<defs>
<clipPath id="clip0">
<rect width="99.601" height="84.076" fill="white"/>
</clipPath>
</defs>
</svg>
