<?xml version="1.0" encoding="UTF-8" standalone="no"?>
<!DOCTYPE svg PUBLIC "-//W3C//DTD SVG 1.1//EN" "http://www.w3.org/Graphics/SVG/1.1/DTD/svg11.dtd">
<svg width="100%" height="100%" viewBox="0 0 100 85" version="1.1" xmlns="http://www.w3.org/2000/svg" xmlns:xlink="http://www.w3.org/1999/xlink" xml:space="preserve" xmlns:serif="http://www.serif.com/" style="fill-rule:evenodd;clip-rule:evenodd;stroke-linejoin:round;stroke-miterlimit:2;">
    <g>
        <path d="M0.059,48.892C0.682,41.661 -1.041,32.801 1.166,24.078C4.966,9.058 16.821,0.778 32.126,0.018C36.34,-0.191 38.676,1.301 38.805,5.936C39.049,14.645 38.966,15.004 33.058,15.516C21.992,16.474 17.544,20.466 16.24,30.608C15.602,35.577 17.723,38.357 22.723,38.653C26.391,38.87 30.082,38.682 33.764,38.714C41.707,38.784 46.434,43.469 46.483,51.376C46.526,58.186 46.545,64.997 46.478,71.805C46.405,79.256 41.517,83.987 33.892,84.035C26.897,84.078 19.904,84.078 12.91,84.035C5.064,84 0.26,79.359 0.092,71.414C-0.059,64.423 0.059,57.429 0.059,48.892Z" style="fill:rgb(248,26,26);fill-rule:nonzero;"/>
        <path d="M53.121,49C53.759,41.791 52.05,32.94 54.204,24.205C58.004,8.817 70.371,0.558 85.611,0.016C90.086,-0.142 92.203,1.979 91.777,6.357C91.402,10.217 94.047,15.443 86.253,15.671C75.114,15.996 70.696,20.371 69.342,30.487C68.642,35.735 70.819,38.437 76.205,38.674C79.88,38.835 83.566,38.674 87.246,38.719C94.531,38.819 99.446,43.557 99.532,50.696C99.618,57.873 99.618,65.051 99.532,72.23C99.559,73.796 99.27,75.351 98.68,76.801C98.091,78.252 97.213,79.568 96.102,80.671C94.99,81.774 93.666,82.64 92.21,83.217C90.755,83.794 89.197,84.071 87.632,84.03C80.455,84.116 73.276,84.071 66.098,84.043C58.149,84.013 53.342,79.48 53.154,71.549C52.99,64.555 53.121,57.558 53.121,49Z" style="fill:rgb(248,26,26);fill-rule:nonzero;"/>
    </g>
</svg>
