<svg width="63" height="55" viewBox="0 0 63 55" fill="none" xmlns="http://www.w3.org/2000/svg">
<g clip-path="url(#clip0)">
<path d="M33.5599 33.5781L61.7229 5.40613C62.017 5.11269 62.2503 4.76421 62.4097 4.38058C62.569 3.99696 62.6513 3.58571 62.6517 3.17031C62.6521 2.7549 62.5707 2.34349 62.4121 1.95955C62.2535 1.5756 62.0209 1.22665 61.7274 0.932625C61.434 0.638595 61.0855 0.405242 60.7019 0.245888C60.3183 0.0865339 59.907 0.00430123 59.4916 0.00388336C59.0762 0.0034655 58.6648 0.0848722 58.2809 0.243454C57.8969 0.402036 57.548 0.634685 57.2539 0.928123L31.3249 26.8651L5.39993 0.931126C4.80611 0.337704 4.00088 0.00447944 3.16137 0.00476074C2.32187 0.00504205 1.51686 0.338805 0.923434 0.932625C0.330012 1.52644 -0.00321081 2.33168 -0.00292951 3.17119C-0.0026482 4.01069 0.331114 4.8157 0.924934 5.40913L29.0879 33.5811C29.6851 34.1665 30.4883 34.4942 31.3245 34.4937C32.1608 34.4931 32.9635 34.1643 33.5599 33.5781V33.5781Z" fill="#FFAA00"/>
<path d="M33.0289 53.3421L54.5069 31.8591C54.96 31.4072 55.2151 30.7938 55.2159 30.1538C55.2168 29.5138 54.9633 28.8997 54.5114 28.4466C54.0595 27.9935 53.4461 27.7384 52.8061 27.7376C52.1661 27.7368 51.552 27.9902 51.0989 28.4421L31.3249 48.2241L11.5519 28.4421C11.0985 27.9898 10.484 27.7361 9.84358 27.7368C9.20315 27.7376 8.58924 27.9927 8.13691 28.4461C7.68459 28.8995 7.43089 29.514 7.43164 30.1544C7.43239 30.7949 7.68752 31.4088 8.14091 31.8611L29.6189 53.3421C30.074 53.7888 30.6862 54.0391 31.3239 54.0391C31.9616 54.0391 32.5738 53.7888 33.0289 53.3421V53.3421Z" fill="#FFAA00"/>
</g>
<defs>
<clipPath id="clip0">
<rect width="62.647" height="54.042" fill="white"/>
</clipPath>
</defs>
</svg>
