<svg width="211" height="54" viewBox="0 0 211 54" fill="none" xmlns="http://www.w3.org/2000/svg">
<path d="M52 0H5C2.23858 0 0 2.23858 0 5V49C0 51.7614 2.23858 54 5 54H52C54.7614 54 57 51.7614 57 49V5C57 2.23858 54.7614 0 52 0Z" fill="white"/>
<path d="M52 0.5H5C2.51472 0.5 0.5 2.51472 0.5 5V49C0.5 51.4853 2.51472 53.5 5 53.5H52C54.4853 53.5 56.5 51.4853 56.5 49V5C56.5 2.51472 54.4853 0.5 52 0.5Z" stroke="#707070"/>
<path d="M129 0H82C79.2386 0 77 2.23858 77 5V49C77 51.7614 79.2386 54 82 54H129C131.761 54 134 51.7614 134 49V5C134 2.23858 131.761 0 129 0Z" fill="white"/>
<path d="M129 0.5H82C79.5147 0.5 77.5 2.51472 77.5 5V49C77.5 51.4853 79.5147 53.5 82 53.5H129C131.485 53.5 133.5 51.4853 133.5 49V5C133.5 2.51472 131.485 0.5 129 0.5Z" stroke="#707070"/>
<path d="M206 0H159C156.239 0 154 2.23858 154 5V49C154 51.7614 156.239 54 159 54H206C208.761 54 211 51.7614 211 49V5C211 2.23858 208.761 0 206 0Z" fill="white"/>
<path d="M206 0.5H159C156.515 0.5 154.5 2.51472 154.5 5V49C154.5 51.4853 156.515 53.5 159 53.5H206C208.485 53.5 210.5 51.4853 210.5 49V5C210.5 2.51472 208.485 0.5 206 0.5Z" stroke="#707070"/>
<path d="M117.571 18.2928C117.209 18.3954 116.835 18.4443 116.459 18.4378L116.479 18.3198C117.376 17.6161 118.134 16.751 118.713 15.7688C118.796 15.4788 118.698 15.3808 118.696 15.3688L116.83 16.1618L115.271 16.8617C114.681 16.2594 113.975 15.7832 113.195 15.4619C112.416 15.1406 111.579 14.9811 110.736 14.9928C107.49 14.9928 104.86 17.2928 104.86 20.1298C104.856 20.7831 104.937 21.4343 105.101 22.0668C105.101 22.2168 105.101 21.9168 105.101 22.0668C102.595 21.8586 100.159 21.1356 97.946 19.9428C93.239 17.5588 92.946 15.9087 92.946 15.9087C92.207 16.6947 91.826 19.2918 92.575 21.3298C93.0714 22.3165 93.8025 23.1664 94.704 23.8048C94.1908 23.801 93.6814 23.7173 93.194 23.5568C92.8107 23.4488 92.4497 23.2734 92.128 23.0387C91.669 24.1587 92.592 26.1567 94.183 27.5937C94.9715 28.1974 95.86 28.6578 96.808 28.9538L94.159 29.0278C94.009 31.6038 99.559 33.1327 99.559 33.1327C97.9891 34.3995 96.0419 35.1072 94.025 35.1438C93.0011 35.1436 91.9827 34.994 91.002 34.6998C93.724 37.0656 97.2348 38.3239 100.84 38.2258C110.74 37.7048 116.34 29.1898 116.601 20.8258L116.616 20.8428C117.155 20.5022 117.644 20.0902 118.072 19.6178C118.7 18.974 119.241 18.2501 119.68 17.4648C119.68 17.4648 118.195 18.1208 117.571 18.2928Z" fill="#A80E0E"/>
<path d="M30.789 38.1061V27.5661H34.326L34.857 23.4591H30.789V20.8362C30.789 19.6472 31.119 18.8362 32.825 18.8362H35V15.1611C33.947 15.0504 32.8888 14.9967 31.83 15.0002C28.694 15.0002 26.547 16.9141 26.547 20.4291V23.4581H23V27.5652H26.547V38.1051L30.789 38.1061Z" fill="#A80E0E"/>
<path d="M186.845 38.25H177.512C175.52 38.2474 173.611 37.4549 172.203 36.0465C170.795 34.6381 170.002 32.7287 170 30.737V22.513C170.002 20.5213 170.794 18.6119 172.203 17.2036C173.611 15.7952 175.52 15.0031 177.512 15.001H186.845C188.837 15.0028 190.747 15.7948 192.155 17.2032C193.564 18.6115 194.356 20.5212 194.358 22.513V30.737C194.356 32.7288 193.563 34.6384 192.155 36.0469C190.746 37.4553 188.837 38.2476 186.845 38.25V38.25ZM177.511 16.67C175.962 16.6718 174.477 17.2879 173.382 18.3831C172.287 19.4783 171.671 20.9631 171.669 22.512V30.736C171.67 32.2852 172.286 33.7705 173.381 34.8661C174.477 35.9618 175.962 36.5782 177.511 36.58H186.845C188.394 36.5784 189.88 35.9622 190.976 34.8666C192.071 33.771 192.687 32.2855 192.689 30.736V22.512C192.687 20.9628 192.071 19.4776 190.975 18.3824C189.88 17.2871 188.394 16.6713 186.845 16.67H177.511Z" fill="#A80E0E"/>
<path d="M182.179 33.3106C180.857 33.3106 179.564 32.9184 178.464 32.1836C177.364 31.4488 176.507 30.4045 176.001 29.1826C175.495 27.9607 175.363 26.6161 175.621 25.319C175.879 24.0218 176.516 22.8303 177.451 21.8951C178.386 20.9599 179.577 20.323 180.875 20.065C182.172 19.807 183.516 19.9394 184.738 20.4456C185.96 20.9517 187.004 21.8088 187.739 22.9085C188.474 24.0081 188.866 25.301 188.866 26.6235C188.864 28.3965 188.159 30.0963 186.906 31.3499C185.652 32.6036 183.952 33.3087 182.179 33.3106V33.3106ZM182.179 21.6046C181.187 21.6044 180.216 21.8984 179.391 22.4497C178.566 23.0009 177.923 23.7845 177.543 24.7013C177.163 25.6181 177.063 26.6271 177.256 27.6005C177.45 28.574 177.928 29.4682 178.629 30.1701C179.331 30.872 180.225 31.3501 181.198 31.5439C182.172 31.7377 183.181 31.6385 184.098 31.2589C185.015 30.8793 185.798 30.2363 186.35 29.4112C186.901 28.5861 187.196 27.616 187.196 26.6235C187.195 25.2933 186.666 24.0181 185.725 23.0774C184.785 22.1367 183.509 21.6074 182.179 21.6055V21.6046Z" fill="#A80E0E"/>
<path d="M190.153 20.1439C190.153 20.4182 190.071 20.6861 189.918 20.9139C189.766 21.1418 189.549 21.3192 189.295 21.4239C189.042 21.5286 188.763 21.5558 188.494 21.502C188.225 21.4483 187.978 21.316 187.784 21.1219C187.591 20.9279 187.459 20.6807 187.405 20.4117C187.352 20.1427 187.38 19.864 187.485 19.6107C187.59 19.3573 187.767 19.1408 187.996 18.9885C188.224 18.8362 188.492 18.7549 188.766 18.7549C188.948 18.7548 189.129 18.7906 189.297 18.8604C189.466 18.9302 189.619 19.0325 189.748 19.1616C189.877 19.2906 189.979 19.4438 190.048 19.6124C190.118 19.7809 190.153 19.9616 190.153 20.1439V20.1439Z" fill="#A80E0E"/>
</svg>
