<svg width="109" height="111" viewBox="0 0 109 111" fill="none" xmlns="http://www.w3.org/2000/svg">
<path d="M97.8122 91.6391L97.6632 89.9491C97.1421 84.0735 94.4467 78.604 90.1047 74.6114C85.7627 70.6188 80.0867 68.3906 74.1882 68.3631C74.0502 68.3631 73.9142 68.3771 73.7752 68.3791C68.4444 63.5944 61.5024 61.0008 54.3402 61.1181C47.2631 61.1171 40.4315 63.7124 35.1402 68.4121C34.8952 68.4031 34.6552 68.3631 34.4152 68.3631C28.5052 68.3971 22.8213 70.6385 18.479 74.6475C14.1366 78.6565 11.4492 84.1436 10.9442 90.0321L10.8682 92.0701L12.6792 92.1371V93.7181H96.0012V91.7981L97.8122 91.6391Z" fill="#FCAC2B"/>
<path d="M97.6572 89.9491C97.1366 84.0745 94.4424 78.6058 90.1017 74.6132C85.7611 70.6207 80.0867 68.3919 74.1892 68.3631C74.0512 68.3631 73.9152 68.3771 73.7762 68.3791C68.4451 63.5942 61.5027 61.0006 54.3402 61.1181C47.2631 61.1172 40.4316 63.7125 35.1402 68.4121C34.8952 68.4031 34.6552 68.3631 34.4152 68.3631C28.5052 68.3971 22.8213 70.6385 18.479 74.6475C14.1366 78.6565 11.4492 84.1437 10.9442 90.0321L10.8682 92.0701L14.4912 92.2041L14.5602 90.2501C15.0007 85.2797 17.2804 80.6527 20.9529 77.2746C24.6254 73.8966 29.4264 72.0107 34.4162 71.9861C36.602 71.999 38.7707 72.3737 40.8342 73.0951C39.7478 73.9644 38.7469 74.9355 37.8452 75.9951C35.7629 75.5372 33.6107 75.4939 31.5117 75.8678C29.4127 76.2416 27.4079 77.0253 25.6117 78.1739C23.8155 79.3226 22.2632 80.8138 21.0433 82.5624C19.8235 84.311 18.96 86.2828 18.5022 88.3651C18.3834 88.9034 18.2927 89.4474 18.2302 89.9951L18.1182 91.8061L21.7412 92.0311L21.8412 90.3311C22.2237 87.264 23.7135 84.4422 26.0304 82.3964C28.3473 80.3505 31.3318 79.2214 34.4227 79.2214C37.5136 79.2214 40.498 80.3505 42.8149 82.3964C45.1318 84.4422 46.6216 87.264 47.0042 90.3311L47.1112 90.3171L47.2182 92.0291L50.8412 91.8041L50.7182 90.1041C50.7071 89.6256 50.791 89.1497 50.965 88.7038C51.1389 88.258 51.3995 87.851 51.7316 87.5064C52.0637 87.1618 52.4608 86.8864 52.9 86.6961C53.3391 86.5059 53.8116 86.4045 54.2902 86.3979C54.7688 86.3913 55.2439 86.4796 55.6881 86.6577C56.1324 86.8357 56.5369 87.1 56.8784 87.4353C57.2199 87.7706 57.4916 88.1703 57.6778 88.6112C57.864 89.0521 57.961 89.5255 57.9632 90.0041L57.7532 91.6921L61.3472 92.1411L61.5732 90.3301C61.5829 90.2555 61.5872 90.1803 61.5862 90.1051C61.5859 88.1837 60.8225 86.341 59.4639 84.9824C58.1052 83.6238 56.2626 82.8604 54.3412 82.8601C53.379 82.8595 52.4266 83.0526 51.5406 83.4278C50.6547 83.803 49.8533 84.3527 49.1842 85.0441C48.6623 83.9187 48.0137 82.8565 47.2512 81.8781C49.2167 80.1683 51.736 79.2298 54.3412 79.2371C57.2226 79.24 59.9853 80.386 62.0228 82.4235C64.0603 84.461 65.2063 87.2236 65.2092 90.1051H65.3632L65.3232 91.5271L68.9462 91.6271L68.9802 90.3741C69.3148 89.2377 70.0117 88.2419 70.9646 87.5381C71.9175 86.8344 73.0742 86.4613 74.2588 86.4757C75.4433 86.4901 76.5906 86.8911 77.5262 87.6178C78.4617 88.3445 79.1342 89.3569 79.4412 90.5011L79.7412 91.8601L83.2772 91.0701L82.9602 89.6551C82.5715 88.1308 81.7912 86.7346 80.6965 85.6049C79.6019 84.4751 78.231 83.6511 76.7198 83.2146C75.2085 82.778 73.6094 82.744 72.0809 83.1159C70.5525 83.4879 69.1478 84.2529 68.0062 85.3351C67.5974 84.1529 67.0367 83.0288 66.3382 81.9911C68.094 80.5945 70.1898 79.6899 72.4105 79.3703C74.6312 79.0506 76.897 79.3274 78.9755 80.1721C81.054 81.0168 82.8705 82.3991 84.2386 84.1773C85.6067 85.9555 86.4774 88.0655 86.7612 90.2911L86.9422 92.1021L90.5652 91.7401L90.3732 89.8891C89.9884 86.8617 88.7624 84.003 86.8344 81.6375C84.9064 79.272 82.3537 77.4945 79.4662 76.5071C78.8405 75.0029 78.0561 73.5698 77.1262 72.2321C81.5581 72.9111 85.6343 75.0566 88.7029 78.3256C91.7716 81.5946 93.6554 85.7981 94.0532 90.2641L94.2032 91.9641L97.8092 91.6421L97.6572 89.9491ZM54.3402 75.6091C50.7831 75.6018 47.3499 76.9153 44.7062 79.2951C43.7448 78.5041 42.6963 77.8254 41.5812 77.2721C43.2517 75.5984 45.2355 74.2701 47.4194 73.363C49.6033 72.456 51.9444 71.988 54.3092 71.9858C56.6739 71.9836 59.016 72.4472 61.2015 73.3501C63.3871 74.253 65.3735 75.5775 67.0472 77.2481L67.0712 77.2721C65.9552 77.8155 64.9045 78.4838 63.9392 79.2641C61.297 76.9081 57.8801 75.6071 54.3402 75.6091V75.6091ZM74.1892 75.6091C73.0529 75.6107 71.92 75.732 70.8092 75.9711C67.6616 72.2715 63.359 69.7408 58.5961 68.7877C53.8331 67.8346 48.888 68.5146 44.5592 70.7181C43.1586 70.0365 41.6937 69.4958 40.1862 69.1041C44.3619 66.2673 49.292 64.7473 54.3402 64.7401C63.3262 64.7401 71.1332 68.9481 75.0002 75.6461C74.7302 75.6321 74.4662 75.6091 74.1892 75.6091V75.6091Z" fill="#FA962A"/>
<path d="M34.4153 82.854C32.3973 82.8552 30.4374 83.5297 28.8461 84.7707C27.2548 86.0117 26.1231 87.7481 25.6302 89.705L25.1772 91.743L28.7132 92.533L29.1532 90.551C29.4537 89.3767 30.1382 88.3366 31.0978 87.5961C32.0574 86.8556 33.237 86.4572 34.4491 86.4642C35.6611 86.4712 36.8361 86.8832 37.787 87.6348C38.738 88.3864 39.4104 89.4343 39.6973 90.612L40.2663 92.537L43.7383 91.51L43.1953 89.648C42.6931 87.7019 41.5578 85.9781 39.9682 84.7481C38.3787 83.518 36.4251 82.8517 34.4153 82.854V82.854Z" fill="#FA962A"/>
<path d="M1.81104 90.1001H106.869C106.869 92.4788 106.4 94.8343 105.49 97.0319C104.58 99.2295 103.246 101.226 101.564 102.908C99.8815 104.59 97.8846 105.924 95.6869 106.835C93.4892 107.745 91.1338 108.213 88.755 108.213H19.924C15.1202 108.213 10.5131 106.305 7.11621 102.908C3.71936 99.5111 1.81104 94.904 1.81104 90.1001V90.1001Z" fill="#E5E5E5"/>
<path d="M78.0017 90.1001C68.2207 99.2001 55.3597 104.788 43.2617 108.213H88.7557C93.5596 108.213 98.1667 106.305 101.564 102.908C104.96 99.5111 106.869 94.904 106.869 90.1001H78.0017Z" fill="#DEDEDE"/>
<path d="M25.222 66.4958C24.2063 64.3681 23.7212 62.026 23.8083 59.6698C23.8954 57.3137 24.552 55.0138 25.722 52.9668C26.6649 51.3083 27.1607 49.4332 27.1607 47.5253C27.1607 45.6175 26.6649 43.7424 25.722 42.0838C24.4683 39.8775 23.8092 37.3834 23.8092 34.8458C23.8092 32.3082 24.4683 29.8141 25.722 27.6078C26.3754 26.0147 26.8741 24.3624 27.211 22.6738L30.747 23.4738C30.3357 25.5179 29.7064 27.512 28.87 29.4218C27.9279 31.0803 27.4326 32.955 27.4326 34.8623C27.4326 36.7697 27.9279 38.6444 28.87 40.3028C30.1253 42.5086 30.7854 45.0029 30.7854 47.5408C30.7854 50.0788 30.1253 52.5731 28.87 54.7788C27.9916 56.3171 27.4987 58.0451 27.4334 59.8152C27.368 61.5854 27.7323 63.3451 28.495 64.9438L25.222 66.4958Z" fill="#FA962A"/>
<path d="M98.841 7.01425L45.283 8.59025L41.97 5.27925C40.611 3.92031 38.7679 3.15668 36.846 3.15625H20.046C19.102 4.82239 18.5449 6.67958 18.416 8.59025H32.599V12.2133H18.685C18.9527 13.4836 19.4134 14.7054 20.051 15.8363H32.604V19.4593H21.424C21.8098 21.25 21.8098 23.1025 21.424 24.8932H36.851C38.7729 24.8928 40.616 24.1292 41.975 22.7703L45.283 19.4593L98.612 22.5963C100.659 22.7008 102.664 21.9958 104.195 20.6336C105.726 19.2713 106.659 17.3613 106.793 15.3165C106.927 13.2716 106.251 11.2561 104.911 9.70577C103.571 8.15539 101.675 7.19466 99.632 7.03125C99.3684 7.01317 99.104 7.0095 98.84 7.02025V7.01525L98.841 7.01425Z" fill="#E5E5E5"/>
<path d="M10.8681 8.59033H7.24512V12.2133H10.8681V8.59033Z" fill="#E5E5E5"/>
<path d="M12.6791 15.8354H7.24512V19.4584H12.6791V15.8354Z" fill="#E5E5E5"/>
<path d="M14.4901 23.0801H7.24512V26.7031H14.4901V23.0801Z" fill="#E5E5E5"/>
<path d="M12.5521 1.34424H7.24512V4.96724H12.5521V1.34424Z" fill="#E5E5E5"/>
<path d="M12.3328 71.1279C12.1698 70.6769 12.0328 70.2589 11.9038 69.8509C11.654 68.9992 11.3308 68.1707 10.9378 67.3749C9.69609 65.1711 9.04854 62.6823 9.05871 60.1527C9.06888 57.6232 9.73641 55.1397 10.9958 52.9459C11.948 51.295 12.4475 49.4219 12.4438 47.5161C12.4402 45.6102 11.9334 43.7391 10.9748 42.0919C9.72033 39.8859 9.06073 37.3917 9.06073 34.8539C9.06073 32.3161 9.72033 29.8219 10.9748 27.6159C11.9331 25.9678 12.4391 24.0957 12.4415 22.1893C12.444 20.2828 11.9428 18.4095 10.9888 16.7589C9.72672 14.5498 9.06211 12.0498 9.06053 9.50558C9.05895 6.96133 9.72046 4.46059 10.9798 2.24989L11.6648 0.962892C11.7763 0.752748 11.9281 0.566623 12.1115 0.415146C12.2949 0.263669 12.5063 0.149809 12.7338 0.0800689C12.9612 0.0103289 13.2001 -0.0139246 13.4369 0.00869389C13.6737 0.0313123 13.9037 0.10036 14.1138 0.211892V0.211892C14.5379 0.437371 14.855 0.821966 14.9957 1.28117C15.1363 1.74038 15.0889 2.23663 14.8638 2.66089L14.1518 3.99989C13.2 5.66205 12.6973 7.54334 12.6931 9.45871C12.6889 11.3741 13.1833 13.2576 14.1278 14.9239C15.3815 17.1302 16.0406 19.6243 16.0406 22.1619C16.0406 24.6995 15.3815 27.1936 14.1278 29.3999C13.1728 31.0544 12.6701 32.9311 12.6701 34.8414C12.6701 36.7517 13.1728 38.6284 14.1278 40.2829C15.3815 42.4892 16.0406 44.9833 16.0406 47.5209C16.0406 50.0585 15.3815 52.5526 14.1278 54.7589C13.1849 56.4174 12.6892 58.2925 12.6892 60.2004C12.6892 62.1082 13.1849 63.9833 14.1278 65.6419C14.6258 66.6306 15.0367 67.6608 15.3558 68.7209C15.4748 69.0829 15.5968 69.4729 15.7448 69.8839L12.3328 71.1279Z" fill="#FCAC2B"/>
<path d="M19.1316 68.7981C18.9444 68.3355 18.7266 67.8858 18.4796 67.4521C17.2251 65.2458 16.5654 62.7512 16.5654 60.2131C16.5654 57.675 17.2251 55.1805 18.4796 52.9741C19.4346 51.3196 19.9374 49.4429 19.9374 47.5326C19.9374 45.6223 19.4346 43.7456 18.4796 42.0911C17.2251 39.8851 16.5655 37.3909 16.5655 34.8531C16.5655 32.3153 17.2251 29.8211 18.4796 27.6151C19.4226 25.9566 19.9183 24.0815 19.9183 22.1736C19.9183 20.2658 19.4226 18.3907 18.4796 16.7321C17.2732 14.5116 16.6318 12.0283 16.6119 9.50135C16.592 6.97437 17.1943 4.48132 18.3656 2.24211L18.7606 1.49811C18.8721 1.28796 19.0239 1.10183 19.2073 0.950384C19.3907 0.798934 19.6022 0.685128 19.8297 0.615472C20.0571 0.545816 20.2961 0.521677 20.5329 0.544436C20.7696 0.567195 20.9996 0.636405 21.2096 0.748109V0.748109C21.4198 0.859559 21.6059 1.01134 21.7574 1.19477C21.9088 1.37821 22.0226 1.5897 22.0923 1.81715C22.1619 2.0446 22.1861 2.28354 22.1633 2.52033C22.1406 2.75711 22.0713 2.98709 21.9596 3.19711L21.5246 4.01211C20.6494 5.71449 20.2035 7.60504 20.226 9.51912C20.2485 11.4332 20.7386 13.3128 21.6536 14.9941C22.8974 17.1955 23.5486 19.682 23.5436 22.2104C23.5385 24.7389 22.8773 27.2227 21.6246 29.4191C20.6697 31.0736 20.1669 32.9503 20.1669 34.8606C20.1669 36.7709 20.6697 38.6476 21.6246 40.3021C22.88 42.5078 23.5401 45.0022 23.5401 47.5401C23.5401 50.0781 22.88 52.5724 21.6246 54.7781C20.6825 56.4369 20.1872 58.3119 20.1872 60.2196C20.1872 62.1273 20.6825 64.0023 21.6246 65.6611C21.9559 66.2365 22.246 66.8347 22.4926 67.4511L19.1316 68.7981Z" fill="#FCAC2B"/>
<path d="M98.6129 22.5951C100.586 22.7213 102.533 22.0927 104.059 20.8367C105.585 19.5807 106.577 17.7913 106.833 15.8312C107.09 13.8711 106.591 11.8869 105.438 10.2809C104.286 8.67484 102.566 7.56708 100.627 7.18213C89.2091 12.7705 77.2896 17.2694 65.0269 20.6191L98.6129 22.5951Z" fill="#DEDEDE"/>
<path d="M106.873 88.2882H97.441C96.5518 82.7524 93.7274 77.7117 89.4703 74.0631C85.2132 70.4145 79.7996 68.3947 74.193 68.3631C74.055 68.3631 73.919 68.3772 73.78 68.3792C68.4479 63.5933 61.5039 60.9996 54.34 61.1181C47.2629 61.1173 40.4314 63.7126 35.14 68.4122C34.895 68.4032 34.655 68.3631 34.415 68.3631C28.8093 68.3957 23.397 70.416 19.141 74.0646C14.8851 77.7131 12.0616 82.7533 11.173 88.2882H1.811C1.33077 88.2884 0.870293 88.4793 0.530722 88.8189C0.191151 89.1584 0.000264952 89.6189 0 90.0992C0.00608729 95.3817 2.10728 100.446 5.84262 104.182C9.57796 107.917 14.6424 110.018 19.925 110.024H88.756C94.0386 110.018 99.103 107.917 102.838 104.182C106.574 100.446 108.675 95.3817 108.681 90.0992C108.681 89.6194 108.491 89.1592 108.152 88.8197C107.813 88.4801 107.353 88.289 106.873 88.2882ZM93.784 88.2882H90.084C89.4612 85.5825 88.1588 83.0802 86.2999 81.0179C84.4409 78.9556 82.0868 77.4014 79.46 76.5022C78.8344 74.9979 78.0499 73.5648 77.12 72.2272C81.2153 72.8569 85.0152 74.7388 87.9982 77.6145C90.9811 80.4902 93.0008 84.2187 93.78 88.2882H93.784ZM42.715 88.2882C42.0087 86.6758 40.848 85.3043 39.3746 84.3411C37.9013 83.378 36.1792 82.8651 34.419 82.8651C32.6588 82.8651 30.9367 83.378 29.4634 84.3411C27.99 85.3043 26.8293 86.6758 26.123 88.2882H22.283C23.0646 85.6769 24.6676 83.3874 26.8539 81.7597C29.0403 80.1319 31.6933 79.2528 34.419 79.2528C37.1447 79.2528 39.7977 80.1319 41.9841 81.7597C44.1704 83.3874 45.7734 85.6769 46.555 88.2882H42.715ZM38.464 88.2882H30.373C30.8816 87.7185 31.5048 87.2627 32.2018 86.9506C32.8988 86.6386 33.6538 86.4772 34.4175 86.4772C35.1812 86.4772 35.9362 86.6386 36.6332 86.9506C37.3302 87.2627 37.9534 87.7185 38.462 88.2882H38.464ZM54.344 71.9881C59.1182 72.0042 63.6931 73.9043 67.074 77.2752C65.958 77.8186 64.9073 78.4869 63.942 79.2672C61.2953 76.9034 57.8699 75.5986 54.3213 75.6027C50.7727 75.6067 47.3503 76.9193 44.709 79.2892C43.7476 78.4983 42.6992 77.8195 41.584 77.2662C43.2591 75.5913 45.2479 74.2629 47.4366 73.3569C49.6254 72.4509 51.9712 71.9851 54.34 71.9862L54.344 71.9881ZM61.332 88.2882C61.0159 87.0468 60.3749 85.912 59.475 85.0005C58.575 84.0889 57.4485 83.4335 56.2113 83.1015C54.9741 82.7696 53.6708 82.7731 52.4354 83.1117C51.2 83.4503 50.077 84.1118 49.182 85.0282C48.6622 83.9064 48.0156 82.8478 47.255 81.8732C49.2203 80.1635 51.7392 79.2252 54.344 79.2322C56.9099 79.2368 59.3917 80.1483 61.3506 81.8056C63.3095 83.463 64.6195 85.7594 65.049 88.2892H61.328L61.332 88.2882ZM57.463 88.2882H51.221C51.5351 87.7382 51.9891 87.2811 52.5368 86.9632C53.0846 86.6453 53.7067 86.4778 54.34 86.4778C54.9733 86.4778 55.5954 86.6453 56.1432 86.9632C56.6909 87.2811 57.1449 87.7382 57.459 88.2882H57.463ZM82.49 88.2882C81.9138 86.9568 81.0249 85.7841 79.8987 84.8697C78.7724 83.9554 77.4421 83.3263 76.0208 83.0359C74.5995 82.7456 73.129 82.8025 71.7344 83.2019C70.3398 83.6013 69.0622 84.3314 68.01 85.3302C67.6013 84.1479 67.0406 83.0238 66.342 81.9862C67.9613 80.6948 69.8731 79.8212 71.9092 79.4422C73.9454 79.0632 76.0435 79.1904 78.0189 79.8127C79.9943 80.435 81.7866 81.5332 83.2379 83.0107C84.6892 84.4883 85.7552 86.2999 86.342 88.2861H82.487L82.49 88.2882ZM78.239 88.2882H70.146C70.6546 87.7185 71.2778 87.2627 71.9748 86.9506C72.6718 86.6386 73.4268 86.4772 74.1905 86.4772C74.9542 86.4772 75.7092 86.6386 76.4062 86.9506C77.1032 87.2627 77.7264 87.7185 78.235 88.2882H78.239ZM54.339 64.7402C63.325 64.7402 71.132 68.9482 74.999 75.6462C74.729 75.6322 74.456 75.6082 74.188 75.6082C73.0518 75.6098 71.9188 75.7311 70.808 75.9702C67.6604 72.271 63.3579 69.7406 58.5952 68.7877C53.8325 67.8347 48.8876 68.5148 44.559 70.7182C43.1584 70.0366 41.6936 69.4959 40.186 69.1041C44.3617 66.2673 49.2918 64.7472 54.34 64.7402H54.339ZM34.414 71.9862C36.5999 71.999 38.7686 72.3738 40.832 73.0952C39.7456 73.9645 38.7447 74.9355 37.843 75.9952C33.6504 75.0733 29.2634 75.85 25.6421 78.1552C22.0208 80.4605 19.4603 84.1064 18.521 88.2952H14.821C15.6885 83.726 18.1175 79.6006 21.692 76.6254C25.2666 73.6501 29.7643 72.0101 34.415 71.9862H34.414ZM88.754 106.402H19.925C15.9166 106.397 12.0503 104.917 9.06279 102.245C6.07525 99.5722 4.17531 95.8941 3.725 91.9111H104.958C104.507 95.894 102.606 99.5718 99.6185 102.244C96.6307 104.916 92.7644 106.396 88.756 106.401L88.754 106.402Z" fill="black"/>
<path d="M12.3601 23.0799H7.24512V26.7029H11.4241C11.2915 27.0122 11.1433 27.3146 10.9801 27.6089C9.72476 29.8146 9.06467 32.3089 9.06467 34.8469C9.06467 37.3848 9.72476 39.8791 10.9801 42.0849C11.9223 43.7437 12.4176 45.6187 12.4176 47.5264C12.4176 49.4341 11.9223 51.3091 10.9801 52.9679C9.72844 55.1596 9.0666 57.6384 9.05924 60.1623C9.05188 62.6862 9.69925 65.1689 10.9381 67.3679C11.3311 68.1637 11.6543 68.9922 11.9041 69.8439C12.0361 70.2519 12.1701 70.6699 12.3331 71.1209L15.7421 69.8899C15.5941 69.4789 15.4721 69.0979 15.3531 68.7269C15.0362 67.6647 14.6267 66.6324 14.1291 65.6419C13.1862 63.9833 12.6904 62.1082 12.6904 60.2004C12.6904 58.2925 13.1862 56.4174 14.1291 54.7589C15.3836 52.5529 16.0432 50.0587 16.0432 47.5209C16.0432 44.9831 15.3836 42.4889 14.1291 40.2829C13.1862 38.6243 12.6904 36.7492 12.6904 34.8414C12.6904 32.9335 13.1862 31.0584 14.1291 29.3999C15.3836 27.1939 16.0432 24.6997 16.0432 22.1619C16.0432 19.6241 15.3836 17.1299 14.1291 14.9239C13.1888 13.2672 12.6945 11.3948 12.6945 9.48988C12.6945 7.58494 13.1888 5.71259 14.1291 4.05588C14.2882 3.77995 14.3717 3.46696 14.3713 3.14846C14.3709 2.82996 14.2865 2.5172 14.1267 2.24169C13.9669 1.96619 13.7373 1.73767 13.461 1.57917C13.1848 1.42067 12.8716 1.33779 12.5531 1.33888H7.24512V4.96688H9.78112C9.40639 6.14146 9.18227 7.35885 9.11412 8.58988H7.24512V12.2129H9.32812C9.56787 13.4678 9.97131 14.6859 10.5281 15.8359H7.24512V19.4589H12.0741C12.3688 20.6418 12.4655 21.8654 12.3601 23.0799Z" fill="black"/>
<path d="M98.789 5.20379L46.008 6.75579L43.251 3.99579C42.4127 3.15225 41.4154 2.48348 40.3168 2.02824C39.2182 1.57301 38.0402 1.34036 36.851 1.34379H19.925C19.4879 1.34388 19.0655 1.5019 18.7357 1.78874C18.4058 2.07557 18.1907 2.47192 18.13 2.90479C17.0438 5.06099 16.507 7.45211 16.5674 9.86569C16.6278 12.2793 17.2834 14.6406 18.476 16.7398C19.4189 18.3983 19.9146 20.2734 19.9146 22.1813C19.9146 24.0891 19.4189 25.9642 18.476 27.6228C17.2215 29.8288 16.5619 32.323 16.5619 34.8608C16.5619 37.3986 17.2215 39.8928 18.476 42.0988C19.4189 43.7573 19.9146 45.6324 19.9146 47.5403C19.9146 49.4481 19.4189 51.3232 18.476 52.9818C17.2206 55.1879 16.5605 57.6825 16.5605 60.2208C16.5605 62.759 17.2206 65.2537 18.476 67.4598C18.7229 67.8935 18.9408 68.3431 19.128 68.8058L22.486 67.4508C22.2394 66.8343 21.9493 66.2362 21.618 65.6608C20.6758 64.002 20.1805 62.127 20.1805 60.2193C20.1805 58.3116 20.6758 56.4366 21.618 54.7778C22.8733 52.5721 23.5334 50.0777 23.5334 47.5398C23.5334 45.0018 22.8733 42.5075 21.618 40.3018C20.6758 38.643 20.1805 36.768 20.1805 34.8603C20.1805 32.9526 20.6758 31.0776 21.618 29.4188C22.1092 28.5562 22.5113 27.6459 22.818 26.7018H26.153C26.0238 27.0111 25.8786 27.3135 25.718 27.6078C24.4643 29.8141 23.8052 32.3082 23.8052 34.8458C23.8052 37.3834 24.4643 39.8775 25.718 42.0838C26.6609 43.7423 27.1566 45.6174 27.1566 47.5253C27.1566 49.4331 26.6609 51.3082 25.718 52.9668C24.5496 55.013 23.894 57.3117 23.8069 59.6664C23.7198 62.0211 24.204 64.3618 25.218 66.4888L28.488 64.9298C27.7262 63.3303 27.363 61.5702 27.4295 59.7998C27.4961 58.0295 27.9903 56.3016 28.87 54.7638C30.1253 52.5581 30.7854 50.0637 30.7854 47.5258C30.7854 44.9878 30.1253 42.4935 28.87 40.2878C27.9279 38.6293 27.4326 36.7546 27.4326 34.8473C27.4326 32.9399 27.9279 31.0653 28.87 29.4068C29.3476 28.5425 29.7369 27.6322 30.032 26.6898H36.846C38.0351 26.6932 39.2132 26.4605 40.3118 26.0053C41.4104 25.55 42.4077 24.8813 43.246 24.0378L45.985 21.2988L98.503 24.3988C99.7783 24.497 101.06 24.3396 102.274 23.9358C103.488 23.532 104.609 22.89 105.571 22.0473C106.533 21.2047 107.317 20.1784 107.878 19.0287C108.438 17.8789 108.764 16.6289 108.835 15.3518C108.906 14.0747 108.721 12.7962 108.292 11.5914C107.862 10.3866 107.196 9.27969 106.333 8.33554C105.471 7.39139 104.428 6.62902 103.266 6.09314C102.105 5.55725 100.848 5.25863 99.57 5.21479C99.309 5.19979 99.046 5.19679 98.785 5.20379H98.789ZM103.178 19.1658C102.586 19.7282 101.885 20.1625 101.118 20.4414C100.35 20.7203 99.5337 20.8379 98.719 20.7868L45.39 17.6458C45.1346 17.6314 44.879 17.6709 44.6399 17.7617C44.4008 17.8525 44.1834 17.9925 44.002 18.1728L40.69 21.4898C39.6687 22.5057 38.2884 23.0784 36.848 23.0838H23.511C23.5757 21.8702 23.49 20.6533 23.256 19.4608H32.604V15.8338H22.053C21.908 15.5338 21.79 15.2248 21.624 14.9278C21.1402 14.0756 20.7745 13.1615 20.537 12.2108H32.604V8.58979H20.231C20.3309 7.33783 20.6451 6.11234 21.16 4.96679H36.848C38.2879 4.97073 39.6683 5.542 40.69 6.55679L44.003 9.86979C44.1757 10.0465 44.3836 10.1851 44.6132 10.2766C44.8428 10.3681 45.089 10.4104 45.336 10.4008L98.899 8.82479C100.113 8.78826 101.309 9.12189 102.329 9.78137C103.349 10.4408 104.144 11.395 104.609 12.5171C105.074 13.6391 105.187 14.8761 104.932 16.0636C104.677 17.2511 104.067 18.3331 103.183 19.1658H103.178Z" fill="black"/>
</svg>
