<svg width="92" height="92" viewBox="0 0 92 92" fill="none" xmlns="http://www.w3.org/2000/svg">
<path d="M23.7571 19.8735C24.6005 18.2134 24.8971 16.3291 24.6046 14.4903C24.312 12.6514 23.4453 10.9523 22.1284 9.63592C20.8115 8.31958 19.1119 7.45355 17.2729 7.16176C15.434 6.86998 13.5498 7.1674 11.8901 8.01146L23.7571 19.8735Z" fill="#FF8A65"/>
<path d="M75.8933 67.0635C75.4959 67.0644 75.099 67.0921 74.7054 67.1465C74.4559 68.0334 74.0342 68.8625 73.4644 69.5865L83.7643 79.8865C84.4474 78.5412 84.7742 77.0433 84.7133 75.5358C84.6525 74.0282 84.2062 72.5615 83.4169 71.2756C82.6277 69.9898 81.5219 68.9277 80.2053 68.191C78.8886 67.4543 77.4051 67.0675 75.8964 67.0675L75.8933 67.0635Z" fill="#FF8A65"/>
<path d="M72.9072 50.2478C71.5832 48.9239 69.7876 48.1802 67.9152 48.1802C66.0429 48.1802 64.2472 48.9239 62.9232 50.2478C62.2016 49.5248 61.3314 48.9675 60.3728 48.6145C59.4143 48.2615 58.3904 48.1214 57.3722 48.2038C57.8117 49.8951 57.7587 51.6767 57.2192 53.3388L73.4652 69.5848C74.532 68.2272 75.0642 66.5259 74.9614 64.8024C74.8586 63.0789 74.1278 61.4529 72.9072 60.2318C73.5629 59.5763 74.083 58.7981 74.4378 57.9415C74.7927 57.085 74.9753 56.1669 74.9753 55.2398C74.9753 54.3127 74.7927 53.3947 74.4378 52.5381C74.083 51.6816 73.5629 50.9033 72.9072 50.2478Z" fill="#AED581"/>
<path d="M38.0453 34.1657C40.4275 33.4613 42.9831 33.6323 45.2503 34.6477C45.0519 33.1032 44.3459 31.6683 43.2433 30.5687C44.5672 29.2448 45.3109 27.4491 45.3109 25.5767C45.3109 23.7044 44.5672 21.9087 43.2433 20.5847V20.5847C41.9193 19.2608 40.1236 18.5171 38.2513 18.5171C36.3789 18.5171 34.5832 19.2608 33.2592 20.5847V20.5847C32.0381 19.3642 30.4121 18.6334 28.6887 18.5306C26.9652 18.4278 25.2638 18.96 23.9062 20.0267L43.8063 39.9267L38.0453 34.1657Z" fill="#AED581"/>
<path d="M57.2179 53.3384C58.6089 49.5384 56.6749 43.8004 52.1289 39.2544C47.5829 34.7084 41.8499 32.7744 38.0449 34.1654L57.2179 53.3384Z" fill="#FF5A5A"/>
<path d="M87.2641 90.0074H1.76514V4.50744C1.76537 3.9651 1.92637 3.435 2.22779 2.98413C2.52921 2.53326 2.95752 2.18187 3.4586 1.97436C3.95967 1.76684 4.51101 1.71253 5.04294 1.81827C5.57488 1.92401 6.06353 2.18506 6.44714 2.56844L89.2041 85.3244C89.5879 85.7081 89.8493 86.1969 89.9552 86.7291C90.0611 87.2613 90.0068 87.8129 89.7991 88.3142C89.5914 88.8156 89.2397 89.244 88.7885 89.5454C88.3373 89.8468 87.8068 90.0076 87.2641 90.0074V90.0074Z" fill="#F4C76C"/>
<path d="M90.452 84.0767L85.852 79.4767C86.2697 78.3253 86.4822 77.1096 86.48 75.8847C86.4769 73.2234 85.4727 70.6607 83.6672 68.7056C81.8616 66.7505 79.3866 65.5461 76.734 65.3317C76.7576 63.5133 76.2187 61.7321 75.191 60.2317C76.3531 58.5326 76.8848 56.4807 76.6941 54.431C76.5034 52.3813 75.6023 50.4627 74.1467 49.0071C72.6911 47.5514 70.7725 46.6504 68.7228 46.4597C66.6731 46.269 64.6212 46.8006 62.922 47.9627C61.6749 47.1071 60.2284 46.587 58.722 46.4527C57.6261 43.2578 55.7953 40.3648 53.377 38.0067C51.4792 36.0846 49.2515 34.519 46.8 33.3847C46.5483 32.3774 46.1182 31.4233 45.53 30.5677C46.6942 28.8684 47.2274 26.8154 47.0373 24.7643C46.8472 22.7133 45.9458 20.7932 44.4891 19.3368C43.0324 17.8804 41.1123 16.9793 39.0612 16.7895C37.01 16.5997 34.9571 17.1333 33.258 18.2977C32.269 17.6208 31.1525 17.1521 29.9767 16.9202C28.8008 16.6883 27.59 16.698 26.418 16.9487C26.453 16.5957 26.475 16.2397 26.475 15.8797C26.4724 13.0719 25.3558 10.3798 23.3703 8.39439C21.3849 6.40896 18.6928 5.29238 15.885 5.28973C14.6602 5.28761 13.4445 5.50016 12.293 5.91773L7.693 1.31773C7.06226 0.688037 6.25903 0.259437 5.38479 0.0860906C4.51055 -0.0872561 3.60455 0.00242957 2.78127 0.343815C1.95798 0.6852 1.25437 1.26296 0.759331 2.0041C0.264294 2.74523 5.38848e-05 3.61647 0 4.50773L0 90.0077C0 90.4758 0.185955 90.9248 0.516957 91.2558C0.847958 91.5868 1.29689 91.7727 1.765 91.7727H87.265C88.1574 91.7735 89.03 91.5093 89.7722 91.0137C90.5144 90.5181 91.0928 89.8133 91.4341 88.9887C91.7754 88.1641 91.8642 87.2568 91.6894 86.3816C91.5146 85.5065 91.0839 84.7029 90.452 84.0727V84.0767ZM82.952 75.8877C82.952 76.1097 82.942 76.3297 82.922 76.5477L75.722 69.3477L75.733 69.3257C75.818 69.1627 75.9 68.9987 75.974 68.8327C77.8308 68.8561 79.6039 69.6093 80.9098 70.9295C82.2158 72.2497 82.9497 74.0307 82.953 75.8877H82.952ZM61.674 51.4977C61.838 51.6622 62.0328 51.7927 62.2473 51.8818C62.4618 51.9708 62.6918 52.0166 62.924 52.0166C63.1562 52.0166 63.3862 51.9708 63.6007 51.8818C63.8152 51.7927 64.01 51.6622 64.174 51.4977C64.6642 50.9993 65.2482 50.6029 65.8924 50.3313C66.5365 50.0598 67.2281 49.9184 67.9272 49.9155C68.6262 49.9126 69.3189 50.0481 69.9653 50.3143C70.6118 50.5805 71.1991 50.972 71.6934 51.4664C72.1877 51.9607 72.5792 52.548 72.8454 53.1944C73.1116 53.8408 73.2471 54.5335 73.2442 55.2326C73.2413 55.9316 73.1 56.6232 72.8284 57.2674C72.5569 57.9115 72.1604 58.4956 71.662 58.9857C71.4975 59.1497 71.367 59.3445 71.278 59.559C71.1889 59.7735 71.1431 60.0035 71.1431 60.2357C71.1431 60.468 71.1889 60.6979 71.278 60.9124C71.367 61.1269 71.4975 61.3218 71.662 61.4857C72.3234 62.1475 72.7978 62.9726 73.037 63.8772C73.2763 64.7817 73.2718 65.7335 73.024 66.6357V66.6457L59.2 52.8237C59.205 52.8007 59.209 52.7767 59.214 52.7537C59.231 52.6717 59.248 52.5897 59.263 52.5077C59.4016 51.7336 59.453 50.9463 59.416 50.1607C60.269 50.4097 61.0455 50.8695 61.674 51.4977V51.4977ZM55.7 48.8627L55.711 48.9167C55.74 49.0617 55.764 49.2057 55.786 49.3487C55.786 49.3737 55.793 49.3997 55.797 49.4247L41.957 35.5807C45.3664 36.2635 48.4824 37.9804 50.881 40.4977C53.2453 42.7748 54.9162 45.6751 55.7 48.8627V48.8627ZM32.011 21.8327C32.175 21.9971 32.3699 22.1275 32.5844 22.2165C32.7989 22.3054 33.0288 22.3512 33.261 22.3512C33.4932 22.3512 33.7231 22.3054 33.9376 22.2165C34.1521 22.1275 34.347 21.9971 34.511 21.8327C35.0027 21.341 35.5864 20.9509 36.2288 20.6848C36.8712 20.4186 37.5598 20.2816 38.2551 20.2816C38.9505 20.2815 39.6391 20.4184 40.2815 20.6845C40.924 20.9506 41.5078 21.3406 41.9995 21.8322C42.4912 22.3239 42.8813 22.9076 43.1475 23.55C43.4136 24.1925 43.5506 24.881 43.5507 25.5764C43.5507 26.2717 43.4138 26.9603 43.1477 27.6028C42.8817 28.2452 42.4917 28.829 42 29.3207C41.8355 29.4847 41.705 29.6795 41.616 29.894C41.5269 30.1085 41.4811 30.3385 41.4811 30.5707C41.4811 30.803 41.5269 31.0329 41.616 31.2474C41.705 31.4619 41.8355 31.6568 42 31.8207C42.076 31.8967 42.1493 31.9747 42.22 32.0547C41.1503 31.9125 40.0655 31.9269 39 32.0977H38.977C38.8523 32.1191 38.7287 32.1431 38.606 32.1697L38.559 32.1787L26.849 20.4687C27.7532 20.2189 28.7074 20.2136 29.6143 20.4532C30.5212 20.6929 31.3483 21.1689 32.011 21.8327V21.8327ZM15.885 8.81973C17.7568 8.82185 19.5513 9.56635 20.8748 10.8899C22.1984 12.2134 22.9429 14.008 22.945 15.8797C22.945 16.1017 22.935 16.3217 22.915 16.5397L15.225 8.84973C15.443 8.82906 15.663 8.81906 15.885 8.81973ZM88.168 87.6387C88.0974 87.8188 87.9733 87.9729 87.8123 88.0802C87.6514 88.1875 87.4614 88.2428 87.268 88.2387H3.53V84.7087H14.12C14.5881 84.7087 15.037 84.5228 15.368 84.1918C15.699 83.8608 15.885 83.4118 15.885 82.9437C15.885 82.4756 15.699 82.0267 15.368 81.6957C15.037 81.3647 14.5881 81.1787 14.12 81.1787H3.53V4.50773C3.53002 4.31425 3.58743 4.12513 3.69495 3.96429C3.80248 3.80344 3.9553 3.67811 4.13408 3.60414C4.31285 3.53016 4.50955 3.51088 4.69929 3.54872C4.88903 3.58656 5.06328 3.67983 5.2 3.81673L10.642 9.25873L22.5 21.1217L22.651 21.2727L36.8 35.4137L55.97 54.5877L72.216 70.8337L82.516 81.1337L87.958 86.5757C88.0979 86.7099 88.1931 86.8839 88.2307 87.0741C88.2683 87.2643 88.2464 87.4614 88.168 87.6387Z" fill="black"/>
<path d="M8.82506 26.4685H15.8851C16.3532 26.4685 16.8021 26.2825 17.1331 25.9515C17.4641 25.6205 17.6501 25.1716 17.6501 24.7035C17.6501 24.2354 17.4641 23.7864 17.1331 23.4554C16.8021 23.1244 16.3532 22.9385 15.8851 22.9385H8.82506C8.35695 22.9385 7.90802 23.1244 7.57701 23.4554C7.24601 23.7864 7.06006 24.2354 7.06006 24.7035C7.06006 25.1716 7.24601 25.6205 7.57701 25.9515C7.90802 26.2825 8.35695 26.4685 8.82506 26.4685V26.4685Z" fill="black"/>
<path d="M8.82506 44.1184H28.2391C28.7072 44.1184 29.1561 43.9324 29.4871 43.6014C29.8181 43.2704 30.0041 42.8215 30.0041 42.3534C30.0041 41.8853 29.8181 41.4363 29.4871 41.1053C29.1561 40.7743 28.7072 40.5884 28.2391 40.5884H8.82506C8.35695 40.5884 7.90802 40.7743 7.57701 41.1053C7.24601 41.4363 7.06006 41.8853 7.06006 42.3534C7.06006 42.8215 7.24601 43.2704 7.57701 43.6014C7.90802 43.9324 8.35695 44.1184 8.82506 44.1184V44.1184Z" fill="black"/>
<path d="M45.8891 58.2378H8.82506C8.59327 58.2378 8.36376 58.2835 8.14962 58.3722C7.93548 58.4609 7.74091 58.5909 7.57701 58.7548C7.41312 58.9187 7.28311 59.1132 7.19441 59.3274C7.10571 59.5415 7.06006 59.771 7.06006 60.0028C7.06006 60.2346 7.10571 60.4641 7.19441 60.6782C7.28311 60.8924 7.41312 61.087 7.57701 61.2509C7.74091 61.4147 7.93548 61.5448 8.14962 61.6335C8.36376 61.7222 8.59327 61.7678 8.82506 61.7678H45.8891C46.1208 61.7678 46.3504 61.7222 46.5645 61.6335C46.7786 61.5448 46.9732 61.4147 47.1371 61.2509C47.301 61.087 47.431 60.8924 47.5197 60.6782C47.6084 60.4641 47.6541 60.2346 47.6541 60.0028C47.6541 59.771 47.6084 59.5415 47.5197 59.3274C47.431 59.1132 47.301 58.9187 47.1371 58.7548C46.9732 58.5909 46.7786 58.4609 46.5645 58.3722C46.3504 58.2835 46.1208 58.2378 45.8891 58.2378V58.2378Z" fill="black"/>
<path d="M21.043 82.2715C20.9987 82.1666 20.9445 82.0661 20.881 81.9715C20.8174 81.8748 20.744 81.7851 20.662 81.7035C20.5804 81.6216 20.4906 81.5482 20.394 81.4845C20.2993 81.4212 20.1989 81.367 20.094 81.3225C19.987 81.278 19.8758 81.2444 19.762 81.2225C19.535 81.1765 19.301 81.1765 19.074 81.2225C18.9602 81.2444 18.849 81.278 18.742 81.3225C18.6371 81.3669 18.5366 81.4211 18.442 81.4845C18.2483 81.6122 18.0827 81.7779 17.955 81.9715C17.8916 82.0661 17.8373 82.1666 17.793 82.2715C17.7485 82.3785 17.715 82.4898 17.693 82.6035C17.646 82.8304 17.646 83.0646 17.693 83.2915C17.7147 83.4047 17.7482 83.5153 17.793 83.6215C17.8367 83.7284 17.8909 83.8305 17.955 83.9265C18.0827 84.1201 18.2484 84.2858 18.442 84.4135C18.5381 84.4774 18.6402 84.5317 18.747 84.5755C18.8532 84.6202 18.9638 84.6537 19.077 84.6755C19.3039 84.7225 19.5381 84.7225 19.765 84.6755C19.8788 84.6535 19.99 84.62 20.097 84.5755C20.2019 84.5312 20.3024 84.477 20.397 84.4135C20.4937 84.35 20.5835 84.2766 20.665 84.1945C20.9948 83.8627 21.1805 83.4143 21.182 82.9465C21.1818 82.831 21.1701 82.7157 21.147 82.6025C21.1237 82.4889 21.0889 82.378 21.043 82.2715V82.2715Z" fill="black"/>
</svg>
