<svg width="74" height="71" viewBox="0 0 74 71" fill="none" xmlns="http://www.w3.org/2000/svg">
<path d="M73.3991 38.485C72.7975 32.4478 70.3068 26.7542 66.2816 22.2147C62.2565 17.6751 56.9019 14.5209 50.9801 13.201V9.571C52.1315 9.28526 53.1385 8.58803 53.8111 7.61086C54.4837 6.63369 54.7754 5.44414 54.6312 4.26665C54.487 3.08917 53.9169 2.00516 53.0284 1.21915C52.1399 0.433141 50.9944 -0.000514259 49.8081 4.57671e-07H39.5211C38.3348 -0.000514259 37.1894 0.433141 36.3009 1.21915C35.4124 2.00516 34.8422 3.08917 34.698 4.26665C34.5538 5.44414 34.8456 6.63369 35.5182 7.61086C36.1908 8.58803 37.1978 9.28526 38.3491 9.571V13.211C33.0184 14.3988 28.1375 17.0836 24.2801 20.95C23.4142 21.8155 22.6039 22.735 21.8541 23.703C21.8181 23.703 21.7821 23.698 21.7461 23.698H11.5661C11.3754 23.693 11.1855 23.7262 11.0078 23.7957C10.83 23.8652 10.668 23.9696 10.5313 24.1028C10.3946 24.2359 10.2859 24.3951 10.2118 24.5709C10.1376 24.7468 10.0993 24.9357 10.0993 25.1265C10.0993 25.3173 10.1376 25.5062 10.2118 25.6821C10.2859 25.8579 10.3946 26.0171 10.5313 26.1502C10.668 26.2834 10.83 26.3878 11.0078 26.4573C11.1855 26.5268 11.3754 26.5601 11.5661 26.555H19.9111C18.8747 28.2907 18.025 30.1313 17.3761 32.046H1.82813C1.63735 32.0409 1.4475 32.0742 1.26977 32.1437C1.09205 32.2132 0.930044 32.3176 0.793326 32.4508C0.656608 32.5839 0.547946 32.7431 0.47375 32.9189C0.399554 33.0948 0.361328 33.2837 0.361328 33.4745C0.361328 33.6653 0.399554 33.8542 0.47375 34.0301C0.547946 34.2059 0.656608 34.3651 0.793326 34.4982C0.930044 34.6314 1.09205 34.7358 1.26977 34.8053C1.4475 34.8748 1.63735 34.908 1.82813 34.903H16.5691C16.1585 36.7066 15.9211 38.5453 15.8601 40.394H9.54213C9.35135 40.3889 9.1615 40.4222 8.98377 40.4917C8.80605 40.5612 8.64404 40.6656 8.50733 40.7988C8.37061 40.9319 8.26195 41.0911 8.18775 41.2669C8.11355 41.4428 8.07533 41.6317 8.07533 41.8225C8.07533 42.0133 8.11355 42.2022 8.18775 42.3781C8.26195 42.5539 8.37061 42.7131 8.50733 42.8462C8.64404 42.9794 8.80605 43.0838 8.98377 43.1533C9.1615 43.2228 9.35135 43.256 9.54213 43.251H15.9051C16.0267 45.1044 16.3261 46.9418 16.7991 48.738H7.54213C7.35135 48.733 7.1615 48.7662 6.98377 48.8357C6.80605 48.9052 6.64404 49.0096 6.50733 49.1428C6.37061 49.2759 6.26195 49.4351 6.18775 49.6109C6.11355 49.7868 6.07533 49.9757 6.07533 50.1665C6.07533 50.3573 6.11355 50.5462 6.18775 50.7221C6.26195 50.8979 6.37061 51.0571 6.50733 51.1902C6.64404 51.3234 6.80605 51.4278 6.98377 51.4973C7.1615 51.5668 7.35135 51.6 7.54213 51.595H17.7091C19.6133 56.6144 22.8801 61.0029 27.142 64.2673C31.4039 67.5316 36.492 69.5422 41.8341 70.073C42.7781 70.1663 43.7218 70.2127 44.6651 70.212C50.2542 70.2147 55.7243 68.5982 60.4141 65.558C60.7201 65.3463 60.9314 65.0236 61.0031 64.6586C61.0749 64.2935 61.0015 63.9149 60.7985 63.6031C60.5954 63.2913 60.2788 63.071 59.9159 62.989C59.553 62.907 59.1725 62.9698 58.8551 63.164C53.4681 66.6635 46.9762 68.0448 40.631 67.0416C34.2859 66.0385 28.5368 62.7218 24.4921 57.731C20.4473 52.7403 18.3934 46.4289 18.7262 40.0136C19.0591 33.5982 21.7551 27.5333 26.2945 22.9879C30.834 18.4425 36.8955 15.7385 43.3104 15.3973C49.7252 15.0561 56.0393 17.1018 61.0353 21.14C66.0313 25.1783 69.3555 30.923 70.367 37.2669C71.3785 43.6107 70.0056 50.1044 66.5131 55.496C66.411 55.6536 66.3408 55.8298 66.3067 56.0144C66.2727 56.1991 66.2753 56.3887 66.3145 56.5724C66.3537 56.7561 66.4286 56.9302 66.5351 57.0849C66.6416 57.2396 66.7775 57.3718 66.9351 57.474C67.0927 57.5762 67.2689 57.6463 67.4536 57.6804C67.6383 57.7145 67.8278 57.7118 68.0115 57.6727C68.1952 57.6335 68.3694 57.5585 68.5241 57.452C68.6788 57.3455 68.811 57.2096 68.9131 57.052C72.4659 51.5488 74.0474 45.0033 73.3991 38.485V38.485ZM37.5211 4.857C37.5211 4.32657 37.7318 3.81786 38.1069 3.44279C38.482 3.06771 38.9907 2.857 39.5211 2.857H49.8071C50.3376 2.857 50.8463 3.06771 51.2213 3.44279C51.5964 3.81786 51.8071 4.32657 51.8071 4.857C51.8071 5.38743 51.5964 5.89614 51.2213 6.27121C50.8463 6.64629 50.3376 6.857 49.8071 6.857H39.5211C38.9907 6.857 38.482 6.64629 38.1069 6.27121C37.7318 5.89614 37.5211 5.38743 37.5211 4.857ZM41.2061 12.719V9.719H48.1221V12.719C45.8249 12.4445 43.5032 12.4448 41.2061 12.72V12.719Z" fill="#A80E0E"/>
<path d="M64.0842 59.321C63.7536 59.3208 63.4331 59.4352 63.1774 59.6448C62.9217 59.8544 62.7466 60.1462 62.6819 60.4704C62.6172 60.7946 62.667 61.1312 62.8227 61.4229C62.9784 61.7146 63.2304 61.9432 63.5357 62.0699C63.8411 62.1966 64.181 62.2135 64.4974 62.1177C64.8138 62.0219 65.0873 61.8193 65.2711 61.5445C65.4549 61.2697 65.5377 60.9397 65.5055 60.6106C65.4732 60.2816 65.3279 59.9739 65.0942 59.74C64.826 59.4726 64.463 59.322 64.0842 59.321Z" fill="#A80E0E"/>
<path d="M44.6863 19.193C40.3033 19.1938 36.0189 20.4942 32.3749 22.9299C28.7309 25.3656 25.8909 28.8271 24.2142 32.8767C22.5374 36.9264 22.0991 41.3823 22.9547 45.681C23.8102 49.9798 25.9213 53.9283 29.0208 57.0273C32.1204 60.1263 36.0693 62.2367 40.3682 63.0915C44.6671 63.9463 49.1229 63.5071 53.1723 61.8296C57.2216 60.1521 60.6826 57.3116 63.1176 53.6671C65.5526 50.0227 66.8523 45.7381 66.8523 41.355C66.8457 35.4786 64.5081 29.8449 60.3525 25.69C56.1969 21.5351 50.5627 19.1986 44.6863 19.193ZM44.6863 60.66C40.8691 60.66 37.1377 59.5281 33.9638 57.4074C30.79 55.2867 28.3162 52.2724 26.8555 48.7458C25.3947 45.2192 25.0125 41.3386 25.7572 37.5948C26.5019 33.8509 28.34 30.412 31.0392 27.7128C33.7383 25.0137 37.1773 23.1755 40.9211 22.4308C44.6649 21.6862 48.5455 22.0684 52.0721 23.5291C55.5987 24.9899 58.613 27.4636 60.7337 30.6375C62.8544 33.8114 63.9863 37.5428 63.9863 41.36C63.9792 46.4765 61.9435 51.3814 58.3256 54.9993C54.7077 58.6172 49.8028 60.6529 44.6863 60.66Z" fill="#A80E0E"/>
<path d="M53.7232 30.298L46.6472 37.374C46.0374 37.0728 45.3664 36.9161 44.6862 36.9161C44.006 36.9161 43.335 37.0728 42.7252 37.374L39.5582 34.207C39.4271 34.0677 39.2693 33.9562 39.0943 33.8791C38.9193 33.8019 38.7306 33.7607 38.5393 33.7578C38.3481 33.7549 38.1582 33.7905 37.9809 33.8624C37.8037 33.9342 37.6426 34.041 37.5074 34.1762C37.3721 34.3115 37.2654 34.4725 37.1936 34.6497C37.1217 34.827 37.0862 35.0169 37.089 35.2081C37.0919 35.3994 37.1331 35.5881 37.2103 35.7631C37.2874 35.9381 37.3989 36.0959 37.5382 36.227L40.7052 39.394C40.3716 40.0708 40.216 40.8214 40.2531 41.575C40.2902 42.3287 40.5188 43.0604 40.9172 43.7011C41.3157 44.3418 41.871 44.8704 42.5305 45.2369C43.1901 45.6034 43.9321 45.7957 44.6867 45.7957C45.4412 45.7957 46.1833 45.6034 46.8429 45.2369C47.5024 44.8704 48.0577 44.3418 48.4562 43.7011C48.8546 43.0604 49.0832 42.3287 49.1203 41.575C49.1574 40.8214 49.0018 40.0708 48.6682 39.394L55.5362 32.526L55.7442 32.318C55.8835 32.1869 55.995 32.0291 56.0721 31.8541C56.1493 31.6791 56.1905 31.4904 56.1934 31.2991C56.1962 31.1079 56.1607 30.918 56.0888 30.7407C56.017 30.5635 55.9103 30.4025 55.775 30.2672C55.6398 30.132 55.4787 30.0252 55.3015 29.9534C55.1242 29.8815 54.9343 29.846 54.7431 29.8488C54.5518 29.8517 54.3631 29.8929 54.1881 29.9701C54.0131 30.0472 53.8553 30.1587 53.7242 30.298H53.7232ZM44.6832 42.937C44.3703 42.937 44.0645 42.8442 43.8043 42.6704C43.5441 42.4965 43.3414 42.2495 43.2216 41.9604C43.1019 41.6713 43.0706 41.3532 43.1316 41.0464C43.1926 40.7395 43.3433 40.4576 43.5646 40.2364C43.7858 40.0151 44.0677 39.8644 44.3746 39.8034C44.6815 39.7424 44.9995 39.7737 45.2886 39.8934C45.5777 40.0131 45.8247 40.2159 45.9986 40.4761C46.1724 40.7362 46.2652 41.0421 46.2652 41.355C46.2647 41.7744 46.0978 42.1765 45.8012 42.4731C45.5047 42.7696 45.1026 42.9365 44.6832 42.937Z" fill="#A80E0E"/>
<path d="M59.9607 39.944H58.6367C58.4459 39.9389 58.2561 39.9722 58.0784 40.0417C57.9006 40.1112 57.7386 40.2156 57.6019 40.3488C57.4652 40.4819 57.3565 40.6411 57.2823 40.817C57.2082 40.9928 57.1699 41.1817 57.1699 41.3725C57.1699 41.5634 57.2082 41.7523 57.2823 41.9281C57.3565 42.1039 57.4652 42.2631 57.6019 42.3962C57.7386 42.5294 57.9006 42.6338 58.0784 42.7033C58.2561 42.7729 58.4459 42.8061 58.6367 42.801H59.9607C60.333 42.7912 60.6868 42.6363 60.9467 42.3695C61.2065 42.1027 61.3519 41.745 61.3519 41.3725C61.3519 41.0001 61.2065 40.6423 60.9467 40.3755C60.6868 40.1087 60.333 39.9538 59.9607 39.944V39.944Z" fill="#A80E0E"/>
<path d="M30.7351 39.909H29.4121C29.2213 39.904 29.0315 39.9372 28.8538 40.0067C28.676 40.0762 28.514 40.1806 28.3773 40.3138C28.2406 40.4469 28.1319 40.6061 28.0577 40.7819C27.9835 40.9578 27.9453 41.1467 27.9453 41.3375C27.9453 41.5283 27.9835 41.7173 28.0577 41.8931C28.1319 42.0689 28.2406 42.2281 28.3773 42.3612C28.514 42.4944 28.676 42.5988 28.8538 42.6683C29.0315 42.7378 29.2213 42.7711 29.4121 42.766H30.7351C30.9259 42.7711 31.1157 42.7378 31.2935 42.6683C31.4712 42.5988 31.6332 42.4944 31.7699 42.3612C31.9066 42.2281 32.0153 42.0689 32.0895 41.8931C32.1637 41.7173 32.2019 41.5283 32.2019 41.3375C32.2019 41.1467 32.1637 40.9578 32.0895 40.7819C32.0153 40.6061 31.9066 40.4469 31.7699 40.3138C31.6332 40.1806 31.4712 40.0762 31.2935 40.0067C31.1157 39.9372 30.9259 39.904 30.7351 39.909V39.909Z" fill="#A80E0E"/>
<path d="M44.7044 28.833C45.0834 28.833 45.4469 28.6824 45.7148 28.4144C45.9828 28.1465 46.1334 27.783 46.1334 27.404V26.081C46.1235 25.7087 45.9687 25.3549 45.7019 25.0951C45.4351 24.8352 45.0773 24.6898 44.7049 24.6898C44.3324 24.6898 43.9747 24.8352 43.7079 25.0951C43.4411 25.3549 43.2862 25.7087 43.2764 26.081V27.404C43.2764 27.7828 43.4268 28.1461 43.6946 28.4141C43.9624 28.6821 44.3256 28.8327 44.7044 28.833V28.833Z" fill="#A80E0E"/>
<path d="M44.6688 53.877C44.2898 53.877 43.9263 54.0276 43.6583 54.2956C43.3903 54.5636 43.2398 54.927 43.2398 55.306V56.629C43.2347 56.8198 43.2679 57.0096 43.3374 57.1873C43.407 57.3651 43.5114 57.5271 43.6445 57.6638C43.7777 57.8005 43.9369 57.9092 44.1127 57.9834C44.2885 58.0576 44.4774 58.0958 44.6683 58.0958C44.8591 58.0958 45.048 58.0576 45.2238 57.9834C45.3997 57.9092 45.5588 57.8005 45.692 57.6638C45.8251 57.5271 45.9295 57.3651 45.9991 57.1873C46.0686 57.0096 46.1018 56.8198 46.0968 56.629V55.306C46.0968 54.9272 45.9463 54.5639 45.6786 54.2959C45.4108 54.0279 45.0476 53.8773 44.6688 53.877V53.877Z" fill="#A80E0E"/>
<path d="M1.82835 48.741C1.59328 48.7408 1.36181 48.7987 1.15444 48.9094C0.947078 49.0201 0.770225 49.1802 0.639558 49.3756C0.508891 49.571 0.428445 49.7957 0.405351 50.0296C0.382257 50.2635 0.417227 50.4996 0.507163 50.7167C0.597099 50.9339 0.739222 51.1255 0.920937 51.2747C1.10265 51.4238 1.31835 51.5258 1.5489 51.5716C1.77946 51.6174 2.01776 51.6056 2.24268 51.5373C2.46761 51.469 2.67221 51.3463 2.83835 51.18C3.03801 50.9801 3.17397 50.7256 3.22903 50.4485C3.28409 50.1714 3.2558 49.8843 3.14771 49.6233C3.03963 49.3623 2.85661 49.1391 2.62178 48.9821C2.38695 48.8251 2.11085 48.7412 1.82835 48.741V48.741Z" fill="#A80E0E"/>
</svg>
