<svg width="2069" height="72" viewBox="0 0 2069 72" fill="none" xmlns="http://www.w3.org/2000/svg">
<g clip-path="url(#clip0)">
<path d="M1512.14 66.625C1504.57 65.413 1504.95 65.413 1503.24 66.611C1501.6 67.768 1502.33 67.963 1510.28 68.411C1518.35 68.864 1519.47 67.791 1512.14 66.625Z" fill="white"/>
<path d="M1626.09 57.6041C1628.2 58.0885 1630.4 58.0597 1632.49 57.5201C1629.03 56.7541 1623.78 56.8101 1626.09 57.6041Z" fill="white"/>
<path d="M1604.62 56.142C1602.66 56.978 1603.17 57.076 1609.68 57.034C1614.81 57.006 1616.77 56.769 1616.44 56.24C1615.71 55.125 1607.18 55.055 1604.62 56.142Z" fill="white"/>
<path d="M1313.66 58.9289C1309.97 57.2009 1304.7 57.0479 1301.62 58.5809C1300.12 59.3329 1299.39 59.8809 1300.03 59.7809C1302.86 59.3909 1308.78 60.4809 1308.83 61.3809C1308.88 62.5649 1309.1 62.5649 1312.85 61.5619C1316.31 60.6289 1316.43 60.2249 1313.66 58.9289Z" fill="white"/>
<path d="M1485.93 65.408C1484.22 66.608 1485.41 67.164 1489.57 67.108C1492.16 67.08 1492.84 66.801 1492.51 65.938C1491.96 64.544 1487.67 64.196 1485.93 65.408Z" fill="white"/>
<path d="M923.299 53.4392C921.836 52.6732 914.507 52.5752 913.726 53.3142C912.639 54.3312 915.226 55.2142 919.258 55.1672C922.184 55.1252 924.581 54.1082 923.299 53.4392Z" fill="white"/>
<path d="M894.665 53.5081C888.395 54.0931 885.65 54.1081 884.479 53.6081C883.559 53.2081 880.912 53.0791 878.25 53.3151C875.714 53.5381 873.317 53.4681 872.955 53.1481C871.994 52.3261 864.135 52.5771 861.418 53.5101C858.079 54.2289 854.686 54.6671 851.274 54.8201C842.064 55.4201 841.228 55.7401 844.196 57.4811C846.049 58.5681 847.196 58.6931 851.107 58.2471C853.434 57.9709 855.773 57.8127 858.116 57.7731C865.961 57.9541 874.363 57.6061 875.492 57.0621C876.342 56.6621 878.349 56.6441 881.107 57.0201C883.199 57.3961 885.342 57.3913 887.433 57.0061C889.441 56.613 891.492 56.4866 893.533 56.6301C903.533 57.2011 910.951 56.2121 910.881 54.3451C910.786 52.4771 907.568 52.3101 894.665 53.5081Z" fill="white"/>
<path d="M1363.28 32.314C1361.08 32.035 1360.05 32.214 1359.56 32.969C1359.25 33.3095 1358.87 33.5801 1358.45 33.7627C1358.03 33.9453 1357.57 34.0357 1357.11 34.028C1356.14 34.042 1355.35 34.488 1355.37 35.017C1355.41 36.16 1355.98 36.201 1358.88 35.296C1360.54 34.8318 1362.29 34.8366 1363.95 35.31C1367.42 36.132 1372.83 35.449 1372.77 34.21C1372.74 33.722 1371.28 33.193 1369.52 33.01C1367.77 32.827 1364.95 32.525 1363.28 32.314Z" fill="white"/>
<path d="M13.8511 30.5309C12.8901 30.9909 6.81398 31.4229 0.000976562 31.6879V37.4139C0.500977 37.3299 0.990111 37.2329 1.46411 37.1489C7.12111 35.9919 7.99904 35.9649 11.915 36.8009C14.1868 37.3031 16.519 37.4769 18.8401 37.3169C20.3031 37.0939 21.822 37.1919 22.226 37.5399C22.672 37.9299 28.733 37.9399 38.278 37.5679C56.578 36.8569 57.911 36.8289 64.655 36.9679C71.692 37.1209 105.328 35.8949 108.055 35.3799C109.992 35.0179 118.018 34.6549 144.172 33.7639C149.78 33.632 155.39 33.8832 160.963 34.5159C171.553 35.7839 173.03 36.6759 170.647 40.3959C169.755 41.8029 169.908 42.0679 171.647 42.0399C172.846 42.0365 174.033 42.2834 175.131 42.7649C177.931 44.2419 191.559 44.9389 192.897 43.6569C193.597 43.0019 194.458 43.0569 196.938 43.9079C200.115 45.0079 204.198 45.0779 225.433 44.3959C229.215 44.2541 233.002 44.3332 236.775 44.6329C239.868 45.0229 240.565 44.9259 240.523 44.0899C240.481 43.0449 242.906 42.6829 244.48 43.5049C244.968 43.7699 253.036 43.9049 262.413 43.8119C278.897 43.6589 318.679 43.8539 332.961 44.1459C336.807 44.2299 341.252 44.2709 342.854 44.2459C344.456 44.2209 349.946 44.1899 355.06 44.1899C365.76 44.1759 378.901 43.9249 396.305 43.4099C403.005 43.2099 411.131 43.2569 414.336 43.5349C422.251 44.1899 443.946 44.9009 460.904 45.0539C468.582 45.1239 477.75 45.3049 481.262 45.4539C484.774 45.6029 493.956 45.7739 501.62 45.8159C509.284 45.8579 519.247 46.0249 523.733 46.2059C538.294 46.7769 540.333 46.6519 543.296 45.0359C546.041 43.5359 546.041 43.5359 548.006 45.5929C548.657 46.2673 549.143 47.0828 549.427 47.9759C548.827 48.3239 539.395 48.4919 521.796 48.4639C510.718 48.4359 510.396 48.4919 508.071 50.2059C505.187 52.3379 505.73 52.6999 512.098 52.8669C521.898 53.1039 527.551 53.6889 528.898 54.5949C529.978 55.1901 531.19 55.5063 532.423 55.5149C538.072 55.4245 543.711 55.0058 549.311 54.2609C550.411 53.9819 553.617 54.2329 556.543 54.8039C559.236 55.3932 562 55.5902 564.75 55.3889C566.648 55.1147 568.584 55.2817 570.407 55.8769C572.776 56.6849 573.417 56.6849 575.451 55.8629C577.541 55.0129 578.238 55.0689 582.209 56.4899C588.242 58.6499 599.822 58.6079 606.998 56.4059C612.558 54.6919 626.255 54.7479 631.466 56.4899C635.618 57.8689 639.018 56.9499 638.029 54.7059C637.583 53.6889 637.764 52.7129 638.447 52.4629C640.899 51.5709 639.478 50.9719 634.072 50.6099C625.14 49.9969 604.472 49.2719 599.279 49.3699C596.534 49.4259 593.9 49.0909 593.106 48.5899C592.033 47.9069 590.779 47.8649 587.435 48.4089C579.381 49.7189 573.376 49.9089 570.603 48.9659C568.524 48.3771 566.352 48.1881 564.203 48.4089C561.263 48.6879 560.427 48.5339 560.403 47.7089C560.347 46.2599 563.427 45.6749 565.74 46.6779C567.593 47.4859 570.812 46.0779 572.651 43.9469C574.081 43.8355 575.474 43.4423 576.751 42.7899C577.394 42.3559 578.138 42.0936 578.911 42.0278C579.684 41.962 580.461 42.0949 581.168 42.4139C584.233 43.4139 584.652 43.3619 584.582 41.8849C584.526 40.5329 586.561 39.6969 591.814 38.9309C594.782 38.4989 595.014 38.5829 595.172 40.9239C597.359 40.4639 600.843 41.5089 601.805 43.6409C602.279 43.6689 605.305 43.7519 608.493 43.8499C623.862 44.2499 630.829 44.7139 633.101 45.4659C635.79 46.3579 641.852 45.5219 645.501 43.7519C646.406 43.2861 647.434 43.1154 648.441 43.2639C649.932 43.7519 661.79 44.1839 673.62 44.1979C677.117 44.1236 680.615 44.2445 684.099 44.5599C686.399 45.2709 696.347 45.6599 696.319 45.0479C696.263 43.9049 699.649 43.6549 702.952 44.5599C706.016 45.167 709.137 45.4426 712.26 45.3819C718.307 45.2979 718.307 45.2979 716.677 43.2359C716.044 42.4829 715.62 41.5771 715.446 40.6089C715.273 39.6407 715.356 38.6439 715.688 37.7179C715.688 37.7179 717.588 38.5259 719.788 39.7519C724.47 42.3719 726.449 42.5809 726.365 40.4209C726.423 39.9165 726.645 39.4452 726.998 39.08C727.351 38.7149 727.814 38.4762 728.316 38.4009C730.894 37.7879 726.059 36.6449 723.416 37.2439C722.88 37.324 722.332 37.2802 721.815 37.1159C721.298 36.9516 720.826 36.6711 720.434 36.2959C718.734 34.6239 716.323 34.6519 713.411 36.3379C710.764 37.8709 708.841 38.0659 708.785 36.7839C708.743 35.6689 703.866 35.0139 700.007 35.5999C698.009 35.8608 695.977 35.6554 694.071 34.9999C692.488 34.4115 690.786 34.2155 689.111 34.4289C686.185 35.1539 674.689 35.5019 672.669 34.9449C669.96 34.487 667.222 34.217 664.476 34.1369C655.962 33.7369 656.311 33.7369 651.838 34.1789C649.786 34.4373 647.703 34.2905 645.707 33.7469C644.272 33.2179 641.443 33.0639 637.707 33.3009C634.604 33.5328 631.486 33.4534 628.399 33.0639C628.441 34.2069 623.048 35.7639 621.167 35.1539C617.618 34.7655 614.048 34.6025 610.479 34.6659C605.337 34.6379 592.755 34.5129 582.527 34.5129C559.382 34.5269 552.652 33.9839 555.119 32.2559C556.234 31.4759 556.136 31.2109 554.659 30.9179C552.416 30.4719 550.409 31.1269 550.465 32.2839C550.521 33.6359 542.676 33.9419 538.426 32.7579C535.18 31.8519 534.204 31.8379 530.289 32.6579C524.813 33.8149 521.329 33.1579 524.144 31.5149C524.602 31.2832 524.998 30.9465 525.301 30.5324C525.604 30.1182 525.804 29.6384 525.886 29.1319C525.816 27.4459 527.475 27.4039 530.54 29.0209C533.661 30.6789 535.264 30.5959 535.18 28.7839C535.346 27.6283 535.949 26.5806 536.866 25.8579C538.538 24.4649 538.482 24.4089 535.514 24.4369C532.978 24.4649 532.504 24.2369 532.964 23.1829C533.73 21.3719 532.17 21.0829 529.912 22.6119C528.682 23.3839 527.278 23.8344 525.829 23.9219C522.61 23.9639 520.785 25.5939 521.663 27.6559C522.75 30.2059 520.729 31.8219 518.444 30.2339C517.492 29.5059 516.85 28.4463 516.644 27.2659C516.308 27.2512 515.988 27.112 515.749 26.8754C515.509 26.6387 515.366 26.3214 515.347 25.9851C515.327 25.6488 515.434 25.3174 515.646 25.0551C515.857 24.7929 516.158 24.6186 516.491 24.5659C518.372 24.1899 516.338 20.8869 513.76 20.1769C512.534 19.8289 511.517 19.1459 511.503 18.6439C511.489 18.1419 510.583 17.4739 509.524 17.1669C508.298 16.8049 507.838 16.1779 508.284 15.4809C509.204 14.0459 511.6 14.4499 513.147 16.3029C514.289 17.6689 514.875 17.7379 521.48 17.3199C525.396 17.0689 528.963 17.0549 529.408 17.2919C530.342 17.7919 530.908 17.8209 538.493 17.8629C543.579 17.8909 544.025 18.0159 544.093 19.5209C544.177 21.5689 547.479 22.3359 549.458 20.7609C551.116 19.4369 555.408 19.8269 557.721 21.4999C558.989 22.4199 559.337 22.3919 561.427 21.2999C563.162 20.4302 565.128 20.1327 567.042 20.4499C568.924 20.7066 570.841 20.4862 572.616 19.8089C575.375 18.5969 583.122 18.3599 584.223 19.7809C582.623 19.0149 580.182 20.6729 580.252 22.4809C580.322 24.1669 580.322 24.1669 577.632 22.4669C574.942 20.7669 574.957 20.7529 570.749 22.8849C565.872 25.3509 563.657 28.8769 567.279 28.4309C568.505 28.2779 569.299 27.7059 569.104 27.1309C568.77 26.1559 570.052 25.8309 577.464 25.0829C579.22 24.9019 579.875 25.2499 580.209 26.5599C581.101 30.1129 588.918 29.4029 590.116 25.6539C590.855 23.3269 593.697 22.5049 596.303 23.8699C598.546 25.0539 596.93 26.6289 592.374 27.6459C589.099 28.3849 590.089 29.5459 593.963 29.4989C594.794 29.5222 595.622 29.3719 596.392 29.0577C597.162 28.7435 597.858 28.2722 598.436 27.6739C600.08 25.9039 600.122 25.9039 600.902 27.2979C601.654 28.6499 601.863 28.6639 605.012 27.7159C606.935 27.1309 608.342 26.9909 608.356 27.3679C608.37 27.7449 607.826 28.0369 606.698 28.7199C607.158 29.1099 610.474 29.2359 614.891 29.0129C619.977 28.7619 622.708 28.9129 623.572 29.4449C624.52 30.0449 626.024 30.0719 629.703 29.5449C632.65 29.1366 635.618 28.9028 638.593 28.8449C640.633 28.8807 642.661 28.5309 644.571 27.8139C646.605 26.7409 653.684 26.9639 653.74 28.0929C653.768 28.7479 660.512 30.5729 662.825 30.5449C663.94 30.5309 664.218 30.1129 663.675 29.2449C663.215 28.5059 663.41 27.9629 668.301 28.7019C668.245 27.2809 670.21 26.9459 671.812 28.1019C673.094 29.0359 674.376 29.2019 677.567 28.8679C680.911 28.5199 681.915 28.6869 683.001 29.7459C684.087 30.8049 685.091 30.9719 688.254 30.6519C690.414 30.4289 692.49 30.5129 692.866 30.8519C693.8 31.6459 698.913 31.5519 699.791 30.7269C700.641 29.9189 704.991 29.8069 705.016 30.5879C705.058 31.4379 713.544 31.7579 715.244 30.9879C716.233 30.5279 717.655 30.5419 719.661 31.0159C721.427 31.4198 723.229 31.644 725.04 31.6849C726.884 31.8237 728.677 32.3611 730.293 33.2599C731.882 34.1659 733.693 34.6669 735.086 35.4759C733.525 39.1129 741.486 44.0449 745.314 41.8159C746.486 41.2995 747.753 41.0338 749.034 41.0359C750.734 40.9436 752.41 40.5866 754 39.9779C755.122 39.4522 756.357 39.2118 757.595 39.2779C760.535 40.2389 765.872 38.7209 765.482 37.0349C765.092 35.3489 765.106 35.3489 780.795 35.2349C790.27 35.1649 803.508 35.5689 815.588 36.2349V36.7909C816.41 36.8049 817.232 36.8049 818.04 36.8189C829.354 36.8889 832.49 37.4739 829.44 38.9369C828.479 39.3969 822.403 39.8289 815.59 40.0939V45.8169C816.09 45.7329 816.579 45.6359 817.053 45.5519C822.71 44.3949 823.588 44.3679 827.504 45.2039C829.776 45.7061 832.108 45.8799 834.429 45.7199C835.892 45.4969 837.411 45.5949 837.815 45.9429C838.261 46.3329 844.322 46.3429 853.867 45.9709C872.167 45.2599 873.5 45.2319 880.244 45.3709C884.814 45.4709 900.616 44.9809 911.874 44.4929C915.051 44.6599 919.343 44.7859 924.554 44.8409C933.36 44.9249 941.679 45.3009 943.017 45.6769C944.647 46.1369 958.749 46.1769 987.077 45.8299C987.411 46.5819 987.063 47.5299 986.227 48.8299C985.335 50.2369 985.488 50.5019 987.227 50.4739C988.426 50.4705 989.613 50.7174 990.711 51.1989C992.118 51.9379 996.243 52.4809 1000.17 52.6759C1000.03 53.0449 999.926 53.4281 999.865 53.8189C999.322 56.7309 1000.69 57.6929 1003.27 56.1879C1005.07 55.1429 1005.34 55.1429 1007.71 56.2719C1009.97 57.3449 1020.82 58.8079 1026.05 58.7379C1026.6 58.7449 1027.14 58.5955 1027.61 58.3071C1028.08 58.0187 1028.46 57.603 1028.71 57.1079C1029.61 54.8789 1034.23 54.2929 1041 55.5329C1047.48 56.7169 1059.18 56.5919 1066.48 55.2539C1077.25 53.2889 1082.8 54.6969 1080.24 58.7539C1078.19 61.9869 1083.79 64.7319 1087.08 62.1119C1088.19 61.2199 1089.52 61.0529 1093.07 61.3179C1095.56 61.5885 1098.07 61.3804 1100.48 60.7049C1102.06 60.1759 1104.65 59.4229 1106.22 59.0329C1107.8 58.6429 1110.12 57.9739 1111.39 57.5329C1114.63 56.8933 1117.93 56.5715 1121.23 56.5719C1130.19 56.3719 1140.28 54.9139 1144.6 53.1999C1145.29 52.9319 1145.99 52.7222 1146.72 52.5729L1148.56 52.6149C1152.4 52.6989 1156.85 52.7399 1158.45 52.7149C1160.05 52.6899 1165.54 52.6589 1170.65 52.6589C1181.35 52.6449 1194.5 52.3939 1211.9 51.8789C1218.6 51.6789 1226.73 51.7259 1229.93 52.0039C1237.85 52.6589 1259.54 53.3699 1276.5 53.5229C1284.18 53.5929 1293.34 53.7739 1296.86 53.9229C1300.37 54.0719 1309.55 54.2429 1317.21 54.2849C1324.88 54.3269 1334.84 54.4939 1339.33 54.6749C1353.89 55.2459 1355.93 55.1209 1358.89 53.5049C1361.64 52.0049 1361.64 52.0049 1363.6 54.0619C1364.25 54.7363 1364.74 55.5518 1365.02 56.4449C1364.42 56.7929 1354.99 56.9609 1337.39 56.9329C1326.31 56.9049 1325.99 56.9609 1323.67 58.6749C1320.78 60.8069 1321.32 61.1689 1327.69 61.3359C1337.49 61.5729 1343.15 62.1579 1344.49 63.0639C1345.57 63.6591 1346.78 63.9753 1348.02 63.9839C1353.67 63.8935 1359.3 63.4748 1364.91 62.7299C1366.01 62.4509 1369.21 62.7019 1372.14 63.2729C1374.83 63.8622 1377.59 64.0592 1380.34 63.8579C1382.24 63.5837 1384.18 63.7507 1386 64.3459C1388.37 65.1539 1389.01 65.1539 1391.05 64.3319C1393.14 63.4819 1393.83 63.5379 1397.8 64.9589C1403.84 67.1189 1415.42 67.0769 1422.59 64.8749C1428.15 63.1609 1441.85 63.2169 1447.06 64.9589C1451.21 66.3379 1454.61 65.4189 1453.62 63.1749C1453.18 62.1579 1453.36 61.1819 1454.04 60.9319C1456.49 60.0399 1455.07 59.4409 1449.67 59.0789C1440.73 58.4659 1420.07 57.7409 1414.87 57.8389C1412.13 57.8949 1409.49 57.5599 1408.7 57.0589C1407.63 56.3759 1406.37 56.3339 1403.03 56.8779C1394.98 58.1879 1388.97 58.3779 1386.2 57.4349C1384.12 56.8461 1381.95 56.6571 1379.8 56.8779C1376.86 57.1569 1376.02 57.0029 1376 56.1779C1375.94 54.7289 1379.02 54.1439 1381.33 55.1469C1383.19 55.9549 1386.41 54.5469 1388.25 52.4159C1389.67 52.3044 1391.07 51.9112 1392.35 51.2589C1392.99 50.8249 1393.73 50.5626 1394.5 50.4968C1395.28 50.431 1396.05 50.5639 1396.76 50.8829C1399.83 51.8829 1400.25 51.8309 1400.18 50.3539C1400.12 49.0019 1402.16 48.1659 1407.41 47.3999C1410.38 46.9679 1410.61 47.0519 1410.77 49.3929C1412.95 48.9329 1416.44 49.9779 1417.4 52.1099C1417.87 52.1379 1420.9 52.2209 1424.09 52.3189C1439.46 52.7189 1446.42 53.1829 1448.7 53.9349C1451.38 54.8269 1457.45 53.9909 1461.1 52.2209C1462 51.7551 1463.03 51.5844 1464.04 51.7329C1465.53 52.2209 1477.38 52.6529 1489.21 52.6669C1492.71 52.5897 1496.21 52.7079 1499.7 53.0209C1502 53.7319 1511.95 54.1209 1511.92 53.5089C1511.86 52.3659 1515.25 52.1159 1518.55 53.0209C1521.62 53.628 1524.74 53.9036 1527.86 53.8429C1533.91 53.7589 1533.91 53.7589 1532.28 51.6969C1531.65 50.9439 1531.22 50.0381 1531.05 49.0699C1530.87 48.1017 1530.96 47.1049 1531.29 46.1789C1531.29 46.1789 1533.19 46.9869 1535.39 48.2129C1540.07 50.8329 1542.05 51.0419 1541.97 48.8819C1542.02 48.3775 1542.25 47.9062 1542.6 47.541C1542.95 47.1759 1543.41 46.9372 1543.92 46.8619C1546.5 46.2489 1541.66 45.1059 1539.02 45.7049C1538.48 45.785 1537.93 45.7412 1537.42 45.5769C1536.9 45.4126 1536.43 45.1321 1536.04 44.7569C1534.34 43.0849 1531.92 43.1129 1529.01 44.7989C1526.36 46.3319 1524.44 46.5269 1524.39 45.2449C1524.34 44.1299 1519.47 43.4749 1515.61 44.0609C1513.61 44.3218 1511.58 44.1164 1509.67 43.4609C1508.09 42.8723 1506.39 42.6764 1504.71 42.8899C1501.79 43.6149 1490.29 43.9629 1488.27 43.4059C1485.56 42.948 1482.82 42.678 1480.08 42.5979C1471.56 42.1979 1471.91 42.1979 1467.44 42.6399C1465.39 42.8983 1463.3 42.7516 1461.31 42.2079C1459.87 41.6789 1457.04 41.5249 1453.31 41.7619C1450.2 41.9939 1447.09 41.9145 1444 41.5249C1444.06 42.6679 1438.65 44.2249 1436.77 43.6149C1433.22 43.2265 1429.65 43.0635 1426.08 43.1269C1420.94 43.0989 1408.36 42.9739 1398.13 42.9739C1374.98 42.9879 1368.25 42.4449 1370.72 40.7169C1371.84 39.9369 1371.74 39.6719 1370.26 39.3789C1368.02 38.9329 1366.01 39.5879 1366.07 40.7449C1366.12 42.0969 1358.28 42.4029 1354.03 41.2189C1350.78 40.3129 1349.81 40.2989 1345.89 41.1189C1340.41 42.2759 1336.93 41.6189 1339.74 39.9759C1340.2 39.7442 1340.6 39.4075 1340.9 38.9934C1341.2 38.5792 1341.4 38.0994 1341.49 37.5929C1341.42 35.9069 1343.08 35.8649 1346.14 37.4819C1349.26 39.1399 1350.86 39.0569 1350.78 37.2449C1350.95 36.0893 1351.55 35.0416 1352.47 34.3189C1354.14 32.9259 1354.08 32.8699 1351.11 32.8979C1348.58 32.9259 1348.1 32.6979 1348.56 31.6439C1349.33 29.8329 1347.77 29.5439 1345.51 31.0729C1344.28 31.845 1342.88 32.2954 1341.43 32.3829C1338.21 32.4249 1336.39 34.0549 1337.26 36.1169C1338.35 38.6669 1336.33 40.2829 1334.04 38.6949C1333.09 37.9669 1332.45 36.9073 1332.24 35.7269C1331.91 35.7122 1331.59 35.573 1331.35 35.3364C1331.11 35.0997 1330.97 34.7824 1330.95 34.4461C1330.93 34.1098 1331.03 33.7784 1331.25 33.5162C1331.46 33.2539 1331.76 33.0796 1332.09 33.0269C1333.97 32.6509 1331.94 29.3479 1329.36 28.6379C1328.13 28.2899 1327.12 27.6069 1327.1 27.1049C1327.09 26.6029 1326.18 25.9349 1325.12 25.6279C1323.9 25.2659 1323.44 24.6389 1323.88 23.9419C1324.8 22.5069 1327.2 22.9109 1328.75 24.7639C1329.89 26.1299 1330.48 26.1989 1337.08 25.7809C1341 25.5299 1344.56 25.5159 1345.01 25.7529C1345.94 26.2529 1346.51 26.2819 1354.09 26.3239C1359.18 26.3519 1359.63 26.4769 1359.69 27.9819C1359.78 30.0299 1363.08 30.7969 1365.06 29.2219C1366.72 27.8979 1371.01 28.2879 1373.32 29.9609C1374.59 30.8809 1374.94 30.8529 1377.03 29.7609C1378.76 28.8912 1380.73 28.5937 1382.64 28.9109C1384.52 29.1676 1386.44 28.9472 1388.22 28.2699C1390.98 27.0579 1398.72 26.8209 1399.82 28.2419C1398.22 27.4759 1395.78 29.1339 1395.85 30.9419C1395.92 32.6279 1395.92 32.6279 1393.23 30.9279C1390.54 29.2279 1390.56 29.2139 1386.35 31.3459C1381.47 33.8119 1379.26 37.3379 1382.88 36.8919C1384.11 36.7389 1384.9 36.1669 1384.7 35.5919C1384.37 34.6169 1385.65 34.2919 1393.06 33.5439C1394.82 33.3629 1395.48 33.7109 1395.81 35.0209C1396.7 38.5739 1404.52 37.8639 1405.72 34.1149C1406.46 31.7879 1409.3 30.9659 1411.9 32.3309C1414.15 33.5149 1412.53 35.0899 1407.97 36.1069C1404.7 36.8459 1405.69 38.0069 1409.56 37.9599C1410.39 37.9832 1411.22 37.8329 1411.99 37.5187C1412.76 37.2045 1413.46 36.7332 1414.04 36.1349C1415.68 34.3649 1415.72 34.3649 1416.5 35.7589C1417.25 37.1109 1417.46 37.1249 1420.61 36.1769C1422.54 35.5919 1423.94 35.4519 1423.96 35.8289C1423.97 36.2059 1423.43 36.4979 1422.3 37.1809C1422.76 37.5709 1426.08 37.6969 1430.49 37.4739C1435.58 37.2229 1438.31 37.3739 1439.17 37.9059C1440.12 38.5059 1441.63 38.5329 1445.3 38.0059C1448.25 37.5976 1451.22 37.3638 1454.19 37.3059C1456.23 37.3417 1458.26 36.9919 1460.17 36.2749C1462.21 35.2019 1469.29 35.4249 1469.34 36.5539C1469.37 37.2089 1476.11 39.0339 1478.43 39.0059C1479.54 38.9919 1479.81 38.5739 1479.28 37.7059C1478.82 36.9669 1479.01 36.4239 1483.9 37.1629C1483.85 35.7419 1485.81 35.4069 1487.41 36.5629C1488.7 37.4969 1489.98 37.6629 1493.17 37.3289C1496.51 36.9809 1497.52 37.1479 1498.6 38.2069C1499.69 39.2659 1500.69 39.4329 1503.86 39.1129C1506.02 38.8899 1508.09 38.9739 1508.47 39.3129C1509.4 40.1069 1514.51 40.0129 1515.39 39.1879C1516.24 38.3799 1520.59 38.2679 1520.62 39.0489C1520.66 39.8989 1529.15 40.2189 1530.85 39.4489C1531.83 38.9889 1533.26 39.0029 1535.26 39.4769C1537.03 39.8808 1538.83 40.105 1540.64 40.1459C1542.49 40.2847 1544.28 40.8221 1545.89 41.7209C1547.48 42.6269 1549.29 43.1279 1550.69 43.9369C1549.13 47.5739 1557.09 52.5059 1560.92 50.2769C1562.09 49.7605 1563.35 49.4948 1564.64 49.4969C1566.33 49.3993 1568.01 49.0373 1569.6 48.4239C1570.72 47.8982 1571.95 47.6578 1573.19 47.7239C1576.13 48.6849 1581.47 47.1669 1581.08 45.4809C1580.69 43.7949 1580.7 43.7949 1596.39 43.6809C1610.69 43.5699 1633.57 44.5449 1648.1 45.8689C1651.24 46.1619 1656.53 46.3569 1659.86 46.3149C1668.65 46.2039 1681.31 48.5999 1685.82 51.2339C1688.38 52.7249 1689.37 52.6969 1690.07 51.0809C1690.68 49.6319 1699.28 49.0469 1700.81 50.3559C1701.81 50.7969 1702.91 50.909 1703.98 50.6759C1705.94 50.5338 1707.92 50.7269 1709.83 51.2469C1711.94 51.7805 1714.12 51.978 1716.29 51.8319C1718.1 51.6531 1719.93 51.809 1721.69 52.2919C1723.22 52.8079 1729.98 53.1699 1740.15 53.2669C1748.95 53.3509 1757.27 53.7269 1758.61 54.1029C1760.27 54.5629 1774.84 54.6029 1804.22 54.2279C1856 53.5869 1851.05 53.7679 1853.4 52.1799C1857.1 49.6719 1869.96 51.4549 1870.1 54.4929C1870.15 55.8719 1868.94 56.1649 1860.33 56.9309C1857.41 57.1714 1854.51 57.628 1851.66 58.2969C1850.24 58.752 1848.74 58.9455 1847.25 58.8679C1845.96 58.8144 1844.68 59.1131 1843.55 59.7319C1842.26 60.4636 1840.74 60.6966 1839.29 60.3869C1835.06 59.9769 1830.8 59.8046 1826.55 59.8709C1815.91 59.8569 1815.91 59.8569 1815.46 62.2259C1814.92 65.1379 1816.28 66.0999 1818.86 64.5949C1820.66 63.5499 1820.94 63.5499 1823.31 64.6789C1825.56 65.7519 1836.42 67.2149 1841.64 67.1449C1842.19 67.1518 1842.74 67.0024 1843.21 66.714C1843.68 66.4255 1844.06 66.0099 1844.3 65.5149C1845.21 63.2859 1849.82 62.6999 1856.59 63.9399C1863.07 65.1239 1874.78 64.9989 1882.08 63.6609C1892.85 61.6959 1898.4 63.1039 1895.83 67.1609C1893.78 70.3939 1899.38 73.1389 1902.67 70.5189C1903.79 69.6269 1905.11 69.4599 1908.67 69.7249C1911.15 69.9956 1913.67 69.7876 1916.08 69.1119C1917.65 68.5829 1920.24 67.8299 1921.82 67.4399C1923.39 67.0499 1925.72 66.3809 1926.99 65.9399C1930.23 65.3003 1933.52 64.9785 1936.83 64.9789C1945.79 64.7789 1955.87 63.3209 1960.19 61.6069C1962.99 60.6804 1965.92 60.2605 1968.86 60.3669C1973.04 60.2632 1977.21 59.8813 1981.35 59.2239C1985.15 58.5969 1990.35 57.7749 1992.87 57.3989C1995.03 57.1081 1997.15 56.58 1999.19 55.8239C2001.05 55.1125 2002.99 54.6443 2004.96 54.4309C2007.2 54.1538 2009.4 53.6717 2011.55 52.9909C2013.11 52.4428 2014.74 52.1192 2016.39 52.0299C2017.44 52.0712 2018.49 51.8203 2019.41 51.3049C2021.58 50.2812 2023.85 49.4873 2026.18 48.9359C2031.53 47.4449 2041.72 41.9969 2048.64 36.9359C2050.72 35.8251 2052.97 35.0891 2055.3 34.7619C2060.75 33.7359 2069.07 29.7089 2069 27.9909C2068.94 26.7789 2065.57 26.3049 2054.38 25.9709C2036.31 25.4279 2022.24 24.4939 2017.07 23.5189C2009.57 22.0979 1979.17 21.0389 1975.87 22.0699C1974.22 22.5859 1971.4 22.5579 1965.64 21.9859C1961.27 21.5539 1952.47 21.2199 1946.12 21.2749C1926.37 21.4139 1903.94 20.5359 1899.61 19.4639C1895.76 18.5029 1895.45 18.5299 1891.9 19.9929C1888.95 21.2189 1887.83 21.3719 1886.3 20.7869C1881.21 18.8499 1879.17 18.6129 1877.05 19.7279C1874.8 20.6631 1872.47 21.3726 1870.08 21.8459C1865.27 22.8629 1865.09 22.8459 1862.13 21.2749C1859.95 20.1179 1858.74 19.8679 1857.86 20.3689C1855.44 21.7759 1837.23 21.5119 1836.47 20.0489C1835.54 18.2489 1833.47 18.4879 1829.95 20.7739C1828.66 21.6986 1827.21 22.3745 1825.67 22.7669C1824.49 22.9851 1823.38 23.4819 1822.43 24.2159C1820.64 25.4979 1819.43 25.6509 1810.86 25.6649C1807.31 25.7531 1803.75 25.6416 1800.22 25.3309C1799.04 25.2329 1797.86 25.4443 1796.79 25.9439C1794.77 26.7659 1793.62 26.7939 1788.94 26.1109C1785.93 25.6789 1777.95 25.0519 1771.23 24.7319C1764.52 24.4119 1755.85 23.7979 1751.99 23.3659C1748.02 22.9199 1733.67 22.5719 1718.88 22.5299C1704.53 22.5019 1691.92 22.2229 1690.88 21.9299C1688.93 21.5689 1686.96 21.4193 1684.98 21.4839C1681.96 21.4858 1678.95 21.2904 1675.95 20.8989C1673.18 20.5229 1666.78 20.1739 1661.74 20.0909C1656.7 20.0079 1650.84 19.6909 1648.71 19.3659C1646.58 19.0409 1637.65 18.6829 1628.84 18.5719C1620.04 18.4609 1611.4 18.0839 1609.63 17.7219C1606.05 17.2339 1602.45 16.9963 1598.84 17.0109C1594.69 16.9829 1585.77 16.6489 1579.04 16.2859C1572.31 15.9229 1565.23 15.6169 1563.32 15.6309C1561.41 15.6449 1512.87 14.3309 1498.15 14.1399C1483.44 13.9489 1465.1 13.5549 1457.42 13.2759C1433.82 12.4119 1432.12 12.3699 1421.34 12.2589C1415.58 12.2029 1404.41 11.8969 1396.49 11.5899C1385.92 11.1899 1381.09 11.2419 1378.25 11.7989C1376.29 12.2797 1374.25 12.3478 1372.26 11.9989C1367.16 11.0136 1361.94 10.8536 1356.79 11.5249C1353.65 11.9972 1350.45 11.9972 1347.3 11.5249C1343.86 11.1489 1338.69 10.7859 1335.82 10.7029C1329.58 10.5359 1267.64 9.49093 1252.37 9.29593C1246.46 9.21193 1241.13 8.98893 1240.51 8.79593C1239.9 8.60293 1226.15 8.44793 1209.96 8.46193C1193.76 8.47593 1145.36 8.29493 1119.47 8.46193C1093.58 8.62893 1071.6 8.69893 1070.64 8.61493C1069.68 8.53093 1065.07 8.76793 1060.4 9.13093C1052.44 9.74393 1051.79 9.91093 1050.23 11.8059C1049.58 12.5324 1048.82 13.1367 1047.96 13.5899C1047.57 13.4089 1047.12 13.1719 1046.59 12.8899C1044.42 11.7329 1043.21 11.4829 1042.33 11.9839C1039.9 13.3909 1021.69 13.1269 1020.94 11.6639C1020 9.86393 1017.94 10.1029 1014.42 12.3889C1013.13 13.3136 1011.68 13.9895 1010.14 14.3819C1008.96 14.6002 1007.84 15.0969 1006.89 15.8309C1005.11 17.1129 1003.89 17.2659 995.328 17.2799C991.776 17.3682 988.222 17.2566 984.682 16.9459C983.505 16.8479 982.324 17.0593 981.254 17.5589C979.233 18.3809 978.091 18.4089 973.409 17.7259C970.399 17.2939 962.415 16.6669 955.699 16.3469C948.983 16.0269 940.316 15.4129 936.456 14.9809C932.485 14.5349 918.133 14.1869 903.349 14.1449C888.997 14.1169 876.387 13.8379 875.342 13.5449C873.399 13.1839 871.423 13.0343 869.448 13.0989C866.429 13.1008 863.413 12.9054 860.419 12.5139C857.646 12.1379 851.25 11.7889 846.206 11.7059C841.162 11.6229 835.306 11.3059 833.178 10.9809C831.05 10.6559 822.114 10.2979 813.308 10.1869C804.502 10.0759 795.863 9.69893 794.093 9.33693C790.519 8.84887 786.915 8.61129 783.308 8.62593C779.156 8.59793 770.238 8.26393 763.508 7.90093C756.778 7.53793 749.699 7.23193 747.79 7.24593C745.881 7.25993 697.335 5.94593 682.62 5.75493C667.905 5.56393 649.568 5.16993 641.891 4.89093C618.291 4.02693 616.591 3.98493 605.802 3.87393C600.047 3.81793 588.872 3.51193 580.958 3.20493C570.382 2.80493 565.558 2.85693 562.718 3.41393C560.756 3.8947 558.716 3.96281 556.726 3.61393C551.629 2.62862 546.407 2.46858 541.259 3.13993C538.114 3.61222 534.915 3.61222 531.77 3.13993C528.328 2.76393 523.159 2.40093 520.288 2.31793C514.046 2.15093 452.109 1.10593 436.837 0.910927C430.929 0.826927 425.592 0.603927 424.979 0.410927C424.366 0.217927 410.613 0.0629272 394.422 0.0769272C378.231 0.0909272 329.822 -0.0900728 303.934 0.0769272C278.046 0.243927 256.07 0.313927 255.109 0.229927C254.148 0.145927 249.535 0.382926 244.868 0.745926C236.912 1.35893 236.257 1.52593 234.696 3.42093C232.076 6.59793 224.078 8.59093 214.115 8.56293C210.268 8.51722 206.421 8.67545 202.591 9.03693C196.07 9.97093 144.723 10.5839 142.298 9.74793C141.535 9.43894 140.715 9.29769 139.892 9.33375C139.07 9.36981 138.265 9.58234 137.532 9.95693C135.72 10.6569 132.697 10.8769 126.97 10.7649C122.553 10.6809 117.996 10.9039 116.84 11.2649C116.174 11.5064 115.464 11.6039 114.757 11.551C114.05 11.4981 113.363 11.2959 112.74 10.9579C110.998 10.1219 110.065 10.1219 105.564 10.9439C94.751 12.9089 83.423 14.2189 76.957 14.2599C73.264 14.2739 66.088 14.6499 60.989 15.0679C55.89 15.4859 44.989 16.0569 36.772 16.3359C25.039 16.7259 21.3719 17.0609 19.7439 17.9109C17.6819 18.9979 12.638 19.0539 2.96704 18.0919C2.15904 18.0079 1.21099 17.9529 0.166992 17.9109V28.3429C0.988992 28.3569 1.8109 28.3569 2.6189 28.3709C13.7669 28.4689 16.9001 29.0539 13.8511 30.5309ZM669.909 38.1669C670.314 38.1114 670.725 38.2114 671.059 38.4466C671.393 38.6819 671.625 39.0351 671.709 39.4349C671.737 40.1459 670.984 40.7349 670.023 40.7449C669.062 40.7549 668.253 40.2019 668.223 39.4769C668.193 38.7519 668.933 38.1809 669.908 38.1669H669.909ZM627.409 40.0199C629.081 39.9919 629.597 40.2849 629.151 40.9949C628.44 42.1099 626.294 41.9949 625.514 40.8139C625.236 40.3819 626.086 40.0339 627.41 40.0199H627.409ZM575.658 41.2039C576.201 41.3429 575.435 41.8309 573.958 42.2769C571.199 43.1269 569.527 43.0429 569.485 42.0539C569.472 41.4409 574.1 40.7999 575.658 41.2049V41.2039ZM564.218 38.9039C565.305 38.8899 565.918 39.3219 565.718 39.9629C565.218 41.5929 562.518 41.8439 562.443 40.2699C562.407 39.4769 563.132 38.9189 564.218 38.9049V38.9039ZM562.63 44.6869C562.658 45.4529 560.43 46.2869 559.578 45.8439C558.726 45.4009 560.136 44.1169 562.63 44.6909V44.6869ZM554.66 48.0449C552.848 48.6159 552.319 48.5739 552.291 47.8919C552.221 46.3039 554.869 45.5229 556.276 46.7079C556.666 47.0429 555.942 47.6419 554.66 48.0459V48.0449ZM547.972 37.4269C549.992 35.6269 553.824 35.3089 554.953 36.8419C555.845 38.0419 552.319 42.2759 550.424 42.2899C547.707 42.3329 546.09 39.1139 547.971 37.4279L547.972 37.4269ZM517.763 38.5269C520.787 39.1819 522.515 39.2379 524.131 38.7359C525.233 38.3643 526.408 38.2591 527.559 38.4289C529.496 39.0559 526.389 40.7559 524.006 40.3659C523.061 40.1488 522.069 40.2721 521.206 40.7139C520.077 41.7869 517.36 41.5499 514.713 40.1569C511.227 38.3199 512.816 37.4559 517.762 38.5289L517.763 38.5269ZM1485.51 46.5269C1485.92 46.4714 1486.33 46.5714 1486.66 46.8066C1487 47.0419 1487.23 47.3951 1487.31 47.7949C1487.34 48.5059 1486.59 49.0949 1485.63 49.1049C1484.67 49.1149 1483.86 48.5619 1483.83 47.8369C1483.8 47.1119 1484.54 46.5409 1485.51 46.5269H1485.51ZM1443.01 48.3799C1444.68 48.3519 1445.2 48.6449 1444.75 49.3549C1444.04 50.4699 1441.9 50.3549 1441.12 49.1739C1440.85 48.7429 1441.69 48.3909 1443.01 48.3809V48.3799ZM1391.28 49.5639C1391.82 49.7029 1391.05 50.1909 1389.58 50.6369C1386.82 51.4869 1385.14 51.4029 1385.1 50.4139C1385.07 49.8019 1389.7 49.1609 1391.28 49.5649V49.5639ZM1379.82 47.2639C1380.91 47.2499 1381.52 47.6819 1381.32 48.3229C1380.82 49.9529 1378.12 50.2039 1378.05 48.6299C1378.01 47.8369 1378.73 47.2799 1379.82 47.2659V47.2639ZM1378.23 53.0469C1378.26 53.8129 1376.03 54.6469 1375.18 54.2039C1374.33 53.7609 1375.74 52.4769 1378.23 53.0479V53.0469ZM1370.28 56.4049C1368.47 56.9759 1367.94 56.9339 1367.91 56.2519C1367.84 54.6639 1370.5 53.8829 1371.89 55.0679C1372.27 55.4029 1371.54 56.0029 1370.28 56.4069L1370.28 56.4049ZM1363.58 45.7869C1365.6 43.9869 1369.43 43.6689 1370.56 45.2019C1371.45 46.4019 1367.92 50.6359 1366.03 50.6499C1363.31 50.6909 1361.69 47.4749 1363.57 45.7909L1363.58 45.7869ZM1333.38 46.8869C1336.4 47.5419 1338.13 47.5979 1339.75 47.0959C1340.85 46.7243 1342.02 46.6191 1343.17 46.7889C1345.11 47.4159 1342 49.1159 1339.62 48.7259C1338.67 48.5088 1337.68 48.6321 1336.82 49.0739C1335.69 50.1469 1332.97 49.9099 1330.33 48.5169C1326.83 46.6809 1328.43 45.8169 1333.38 46.8909L1333.38 46.8869ZM1561.17 43.3909C1561.77 43.1104 1562.44 43.0281 1563.09 43.1559C1563.74 43.2838 1564.33 43.6151 1564.78 44.1019C1565.06 44.5199 1564.21 44.8679 1562.86 44.8959C1560.45 44.9109 1559.7 44.2559 1561.17 43.3909ZM1557.77 46.6909C1558.83 46.0779 1560.52 46.7749 1560.56 47.8609C1560.59 48.3769 1559.81 48.7949 1558.86 48.8089C1557.1 48.8259 1556.42 47.4749 1557.77 46.6909ZM1475.79 25.1109C1477.35 24.0239 1480.5 24.3589 1480.55 25.6269C1480.59 26.7269 1477.05 27.4939 1475.56 26.6999C1474.8 26.3089 1474.87 25.7659 1475.79 25.1109ZM1468.41 27.4109C1469.47 26.4219 1472.44 26.5749 1473.25 27.6759C1473.97 28.6509 1471.98 30.5879 1470.24 30.6019C1468.94 30.6149 1467.56 28.2179 1468.41 27.4099V27.4109ZM1463.09 29.7379C1462.53 30.374 1461.87 30.9109 1461.13 31.3259C1459.83 32.0779 1458.74 32.3709 1458.73 31.9669C1458.7 31.2139 1462.37 29.3469 1463.09 29.7369V29.7379ZM1446.47 29.1249C1447.25 28.3595 1448.26 27.8703 1449.34 27.732C1450.43 27.5937 1451.53 27.8139 1452.47 28.3589C1454.43 29.3899 1451.15 33.0409 1448.7 32.5529C1447.76 32.3604 1446.81 32.2486 1445.86 32.2189C1444.22 32.2309 1444.52 30.7399 1446.47 29.1239V29.1249ZM1433.83 30.2399C1434.89 29.6269 1436.58 30.3239 1436.63 31.4099C1436.66 31.9259 1435.88 32.3439 1434.93 32.3579C1433.16 32.3699 1432.46 31.0189 1433.83 30.2379V30.2399ZM1428.76 23.3709C1429.06 23.158 1429.41 23.0105 1429.77 22.9379C1430.14 22.8652 1430.51 22.8689 1430.87 22.9488C1431.24 23.0287 1431.58 23.183 1431.88 23.402C1432.18 23.621 1432.43 23.8998 1432.62 24.2209C1432.86 24.8339 1432.3 25.2939 1431.28 25.3079C1429.12 25.3339 1427.78 24.3029 1428.76 23.3689V23.3709ZM1419.99 23.0779C1422.47 23.5659 1423.53 24.1929 1423.57 25.2239C1423.66 27.1049 1422.2 27.1049 1418.29 25.1819C1414.34 23.2439 1415.23 22.1429 1419.99 23.0759V23.0779ZM1369.45 22.8689C1370.81 22.2139 1371.85 22.1859 1374.23 22.7579C1376.7 23.3429 1377.76 23.2869 1379.71 22.4929C1382.87 21.2109 1383.15 21.2109 1385.48 22.5629C1387.64 23.8169 1386.33 25.2379 1382.94 25.3079C1381.33 25.5036 1379.76 25.9553 1378.29 26.6459C1374.53 28.3599 1373.7 28.3179 1373.62 26.3809C1373.56 25.2109 1372.92 24.7809 1371.29 24.8059C1368.24 24.8319 1367.34 23.8849 1369.45 22.8669V22.8689ZM1301.28 49.2309C1300.92 49.1536 1300.61 48.9488 1300.4 48.656C1300.19 48.3632 1300.1 48.0031 1300.14 47.645C1300.18 47.2869 1300.35 46.9562 1300.62 46.7165C1300.89 46.4769 1301.23 46.3452 1301.6 46.3469C1302.38 46.3175 1303.16 46.4453 1303.9 46.7229C1305.02 47.3079 1302.57 49.6489 1301.28 49.2309ZM1309.68 41.5949C1307.41 42.0207 1305.2 42.6888 1303.08 43.5879C1301.27 44.5359 1300.84 44.5629 1299.88 43.7549C1298.2 42.3479 1298.45 41.3549 1300.68 40.6199C1302.58 39.9929 1302.56 39.9089 1300.43 39.0729C1295.9 37.3029 1300.11 35.9939 1304.96 37.6659C1306.61 38.3359 1308.19 39.1764 1309.67 40.1739C1311.3 39.7549 1312.99 39.6196 1314.67 39.7739C1314.39 40.2849 1312.14 41.1069 1309.68 41.5909L1309.68 41.5949ZM1322.66 46.7089C1319.04 46.7509 1318.58 46.9459 1318.94 48.2089C1319.22 49.1569 1318.76 49.6579 1317.62 49.6719C1317.11 49.6727 1316.62 49.5007 1316.22 49.1841C1315.82 48.8676 1315.54 48.4254 1315.43 47.9299C1315.19 46.9549 1315.54 46.1599 1317.42 45.2409C1317.38 44.3909 1321.52 42.3149 1323.43 42.2169C1323.92 42.1889 1324.86 42.9169 1325.53 43.8049C1327.42 46.3459 1327.11 46.6529 1322.66 46.7079L1322.66 46.7089ZM1319.35 36.9829C1322.51 35.4919 1323.86 35.4219 1324.81 36.7179C1325.63 37.8469 1322.31 40.2709 1319.92 40.2989C1316.96 40.3409 1316.62 38.2779 1319.35 36.9829H1319.35ZM1299.94 28.9429C1300.39 28.9194 1300.83 28.7865 1301.21 28.5559C1301.6 28.3253 1301.93 28.0037 1302.17 27.6189C1302.89 26.2529 1305.52 25.8489 1306.79 26.9189C1307.91 27.8669 1311.57 27.6299 1313.17 26.5189C1315.04 25.2089 1320.08 25.1529 1320.14 26.4489C1320.17 26.9919 1321.1 27.6189 1322.23 27.8279C1326.44 28.6359 1329.13 32.3979 1325.06 32.7609C1325.02 31.8549 1324.25 31.7609 1320.25 32.1609C1315.63 32.6349 1315.5 32.6069 1316.14 31.0459C1317.01 28.9459 1315.35 28.4819 1312.89 30.1399C1310.51 31.7559 1308.28 31.4919 1307.67 29.5269C1307.22 28.0919 1307.13 28.1059 1303.34 30.2379C1300.68 31.7379 1299.07 32.2169 1298.24 31.7709C1296.69 30.9629 1297.89 28.9699 1299.94 28.9429H1299.94ZM1291.02 40.0909C1291.11 39.9421 1291.16 39.775 1291.18 39.6022C1291.19 39.4294 1291.17 39.2556 1291.1 39.0942C1291.04 38.9328 1290.94 38.788 1290.81 38.6709C1290.68 38.5538 1290.53 38.4677 1290.36 38.4189C1289.47 38.1259 1289.68 37.5969 1291.01 36.7469C1293.47 35.1719 1293.26 35.1309 1295.52 37.4989C1296.15 38.1465 1296.69 38.8669 1297.15 39.6449C1296.26 40.0619 1291.74 41.3159 1291.02 40.0909ZM1293.3 25.8069C1294.29 25.7349 1295.29 25.9122 1296.2 26.3229C1297.19 27.1729 1294.04 29.2769 1292.52 28.7749C1290.21 28.0369 1290.8 25.8349 1293.3 25.8069ZM1288.24 28.6769C1289.86 29.0669 1291.18 29.7499 1291.21 30.1959C1291.25 31.2129 1288.67 31.2689 1286.81 30.2799C1284.14 28.8589 1285 27.8839 1288.25 28.6779L1288.24 28.6769ZM843.09 37.8459H844.29C845.725 37.8319 847.258 37.8879 848.832 37.9849C847.916 38.3512 846.935 38.5277 845.949 38.5038C844.963 38.4799 843.992 38.2561 843.095 37.8459H843.09ZM991.744 50.5399C990.744 49.6479 992.998 47.1119 994.823 47.0979C996.648 48.2549 992.287 51.0279 991.744 50.5399ZM1227.13 39.3099C1223.48 38.8499 1222.12 37.4099 1224.05 36.0489C1225.85 34.7809 1227.59 34.7669 1226.78 36.0209C1225.99 37.2469 1229.82 38.0969 1231.02 36.9689C1234.28 38.1809 1230.59 39.7409 1227.13 39.3099ZM1265.98 41.2739C1264.35 40.7449 1264.67 39.0859 1266.4 39.0579C1267.19 39.034 1267.98 39.1665 1268.73 39.4479C1269.81 40.0199 1267.28 41.7059 1265.98 41.2739ZM1268.46 35.6999C1271.3 34.6409 1273.94 35.0729 1274.76 36.7169C1275.78 38.7509 1275.04 39.1969 1271.42 38.7509C1268.11 38.3339 1266.31 36.4909 1268.46 35.7009V35.6999ZM1262.3 26.6289C1264.15 26.1829 1266.63 26.0719 1266.65 26.4199C1266.68 26.9489 1263.1 28.7609 1262.01 28.7749C1260.41 28.8029 1260.63 27.0339 1262.3 26.6299L1262.3 26.6289ZM1258.96 35.2819C1259.27 35.3076 1259.57 35.4534 1259.78 35.6893C1259.99 35.9252 1260.11 36.2335 1260.1 36.5509C1260.16 37.9029 1258.48 38.3069 1257.23 37.2339C1256.34 36.4909 1257.4 35.2969 1258.96 35.2829V35.2819ZM1257.72 40.3679C1259.96 41.1199 1258.42 44.3249 1255.78 44.3529C1253.34 44.3809 1251.89 42.7919 1252.78 41.0779C1253.47 39.7969 1255.21 39.5459 1257.72 40.3689V40.3679ZM1254.3 36.9819C1254.35 38.0129 1251.29 39.0439 1250.1 38.4169C1249.72 38.2169 1249.7 37.5949 1250.04 37.0509C1250.88 35.7419 1254.25 35.6909 1254.3 36.9829L1254.3 36.9819ZM745.57 35.0309C746.169 34.7504 746.842 34.6681 747.491 34.7959C748.14 34.9238 748.731 35.2551 749.179 35.7419C749.458 36.1599 748.608 36.5079 747.256 36.5359C744.846 36.5509 744.079 35.8909 745.57 35.0319V35.0309ZM742.17 38.3309C743.229 37.7179 744.915 38.4149 744.957 39.5009C744.985 40.0169 744.205 40.4349 743.257 40.4489C741.5 40.4659 740.8 39.1139 742.171 38.3339L742.17 38.3309ZM660.182 16.7469C661.743 15.6599 664.892 15.9949 664.948 17.2629C664.99 18.3629 661.448 19.1299 659.96 18.3359C659.193 17.9489 659.263 17.4049 660.182 16.7499V16.7469ZM652.811 19.0469C653.87 18.0579 656.838 18.2109 657.646 19.3119C658.371 20.2869 656.378 22.2239 654.636 22.2379C653.327 22.2539 651.961 19.8579 652.811 19.0489V19.0469ZM647.488 21.3739C646.927 22.01 646.263 22.5469 645.523 22.9619C644.223 23.7139 643.14 24.0069 643.123 23.6029C643.1 22.8529 646.75 20.9909 647.489 21.3759L647.488 21.3739ZM630.865 20.7609C631.645 19.9955 632.655 19.5063 633.739 19.368C634.824 19.2297 635.923 19.4499 636.871 19.9949C638.822 21.0259 635.547 24.6769 633.095 24.1889C632.159 23.9964 631.207 23.8846 630.252 23.8549C628.622 23.8709 628.914 22.3799 630.865 20.7629V20.7609ZM618.213 21.8759C619.272 21.2629 620.958 21.9599 621.013 23.0459C621.027 23.5619 620.261 23.9799 619.313 23.9939C617.558 24.0099 616.861 22.6579 618.213 21.8779V21.8759ZM613.155 15.0069C613.459 14.794 613.805 14.6465 614.169 14.5739C614.533 14.5012 614.909 14.5049 615.271 14.5848C615.634 14.6647 615.977 14.819 616.277 15.038C616.577 15.257 616.828 15.5358 617.015 15.8569C617.252 16.4699 616.695 16.9299 615.677 16.9439C613.517 16.9729 612.166 15.9419 613.155 15.0089V15.0069ZM604.391 14.7139C606.871 15.2019 607.93 15.8289 607.972 16.8599C608.056 18.7409 606.607 18.7409 602.691 16.8179C598.719 14.8829 599.611 13.7819 604.391 14.7159V14.7139ZM553.838 14.5049C555.19 13.8499 556.238 13.8219 558.617 14.3939C561.083 14.9789 562.142 14.9229 564.093 14.1289C567.256 12.8469 567.535 12.8469 569.862 14.1989C572.022 15.4529 570.712 16.8739 567.326 16.9439C565.713 17.1397 564.142 17.5913 562.672 18.2819C558.91 19.9959 558.088 19.9539 558.004 18.0169C557.948 16.8469 557.304 16.4169 555.677 16.4419C552.639 16.4719 551.734 15.5239 553.838 14.5069V14.5049ZM485.672 40.8679C485.32 40.7906 485.009 40.5858 484.799 40.293C484.589 40.0002 484.495 39.6401 484.535 39.282C484.575 38.9239 484.746 38.5932 485.015 38.3535C485.284 38.1139 485.632 37.9822 485.992 37.9839C486.776 37.9545 487.558 38.0823 488.292 38.3599C489.406 38.9469 486.968 41.2909 485.672 40.8699V40.8679ZM494.06 33.2319C491.798 33.6576 489.588 34.3258 487.469 35.2249C485.657 36.1729 485.226 36.1999 484.269 35.3919C482.583 33.9849 482.834 32.9919 485.063 32.2569C486.963 31.6299 486.944 31.5459 484.812 30.7099C480.283 28.9399 484.491 27.6309 489.341 29.3029C490.994 29.9729 492.572 30.8134 494.051 31.8109C495.682 31.3919 497.374 31.2565 499.051 31.4109C498.784 31.9239 496.541 32.7469 494.06 33.2339V33.2319ZM507.06 38.3459C503.437 38.3879 502.977 38.5829 503.34 39.8459C503.619 40.7939 503.159 41.2949 502.016 41.3089C501.508 41.3099 501.014 41.1379 500.617 40.8214C500.219 40.5048 499.941 40.0624 499.828 39.5669C499.591 38.5919 499.939 37.7969 501.821 36.8779C501.779 36.0279 505.921 33.9519 507.827 33.8539C508.315 33.8259 509.262 34.5539 509.927 35.4419C511.8 37.9859 511.492 38.2909 507.061 38.3479L507.06 38.3459ZM503.744 28.6199C506.907 27.1289 508.259 27.0589 509.206 28.3549C510.028 29.4839 506.712 31.9079 504.315 31.9359C501.362 31.9799 501 29.9179 503.745 28.6219L503.744 28.6199ZM484.334 20.5799C484.785 20.5564 485.224 20.4235 485.612 20.1929C486 19.9622 486.327 19.6407 486.563 19.2559C487.288 17.8899 489.921 17.4859 491.189 18.5559C492.304 19.5039 495.968 19.2669 497.571 18.1559C499.438 16.8459 504.482 16.7899 504.538 18.0859C504.566 18.6289 505.499 19.2559 506.628 19.4649C510.836 20.2729 513.528 24.0349 509.457 24.3979C509.415 23.4919 508.649 23.3979 504.65 23.7979C500.024 24.2719 499.899 24.2439 500.54 22.6829C501.404 20.5829 499.746 20.1189 497.293 21.7769C494.91 23.3929 492.681 23.1289 492.068 21.1639C491.622 19.7289 491.525 19.7429 487.735 21.8749C485.074 23.3749 483.471 23.8539 482.635 23.4079C481.074 22.6029 482.272 20.6099 484.334 20.5819V20.5799ZM475.402 31.7269C475.491 31.5781 475.545 31.411 475.559 31.2382C475.573 31.0654 475.548 30.8916 475.485 30.7302C475.422 30.5688 475.322 30.424 475.194 30.3069C475.066 30.1899 474.913 30.1037 474.747 30.0549C473.855 29.7619 474.064 29.2329 475.388 28.3829C477.854 26.8079 477.645 26.7669 479.903 29.1349C480.53 29.7825 481.077 30.503 481.533 31.2809C480.656 31.7019 476.127 32.9559 475.4 31.7289L475.402 31.7269ZM477.687 17.4449C478.682 17.3729 479.678 17.5502 480.587 17.9609C481.576 18.8109 478.427 20.9149 476.908 20.4129C474.595 19.6759 475.18 17.4749 477.688 17.4469L477.687 17.4449ZM472.643 20.3149C474.259 20.7049 475.583 21.3879 475.611 21.8339C475.653 22.8509 473.075 22.9069 471.211 21.9179C468.519 20.4989 469.4 19.5229 472.644 20.3169L472.643 20.3149ZM450.376 32.9149C448.746 32.3859 449.066 30.7269 450.794 30.6989C451.588 30.675 452.378 30.8075 453.121 31.0889C454.209 31.6599 451.673 33.3459 450.377 32.9139L450.376 32.9149ZM452.856 27.3409C455.699 26.2819 458.332 26.7139 459.156 28.3579C460.173 30.3919 459.435 30.8379 455.812 30.3919C452.5 29.9739 450.712 28.1339 452.858 27.3399L452.856 27.3409ZM446.697 18.2699C448.55 17.8239 451.03 17.7129 451.044 18.0609C451.072 18.5899 447.491 20.4019 446.404 20.4159C444.79 20.4429 445.027 18.6729 446.7 18.2689L446.697 18.2699ZM443.339 26.9229C443.655 26.9489 443.949 27.0946 444.162 27.3303C444.374 27.5659 444.488 27.8738 444.481 28.1909C444.537 29.5429 442.865 29.9469 441.611 28.8739C440.735 28.1339 441.78 26.9359 443.34 26.9219L443.339 26.9229ZM442.113 32.0089C444.356 32.7609 442.813 35.9659 440.176 35.9939C437.738 36.0219 436.288 34.4329 437.176 32.7189C437.865 31.4369 439.606 31.1859 442.114 32.0079L442.113 32.0089ZM434.436 28.6929C435.272 27.3929 438.644 27.3409 438.7 28.6229C438.742 29.6539 435.69 30.6849 434.492 30.0579C434.116 29.8479 434.088 29.2349 434.437 28.6909L434.436 28.6929ZM410.818 17.9079C411.961 16.1379 415.542 17.1279 415.625 19.2319C415.681 20.7229 415.179 21.1549 413.396 21.1829C410.986 21.2089 409.718 19.6069 410.818 17.9069V17.9079ZM408.435 27.6899C410.235 26.4219 411.974 26.4079 411.166 27.6619C410.372 28.8879 414.204 29.7379 415.402 28.6099C418.662 29.8219 414.97 31.3969 411.514 30.9509C407.864 30.4909 406.5 29.0399 408.436 27.6909L408.435 27.6899ZM396.312 18.6469C397.329 18.7469 398.193 19.3859 398.221 20.0959C398.291 21.5869 394.403 22.2959 392.94 21.0569C391.687 19.9829 393.875 18.4219 396.313 18.6449L396.312 18.6469ZM356.934 17.7269C358.355 17.7129 359.177 18.0339 358.913 18.5069C358.23 19.7329 354.607 19.9559 354.566 18.7719C354.539 18.1719 355.514 17.7399 356.935 17.7259L356.934 17.7269ZM324.189 12.9339C326.889 11.7219 330.989 11.2059 331.031 12.0559C331.087 13.5329 326.084 15.4559 323.831 14.8289C321.473 14.1719 321.473 14.1449 324.19 12.9319L324.189 12.9339ZM309.53 12.7949C312.33 11.5949 316.33 11.7639 316.845 13.1289C317.528 14.8709 311.759 16.2079 309.293 14.8849C307.372 13.8379 307.386 13.7269 309.532 12.7909L309.53 12.7949ZM258.322 13.2829C259.228 12.4189 260.147 12.3769 262.238 14.3139C260.428 15.1759 257.209 14.3259 258.324 13.2809L258.322 13.2829ZM179.222 38.7409C181.047 39.8839 176.686 42.6559 176.143 42.1829C175.138 41.2909 177.395 38.7659 179.22 38.7379L179.222 38.7409ZM150.56 16.3349C151.466 15.8059 153.305 16.3629 151.633 17.8119C149.833 17.8369 149.29 17.0849 150.558 16.3319L150.56 16.3349ZM102.153 16.5159C104.759 17.8539 102.613 18.6479 101.038 18.1319C99.726 17.7119 100.521 16.5409 102.151 16.5129L102.153 16.5159ZM33.514 29.0159C34.392 29.7679 29.614 30.9669 27.244 29.3359C28.746 28.2739 32.425 28.0909 33.512 29.0119L33.514 29.0159Z" fill="white"/>
</g>
<defs>
<clipPath id="clip0">
<rect width="2069" height="71.582" fill="white"/>
</clipPath>
</defs>
</svg>
