<svg width="377" height="13" viewBox="0 0 377 13" fill="none" xmlns="http://www.w3.org/2000/svg">
<g clip-path="url(#clip0)">
<path d="M376.35 4.20885C376.013 4.23741 375.689 4.3551 375.413 4.54985C375.225 4.71196 374.98 4.79349 374.732 4.77685C374.282 4.84261 373.843 4.96665 373.426 5.14585C372.205 5.65685 369.253 5.76985 369.253 5.31585C369.281 4.86185 365.932 4.77685 365.762 5.23085C365.677 5.43085 365.279 5.48585 364.74 5.40085C364.059 5.28685 363.86 5.34385 363.86 5.71285C363.86 6.11285 363.69 6.13885 363.008 5.96785C362.469 5.82585 362.156 5.88285 362.156 6.05285C361.446 6.33685 361.333 5.96785 361.645 5.42885C362.071 4.66285 361.503 4.00985 360.964 4.66285C360.645 4.97283 360.217 5.1461 359.772 5.14585C358.523 5.20285 358.466 5.14585 358.807 4.57785C359.148 3.97785 360.507 3.69785 363.377 3.64085C364.399 3.61285 366.045 3.55585 367.067 3.52685C368.768 3.4128 370.474 3.40345 372.176 3.49885C373.51 3.52685 375.128 3.55585 375.776 3.55585C377.031 3.58385 377.485 4.09485 376.35 4.20885ZM357.304 4.60885C358.099 5.26185 357.049 5.71585 355.09 5.57385C354.354 5.47383 353.606 5.49308 352.876 5.63085C352.793 5.68678 352.698 5.72128 352.599 5.73123C352.5 5.74118 352.4 5.72627 352.308 5.68785C351.758 5.62566 351.202 5.65437 350.662 5.77285C349.867 5.88685 348.505 6.02785 347.625 6.05685C346.904 6.05787 346.187 6.16295 345.496 6.36885C344.63 6.52259 343.743 6.50322 342.885 6.31185C341.295 6.08485 340.671 6.11185 340.245 6.36885C339.845 6.62385 339.365 6.65285 338.372 6.45385C337.781 6.29267 337.164 6.2445 336.555 6.31185C335.272 6.43832 333.983 6.48575 332.695 6.45385C331.233 6.43091 329.771 6.52589 328.324 6.73785C327.054 6.90957 325.77 6.94778 324.492 6.85185C322.022 6.70985 321.653 6.76685 321.54 7.19285C320.632 7.13585 317.992 7.19285 317.68 7.61885C317.027 8.44185 316.09 8.47085 315.807 7.67585C315.552 6.96585 315.552 6.96585 314.359 7.39185C313.394 7.73285 313.053 7.73285 312.627 7.44885C312.227 7.16485 311.804 7.16485 310.927 7.36385C310.409 7.50374 309.869 7.54245 309.337 7.47785C308.713 7.22285 304.881 7.98885 304.512 8.44285C304.143 8.92585 303.093 8.98185 302.837 8.52785C302.581 8.07385 301.673 8.15885 301.137 8.66985C300.737 9.03885 300.342 9.06985 298.781 8.83985C296.595 8.52785 296.709 8.52785 292.707 8.63985C291.472 8.65047 290.239 8.74536 289.017 8.92385C288.416 9.02532 287.8 8.96669 287.229 8.75385C286.207 8.41285 285.98 8.41285 285.356 8.86785C284.561 9.43585 283.625 9.52085 283.199 9.06785C282.944 8.78385 281.269 8.86785 277.55 9.35185C276.067 9.48496 274.575 9.47559 273.094 9.32385C272.894 9.29585 271.334 9.43785 269.603 9.63585C267.872 9.83385 265.771 10.0359 264.919 10.0619C264.067 10.0879 262.219 10.2319 260.832 10.3459C256.29 10.7999 250.869 10.6579 250.386 10.0619C249.786 9.29585 250.131 8.89785 251.323 8.92685C251.923 8.95485 252.515 8.84185 252.6 8.67185C252.714 8.50185 253.026 8.47185 253.31 8.55785C253.68 8.66045 254.075 8.61975 254.417 8.44385C254.92 8.24613 255.457 8.14766 255.998 8.15385C256.4 8.18848 256.803 8.10984 257.162 7.92685C257.471 7.74881 257.831 7.67846 258.184 7.72685C259.064 7.75485 259.064 7.75485 258.384 7.01685C257.703 6.30685 257.674 6.30685 255.205 6.56285C253.275 6.76285 252.594 6.73285 252.196 6.44885C251.543 5.99485 250.635 5.96585 250.351 6.36385C250.281 6.45032 250.184 6.51112 250.075 6.5368C249.967 6.56247 249.853 6.5516 249.751 6.50585C249.372 6.42554 248.978 6.45503 248.616 6.59085C248.105 6.76085 247.764 6.76085 247.509 6.53385C247.254 6.30685 246.601 6.33385 245.068 6.73385C243.705 7.07485 242.882 7.15985 242.712 6.96085C242.258 6.47785 241.86 6.61985 241.775 7.32985C241.718 7.95385 241.803 8.01085 242.655 7.89785C243.45 7.78385 243.677 7.89785 244.046 8.55085C244.557 9.37385 245.409 9.37385 246.061 8.55085C246.661 7.81285 248.502 8.40885 248.247 9.28885C248.077 9.91285 248.133 9.96985 248.871 10.0269C250.432 10.0839 248.871 10.5379 246.6 10.6799C244.67 10.7939 244.358 10.7369 244.045 10.3109C243.733 9.85685 243.562 9.82785 242.626 10.1109C241.831 10.3379 241.462 10.3379 241.178 10.0829C241.056 9.97192 240.902 9.90361 240.738 9.88827C240.574 9.87294 240.41 9.9114 240.27 9.99785C237.687 11.3319 237.602 11.3599 232.095 11.3319C229.171 11.3319 226.39 11.3599 225.907 11.4459C224.775 11.5571 223.638 11.6045 222.501 11.5879C221.412 11.5539 220.323 11.6686 219.265 11.9289C218.959 12.0871 218.615 12.1563 218.272 12.1289C216.93 12.0319 215.583 12.0319 214.241 12.1289C212.226 12.1859 204.193 12.4129 200.9 12.4979C198.624 12.5084 196.35 12.642 194.088 12.8979C193.605 13.0119 187.162 12.9549 179.754 12.6979C172.346 12.4709 162.865 12.1869 158.692 12.0979C154.037 11.9839 150.971 11.8139 150.773 11.6439C150.546 11.4439 149.666 11.4739 148.19 11.6719C147.368 11.8433 146.526 11.8912 145.69 11.8139C145.179 11.4729 128.659 11.1899 122.329 11.4139C118.729 11.5559 115.091 11.6139 114.239 11.5839C113.387 11.5539 110.89 11.5269 108.704 11.5269C106.518 11.5269 102.062 11.4419 98.7689 11.3569C86.9889 10.9879 84.5199 10.9569 80.6029 11.1299C68.4539 11.7299 62.3509 11.5559 61.3859 10.5909C61.1338 10.3466 60.8581 10.1278 60.5629 9.93785C60.4227 10.122 60.3257 10.3352 60.2789 10.5619C60.0789 11.7259 57.2419 11.5269 57.3269 10.3349C57.3839 9.53985 56.5039 9.53985 54.8579 10.3349C54.4581 10.5644 54.0117 10.7011 53.5519 10.7349C52.2744 10.5242 50.9854 10.3906 49.6919 10.3349C47.6769 10.1929 44.3839 9.93485 42.3689 9.73485C32.2207 9.04991 22.0402 8.98312 11.8839 9.53485C1.15392 10.0459 2.03392 10.2449 0.583924 6.72485C-0.202076 4.83285 -0.202076 4.83285 0.645924 4.09485C1.32655 3.60322 2.0847 3.22905 2.88892 2.98785C3.65492 2.76085 5.55692 2.22185 7.14692 1.76685C12.0859 0.347853 29.3979 0.149853 38.7389 1.45485C42.8059 2.02695 46.9336 2.01752 50.9979 1.42685C51.8499 1.31285 53.5809 1.17185 54.8299 1.11485C56.0789 1.05785 58.1789 0.914853 59.5139 0.830853C66.69 0.249842 73.8912 0.040229 81.0889 0.202853C84.7509 0.230853 88.1279 0.202853 88.6109 0.145853C91.8469 -0.223147 108.311 0.117853 124.632 0.883853C130.082 1.13885 137.178 1.30985 140.357 1.25285C150.065 1.08285 151.399 1.08285 164.626 1.33785C171.637 1.47985 178.478 1.47985 179.812 1.36585C181.146 1.25185 186.712 1.19585 192.159 1.28085C197.606 1.36585 203.172 1.33785 204.506 1.25285C205.84 1.13885 207.117 1.08285 207.345 1.08285C207.573 1.08285 211.66 1.11085 216.428 1.13985C224.546 1.16785 234.452 1.39485 240.953 1.70785C242.514 1.79285 244.16 1.84985 244.643 1.87785C247.595 2.01985 249.643 2.27785 249.894 2.55885C250.121 2.78585 250.462 2.75885 251.115 2.44485C251.512 2.22757 251.958 2.11601 252.41 2.12092C252.862 2.12582 253.306 2.24702 253.698 2.47285C253.84 2.61485 254.322 2.52985 254.833 2.30285C255.457 1.99085 255.826 1.96185 256.167 2.18885C256.292 2.27071 256.434 2.3212 256.582 2.336C256.731 2.3508 256.881 2.32948 257.019 2.27385C258.137 2.10329 259.281 2.261 260.312 2.72785C260.438 2.81195 260.586 2.85683 260.738 2.85683C260.89 2.85683 261.038 2.81195 261.164 2.72785C262.725 1.96185 263.179 1.96185 264.764 2.84185C265.899 3.46585 266.609 3.44185 266.637 2.75685C266.665 1.90485 268.766 2.27385 269.337 3.23985C269.649 3.80785 270.359 3.55185 270.189 2.92785C270.899 2.84285 271.551 2.89985 272.034 2.84285C272.634 2.72885 272.914 2.81485 272.914 3.04285C272.914 3.29785 273.255 3.35485 274.248 3.21285C275.048 3.11606 275.856 3.08763 276.661 3.12785C277.218 3.17827 277.779 3.1101 278.307 2.92785C278.733 2.70085 279.244 2.75785 280.322 3.09785C281.798 3.58085 282.222 3.52385 283.53 2.52985C283.93 2.21785 284.24 2.21785 284.949 2.44485C287.086 2.82501 289.267 2.88232 291.421 2.61485C291.529 2.55958 291.654 2.54352 291.773 2.5694C291.892 2.59528 291.998 2.6615 292.074 2.75685C292.216 2.98385 292.84 3.04085 294.061 2.95685C295.253 2.87152 295.906 2.92819 296.02 3.12685C296.162 3.35385 296.361 3.35385 296.786 3.15485C296.922 3.05342 297.089 3.00101 297.259 3.00609C297.429 3.01117 297.593 3.07345 297.723 3.18285C297.978 3.40985 298.518 3.40985 299.623 3.21085C302.019 2.9627 304.435 2.95332 306.833 3.18285C307.145 3.21085 308.224 3.15485 309.246 3.09785C310.268 3.04085 311.546 3.01285 312.085 3.04085C312.624 3.06885 313.785 3.12585 314.64 3.18285C316.002 3.26785 323.44 3.23985 327.612 3.12585C328.225 3.08357 328.84 3.15131 329.429 3.32585C329.572 3.39121 329.729 3.42268 329.886 3.41782C330.044 3.41297 330.198 3.37192 330.337 3.29785C330.478 3.19867 330.649 3.15277 330.821 3.16834C330.993 3.18391 331.153 3.25993 331.274 3.38285C331.558 3.63785 331.898 3.66685 332.693 3.41085C333.417 3.21621 334.178 3.20658 334.907 3.38285C335.912 3.56814 336.925 3.70165 337.944 3.78285C338.966 3.83985 340.981 4.00985 342.486 4.12385C344.473 4.26585 345.41 4.23785 346.086 3.92385C346.909 3.58285 347.25 3.58285 349.293 4.06585C350.139 4.31917 351.021 4.43432 351.904 4.40685C352.308 4.15185 356.906 4.26585 357.304 4.60285V4.60885ZM37.0639 5.25885C36.0989 5.23085 35.7869 5.62785 36.0709 6.45085C36.3829 7.35885 37.0639 7.47285 37.5189 6.65085C37.9439 5.93985 37.7169 5.25885 37.0639 5.25885ZM70.1609 6.70285C69.8489 6.50285 68.7129 7.07185 68.6849 7.41285C69.8769 7.67185 70.5869 6.96185 70.1609 6.70285ZM147.907 6.95785C147.652 6.50385 147.055 6.75785 147.027 7.35785C146.999 7.81185 147.254 7.86885 147.793 7.55785C147.842 7.52803 147.884 7.48838 147.916 7.44144C147.949 7.3945 147.971 7.34129 147.982 7.28521C147.993 7.22914 147.992 7.17142 147.979 7.11574C147.966 7.06007 147.942 7.00766 147.908 6.96185L147.907 6.95785ZM150.093 6.73085C149.855 6.72426 149.618 6.70523 149.383 6.67385C148.93 7.33085 149.582 7.35985 150.098 6.73485L150.093 6.73085ZM151.569 7.21385C151.488 7.30753 151.441 7.42582 151.436 7.54947C151.431 7.67312 151.468 7.79486 151.541 7.89485C152.251 7.24585 151.967 6.84885 151.569 7.21785V7.21385ZM163.746 7.89485C163.506 7.76302 163.248 7.66732 162.98 7.61085C162.519 7.51557 162.064 7.39235 161.618 7.24185C161.107 7.07185 160.994 7.15685 160.852 7.97985C160.767 8.49085 160.71 8.94485 160.71 8.94485C161.334 9.48785 163.718 8.69385 163.747 7.90285L163.746 7.89485ZM172.602 8.37785C172.488 7.72485 172.375 7.66785 171.722 7.80985C169.309 8.34885 168.316 8.32085 167.748 7.75285C166.698 6.64585 166.215 7.29885 167.01 8.80285C167.72 10.1649 168.401 10.4779 169.139 9.76785C169.673 9.4942 170.27 9.36688 170.87 9.39885C172.574 9.40285 172.745 9.28985 172.598 8.38085L172.602 8.37785ZM174.646 9.45685C174.816 9.03085 174.561 8.88885 174.305 8.88885C174.164 9.31785 174.419 9.43185 174.646 9.45985V9.45685ZM181.26 8.85685C181.402 8.45685 181.033 8.43085 180.096 8.74285C179.528 8.94285 179.358 8.88485 179.216 8.51585C178.592 8.71585 178.45 8.74285 178.166 8.48785C177.219 8.13951 176.185 8.09961 175.214 8.37385C175.129 8.45885 175.157 8.82785 175.328 9.13985C175.391 9.28948 175.49 9.42159 175.615 9.5249C175.74 9.62822 175.889 9.69968 176.048 9.73318C176.207 9.76667 176.371 9.76122 176.528 9.71729C176.684 9.67335 176.828 9.59223 176.946 9.48085C177.173 9.25385 177.429 9.28085 177.826 9.50885C178.705 10.0279 180.976 9.57385 181.26 8.86385V8.85685ZM183.16 8.45685C182.99 8.71185 183.16 8.85685 183.33 8.85685C183.73 8.86385 183.644 8.66485 183.162 8.46685L183.16 8.45685ZM187.844 8.28685C187.191 8.05985 186.709 8.25885 186.68 8.79785C186.68 9.19785 187.446 9.53585 188.014 9.36585C188.582 9.19585 188.47 8.52285 187.845 8.29585L187.844 8.28685ZM206.01 8.25885C206.038 7.43585 205.329 7.29385 204.449 7.91785C203.739 8.42885 203.172 8.42885 203.2 7.91785C203.2 7.60585 203 7.54885 202.292 7.71785C201.781 7.83185 200.873 8.00185 200.305 8.05885C199.141 8.22885 198.999 8.45885 199.652 9.27985C200.021 9.76285 200.252 9.79085 201.128 9.59185C201.866 9.42185 202.178 9.42185 202.263 9.64885C202.405 10.1599 203.313 10.0489 203.881 9.44885C204.244 9.11147 204.719 8.91961 205.215 8.90985C205.87 8.97685 206.012 8.86385 206.012 8.26785L206.01 8.25885ZM220.51 7.35085C219.498 7.15387 218.451 7.26248 217.501 7.66285C217.217 6.95285 216.593 6.78285 215.001 6.89685C213.979 6.98185 213.582 7.15185 213.468 7.52085C213.298 8.12085 212.247 8.20185 212.247 7.60585C212.275 7.12285 211.395 6.72585 211.14 7.09485C210.799 7.60585 209.409 7.74785 209.24 7.26485C209.098 6.89585 208.985 6.89585 208.388 7.37885C206.997 8.51385 208.956 9.81985 210.432 8.71285C210.584 8.6263 210.757 8.58315 210.932 8.58809C211.107 8.59302 211.278 8.64586 211.425 8.74085C212.001 9.00907 212.599 9.22754 213.213 9.39385C214.689 9.84785 215.001 9.81985 215.824 9.30885C216.045 9.13324 216.316 9.03146 216.599 9.01782C216.881 9.00419 217.161 9.07939 217.398 9.23285C218.492 9.54599 219.653 9.54599 220.747 9.23285C221.283 8.97685 221.084 7.52985 220.516 7.35985L220.51 7.35085ZM221.929 7.29385C222.582 7.49385 222.979 7.03885 222.553 6.58385C222.353 6.35685 222.127 6.41385 221.815 6.69785C221.453 7.07585 221.453 7.16085 221.936 7.30285L221.929 7.29385ZM240.322 7.43585C240.237 7.15185 239.584 7.00985 237.767 6.92485C236.85 6.92528 235.935 6.8206 235.042 6.61285C234.872 6.49885 234.616 6.72685 234.442 7.12385C234.101 7.94685 233.704 8.03185 233.449 7.35085C233.336 7.03885 233.08 6.92519 232.683 7.00985C231.95 7.06356 231.213 7.00625 230.497 6.83985C229.475 6.63985 228.797 6.63985 228.624 6.81185C228.305 7.02144 227.926 7.12115 227.545 7.09585C227.021 7.11495 226.509 7.25166 226.045 7.49585C225.421 7.89585 225.279 7.86485 224.654 7.43885C223.859 6.87085 223.348 7.03885 223.32 7.86485C223.32 8.26485 223.178 8.37585 222.894 8.26485C222.27 8.00985 222.355 8.57685 223.008 8.94585C223.568 9.17768 224.194 9.19793 224.768 9.00285C225.442 8.86922 226.125 8.79328 226.812 8.77585C227.265 8.78746 227.711 8.65858 228.089 8.40685C228.623 8.11404 229.216 7.94196 229.824 7.90274C230.432 7.86352 231.041 7.95811 231.609 8.17985C231.921 8.43485 232.009 8.63385 231.809 8.74785C231.27 9.05985 231.468 9.45785 232.121 9.45785C232.535 9.46657 232.946 9.5339 233.342 9.65785C233.541 9.7258 233.758 9.72651 233.958 9.65987C234.158 9.59323 234.33 9.46291 234.449 9.28885C234.666 9.08187 234.926 8.92603 235.211 8.83276C235.496 8.73949 235.798 8.71116 236.095 8.74985C236.975 8.77785 237.202 8.69285 237.202 8.23885C237.23 7.52885 237.855 7.33085 239.274 7.61485C240.216 7.81385 240.414 7.78485 240.329 7.44485L240.322 7.43585ZM265.102 6.24385C264.966 6.23454 264.829 6.25513 264.702 6.30419C264.574 6.35325 264.459 6.42958 264.364 6.52785C262.803 5.59085 259.311 6.86885 259.879 7.94685C260.305 8.76985 261.951 8.71285 263.228 7.86185C263.702 7.50341 264.242 7.243 264.818 7.09585C265.507 7.10285 265.791 6.28085 265.109 6.25185L265.102 6.24385ZM274.724 6.84385C274.752 6.07785 271.715 5.45285 270.724 6.02085C270.241 6.30485 270.979 6.87285 271.945 6.95785C272.456 7.01485 273.08 7.09985 273.307 7.15785C273.852 7.33085 274.732 7.13185 274.732 6.84885L274.724 6.84385ZM279.805 5.90685C279.71 5.81529 279.59 5.75453 279.46 5.73252C279.33 5.71052 279.196 5.72831 279.077 5.78356C278.957 5.83881 278.857 5.92894 278.789 6.04213C278.722 6.15532 278.69 6.28628 278.698 6.41785C278.687 6.48863 278.693 6.56086 278.715 6.62908C278.736 6.6973 278.773 6.75973 278.822 6.81165C278.872 6.86358 278.932 6.90363 278.999 6.92878C279.066 6.95394 279.138 6.96353 279.209 6.95685C279.339 6.98117 279.474 6.96452 279.594 6.90921C279.714 6.8539 279.814 6.76264 279.881 6.64801C279.947 6.53338 279.976 6.40102 279.964 6.26917C279.952 6.13733 279.899 6.01249 279.813 5.91185L279.805 5.90685ZM281.253 6.30685C281.281 5.79585 280.653 5.88085 280.458 6.39185C281.062 6.73485 281.26 6.53585 281.26 6.30885L281.253 6.30685ZM283.382 6.53385C283.437 6.43473 283.459 6.32021 283.444 6.20762C283.429 6.09504 283.377 5.99051 283.297 5.90985C282.928 5.50985 282.02 5.82485 282.162 6.30985C282.339 6.76285 283.134 6.93385 283.389 6.53585L283.382 6.53385ZM292.21 5.36985C292.154 5.36877 292.098 5.37904 292.046 5.40007C291.993 5.42109 291.946 5.45243 291.906 5.4922C291.867 5.53198 291.835 5.57938 291.814 5.63155C291.793 5.68373 291.783 5.73961 291.784 5.79585C292.16 6.22385 292.359 6.05385 292.217 5.37285L292.21 5.36985ZM295.19 4.94385C294.878 4.97185 294.59 5.14385 294.59 5.31285C294.562 5.65385 295.271 5.85185 295.555 5.59685C295.964 5.20285 295.798 4.88985 295.198 4.94685L295.19 4.94385ZM315.769 5.79585C316.053 5.36985 315.485 4.85885 314.946 5.02985C314.819 5.07268 314.707 5.15283 314.626 5.25985C314.545 5.36688 314.499 5.49581 314.492 5.62985C314.471 6.11085 315.493 6.25185 315.776 5.80285L315.769 5.79585Z" fill="#F8C801"/>
</g>
<defs>
<clipPath id="clip0">
<rect width="377" height="12.95" fill="white"/>
</clipPath>
</defs>
</svg>
