<svg width="384" height="400" viewBox="0 0 384 400" fill="none" xmlns="http://www.w3.org/2000/svg">
<path d="M85.0913 110.055C85.0913 151.029 108.26 186.681 142.169 204.62C61.8382 226.549 2.61084 300.156 2.61084 387.353C2.61084 392.6 6.86392 396.853 12.1108 396.853H371.889C377.136 396.853 381.389 392.6 381.389 387.353C381.389 300.156 322.162 226.549 241.831 204.62C275.741 186.681 298.909 151.029 298.909 110.055C298.909 51.1032 250.952 3.14648 192 3.14648C133.049 3.14648 85.0913 51.1032 85.0913 110.055ZM104.091 110.055C104.091 61.5844 143.53 22.1465 192 22.1465C240.471 22.1465 279.909 61.5843 279.909 110.055C279.909 158.526 240.471 197.963 192 197.963C143.53 197.963 104.091 158.526 104.091 110.055ZM362.128 377.853H21.8723C26.8178 288.304 101.239 216.963 192 216.963C282.762 216.963 357.182 288.304 362.128 377.853Z" fill="white" stroke="white" stroke-width="5"/>
</svg>
