<?xml version="1.0" encoding="iso-8859-1"?>
<!-- Generator: Adobe Illustrator 22.0.0, SVG Export Plug-In . SVG Version: 6.00 Build 0)  -->
<svg version="1.1" id="Capa_1" xmlns="http://www.w3.org/2000/svg" xmlns:xlink="http://www.w3.org/1999/xlink" x="0px" y="0px"
	 viewBox="0 0 512 512" style="enable-background:new 0 0 512 512;" xml:space="preserve">
<g>
	<g>
		<polygon style="fill:#FFE09F;" points="279.921,344.177 55.47,344.177 63.486,87.661 271.905,87.661 		"/>
		<rect x="111.837" y="39.565" style="fill:#FFE09F;" width="32.065" height="64.129"/>
		<rect x="111.837" y="39.565" style="fill:#F6D190;" width="32.065" height="24.048"/>
		<rect x="191.998" y="39.565" style="fill:#FFE09F;" width="32.065" height="64.129"/>
		<rect x="191.998" y="39.565" style="fill:#F6D190;" width="32.065" height="24.048"/>
		<rect x="111.837" y="79.645" style="fill:#F6D190;" width="32.065" height="24.048"/>
		<rect x="191.998" y="79.645" style="fill:#F6D190;" width="32.065" height="24.048"/>
		<path style="fill:#F6D190;" d="M87.546,87.661h-24.06L55.47,344.177h224.452l-0.751-24.048H96.822
			c-9.051,0-16.307-7.487-16.024-16.533l6.74-215.685L87.546,87.661z"/>
		<path style="fill:#B68E70;" d="M200.014,151.79L200.014,151.79c-8.854,0-16.032,7.178-16.032,16.032v72.145h16.032
			c8.854,0,16.032-7.178,16.032-16.032v-56.113C216.047,158.968,208.869,151.79,200.014,151.79z"/>
		<polygon style="fill:#FFE09F;" points="191.998,7.5 143.902,7.5 111.837,39.565 224.063,39.565 		"/>
		<circle style="fill:#DAD8DB;" cx="344.305" cy="392.274" r="112.226"/>
		<path style="fill:#FFFFFF;" d="M432.482,392.274c0,17.158-4.901,33.171-13.378,46.716C403.519,463.891,375.846,477,344.305,477
			c-48.699,0-84.638-36.027-84.638-84.726c0-31.535,13.014-59.203,37.906-74.789c13.549-8.484,29.568-13.388,46.732-13.388
			C393.004,304.097,432.482,343.575,432.482,392.274z"/>
		<circle style="fill:#6F6571;" cx="344.305" cy="392.274" r="16.032"/>
		<path style="fill:#ECEAEC;" d="M372.361,452.395c-48.7,0-88.177-39.478-88.177-88.177c0-17.158,4.913-33.184,13.391-46.73
			c-24.9,15.585-41.447,43.245-41.447,74.786c0,48.699,39.478,88.177,88.177,88.177c31.541,0,59.213-16.561,74.799-41.461
			C405.558,447.469,389.519,452.395,372.361,452.395z"/>
	</g>
	<g>
		<path d="M372.213,275.872c7.121-7.158,11.529-17.017,11.529-27.888c0-21.816-17.749-39.564-39.564-39.564
			s-39.564,17.749-39.564,39.564c0,10.87,4.408,20.729,11.529,27.888c-52.536,12.654-91.69,60.038-91.69,116.403
			C224.452,458.292,278.16,512,344.177,512s119.726-53.708,119.726-119.726C463.903,335.91,424.749,288.525,372.213,275.872z
			 M344.177,223.419c13.545,0,24.564,11.02,24.564,24.564c0,10.93-7.177,20.211-17.064,23.389V256c0-4.142-3.358-7.5-7.5-7.5
			s-7.5,3.358-7.5,7.5v15.373c-9.887-3.178-17.064-12.46-17.064-23.389C319.613,234.439,330.632,223.419,344.177,223.419z
			 M344.177,497c-57.746,0-104.726-46.979-104.726-104.726s46.979-104.726,104.726-104.726s104.726,46.98,104.726,104.726
			S401.923,497,344.177,497z"/>
		<path d="M408.6,327.852c-2.929-2.929-7.678-2.929-10.606,0l-43.352,43.353c-3.154-1.573-6.706-2.463-10.464-2.463
			c-12.976,0-23.532,10.557-23.532,23.533c0,3.757,0.89,7.309,2.463,10.463l-12.29,12.29c-2.929,2.929-2.929,7.678,0,10.606
			c1.464,1.464,3.384,2.197,5.303,2.197s3.839-0.732,5.303-2.197l12.29-12.29c3.154,1.573,6.706,2.463,10.463,2.463
			c12.976,0,23.532-10.557,23.532-23.532c0-3.757-0.89-7.309-2.463-10.463l43.353-43.353
			C411.529,335.53,411.529,330.781,408.6,327.852z M344.177,400.807c-4.705,0-8.532-3.828-8.532-8.532
			c0-4.705,3.828-8.533,8.532-8.533s8.532,3.828,8.532,8.533C352.71,396.979,348.882,400.807,344.177,400.807z"/>
		<path d="M344.177,327.629c4.142,0,7.5-3.358,7.5-7.5v-8.016c0-4.142-3.358-7.5-7.5-7.5s-7.5,3.358-7.5,7.5v8.016
			C336.677,324.271,340.035,327.629,344.177,327.629z"/>
		<path d="M344.177,456.919c-4.142,0-7.5,3.358-7.5,7.5v8.016c0,4.142,3.358,7.5,7.5,7.5s7.5-3.358,7.5-7.5v-8.016
			C351.677,460.277,348.319,456.919,344.177,456.919z"/>
		<path d="M424.339,384.774h-8.016c-4.142,0-7.5,3.358-7.5,7.5s3.358,7.5,7.5,7.5h8.016c4.142,0,7.5-3.358,7.5-7.5
			S428.481,384.774,424.339,384.774z"/>
		<path d="M272.032,384.774h-8.016c-4.142,0-7.5,3.358-7.5,7.5s3.358,7.5,7.5,7.5h8.016c4.142,0,7.5-3.358,7.5-7.5
			S276.174,384.774,272.032,384.774z"/>
		<path d="M119.726,144.291c-4.142,0-7.5,3.358-7.5,7.5v40.081c0,10.354,6.724,19.16,16.033,22.3v65.878c0,4.142,3.358,7.5,7.5,7.5
			s7.5-3.358,7.5-7.5v-65.878c9.308-3.139,16.032-11.946,16.032-22.3v-40.081c0-4.142-3.358-7.5-7.5-7.5s-7.5,3.358-7.5,7.5v40.081
			c0,4.705-3.828,8.532-8.533,8.532c-4.705,0-8.532-3.828-8.532-8.532v-40.081C127.226,147.648,123.868,144.291,119.726,144.291z"/>
		<path d="M199.887,144.291c-12.976,0-23.532,10.557-23.532,23.532v112.226c0,4.142,3.358,7.5,7.5,7.5s7.5-3.358,7.5-7.5v-32.581
			h8.532c12.976,0,23.532-10.557,23.532-23.532v-56.113C223.42,154.847,212.863,144.291,199.887,144.291z M208.42,223.936
			c0,4.705-3.828,8.532-8.532,8.532h-8.532v-64.645c0-4.705,3.828-8.532,8.532-8.532s8.532,3.828,8.532,8.532V223.936z"/>
		<path d="M207.901,336.677H63.335l7.547-241.516h8.763c4.142,0,7.5-3.358,7.5-7.5s-3.358-7.5-7.5-7.5H63.613
			c-4.051,0-7.37,3.217-7.496,7.266L48.1,343.943c-0.063,2.029,0.698,3.997,2.111,5.454c1.413,1.458,3.356,2.28,5.386,2.28h152.305
			c4.142,0,7.5-3.358,7.5-7.5S212.044,336.677,207.901,336.677z"/>
		<path d="M231.436,103.693v-8.532h33.328l5.284,169.087c0.126,4.061,3.458,7.266,7.492,7.266c0.079,0,0.159-0.001,0.239-0.003
			c4.14-0.13,7.391-3.591,7.262-7.731l-5.512-176.353c-0.126-4.049-3.445-7.266-7.496-7.266h-40.597V39.564
			c0-2.072-0.84-3.947-2.198-5.304L197.174,2.197C195.768,0.79,193.86,0,191.871,0h-48.097c-1.989,0-3.897,0.79-5.303,2.197
			L106.408,34.26c-1.358,1.357-2.198,3.233-2.198,5.304v64.129c0,4.142,3.358,7.5,7.5,7.5h32.065c4.142,0,7.5-3.358,7.5-7.5v-8.532
			h33.097v8.532c0,4.142,3.358,7.5,7.5,7.5h32.064C228.078,111.193,231.436,107.835,231.436,103.693z M146.881,15h41.884
			l17.064,17.064h-76.013L146.881,15z M119.21,96.193V47.064h17.065v49.129H119.21z M151.275,80.161V47.064h33.097v33.097H151.275z
			 M199.371,96.193V47.064h17.064v49.129H199.371z"/>
		<path d="M287.86,437.985l-5.668,5.668c-2.929,2.929-2.929,7.678,0,10.607c1.465,1.464,3.384,2.197,5.304,2.197
			c1.919,0,3.839-0.732,5.303-2.196l5.668-5.668c2.929-2.929,2.929-7.678,0-10.607C295.538,435.057,290.789,435.057,287.86,437.985z
			"/>
		<path d="M400.495,437.985c-2.929-2.929-7.678-2.929-10.606,0c-2.929,2.929-2.929,7.678,0,10.606l5.668,5.668
			c1.464,1.464,3.384,2.197,5.303,2.197s3.839-0.732,5.303-2.197c2.929-2.929,2.929-7.678,0-10.606L400.495,437.985z"/>
		<path d="M292.798,330.288c-2.93-2.929-7.678-2.928-10.607,0c-2.929,2.929-2.928,7.678,0,10.607l5.668,5.668
			c1.465,1.464,3.384,2.196,5.303,2.196s3.839-0.732,5.304-2.197c2.929-2.929,2.928-7.678,0-10.607L292.798,330.288z"/>
	</g>
</g>
<g>
</g>
<g>
</g>
<g>
</g>
<g>
</g>
<g>
</g>
<g>
</g>
<g>
</g>
<g>
</g>
<g>
</g>
<g>
</g>
<g>
</g>
<g>
</g>
<g>
</g>
<g>
</g>
<g>
</g>
</svg>
