<?xml version="1.0" encoding="iso-8859-1"?>
<!-- Generator: Adobe Illustrator 22.0.0, SVG Export Plug-In . SVG Version: 6.00 Build 0)  -->
<svg version="1.1" id="Capa_1" xmlns="http://www.w3.org/2000/svg" xmlns:xlink="http://www.w3.org/1999/xlink" x="0px" y="0px"
	 viewBox="0 0 512 512" style="enable-background:new 0 0 512 512;" xml:space="preserve">
<g>
	<path style="fill:#FFE09F;" d="M486.5,193.234l-70.183-56.147c-1.724-1.379,15.135-4.959,15.135-4.959
		c-1.317-2.404-2.032-5.128-2.032-7.938V49.548c0-9.122-7.395-16.516-16.516-16.516H99.097c-9.121,0-16.516,7.394-16.516,16.516
		v74.643c0,2.81-0.715,5.535-2.033,7.939l8.886,4.958L19.25,193.234l-17.217,4.958C0.715,200.597,0,203.321,0,206.132v8.578
		l9.409,13.623v234.119c0,4.56,3.697,8.258,8.258,8.258h486.075c4.56,0,8.258-3.698,8.258-8.258v-256.32
		c0-2.81-0.715-5.535-2.033-7.939L486.5,193.234z M313.806,99.097H198.194c-9.121,0-16.516-7.395-16.516-16.516
		c0-9.122,7.395-16.516,16.516-16.516h115.613c9.121,0,16.516,7.394,16.516,16.516C330.323,91.702,322.928,99.097,313.806,99.097z"
		/>
	<path style="fill:#FFF5D7;" d="M76.382,137.088L6.199,193.234c-1.712,1.37-3.13,3.086-4.163,4.959h507.931
		c-1.032-1.873-2.453-3.589-4.165-4.959l-70.183-56.147c-1.713-1.369-3.135-3.085-4.167-4.959H80.548
		C79.514,134.003,78.094,135.718,76.382,137.088z"/>
	<path style="fill:#F6D190;" d="M16.516,445.935v-214.71c0-9.122-7.395-16.516-16.516-16.516h0v256c0,4.561,3.697,8.258,8.258,8.258
		h41.29l9.12-4.968h147.666l8.377,4.968h289.031c4.561,0,8.258-3.697,8.258-8.258v-8.258H33.032
		C23.911,462.452,16.516,455.057,16.516,445.935z"/>
	<path style="fill:#966A5B;" d="M182.437,249.166l-18.035,5.411c-3.096,0.929-6.396,0.929-9.492,0l-18.035-5.411
		c-3.096-0.929-6.396-0.929-9.492,0l-18.035,5.411c-3.096,0.929-6.396,0.929-9.492,0l-18.035-5.411
		c-3.096-0.929-6.396-0.929-9.492,0l-16.896,5.069c-3.493,1.048-5.885,4.263-5.885,7.91v200.307L63,469.333h143l8.71-6.882V262.144
		c0-3.647-2.392-6.862-5.885-7.91l-16.896-5.069C188.833,248.237,185.533,248.237,182.437,249.166z"/>
	<path style="fill:#966A5B;" d="M462.452,437.677H355.097c-4.565,0-8.258-3.698-8.258-8.258s3.694-8.258,8.258-8.258h107.355
		c4.565,0,8.258,3.698,8.258,8.258S467.016,437.677,462.452,437.677z"/>
	<path style="fill:#966A5B;" d="M462.452,396.387H355.097c-4.565,0-8.258-3.698-8.258-8.258s3.694-8.258,8.258-8.258h107.355
		c4.565,0,8.258,3.698,8.258,8.258S467.016,396.387,462.452,396.387z"/>
	<path style="fill:#966A5B;" d="M412.903,355.097h-57.806c-4.565,0-8.258-3.698-8.258-8.258s3.694-8.258,8.258-8.258h57.806
		c4.565,0,8.258,3.698,8.258,8.258S417.468,355.097,412.903,355.097z"/>
	<path style="fill:#F4DBB3;" d="M115.613,297.29c-4.565,0-8.258,3.698-8.258,8.258v33.032c0,4.552-3.702,8.258-8.258,8.258
		c-4.556,0-8.258-3.706-8.258-8.258v-33.032c0-4.56-3.694-8.258-8.258-8.258c-4.565,0-8.258,3.698-8.258,8.258v41.29
		c0,8.063,3.895,15.187,9.888,19.688c4.155,3.12,6.628,7.977,6.628,13.173v57.978c0,4.56,3.694,8.258,8.258,8.258
		c4.565,0,8.258-3.698,8.258-8.258V379.7c0-5.196,2.473-10.053,6.628-13.173c5.994-4.501,9.888-11.625,9.888-19.688v-41.29
		C123.871,300.988,120.177,297.29,115.613,297.29z"/>
	<path style="fill:#F4DBB3;" d="M158.903,297.397c-10.746,1.075-18.516,10.916-18.516,21.715l0,56.63v61.935
		c0,4.56,3.697,8.258,8.258,8.258s8.258-3.698,8.258-8.258V403.57c0-3.912,2.814-7.03,6.586-8.068
		c10.486-2.884,18.188-12.487,18.188-23.889v-53.677C181.677,305.831,171.261,296.16,158.903,297.397z"/>
	<rect x="49.548" y="462.452" style="fill:#785353;" width="165.161" height="16.516"/>
</g>
<g>
</g>
<g>
</g>
<g>
</g>
<g>
</g>
<g>
</g>
<g>
</g>
<g>
</g>
<g>
</g>
<g>
</g>
<g>
</g>
<g>
</g>
<g>
</g>
<g>
</g>
<g>
</g>
<g>
</g>
</svg>
