<?xml version="1.0" encoding="UTF-8" standalone="no"?>
<!DOCTYPE svg PUBLIC "-//W3C//DTD SVG 1.1//EN" "http://www.w3.org/Graphics/SVG/1.1/DTD/svg11.dtd">
<svg width="100%" height="100%" viewBox="0 0 489 489" version="1.1" xmlns="http://www.w3.org/2000/svg" xmlns:xlink="http://www.w3.org/1999/xlink" xml:space="preserve" xmlns:serif="http://www.serif.com/" style="fill-rule:evenodd;clip-rule:evenodd;stroke-linejoin:round;stroke-miterlimit:2;">
    <g>
        <path d="M440.1,422.7L412.1,107.4C411.5,100.4 405.6,95.1 398.7,95.1L341.1,95.1C340.3,42.5 297.3,0 244.5,0C191.7,0 148.7,42.5 147.9,95.1L90.3,95.1C83.3,95.1 77.5,100.4 76.9,107.4L48.9,422.7C48.9,423.1 48.8,423.5 48.8,423.9C48.8,459.8 81.7,489 122.2,489L366.8,489C407.3,489 440.2,459.8 440.2,423.9C440.2,423.5 440.2,423.1 440.1,422.7ZM244.5,27C282.4,27 313.3,57.4 314.1,95.1L174.9,95.1C175.7,57.4 206.6,27 244.5,27ZM366.8,462L122.2,462C96.8,462 76.2,445.2 75.8,424.5L102.6,122.2L147.8,122.2L147.8,163.2C147.8,170.7 153.8,176.7 161.3,176.7C168.8,176.7 174.8,170.7 174.8,163.2L174.8,122.2L314.1,122.2L314.1,163.2C314.1,170.7 320.1,176.7 327.6,176.7C335.1,176.7 341.1,170.7 341.1,163.2L341.1,122.2L386.3,122.2L413.2,424.5C412.8,445.2 392.1,462 366.8,462Z" style="fill:rgb(255,170,0);fill-rule:nonzero;"/>
    </g>
</svg>
